<svg width="127" height="75" viewBox="0 0 127 75" fill="none" xmlns="http://www.w3.org/2000/svg">
<g clip-path="url(#clip0_1_2094)">
<path d="M0 21.6475V29.697H12.0562V61.3294H20.7698V29.697H32.8259V21.6475H0Z" fill="#0A0A0A"/>
<path d="M116.811 61.3294L107.926 47.7249L98.9847 61.3294H89.082L102.892 41.1477L89.65 21.6475H99.8368L108.157 34.5143L116.534 21.6475H126.436L113.194 41.0352L127.004 61.3294H116.811Z" fill="#0A0A0A"/>
<path d="M71.0291 27.9624L68.5199 22.0574L77.555 0H69.2283L44.8008 58.1663L36.3088 43.4082H27.4609L41.8484 68.4259H49.5446L53.7579 58.1287L55.9738 52.7176H72.5958L76.2192 61.6205H85.3292L71.0291 27.9624ZM59.129 45.0056L64.3066 32.3545L66.7566 38.3378L69.4843 45.0056H59.129Z" fill="#0A0A0A"/>
<path d="M66.1979 74.0396C65.9389 74.2397 65.658 74.4085 65.3584 74.5491C65.0588 74.6898 64.7373 74.8023 64.394 74.8805C64.0507 74.9587 63.6668 74.9993 63.2424 74.9993C62.5714 74.9993 61.9566 74.8742 61.3917 74.6273C60.8268 74.3803 60.3368 74.0427 59.9248 73.6145C59.5098 73.1862 59.1852 72.6798 58.9511 72.0983C58.717 71.5169 58.6016 70.8885 58.6016 70.2164C58.6016 69.5537 58.717 68.9316 58.9511 68.3471C59.1852 67.7656 59.5098 67.253 59.9248 66.8153C60.3399 66.3777 60.833 66.0338 61.4073 65.7806C61.9815 65.5274 62.6057 65.4023 63.2861 65.4023C63.7105 65.4023 64.0913 65.4367 64.4315 65.5086C64.7716 65.5805 65.0869 65.6774 65.3771 65.8056C65.6673 65.9338 65.9357 66.0869 66.1823 66.2683C66.4289 66.4496 66.666 66.6496 66.897 66.8716L66.1823 67.6406C65.7859 67.2686 65.3615 66.9654 64.9058 66.7278C64.4533 66.4902 63.9071 66.3714 63.2736 66.3714C62.7618 66.3714 62.2874 66.4683 61.8504 66.6621C61.4135 66.856 61.0359 67.1248 60.7144 67.4687C60.393 67.8125 60.1402 68.2158 59.9592 68.6816C59.7782 69.1442 59.6876 69.6475 59.6876 70.1852C59.6876 70.7229 59.7782 71.2262 59.9592 71.6951C60.1402 72.164 60.3899 72.5704 60.7144 72.9142C61.0359 73.2581 61.4166 73.5301 61.8504 73.7301C62.2874 73.9302 62.7618 74.0271 63.2736 74.0271C63.9071 74.0271 64.4564 73.9114 64.9152 73.677C65.374 73.4425 65.8234 73.1143 66.2634 72.6891L66.9501 73.3644C66.7066 73.6176 66.4569 73.8395 66.1979 74.0396Z" fill="#0A0A0A"/>
<path d="M77.8467 66.5215H72.1979V69.6882H77.2506V70.6416H72.1979V73.8865H77.9123V74.8399H71.1523V65.5649H77.8436V66.5215H77.8467Z" fill="#0A0A0A"/>
<path d="M89.2036 65.568H90.221V74.843H89.3878L83.4081 67.2373V74.843H82.3906V65.568H83.3706L89.2036 72.9986V65.568Z" fill="#0A0A0A"/>
<path d="M98.7165 74.8398H97.671V66.5339H94.5625V65.568H101.825V66.5339H98.7165V74.8398Z" fill="#0A0A0A"/>
<path d="M112.87 66.5215H107.221V69.6882H112.274V70.6416H107.221V73.8865H112.936V74.8399H106.176V65.5649H112.867V66.5215H112.87Z" fill="#0A0A0A"/>
<path d="M123.79 74.8399L121.106 71.2356H118.46V74.8399H117.414V65.5649H121.396C121.908 65.5649 122.37 65.6306 122.779 65.765C123.188 65.8963 123.54 66.0839 123.831 66.3277C124.121 66.5715 124.346 66.8622 124.505 67.203C124.664 67.5437 124.742 67.922 124.742 68.3377C124.742 68.7254 124.68 69.0724 124.558 69.3787C124.433 69.6851 124.261 69.9476 124.037 70.1727C123.812 70.3978 123.544 70.5854 123.238 70.7354C122.929 70.8855 122.595 70.9917 122.233 71.0543L125.076 74.8399H123.79ZM123.075 67.0185C122.66 66.6966 122.077 66.534 121.325 66.534H118.46V70.3103H121.312C121.655 70.3103 121.974 70.2665 122.267 70.179C122.557 70.0914 122.81 69.9633 123.022 69.8007C123.235 69.6382 123.4 69.435 123.519 69.1974C123.637 68.9567 123.696 68.6879 123.696 68.3878C123.7 67.7969 123.491 67.3437 123.075 67.0185Z" fill="#0A0A0A"/>
<path opacity="0.5" d="M64.0091 45.0056L60.8319 52.7144H55.9727L59.131 45.0056H64.0091Z" fill="#777777"/>
<path opacity="0.5" d="M71.0311 27.9625L66.7585 38.3378L64.3086 32.3546L68.5218 22.0574L71.0311 27.9625Z" fill="#777777"/>
</g>
<defs>
<clipPath id="clip0_1_2094">
<rect width="127" height="75" fill="white"/>
</clipPath>
</defs>
</svg>
