<svg width="46" height="50" viewBox="0 0 46 50" fill="none" xmlns="http://www.w3.org/2000/svg">
<g clip-path="url(#clip0_3_8596)">
<path d="M28.0823 41.138C30.1555 37.5257 29.6683 38.3739 30.4751 36.9706C29.275 34.8768 29.51 35.2857 24.4117 26.3958H24.411C20.7304 19.9786 21.7696 21.7908 19.5233 17.873C18.441 17.873 7.03906 17.873 4.57227 17.873C4.58331 17.8922 6.95573 22.0273 6.96309 22.0421C8.13977 22.0421 15.9217 22.0421 17.1271 22.0421C17.3483 22.4302 19.5236 26.2213 19.624 26.3968H19.6247C19.7154 26.5545 25.5318 36.6927 25.6895 36.9689C25.6888 36.9699 23.0031 41.6537 23.0025 41.655C22.6216 40.9901 22.2254 40.2989 21.8184 39.5899L21.8134 39.5932C21.8134 39.5932 20.4727 37.2549 18.6572 34.0923C18.6572 34.0896 17.9092 32.7874 17.9079 32.785H13.1259C13.1259 32.7853 23.0008 49.9999 23.0011 49.9999L25.3939 45.8275C25.3939 45.8275 25.3939 45.8275 25.3939 45.8271C25.3943 45.8265 28.0816 41.139 28.0823 41.138Z" fill="#0A0A0A"/>
<path d="M38.8225 14.0731L36.6435 17.872H23.8437C24.248 18.5736 29.4426 27.6225 32.6423 33.1959L35.0318 29.0281L31.0235 22.0444H39.0377C44.5867 12.37 40.5407 19.4208 46 9.90332H0L2.39652 14.0731H38.8225Z" fill="#0A0A0A"/>
<path d="M42.3923 19.3999C43.8618 28.6738 38.6535 37.6517 30.0098 40.9867L28.0049 44.4818C40.5233 41.5934 48.2526 28.5148 44.3956 15.9072L42.3923 19.3999Z" fill="#0A0A0A"/>
<path d="M36.6255 8.30448H40.3449C31.3549 -2.7823 14.6261 -2.75401 5.65918 8.30448H9.37895C16.9969 0.908127 29.0129 0.913516 36.6255 8.30448Z" fill="#0A0A0A"/>
<path d="M6.22498 32.7846C5.90671 32.2578 5.61288 31.7169 5.34515 31.1621C3.63068 27.6178 2.956 23.54 3.6116 19.4006L1.60831 15.9072C-2.25202 28.528 5.49475 41.5967 17.9991 44.4811L15.9941 40.986C11.8122 39.3726 8.43174 36.4373 6.22498 32.7846Z" fill="#0A0A0A"/>
</g>
<defs>
<clipPath id="clip0_3_8596">
<rect width="46" height="50" fill="white"/>
</clipPath>
</defs>
</svg>
