<svg width="102" height="75" viewBox="0 0 102 75" fill="none" xmlns="http://www.w3.org/2000/svg">
<g clip-path="url(#clip0_1_2083)">
<path fill-rule="evenodd" clip-rule="evenodd" d="M13.8797 38.9961C16.2296 38.9961 17.842 39.0591 18.862 39.1536C20.6863 39.2757 21.1531 40.0241 21.2747 40.9851C21.3061 41.1427 21.3061 41.2648 21.3375 41.6075C21.3689 41.9816 21.4316 42.1668 21.6788 42.1668C21.8632 42.1668 21.9573 41.9817 21.9887 41.5445C22.0201 40.7685 22.2045 37.8775 22.2045 37.4442C22.2045 36.6683 22.1731 36.4793 21.8946 36.4793C21.6788 36.4793 21.4316 36.5738 20.9334 36.6683C20.5019 36.7313 19.9448 36.7904 18.9836 36.7904H5.5235C4.34657 36.7904 2.64395 36.6998 2.08687 36.5738C1.37679 36.4202 1.25125 36.3256 1.03548 36.3256C0.847175 36.3256 0.756944 36.6368 0.694174 37.1016C0.478404 38.2832 0.137095 39.9611 0.0115564 41.2333C-0.0159052 41.6075 -0.0159052 41.8556 0.262634 41.8556C0.478404 41.8556 0.568635 41.6075 0.631405 41.3593C0.694174 41.1742 0.756944 40.9851 0.909944 40.6464C1.31402 39.5554 1.99272 39.1536 3.72672 39.0591C5.27635 38.9685 7.19474 38.9961 8.39913 38.9961V51.1786C8.39913 54.1917 8.34028 56.4289 8.21474 57.7326C8.12059 58.6346 7.90482 59.3199 7.22612 59.442C6.88481 59.505 6.5435 59.5365 6.23358 59.5681C5.86089 59.5681 5.61373 59.6626 5.61373 59.8792C5.61373 60.1273 5.83343 60.1904 6.32773 60.1904C7.34774 60.1904 10.3489 60.0958 10.8746 60.0958C11.3728 60.0958 14.374 60.1904 16.4768 60.1904C17.0339 60.1904 17.1908 60.0958 17.1908 59.9107C17.1908 59.6901 17.0652 59.5996 16.5709 59.5681C16.0138 59.505 15.6412 59.4735 15.241 59.4105C14.3112 59.2569 14.0955 58.6031 14.0327 57.7956C13.8797 56.4919 13.8797 53.6009 13.8797 51.1786V38.9961ZM76.5785 51.7658L76.0136 51.1435C74.7621 53.1208 73.189 55.5706 72.1062 57.1776C71.6982 57.7842 71.3608 58.2687 71.1333 58.568C70.9018 58.8555 70.6272 59.1431 70.2663 59.3479C70.1015 59.4463 69.9211 59.5212 69.717 59.5763L69.4934 59.6236C69.1521 59.6866 68.8461 59.6866 68.4499 59.7181C68.446 59.7181 68.442 59.7181 68.4381 59.7181C68.038 59.7496 67.9438 59.9032 67.9438 60.0608C67.9438 60.2459 68.1282 60.3404 68.5009 60.3404H68.9599C72.7221 60.3365 75.1937 60.2892 76.7002 60.2183C76.9277 60.2065 77.1356 60.1947 77.32 60.1829C77.6613 60.1514 77.8182 59.9978 77.8182 59.8717C77.8182 59.7181 77.6613 59.5921 77.4769 59.533C77.0415 59.4385 76.9826 59.2533 77.1356 58.9422C77.6182 58.0442 78.6186 56.4056 79.4973 54.9601L78.3635 53.7194L76.5785 51.7658ZM82.0552 41.1663C82.0552 41.509 81.6864 42.0368 81.4706 42.4701C81.3569 42.6591 81.247 42.8442 81.1372 43.0293C80.6782 43.7974 80.2309 44.5103 79.8347 45.1366L83.4479 48.516L83.9736 47.677L86.9159 43.0018C87.8143 41.572 88.2144 40.9182 89.6385 40.7016C89.9798 40.6701 90.1956 40.6385 90.3839 40.607C90.7841 40.544 90.8154 40.3904 90.8154 40.2644C90.8154 40.0792 90.6311 39.9847 90.227 39.9847C89.9955 39.9847 89.7366 40.0044 89.1874 40.028C89.0265 40.0359 88.8421 40.0399 88.6224 40.0477C87.9908 40.0635 87.0964 40.0792 85.7704 40.0792C85.6997 40.0792 85.586 40.0792 85.4447 40.0753C84.5581 40.0556 82.4632 39.9847 81.1293 39.9847C80.7253 39.9847 80.5095 40.1108 80.5095 40.2959C80.5095 40.4849 80.6625 40.5755 80.9724 40.607C81.1921 40.6385 81.4393 40.6701 81.655 40.7331C81.9336 40.7922 82.0552 40.9501 82.0552 41.1663ZM44.0365 30.4609L31.361 17.7349C30.0075 19.0977 30.0075 21.323 31.361 22.6819L39.1091 30.4609C40.4665 31.8197 42.683 31.8197 44.0365 30.4609ZM48.0106 1.01932L60.6861 13.7453C62.0396 12.3865 62.0396 10.1611 60.6861 8.7983L52.938 1.01932C51.5845 -0.339935 49.368 -0.339935 48.0106 1.01932ZM52.1887 19.4447L58.3401 13.2687L48.4892 3.37468L33.707 18.2158L43.5618 28.1059L49.623 22.0167L77.1317 51.0057L78.901 52.8687L84.2403 58.4971L85.7586 60.0962L93.3498 68.0918H102L93.8598 60.1435L93.2438 59.5409L88.3007 54.712L73.4048 40.1663L70.6743 37.4998L69.8544 36.7002L52.1887 19.4447ZM46.8925 53.7588C46.9827 53.7588 47.1083 53.8179 47.1397 53.9439L49.2111 58.8831C49.3052 59.1628 49.1836 59.3833 48.8423 59.4424C48.5637 59.5054 48.4068 59.6315 48.4068 59.8166C48.4068 60.0017 48.5951 60.0962 49.0894 60.0962C51.0706 60.1277 54.5975 60.1908 57.63 60.1908C58.2185 60.1908 58.4342 60.0962 58.4342 59.8796C58.4342 59.6905 58.2499 59.5684 57.8458 59.5684C57.5672 59.5369 57.1985 59.5369 56.8572 59.4424C55.7744 59.2888 55.0918 58.5444 54.0404 56.1181C51.9376 51.3956 46.7356 39.4967 45.9313 37.7558C45.4057 36.6372 45.1271 36.2 44.8172 36.2C44.4759 36.2 44.1385 36.6687 43.55 38.0039L35.2841 56.7719C34.6368 58.2647 34.0169 59.2258 32.9341 59.4424C32.6242 59.5054 32.3143 59.5369 31.9416 59.5684C31.5728 59.5684 31.3571 59.6315 31.3571 59.8796C31.3571 60.0647 31.5414 60.1908 31.973 60.1908C33.5226 60.1908 35.5626 60.0962 35.9039 60.0962C37.5438 60.0962 38.5991 60.1908 39.9918 60.1908C40.3919 60.1908 40.6391 60.1277 40.6391 59.8796C40.6391 59.7221 40.5489 59.5684 40.082 59.5684C39.8349 59.5369 39.3406 59.5054 38.9992 59.4424C38.348 59.3833 38.0695 59.1037 38.0695 58.5129C38.0695 58.1387 38.2578 57.3312 38.5677 56.5238L39.5249 53.9755C39.5877 53.8179 39.6505 53.7588 39.8035 53.7588H46.8925ZM40.7019 51.2735C40.6077 51.2735 40.5489 51.2105 40.5763 51.1159L43.2087 44.4674C43.2715 44.3098 43.3343 44.2507 43.4245 44.4674L46.1471 51.1159C46.1785 51.179 46.1785 51.2735 45.9941 51.2735H40.7019Z" fill="#0A0A0A"/>
<path fill-rule="evenodd" clip-rule="evenodd" d="M6.19922 74.9999H7.54484V72.5264H9.067C10.7539 72.5264 12.1309 71.6244 12.1309 69.8993V69.8796C12.1309 68.3277 11.005 67.3076 9.22 67.3076H6.19922V74.9999ZM7.54484 71.3058V68.5369H9.11015C10.1184 68.5369 10.7657 69.0095 10.7657 69.9115V69.9351C10.7657 70.7347 10.1302 71.3058 9.11015 71.3058H7.54484ZM16.2541 74.9999H17.635L18.4236 73.1408H22.0446L22.8214 74.9999H24.2454L20.8755 67.2524H19.628L16.2541 74.9999ZM18.914 71.9435L20.2282 68.8673L21.5542 71.9435H18.914ZM30.7774 74.9999H32.1348V71.9316L35.1791 67.3076H33.6334L31.4679 70.7146L29.3219 67.3076H27.7331L30.7774 71.9671V74.9999ZM40.5263 74.9999H41.8484V69.5054L44.2454 73.1093H44.2924L46.7091 69.4818V74.9999H48.0586V67.3076H46.6228L44.2924 70.943L41.9582 67.3076H40.5263V74.9999ZM54.1943 74.9999H59.9299V73.7907H55.5399V71.7229H59.3807V70.5137H55.5399V68.5128H59.875V67.3076H54.1943V74.9999ZM65.6929 74.9999H67.0189V69.5251L71.2441 74.9999H72.37V67.3076H71.0479V72.6249L66.9405 67.3076H65.6929V74.9999ZM80.3927 74.9999H81.7501V68.5601H84.1785V67.3076H77.9604V68.5601H80.3927V74.9999Z" fill="#0A0A0A"/>
</g>
<defs>
<clipPath id="clip0_1_2083">
<rect width="102" height="75" fill="white"/>
</clipPath>
</defs>
</svg>
