<svg width="69" height="75" viewBox="0 0 69 75" fill="none" xmlns="http://www.w3.org/2000/svg">
<g clip-path="url(#clip0_1_2072)">
<path d="M42.1244 61.707C45.2343 56.2885 44.5034 57.5608 45.7137 55.4559C43.9135 52.3152 44.2659 52.9286 36.6185 39.5937H36.6175C31.0966 29.968 32.6553 32.6863 29.2859 26.8096C27.6625 26.8096 10.5596 26.8096 6.85938 26.8096C6.87594 26.8384 10.4346 33.041 10.4456 33.0632C12.2106 33.0632 23.8835 33.0632 25.6917 33.0632C26.0235 33.6453 29.2864 39.332 29.437 39.5952H29.438C29.5741 39.8317 38.2987 55.039 38.5352 55.4534C38.5342 55.4549 34.5057 62.4805 34.5047 62.4825C33.9334 61.4852 33.339 60.4484 32.7286 59.3848L32.7211 59.3898C32.7211 59.3898 30.7101 55.8823 27.9868 51.1384C27.9868 51.1344 26.8648 49.181 26.8628 49.1775H19.6898C19.6898 49.178 34.5021 74.9999 34.5026 74.9999L38.0919 68.7412C38.0919 68.7412 38.0919 68.7412 38.0919 68.7407C38.0924 68.7397 42.1234 61.7085 42.1244 61.707Z" fill="#0A0A0A"/>
<path d="M58.2337 21.1094L54.9653 26.8077H35.7655C36.3719 27.8602 44.1639 41.4335 48.9634 49.7936L52.5477 43.542L46.5353 33.0664H58.5565C66.8801 18.5548 60.811 29.1309 69 14.8547H0L3.59477 21.1094H58.2337Z" fill="#0A0A0A"/>
<path d="M63.589 29.1C65.7933 43.0109 57.9807 56.4776 45.0153 61.4802L42.0078 66.7228C60.7854 62.3902 72.3794 42.7724 66.5939 23.861L63.589 29.1Z" fill="#0A0A0A"/>
<path d="M54.9377 12.4567H60.5169C47.0318 -4.17346 21.9387 -4.13101 8.48828 12.4567H14.0679C25.4948 1.36219 43.5189 1.37027 54.9377 12.4567Z" fill="#0A0A0A"/>
<path d="M9.33844 49.1771C8.86105 48.3869 8.4203 47.5754 8.0187 46.7432C5.44699 41.4269 4.43497 35.3102 5.41838 29.101L2.41345 23.861C-3.37705 42.7921 8.24309 62.3952 26.9996 66.7218L23.9921 61.4792C17.7192 59.059 12.6486 54.6561 9.33844 49.1771Z" fill="#0A0A0A"/>
</g>
<defs>
<clipPath id="clip0_1_2072">
<rect width="69" height="75" fill="white"/>
</clipPath>
</defs>
</svg>
