<svg width="122" height="50" viewBox="0 0 122 50" fill="none" xmlns="http://www.w3.org/2000/svg">
<g clip-path="url(#clip0_3_6270)">
<path fill-rule="evenodd" clip-rule="evenodd" d="M36.4038 3.26345L31.7074 7.95156H36.4038V3.26345ZM7.40624 3.26345L12.1031 7.95156H7.40624V3.26345ZM11.784 22.5754C11.784 25.8231 9.14556 28.4558 5.8918 28.4558C2.63803 28.4558 0 25.8231 0 22.5754C0 19.3268 2.63803 16.6941 5.8918 16.6941C5.96109 16.6941 6.02996 16.695 6.09842 16.6979H38.6282C38.6971 16.695 38.7659 16.6941 38.8348 16.6941C42.089 16.6941 44.727 19.3268 44.727 22.5754C44.727 25.8231 42.089 28.4558 38.8348 28.4558C35.581 28.4558 32.943 25.8231 32.943 22.5754H37.3274C37.3274 23.4058 38.0021 24.0796 38.8348 24.0796C39.6671 24.0796 40.3422 23.4062 40.3422 22.5754C40.3422 21.7442 39.6675 21.0704 38.8348 21.0704H33.1376H31.6713V44.4302L27.218 42.2493V21.07H24.5899V40.963L20.1371 38.7821V21.0704H17.509V37.4953L13.0561 35.3145V21.0704H11.5898H5.8918C5.05948 21.0704 4.38441 21.7438 4.38441 22.5754C4.38441 23.4058 5.05906 24.0796 5.8918 24.0796C6.72411 24.0796 7.39877 23.4062 7.39877 22.5754H11.784ZM37.3204 14.5108V10.1374H7.40624V14.5108H37.3204ZM38.7522 44.6878L43.0454 50L38.7522 47.8974L37.8697 47.4654L34.299 45.7165V29.8225H38.7522V44.6878ZM5.97478 31.8477L1.32773 29.5724L10.4276 29.8225V34.0285L5.97478 31.8477ZM29.4698 7.95156L22.3108 0L15.1519 7.95156H29.4698Z" fill="white"/>
<path d="M121.865 9.87892L122 12.8653H121.645C121.574 12.341 121.481 11.9641 121.364 11.7405C121.168 11.3802 120.912 11.1114 120.588 10.9424C120.265 10.7697 119.842 10.6836 119.318 10.6836H117.526V20.382C117.526 21.1643 117.609 21.6526 117.778 21.8477C118.015 22.1098 118.38 22.2403 118.873 22.2403H119.311V22.5857H113.897V22.2403H114.354C114.898 22.2403 115.283 22.0775 115.512 21.752C115.649 21.5499 115.72 21.0935 115.72 20.3816V10.6832H114.193C113.598 10.6832 113.176 10.7283 112.926 10.8145C112.6 10.9325 112.325 11.159 112.091 11.4978C111.86 11.8333 111.723 12.2901 111.678 12.8653H111.323L111.457 9.87892H121.865ZM105.543 17.6594L103.398 12.5327L101.197 17.6594H105.543ZM105.831 18.3494H100.899L100.048 20.3394C99.8361 20.8314 99.7278 21.202 99.7278 21.4447C99.7278 21.636 99.8211 21.8087 100.006 21.9562C100.188 22.0995 100.588 22.1956 101.199 22.2399V22.5853H97.1864V22.2399C97.7175 22.1475 98.0607 22.0258 98.2171 21.8758C98.5374 21.5756 98.8897 20.9655 99.2764 20.0486L103.753 9.59026H104.07L108.496 20.1605C108.851 21.0107 109.174 21.5594 109.465 21.8154C109.756 22.0676 110.16 22.208 110.681 22.2395V22.5849H105.663V22.2395C106.169 22.2138 106.512 22.1314 106.691 21.9872C106.87 21.8439 106.956 21.6679 106.956 21.46C106.956 21.1859 106.832 20.751 106.582 20.1571L105.831 18.3494ZM87.3413 10.5685V15.59H90.1445C90.871 15.59 91.3544 15.481 91.5971 15.264C91.9237 14.9766 92.1029 14.4718 92.1411 13.7503H92.4867V18.1767H92.1411C92.0548 17.558 91.9655 17.1583 91.8788 16.9827C91.7668 16.7649 91.5813 16.593 91.3249 16.4684C91.0689 16.3437 90.6752 16.2799 90.1441 16.2799H87.3409V20.4711C87.3409 21.0326 87.3666 21.3743 87.4144 21.4961C87.4658 21.6178 87.5521 21.7168 87.677 21.7868C87.8019 21.8605 88.0417 21.8957 88.3906 21.8957H90.5445C91.261 21.8957 91.783 21.8448 92.1091 21.7454C92.4323 21.6464 92.746 21.448 93.0435 21.1544C93.4306 20.7676 93.8273 20.1832 94.2335 19.4038H94.6177L93.5198 22.5857H83.7112V22.2403H84.1627C84.4635 22.2403 84.7485 22.1674 85.017 22.0233C85.2186 21.9243 85.3564 21.774 85.4265 21.5727C85.5003 21.3714 85.5356 20.9631 85.5356 20.3435V12.083C85.5356 11.2779 85.4555 10.7822 85.2921 10.5975C85.0647 10.3481 84.69 10.2235 84.1627 10.2235H83.7112V9.87892H93.5231L93.6576 12.6769H93.2929C93.1618 12.0026 93.0178 11.54 92.8576 11.287C92.6979 11.0356 92.461 10.843 92.1506 10.7097C91.9008 10.6165 91.4598 10.5685 90.8291 10.5685H87.3413ZM72.4998 16.0492C72.6185 16.0492 72.7205 16.0492 72.8073 16.053C72.8936 16.0559 72.9641 16.0592 73.0185 16.0592C74.2188 16.0592 75.1246 15.7979 75.7324 15.2736C76.3436 14.7463 76.6477 14.0787 76.6477 13.2679C76.6477 12.4756 76.4013 11.8299 75.9117 11.3321C75.4187 10.8372 74.7657 10.5879 73.9562 10.5879C73.5981 10.5879 73.1114 10.6451 72.5002 10.7598V16.0492H72.4998ZM81.5309 22.5853H78.1227L73.7989 16.644C73.4886 16.6568 73.2359 16.6626 73.0404 16.6626C72.9604 16.6626 72.8741 16.6597 72.7844 16.6564C72.6919 16.6535 72.599 16.6498 72.4998 16.6435V20.3427C72.4998 21.1407 72.5865 21.6356 72.7625 21.8274C72.999 22.1024 73.3545 22.2395 73.828 22.2395H74.3242V22.5849H68.871V22.2395H69.3477C69.8854 22.2395 70.2696 22.0639 70.4999 21.716C70.631 21.5238 70.6953 21.0641 70.6953 20.3427V12.1211C70.6953 11.3222 70.6086 10.8273 70.4327 10.6356C70.1896 10.3606 69.8282 10.2235 69.3477 10.2235H68.871V9.87892H73.5047C74.8582 9.87892 75.8536 9.97748 76.4938 10.1725C77.1365 10.3709 77.6809 10.735 78.1261 11.2613C78.5737 11.7885 78.7978 12.4176 78.7978 13.149C78.7978 13.9313 78.5418 14.6089 78.0331 15.1841C77.5211 15.7585 76.734 16.1648 75.6615 16.4042L78.2953 20.0424C78.897 20.879 79.4123 21.4377 79.8442 21.7127C80.2728 21.9914 80.8363 22.1633 81.5304 22.2399V22.5853H81.5309ZM64.472 9.59067L64.7982 13.5967H64.4525C64.1231 12.6032 63.6941 11.856 63.1729 11.3508C62.4174 10.626 61.4477 10.262 60.2635 10.262C58.6504 10.262 57.4222 10.901 56.5803 12.1816C55.8766 13.2583 55.5244 14.5455 55.5244 16.0376C55.5244 17.2482 55.758 18.3498 56.2281 19.35C56.6953 20.3464 57.3098 21.0778 58.0682 21.5441C58.8267 22.0075 59.6076 22.2403 60.4075 22.2403C60.8747 22.2403 61.329 22.1794 61.7676 22.0614C62.2024 21.9433 62.6252 21.7677 63.0314 21.5342V17.8508C63.0314 17.2126 62.9833 16.7943 62.8875 16.5988C62.7883 16.4013 62.6381 16.2513 62.436 16.1491C62.2315 16.043 61.873 15.9921 61.361 15.9921V15.6475H66.2765V15.9921H66.0429C65.5562 15.9921 65.2234 16.1549 65.0413 16.4808C64.9164 16.7106 64.8554 17.167 64.8554 17.8504V21.7446C64.1384 22.1343 63.4281 22.4179 62.7306 22.6006C62.0294 22.7824 61.2519 22.8719 60.3971 22.8719C57.9429 22.8719 56.0804 22.0862 54.8066 20.5116C53.8498 19.3326 53.373 17.9688 53.373 16.4294C53.373 15.3112 53.6415 14.2382 54.1796 13.2161C54.8165 11.9989 55.6899 11.0601 56.8002 10.4045C57.7317 9.86152 58.8292 9.58984 60.1001 9.58984C60.5606 9.58984 60.9801 9.62877 61.3577 9.70166C61.7353 9.77911 62.2697 9.94187 62.9638 10.1974C63.3128 10.3283 63.5497 10.3949 63.6679 10.3949C63.7862 10.3949 63.8858 10.3407 63.9721 10.2326C64.055 10.1237 64.1069 9.90956 64.126 9.58984H64.472V9.59067Z" fill="white"/>
<path d="M95.0108 27.6278V27.9732C94.6813 27.9732 94.4124 28.0341 94.2042 28.1521C93.9996 28.271 93.8013 28.4909 93.6154 28.8168C93.4905 29.0338 93.2922 29.5581 93.0233 30.3819L89.4903 40.6232H89.1127L86.2133 32.4965L83.3496 40.6232H83.0068L79.2369 30.0816C78.9556 29.2894 78.7764 28.823 78.7029 28.6797C78.578 28.4404 78.4083 28.2644 78.1909 28.1496C77.9764 28.0316 77.6851 27.974 77.3142 27.974V27.6287H82.0119V27.974H81.7845C81.4551 27.974 81.2024 28.0507 81.026 28.201C80.8501 28.3513 80.7638 28.5327 80.7638 28.7439C80.7638 28.9647 80.9016 29.4695 81.1767 30.2609L83.6823 37.3871L85.7976 31.3315L85.4138 30.2643L85.113 29.4082C84.9818 29.0922 84.8346 28.8172 84.6748 28.5779C84.5914 28.459 84.4922 28.3571 84.374 28.2743C84.2172 28.1625 84.0603 28.0792 83.9035 28.0316C83.7852 27.9935 83.596 27.9736 83.3404 27.9736V27.6282H88.2846V27.9736H87.9452C87.5966 27.9736 87.3402 28.0502 87.1772 28.2006C87.0141 28.3509 86.934 28.5551 86.934 28.8139C86.934 29.1332 87.0747 29.6956 87.3564 30.4937L89.7982 37.3904L92.2142 30.3947C92.4893 29.6153 92.6271 29.0761 92.6271 28.7758C92.6271 28.6317 92.5818 28.4942 92.4922 28.3696C92.3993 28.2457 92.2873 28.1554 92.1499 28.1045C91.9101 28.0184 91.6026 27.9736 91.2218 27.9736V27.6282H95.0108V27.6278ZM73.2273 35.4092L71.083 30.2825L68.8815 35.4092H73.2273ZM73.5152 36.0991H68.584L67.7326 38.0891C67.5214 38.5811 67.4127 38.9518 67.4127 39.1944C67.4127 39.3858 67.5056 39.5585 67.6911 39.7059C67.8736 39.8492 68.2732 39.9453 68.8848 39.9896V40.335H64.8717V39.9896C65.4028 39.8972 65.7451 39.7755 65.9024 39.6256C66.2223 39.3253 66.5741 38.7153 66.9612 37.7984L71.4382 27.3408H71.7548L76.1807 37.9102C76.5358 38.7604 76.8595 39.3092 77.1499 39.5647C77.4416 39.8169 77.8449 39.9581 78.366 39.9896V40.335H73.3485V39.9896C73.8538 39.9639 74.1965 39.8815 74.3758 39.7374C74.555 39.5941 74.6413 39.4181 74.6413 39.2102C74.6413 38.936 74.5164 38.5012 74.2671 37.9073L73.5152 36.0991ZM64.0112 36.8276L64.3187 36.8951L63.2241 40.335H53.374V39.9896H53.8508C54.3885 39.9896 54.7727 39.8169 55.003 39.469C55.1341 39.2706 55.1984 38.8114 55.1984 38.0924V29.8708C55.1984 29.0786 55.1121 28.5828 54.9362 28.3853C54.6926 28.1103 54.3312 27.9728 53.8508 27.9728H53.374V27.6274H59.1347V27.9728C58.4596 27.967 57.9854 28.0271 57.7107 28.1583C57.4389 28.2859 57.2531 28.452 57.1535 28.6466C57.0547 28.845 57.0033 29.3179 57.0033 30.0622V38.0729C57.0033 38.5931 57.0543 38.9476 57.1535 39.1431C57.2273 39.2777 57.3456 39.3729 57.5024 39.4367C57.6559 39.4976 58.1451 39.5299 58.9679 39.5299H59.8961C60.8757 39.5299 61.5603 39.4595 61.9536 39.3158C62.3474 39.1717 62.7088 38.9161 63.0353 38.5521C63.3585 38.1881 63.6847 37.6137 64.0112 36.8276Z" fill="white"/>
</g>
<defs>
<clipPath id="clip0_3_6270">
<rect width="122" height="50" fill="white"/>
</clipPath>
</defs>
</svg>
