<svg width="92" height="75" viewBox="0 0 92 75" fill="none" xmlns="http://www.w3.org/2000/svg">
<g clip-path="url(#clip0_1_4204)">
<path d="M36.1436 29.7519H55.8531L54.2419 32.9596H37.749L36.1436 29.7519ZM31.1484 36.4962H60.8489V39.7096H31.1484V36.4962ZM45.7012 19.3269L51.5799 7.58654L49.7898 4.00962L42.1262 19.3269H45.7012ZM59.2602 22.9327H36.3052L47.7856 0H44.2054L32.7302 22.9327L34.3356 26.1462H57.649L59.2602 22.9327Z" fill="#0A0A0A"/>
<path fill-rule="evenodd" clip-rule="evenodd" d="M4.62008 50.7924L0 62.4635H2.05036L3.15315 59.6135H8.07909L9.19342 62.4635H11.2495L6.6237 50.7924H4.62008ZM5.82098 53.7577L7.47835 57.9289H3.7712L5.38817 53.7577L5.60746 53.1231L5.82098 53.7577ZM18.5375 50.7924V52.5404H24.5662L18.4849 60.9462V62.4635H27.1532V60.7154H20.911L26.9339 52.3097V50.7924H18.5375ZM35.3425 50.7924V62.4635H37.2134V50.7924H35.3425ZM56.1548 50.7924L52.4471 58.8808L52.1297 59.5962L51.847 58.8808L48.1398 50.7924H46.0375V62.4635H47.9084V54.3577L48.22 55.3097L51.3616 62.4635H52.9151L56.0683 55.3097L56.403 54.3577V62.4635H58.2739V50.7924H56.1548ZM66.0131 50.7924V52.5404H69.9862V62.4635H71.8571V52.5404H75.8476V50.7924H66.0131ZM85.3705 50.7924L80.7447 62.4635H82.8008L83.9036 59.6135H88.8238L89.9439 62.4635H92L87.3741 50.7924H85.3705ZM86.5714 53.7577L88.223 57.9289H84.5211L86.1381 53.7577L86.3573 53.1231L86.5714 53.7577Z" fill="#0A0A0A"/>
<path fill-rule="evenodd" clip-rule="evenodd" d="M10.8164 68.4115V75H14.7203V74.0134H11.8673V68.4115H10.8164ZM22.5859 68.4115L19.9758 75H21.1363L21.7543 73.3903H24.5318L25.1672 75H26.3219L23.7175 68.4115H22.5859ZM23.2617 70.0903L24.1971 72.4384H22.1064L23.0187 70.0903L23.1399 69.7326L23.2617 70.0903ZM38.5075 68.4115L37.104 72.9288L37.0001 73.4077L36.9194 72.9288L35.5678 68.4115H34.6266L33.2924 72.9288L33.1943 73.4077L33.0904 72.9288L31.6985 68.4115H30.5784L32.634 75H33.7252L35.0075 70.7827L35.0998 70.3442L35.2037 70.7827L36.486 75H37.5657L39.6218 68.4115H38.5075ZM47.2733 68.4115V75H48.3299V72.1961H50.5245V71.2096H48.3305V69.4038H50.9117V68.4115H47.2733ZM56.7385 68.4115V75H57.7894V68.4115H56.7385ZM64.0899 68.4115V75H65.1465V72.4211H65.9262L67.3007 75H68.5074L67.0289 72.2423C67.7797 71.9423 68.2241 71.2846 68.2241 70.448C68.2241 69.8365 68.0163 69.3461 67.6118 68.9769C67.2073 68.6019 66.6706 68.4115 65.9891 68.4115H64.0899ZM65.9902 69.4038C66.7064 69.4038 67.1507 69.7788 67.1507 70.448C67.1507 71.1115 66.7 71.4807 65.9902 71.4807H65.1471V69.4038H65.9902ZM79.9826 68.4115L77.8919 72.975L77.713 73.3846L77.5571 72.975L75.4664 68.4115H74.277V75H75.3337V70.425L75.5126 70.9615L77.2796 75H78.1573L79.9359 70.9615L80.1263 70.425V75H81.1829V68.4115H79.9826Z" fill="#0A0A0A"/>
</g>
<defs>
<clipPath id="clip0_1_4204">
<rect width="92" height="75" fill="white"/>
</clipPath>
</defs>
</svg>
