<svg width="212" height="75" viewBox="0 0 212 75" fill="none" xmlns="http://www.w3.org/2000/svg">
<g clip-path="url(#clip0_1_4167)">
<path d="M69.9162 0V23.8305L54.6693 35.2563V0H69.9162ZM15.4272 0V60.2929L0 48.593V0H15.4272ZM42.7697 0V51.3496L69.9162 31.2467V48.8671L35.0483 75L27.3347 69.2127V0H42.7697Z" fill="#0A0A0A"/>
<path fill-rule="evenodd" clip-rule="evenodd" d="M101.007 37.5979H104.942V16.8059H100.442L93.9202 25.7414L87.406 16.8059H82.875V37.5979H86.8102V22.4758L93.4498 31.5365H94.2181L101.007 22.5071V37.5979ZM125.276 37.5979H129.564L120.212 16.7433H115.924L106.572 37.5979H110.837L112.616 33.6667H123.52L125.276 37.5979ZM121.937 30.0095H114.2L118.072 21.1288L121.937 30.0095ZM148.409 19.3589C146.261 17.2523 143.463 16.1794 140.664 16.1794C133.311 16.1794 129.65 21.5908 129.65 27.4486C129.65 32.9227 132.833 38.0678 140.664 38.0678C144.325 38.0678 146.92 36.6739 148.974 34.3245V25.5456H140.037V29.0619H145.368V32.7426C143.729 34.0582 142.303 34.4106 140.664 34.4106C135.483 34.4106 133.492 30.8709 133.492 27.4486C133.492 23.1649 136.204 19.774 140.664 19.774C142.483 19.774 144.568 20.518 145.963 21.8571L148.409 19.3589ZM165.976 29.6727L155.762 16.7433H152.572V37.5979H156.507V23.533L167.458 37.5979H169.904V16.7433H165.976V29.6727ZM183.685 16.3596C176.481 16.3596 172.969 21.8571 172.969 27.3312C172.969 32.8052 176.363 38.0678 183.685 38.0678C191.014 38.0678 194.315 32.6877 194.377 27.2998C194.44 21.8571 190.865 16.3596 183.685 16.3596ZM183.685 19.9228C188.6 19.9228 190.567 23.8541 190.505 27.3625C190.45 30.7847 188.6 34.4733 183.685 34.4733C178.778 34.4733 176.928 30.8161 176.841 27.3938C176.747 23.8854 178.778 19.9228 183.685 19.9228ZM197.356 16.7433V37.5979H211.999V33.9642H201.283V16.7433H197.356Z" fill="#0A0A0A"/>
<path fill-rule="evenodd" clip-rule="evenodd" d="M100.573 56.8941H94.7332V54.5447H100.362V52.72H94.7332V50.3158H100.573V48.4207H92.7812C92.7812 51.8899 92.7812 55.367 92.7812 58.8206H100.573V56.8941ZM106.241 48.4207V58.8206H113.547V57.0116H108.201V48.4207H106.241ZM123.04 48.4207C121.762 48.4207 120.226 48.4207 118.948 48.4207V58.8206C120.226 58.8206 121.762 58.8206 123.04 58.8206C126.677 58.8206 128.284 56.1658 128.237 53.5345C128.19 50.958 126.607 48.4207 123.04 48.4207ZM120.9 50.2767H123.04C125.298 50.2767 126.246 51.8899 126.293 53.5188C126.332 55.2104 125.399 56.9411 123.04 56.9411H120.9V50.2767ZM141.438 56.8941H135.598V54.5447H141.234V52.72H135.598V50.3158H141.438V48.4207H133.654C133.654 51.8899 133.654 55.367 133.654 58.8206H141.438V56.8941ZM156.332 58.6874L153.189 55.1399C155.164 54.7405 155.815 53.2995 155.815 51.8664C155.815 50.0652 154.521 48.4285 152.068 48.4207C150.422 48.4285 148.775 48.4207 147.121 48.4207V58.8206H149.081V55.3513H150.97L154.004 58.8206H156.332V58.6874ZM152.068 50.2453C153.306 50.2453 153.855 51.0755 153.855 51.9134C153.855 52.7513 153.322 53.5815 152.068 53.5815H149.081V50.2453H152.068ZM161.937 48.4207V58.8206H169.251V57.0116H163.905V48.4207H161.937ZM183.048 58.8206H185.188L180.523 48.4207H178.383L173.711 58.8206H175.843L176.729 56.8628H182.17L183.048 58.8206ZM181.386 55.0381H177.521L179.449 50.6056L181.386 55.0381ZM202.096 48.4207H199.894L197.518 55.923L194.916 48.4207H193.638L191.114 55.923L188.66 48.4207H186.465L190.283 58.8206H191.945L193.207 55.5863L194.297 52.2658L195.394 55.5549L196.687 58.8206H198.349L202.096 48.4207Z" fill="#0A0A0A"/>
</g>
<defs>
<clipPath id="clip0_1_4167">
<rect width="212" height="75" fill="white"/>
</clipPath>
</defs>
</svg>
