<svg width="68" height="50" viewBox="0 0 68 50" fill="none" xmlns="http://www.w3.org/2000/svg">
<g clip-path="url(#clip0_3_5215)">
<path fill-rule="evenodd" clip-rule="evenodd" d="M9.25288 25.9975C10.8195 25.9975 11.8944 26.0395 12.5744 26.1025C13.7906 26.1839 14.1018 26.6828 14.1829 27.3235C14.2038 27.4285 14.2038 27.5099 14.2247 27.7384C14.2457 27.9878 14.2875 28.1113 14.4523 28.1113C14.5752 28.1113 14.638 27.9878 14.6589 27.6964C14.6798 27.1791 14.8027 25.2517 14.8027 24.9629C14.8027 24.4456 14.7818 24.3196 14.5961 24.3196C14.4523 24.3196 14.2875 24.3826 13.9554 24.4456C13.6677 24.4876 13.2963 24.527 12.6555 24.527H3.68209C2.89747 24.527 1.76239 24.4666 1.391 24.3826C0.917617 24.2802 0.833925 24.2172 0.690078 24.2172C0.564539 24.2172 0.504385 24.4246 0.462539 24.7345C0.318692 25.5222 0.0911527 26.6408 0.00746012 27.4889C-0.0108476 27.7384 -0.0108476 27.9038 0.174845 27.9038C0.318692 27.9038 0.378846 27.7384 0.420692 27.573C0.462539 27.4496 0.504385 27.3235 0.606386 27.0977C0.875771 26.3703 1.32823 26.1025 2.48424 26.0395C3.51732 25.9791 4.79625 25.9975 5.59917 25.9975V34.1191C5.59917 36.1279 5.55994 37.6193 5.47625 38.4885C5.41348 39.0898 5.26963 39.5467 4.81717 39.6281C4.58963 39.6701 4.36209 39.6911 4.15548 39.7121C3.90701 39.7121 3.74224 39.7751 3.74224 39.9196C3.74224 40.085 3.88871 40.127 4.21825 40.127C4.89825 40.127 6.89902 40.064 7.24949 40.064C7.58164 40.064 9.58242 40.127 10.9843 40.127C11.3557 40.127 11.4603 40.064 11.4603 39.9406C11.4603 39.7935 11.3766 39.7331 11.047 39.7121C10.6757 39.6701 10.4272 39.6491 10.1604 39.6071C9.54057 39.5047 9.39673 39.0688 9.35488 38.5305C9.25288 37.6614 9.25288 35.734 9.25288 34.1191V25.9975ZM51.0521 34.5106L50.6755 34.0958C49.8412 35.4139 48.7924 37.0472 48.0706 38.1185C47.7986 38.5229 47.5736 38.8459 47.4219 39.0454C47.2676 39.2371 47.0846 39.4288 46.8439 39.5653C46.7341 39.631 46.6138 39.6809 46.4778 39.7176L46.3287 39.7491C46.1012 39.7912 45.8972 39.7912 45.633 39.8122C45.6304 39.8122 45.6278 39.8122 45.6252 39.8122C45.3584 39.8332 45.2956 39.9356 45.2956 40.0406C45.2956 40.164 45.4186 40.227 45.667 40.227H45.973C48.4812 40.2244 50.1289 40.1929 51.1332 40.1456C51.2849 40.1378 51.4235 40.1299 51.5464 40.122C51.774 40.101 51.8786 39.9986 51.8786 39.9146C51.8786 39.8122 51.774 39.7281 51.651 39.6887C51.3607 39.6257 51.3215 39.5023 51.4235 39.2949C51.7452 38.6962 52.4121 37.6038 52.998 36.6402L52.2421 35.813L51.0521 34.5106ZM54.7032 27.4443C54.7032 27.6728 54.4574 28.0246 54.3135 28.3134C54.2377 28.4395 54.1644 28.5629 54.0912 28.6863C53.7852 29.1983 53.487 29.6736 53.2229 30.0911L55.6317 32.3441L55.9821 31.7848L57.9437 28.6679C58.5426 27.7148 58.8094 27.2789 59.7588 27.1345C59.9863 27.1134 60.1301 27.0924 60.2557 27.0714C60.5225 27.0294 60.5434 26.927 60.5434 26.843C60.5434 26.7196 60.4205 26.6566 60.1511 26.6566C59.9968 26.6566 59.8242 26.6697 59.458 26.6854C59.3508 26.6907 59.2278 26.6933 59.0814 26.6986C58.6603 26.7091 58.064 26.7196 57.18 26.7196C57.1329 26.7196 57.0571 26.7196 56.9629 26.717C56.3718 26.7038 54.9752 26.6566 54.086 26.6566C53.8166 26.6566 53.6727 26.7406 53.6727 26.864C53.6727 26.99 53.7747 27.0504 53.9814 27.0714C54.1278 27.0924 54.2926 27.1135 54.4364 27.1555C54.6221 27.1949 54.7032 27.3001 54.7032 27.4443ZM29.3574 20.3073L20.9071 11.8233C20.0048 12.7319 20.0048 14.2154 20.9071 15.1214L26.0725 20.3073C26.9774 21.2132 28.4551 21.2132 29.3574 20.3073ZM32.0068 0.679627L40.4572 9.16364C41.3595 8.25773 41.3595 6.77415 40.4572 5.86561L35.2917 0.679627C34.3894 -0.226542 32.9117 -0.226542 32.0068 0.679627ZM34.7922 12.9632L38.8931 8.84591L32.3259 2.24986L22.4711 12.1439L29.041 18.7374L33.0817 14.6778L51.4209 34.0039L52.6004 35.2459L56.16 38.9982L57.1721 40.0642L62.2329 45.3946H67.9999L62.5729 40.0957L62.1623 39.694L58.8669 36.4747L48.9363 26.7776L47.1159 24.9999L46.5693 24.4669L34.7922 12.9632ZM31.2614 35.8393C31.3216 35.8393 31.4053 35.8787 31.4262 35.9627L32.8071 39.2555C32.8699 39.4419 32.7888 39.589 32.5613 39.6284C32.3756 39.6704 32.271 39.7544 32.271 39.8778C32.271 40.0012 32.3965 40.0642 32.726 40.0642C34.0468 40.0852 36.3981 40.1273 38.4198 40.1273C38.8121 40.1273 38.9559 40.0642 38.9559 39.9198C38.9559 39.7938 38.833 39.7124 38.5636 39.7124C38.3779 39.6914 38.1321 39.6914 37.9045 39.6284C37.1827 39.5259 36.7276 39.0297 36.0267 37.4122C34.6248 34.2638 31.1568 26.3312 30.6207 25.1706C30.2702 24.4249 30.0845 24.1334 29.8779 24.1334C29.6503 24.1334 29.4254 24.4459 29.0331 25.336L23.5225 37.848C23.0909 38.8432 22.6777 39.4839 21.9559 39.6284C21.7492 39.6704 21.5426 39.6914 21.2942 39.7124C21.0483 39.7124 20.9045 39.7544 20.9045 39.9198C20.9045 40.0432 21.0274 40.1273 21.3151 40.1273C22.3482 40.1273 23.7082 40.0642 23.9357 40.0642C25.0289 40.0642 25.7325 40.1273 26.6609 40.1273C26.9277 40.1273 27.0925 40.0852 27.0925 39.9198C27.0925 39.8148 27.0323 39.7124 26.7211 39.7124C26.5563 39.6914 26.2268 39.6704 25.9993 39.6284C25.5651 39.589 25.3794 39.4025 25.3794 39.0087C25.3794 38.7592 25.5049 38.2209 25.7116 37.6826L26.3497 35.9837C26.3916 35.8787 26.4334 35.8393 26.5354 35.8393H31.2614ZM27.1343 34.1824C27.0716 34.1824 27.0323 34.1404 27.0506 34.0774L28.8056 29.645C28.8474 29.54 28.8893 29.5006 28.9494 29.645L30.7645 34.0774C30.7854 34.1194 30.7854 34.1824 30.6625 34.1824H27.1343Z" fill="white"/>
<path fill-rule="evenodd" clip-rule="evenodd" d="M4.13208 49.9999H5.02916V48.3509H6.04393C7.16855 48.3509 8.08656 47.7496 8.08656 46.5995V46.5864C8.08656 45.5518 7.33594 44.8717 6.14593 44.8717H4.13208V49.9999ZM5.02916 47.5372V45.6912H6.0727C6.74486 45.6912 7.1764 46.0063 7.1764 46.6076V46.6234C7.1764 47.1564 6.75271 47.5372 6.0727 47.5372H5.02916ZM10.8353 49.9999H11.756L12.2816 48.7606H14.6957L15.2135 49.9999H16.1629L13.9163 44.835H13.0846L10.8353 49.9999ZM12.6086 47.9623L13.4847 45.9115L14.3687 47.9623H12.6086ZM20.5175 49.9999H21.4225V47.9544L23.452 44.8717H22.4215L20.9778 47.1431L19.5472 44.8717H18.488L20.5175 47.9781V49.9999ZM27.0168 49.9999H27.8982V46.3369L29.4962 48.7396H29.5276L31.1386 46.3212V49.9999H32.0383V44.8717H31.0811L29.5276 47.2954L27.9714 44.8717H27.0168V49.9999ZM36.1288 49.9999H39.9525V49.1938H37.0259V47.8153H39.5864V47.0091H37.0259V45.6752H39.9159V44.8717H36.1288V49.9999ZM43.7945 49.9999H44.6785V46.3501L47.4953 49.9999H48.2459V44.8717H47.3646V48.4166L44.6262 44.8717H43.7945V49.9999ZM53.5944 49.9999H54.4994V45.7067H56.1183V44.8717H51.9729V45.7067H53.5944V49.9999Z" fill="white"/>
</g>
<defs>
<clipPath id="clip0_3_5215">
<rect width="68" height="50" fill="white"/>
</clipPath>
</defs>
</svg>
