<svg width="81" height="50" viewBox="0 0 81 50" fill="none" xmlns="http://www.w3.org/2000/svg">
<g clip-path="url(#clip0_3_5204)">
<path fill-rule="evenodd" clip-rule="evenodd" d="M14.1777 14.2195V20.9312C14.1777 21.2183 14.0552 21.4646 13.8265 21.6393L8.0563 26.0402C7.95565 26.1173 7.8184 26.1138 7.72127 26.0324C7.62414 25.951 7.59669 25.817 7.65511 25.7047L13.6702 14.0967C13.7279 13.9858 13.8497 13.9303 13.9715 13.9598C14.0947 13.9893 14.1777 14.0946 14.1777 14.2195ZM25.2226 30.7919L14.5747 10.2446C14.4958 10.093 14.3487 10.0032 14.1777 10.0039C14.0067 10.0039 13.8596 10.093 13.7807 10.2446L3.13286 30.7919C3.03573 30.9792 3.08077 31.2024 3.24266 31.3378C3.40525 31.4733 3.6333 31.4782 3.80152 31.3505L13.7427 23.7685C14.0031 23.5699 14.3516 23.5699 14.612 23.7685L24.5532 31.3505C24.7214 31.4789 24.9495 31.474 25.112 31.3385C25.2746 31.2024 25.3197 30.9792 25.2226 30.7919Z" fill="white"/>
<path fill-rule="evenodd" clip-rule="evenodd" d="M5.25184 35.6582C6.04649 39.452 8.27207 43.0935 11.6013 45.2388C11.6794 45.2894 11.7062 45.3897 11.6625 45.4718C11.6196 45.5532 11.5225 45.5883 11.4373 45.5539C7.12338 43.8185 3.84202 40.0647 2.77076 35.4666C2.7229 35.2624 2.54553 35.1221 2.33507 35.1221H0.447343C0.308684 35.1221 0.189733 35.1782 0.101752 35.2849C0.0137701 35.3915 -0.0186071 35.5186 0.00813924 35.654C1.31801 42.2633 7.1642 47.2494 14.1767 47.2494C21.1892 47.2494 27.0354 42.2633 28.3452 35.654C28.372 35.5186 28.3396 35.3915 28.2523 35.2849C28.1643 35.1782 28.0454 35.1221 27.9067 35.1221H5.68963C5.55027 35.1221 5.43061 35.1789 5.34263 35.287C5.25536 35.3944 5.22368 35.5228 5.25184 35.6582Z" fill="white"/>
<path fill-rule="evenodd" clip-rule="evenodd" d="M47.2667 17.602L39.254 2.13907C39.1949 2.02468 39.0844 1.95731 38.9549 1.95801C38.8261 1.95801 38.7156 2.02538 38.6557 2.13907L30.6438 17.602C30.5706 17.743 30.6044 17.9107 30.7269 18.0132C30.8486 18.115 31.0612 18.1536 31.1471 18.0223L38.6283 6.61358C38.7613 6.41077 39.1491 6.41077 39.2822 6.61358L46.7634 18.0216C46.8493 18.1529 47.0619 18.1143 47.1836 18.0125C47.3061 17.9107 47.3399 17.743 47.2667 17.602Z" fill="white"/>
<path fill-rule="evenodd" clip-rule="evenodd" d="M32.2386 21.2633C32.8362 24.1181 34.5114 26.8586 37.0171 28.4733C37.0755 28.5112 37.0959 28.587 37.0635 28.6481C37.0311 28.7091 36.9586 28.7358 36.8939 28.7098C33.647 27.4031 31.1779 24.5785 30.3713 21.1181C30.3354 20.9644 30.2024 20.8584 30.0433 20.8584H28.6229C28.5188 20.8584 28.4294 20.9005 28.3632 20.9812C28.297 21.0612 28.2731 21.1574 28.2928 21.2591C29.2782 26.2333 33.678 29.985 38.9555 29.985C44.233 29.985 48.6327 26.2326 49.6181 21.2591C49.6385 21.1574 49.6139 21.0612 49.5477 20.9812C49.4816 20.9012 49.3922 20.8584 49.288 20.8584H32.568C32.4631 20.8584 32.3731 20.9012 32.3069 20.9826C32.2407 21.0647 32.2168 21.1616 32.2386 21.2633Z" fill="white"/>
<path d="M36.1578 2.65842C36.5738 2.52368 36.9384 2.54473 37.0362 2.79456C37.184 3.17001 36.6624 3.38475 36.3978 3.47037L16.7927 10.7106C16.3521 10.8537 15.8784 10.613 15.7348 10.1737C15.5912 9.73441 15.8327 9.26211 16.2733 9.11895L36.1578 2.65842Z" fill="white"/>
<path fill-rule="evenodd" clip-rule="evenodd" d="M26.378 5.27777C26.6996 5.27777 26.7397 4.56406 26.7651 4.15423L27.0508 0.722553C27.0508 0.323243 26.7496 -0.000976562 26.378 -0.000976562C26.0063 -0.000976562 25.7051 0.322541 25.7051 0.722553L25.9908 4.15423C26.0162 4.56406 26.0563 5.27777 26.378 5.27777Z" fill="white"/>
<path d="M32.557 42.3606C32.5549 42.6939 32.5436 42.9599 32.5239 43.1585C32.5028 43.3592 32.4676 43.5073 32.4176 43.6055C32.3656 43.7038 32.2924 43.7655 32.1973 43.7943C32.1086 43.8175 32.0193 43.8329 31.9285 43.8406C31.8356 43.8484 31.7525 43.8519 31.6751 43.8519C31.611 43.8519 31.5646 43.8596 31.5336 43.8771C31.5047 43.8926 31.4893 43.9157 31.4893 43.9445C31.4914 43.9943 31.5146 44.0273 31.561 44.0406C31.6075 44.0561 31.6673 44.0617 31.7448 44.0596C31.9475 44.0596 32.1389 44.0561 32.3149 44.0498C32.4908 44.0442 32.6394 44.0385 32.7597 44.0343C32.8815 44.0287 32.961 44.0245 32.9976 44.0245C33.1074 44.0266 33.2799 44.0322 33.5178 44.042C33.7535 44.0519 34.0611 44.0575 34.4363 44.0596C34.5236 44.0596 34.589 44.0498 34.6355 44.0329C34.6798 44.014 34.703 43.9845 34.703 43.9445C34.703 43.9157 34.6854 43.8926 34.6531 43.8771C34.6186 43.8596 34.57 43.8519 34.506 43.8519C34.4109 43.854 34.3124 43.8498 34.2082 43.842C34.1041 43.8322 34.0034 43.8091 33.9028 43.7705C33.8218 43.7417 33.7543 43.6834 33.6979 43.5971C33.6416 43.5101 33.5952 43.3775 33.5628 43.1999C33.5297 43.0224 33.5086 42.7859 33.4973 42.4869L33.3699 37.5948C33.4122 37.6391 33.4952 37.7282 33.6191 37.8629C33.743 37.9977 33.8957 38.1654 34.0794 38.3661C34.2631 38.5682 34.4701 38.7879 34.696 39.0307C34.9219 39.2735 35.1598 39.524 35.409 39.7823C35.6582 40.0405 35.9094 40.2932 36.1649 40.5437C36.4669 40.8441 36.778 41.1585 37.099 41.4827C37.422 41.8083 37.7366 42.1262 38.0463 42.4385C38.3553 42.7508 38.6418 43.0357 38.9086 43.2961C39.1732 43.5564 39.3998 43.7719 39.5871 43.9438C39.6511 44.0091 39.7166 44.0687 39.7842 44.1192C39.8517 44.1691 39.9172 44.1964 39.9812 44.1985C40.0333 44.1985 40.072 44.1698 40.0953 44.1101C40.1206 44.0526 40.1319 43.962 40.1319 43.8406L40.2593 36.5436C40.2635 36.3295 40.2768 36.1541 40.3036 36.0215C40.3303 35.8888 40.3733 35.7843 40.4352 35.7134C40.4972 35.6404 40.5823 35.5899 40.6886 35.5611C40.7562 35.5436 40.816 35.5344 40.8667 35.5302C40.9188 35.5267 40.9751 35.5267 41.037 35.5267C41.1764 35.5267 41.2461 35.4923 41.2461 35.4229C41.2439 35.3786 41.2193 35.3499 41.1686 35.3358C41.1201 35.3225 41.0567 35.3169 40.9793 35.3183C40.7878 35.3183 40.6161 35.3218 40.4613 35.3281C40.305 35.3316 40.1755 35.3379 40.0685 35.3436C39.9622 35.3492 39.8869 35.3534 39.8426 35.3534C39.7595 35.3534 39.6476 35.3499 39.504 35.3436C39.3633 35.3379 39.1985 35.3323 39.017 35.3281C38.8354 35.3225 38.6418 35.3183 38.4391 35.3183C38.3504 35.3162 38.2786 35.3218 38.2223 35.3358C38.1681 35.3492 38.1393 35.3779 38.1371 35.4229C38.1371 35.4572 38.1526 35.4825 38.1815 35.5001C38.2124 35.5176 38.2589 35.5267 38.323 35.5267C38.3828 35.5267 38.4482 35.5267 38.5221 35.5267C38.5939 35.5267 38.6671 35.5323 38.7403 35.5422C38.8121 35.552 38.8797 35.5688 38.9374 35.5962C39.0303 35.6369 39.1035 35.6923 39.1619 35.766C39.2183 35.839 39.2605 35.945 39.2872 36.0818C39.314 36.2187 39.3281 36.4039 39.3316 36.6369L39.4477 41.8869L36.8378 39.1921C36.4958 38.8566 36.1558 38.5191 35.8208 38.1801C35.4864 37.8426 35.1711 37.5191 34.872 37.2089C34.5742 36.9008 34.3075 36.6208 34.0717 36.3724C33.838 36.1239 33.6466 35.9197 33.5016 35.7632C33.3566 35.6074 33.2693 35.5127 33.2426 35.4797C33.1461 35.3681 33.0666 35.2811 33.0025 35.2172C32.9371 35.1534 32.8751 35.1225 32.8132 35.1211C32.7513 35.1232 32.7111 35.1597 32.6893 35.2313C32.6703 35.3029 32.6605 35.3969 32.6626 35.5148C32.6548 35.825 32.6492 36.1794 32.6415 36.5822C32.6358 36.9829 32.6281 37.4166 32.6203 37.8833C32.6147 38.3479 32.607 38.8314 32.6013 39.3345C32.5936 39.8377 32.5859 40.3423 32.5802 40.8553C32.5704 41.3662 32.5647 41.8672 32.557 42.3606ZM47.5181 44.2224C48.1058 44.2203 48.6492 44.1396 49.144 43.9817C49.6409 43.8259 50.0857 43.602 50.4757 43.3129C50.8684 43.0238 51.2006 42.6827 51.4751 42.2897C51.7496 41.8946 51.9587 41.4609 52.1016 40.9865C52.2466 40.5121 52.3198 40.0111 52.3198 39.4812C52.3176 38.8159 52.2093 38.2187 51.9932 37.6889C51.7785 37.1569 51.4674 36.7022 51.0592 36.326C50.653 35.9485 50.1603 35.6594 49.5839 35.4586C49.0081 35.2579 48.3585 35.1576 47.6335 35.1562C47.0535 35.1583 46.5334 35.2236 46.0717 35.3527C45.6078 35.4839 45.1996 35.6608 44.8463 35.8888C44.4908 36.1162 44.1867 36.3801 43.9341 36.6769C43.6807 36.9738 43.4737 37.2917 43.3119 37.6292C43.1514 37.9682 43.0338 38.3135 42.9578 38.6622C42.8804 39.0131 42.8438 39.3563 42.8438 39.6896C42.8438 40.0307 42.8825 40.3774 42.9599 40.7325C43.0374 41.0855 43.1549 41.4321 43.3154 41.7697C43.4759 42.1073 43.6828 42.4252 43.932 42.7199C44.1832 43.0146 44.481 43.275 44.8273 43.5003C45.1735 43.7255 45.5698 43.901 46.0161 44.0287C46.4623 44.155 46.9627 44.2203 47.5181 44.2224ZM48.0051 43.6441C47.5589 43.642 47.1507 43.5691 46.7797 43.4266C46.4088 43.2841 46.078 43.0813 45.7901 42.8196C45.5001 42.5578 45.2566 42.2469 45.0574 41.8883C44.8561 41.5297 44.7055 41.1346 44.6013 40.703C44.4971 40.2714 44.4451 39.8146 44.4451 39.3303C44.4472 38.7563 44.5028 38.2622 44.6133 37.8482C44.7231 37.4341 44.8744 37.0889 45.0659 36.811C45.2573 36.5352 45.4741 36.3155 45.7176 36.1555C45.9633 35.9934 46.2202 35.8783 46.4912 35.8102C46.76 35.7408 47.0303 35.7078 47.2992 35.7099C47.7785 35.712 48.2233 35.8081 48.633 36.0011C49.0426 36.1941 49.4023 36.4734 49.712 36.8376C50.021 37.2019 50.261 37.6433 50.4348 38.1598C50.6066 38.6763 50.696 39.2581 50.6974 39.9079C50.6953 40.463 50.6474 40.9409 50.5545 41.3458C50.4602 41.7486 50.3363 42.0876 50.1772 42.3613C50.021 42.6371 49.845 42.8589 49.6515 43.028C49.4579 43.1992 49.2608 43.3283 49.0602 43.4175C48.8589 43.5059 48.6661 43.5662 48.4845 43.5985C48.3008 43.6308 48.1403 43.6462 48.0051 43.6441ZM55.0444 40.7072C55.0444 41.0637 55.0444 41.3971 55.0423 41.7072C55.0401 42.0195 55.0345 42.2988 55.0268 42.5473C55.019 42.7943 55.0057 43.002 54.9859 43.1697C54.9726 43.2813 54.9529 43.3838 54.9296 43.4722C54.9064 43.5627 54.8733 43.6357 54.829 43.694C54.7868 43.7515 54.7262 43.7901 54.6495 43.8055C54.5974 43.8231 54.5376 43.8343 54.4679 43.842C54.3982 43.8477 54.3194 43.8519 54.2321 43.8519C54.1681 43.8519 54.1223 43.8596 54.0914 43.8771C54.0625 43.8926 54.047 43.9157 54.047 43.9445C54.047 43.9852 54.066 44.014 54.1068 44.0329C54.1455 44.0505 54.2033 44.0596 54.2786 44.0596C54.4003 44.0596 54.5299 44.0575 54.6692 44.054C54.8086 44.0505 54.9479 44.0463 55.0831 44.0427C55.2182 44.0392 55.3386 44.035 55.4463 44.0315C55.5547 44.028 55.6377 44.0259 55.694 44.0259C55.7426 44.0259 55.8256 44.028 55.9432 44.0315C56.0593 44.035 56.1987 44.0392 56.3585 44.0427C56.5189 44.047 56.6907 44.0505 56.8688 44.054C57.0482 44.0575 57.2242 44.0596 57.3988 44.0596C57.4741 44.0596 57.5318 44.0498 57.5705 44.0329C57.6113 44.014 57.6303 43.9845 57.6303 43.9445C57.6303 43.9157 57.6191 43.8926 57.5958 43.8771C57.5726 43.8596 57.5381 43.8519 57.4917 43.8519C57.4431 43.8519 57.3875 43.8498 57.3213 43.8484C57.2559 43.8448 57.1862 43.8406 57.1165 43.8329C57.0468 43.8273 56.9835 43.8175 56.9229 43.8062C56.8054 43.7908 56.7139 43.7522 56.6541 43.6947C56.5921 43.6371 56.5478 43.5634 56.5225 43.4729C56.4971 43.3845 56.4802 43.282 56.4704 43.1704C56.4514 43.0027 56.4373 42.7943 56.4295 42.5459C56.4218 42.2974 56.4162 42.0174 56.4141 41.7037C56.412 41.3914 56.412 41.056 56.412 40.696V40.5339C56.412 40.5051 56.4197 40.4819 56.4373 40.4665C56.4528 40.449 56.476 40.4412 56.5049 40.4412L57.479 40.4644C57.5254 40.4644 57.5663 40.47 57.6008 40.4833C57.6352 40.4946 57.6648 40.5163 57.688 40.5451C57.7267 40.5935 57.7866 40.6721 57.8661 40.7823C57.9456 40.8904 58.0379 41.0195 58.1441 41.1697C58.2504 41.3178 58.3644 41.4764 58.4827 41.6441C58.6002 41.8118 58.7206 41.9774 58.8367 42.1416C59.0514 42.4385 59.2485 42.6967 59.4266 42.9185C59.6046 43.1403 59.7743 43.3269 59.9368 43.4813C60.0994 43.6336 60.2613 43.7529 60.426 43.842C60.521 43.8996 60.6231 43.9445 60.7315 43.9754C60.842 44.0084 60.9715 44.0315 61.1221 44.0427C61.2706 44.0561 61.4529 44.0617 61.6669 44.0617H62.8036C62.8789 44.0617 62.9353 44.0519 62.9697 44.035C63.0063 44.0161 63.0239 43.9866 63.0239 43.9466C63.0239 43.9178 63.0127 43.8947 62.9895 43.8792C62.9662 43.8617 62.9317 43.854 62.8853 43.854C62.8388 43.854 62.7889 43.8505 62.7361 43.8441C62.6819 43.8385 62.6242 43.8308 62.5601 43.8189C62.5158 43.8112 62.4559 43.7978 62.3764 43.7768C62.299 43.7578 62.2047 43.7206 62.0942 43.6687C61.9858 43.6168 61.8619 43.5396 61.7232 43.4371C61.586 43.3368 61.4353 43.202 61.2728 43.0322C60.9286 42.668 60.5499 42.2301 60.1403 41.7213C59.7306 41.2125 59.2682 40.6321 58.7565 39.9788C59.1415 39.6644 59.4449 39.364 59.6673 39.0784C59.8897 38.7935 60.0459 38.5135 60.141 38.2384C60.2339 37.9626 60.2782 37.6833 60.2761 37.3998C60.274 37.2054 60.2494 37.0236 60.1966 36.8559C60.1466 36.6882 60.0804 36.5359 59.9995 36.399C59.9185 36.2622 59.8334 36.145 59.7426 36.046C59.6518 35.9478 59.5666 35.8706 59.4871 35.8144C59.2745 35.6741 59.05 35.5674 58.8163 35.4944C58.5805 35.4229 58.3405 35.3751 58.0956 35.3499C57.8478 35.3267 57.6008 35.3155 57.353 35.3169C57.2601 35.3169 57.144 35.319 57.0011 35.3225C56.8596 35.326 56.709 35.3302 56.5485 35.3337C56.388 35.3379 56.2353 35.3415 56.0882 35.3457C55.9411 35.3492 55.8179 35.3513 55.7173 35.3513C55.6518 35.3513 55.5624 35.3492 55.4484 35.3457C55.3365 35.3415 55.207 35.3379 55.062 35.3337C54.917 35.3302 54.7642 35.326 54.6059 35.3225C54.4454 35.319 54.287 35.3169 54.1287 35.3169C54.0414 35.3169 53.978 35.3246 53.9351 35.3422C53.8943 35.3597 53.8732 35.3864 53.8732 35.4215C53.8732 35.4558 53.8908 35.4811 53.9231 35.4986C53.9576 35.5162 54.0062 35.5253 54.0702 35.5253C54.1589 35.5253 54.2441 35.5253 54.3271 35.5288C54.4081 35.5323 54.4742 35.5422 54.5221 35.5597C54.6481 35.585 54.7466 35.625 54.8142 35.6776C54.8818 35.7274 54.9325 35.799 54.9613 35.886C54.9923 35.9745 55.0113 36.0846 55.0211 36.2194C55.0289 36.2924 55.0324 36.3717 55.0366 36.4524C55.0401 36.5352 55.0423 36.6313 55.0444 36.7436C55.0465 36.8573 55.0465 36.9962 55.0465 37.164C55.0465 37.3296 55.0465 37.5359 55.0465 37.7829C55.0444 38.0278 55.0444 38.3247 55.0444 38.6714V40.7072ZM56.4127 36.0699C56.4127 36.0292 56.4204 35.9948 56.438 35.9674C56.4556 35.9387 56.4823 35.919 56.5175 35.9078C56.5696 35.8902 56.6449 35.879 56.7477 35.8713C56.8483 35.8636 56.9757 35.8615 57.1327 35.8615C57.2721 35.8594 57.4206 35.8811 57.5789 35.9232C57.7394 35.9653 57.8957 36.0369 58.0526 36.1331C58.2089 36.2292 58.3504 36.3604 58.4799 36.5225C58.6073 36.686 58.7121 36.8868 58.7889 37.1275C58.8663 37.3668 58.905 37.6496 58.9071 37.9773C58.905 38.2952 58.8726 38.5689 58.8107 38.7949C58.7466 39.0202 58.6636 39.2089 58.5615 39.3577C58.4573 39.5065 58.3447 39.6258 58.223 39.7121C58.1554 39.7619 58.0878 39.8005 58.0203 39.83C57.9527 39.8588 57.8696 39.8798 57.7725 39.8918C57.6761 39.903 57.5522 39.9093 57.3995 39.9093C57.303 39.9093 57.2003 39.9058 57.0961 39.8981C56.9919 39.8903 56.8892 39.877 56.7906 39.8595C56.69 39.8419 56.6013 39.8209 56.5182 39.7942C56.4486 39.7598 56.4141 39.6903 56.4141 39.5858V36.0699H56.4127ZM66.665 35.9653L68.1262 35.9997C68.4682 36.013 68.735 36.0495 68.9321 36.1134C69.127 36.1773 69.2685 36.2538 69.3537 36.3485C69.4388 36.4411 69.4853 36.5415 69.4944 36.6475C69.4944 36.665 69.4966 36.6861 69.5001 36.7113C69.5043 36.7345 69.5057 36.7555 69.5057 36.7752C69.5113 36.8503 69.5233 36.9085 69.5444 36.9464C69.5634 36.985 69.593 37.0061 69.6331 37.0061C69.662 37.0061 69.6852 36.9906 69.7028 36.9618C69.7204 36.931 69.7316 36.8847 69.7373 36.8208C69.7373 36.7401 69.7394 36.6376 69.7429 36.5141C69.7464 36.3906 69.7507 36.2636 69.7542 36.1288C69.7577 35.9941 69.7619 35.8685 69.7654 35.7527C69.769 35.6348 69.7711 35.5443 69.7711 35.479C69.7711 35.3983 69.7633 35.3365 69.7457 35.2958C69.7302 35.2551 69.707 35.2362 69.6782 35.2362C69.6549 35.2362 69.6204 35.2418 69.5698 35.2516C69.5198 35.2636 69.4522 35.2769 69.3649 35.2937C69.2777 35.3113 69.17 35.3246 69.0384 35.3358C68.9067 35.3457 68.7505 35.3513 68.5647 35.3513H63.9713C63.8439 35.3513 63.7102 35.3492 63.5751 35.3436C63.4399 35.3393 63.3062 35.3323 63.1767 35.3246C63.0472 35.3148 62.9254 35.3057 62.8114 35.2937C62.7164 35.2804 62.6375 35.2629 62.5735 35.2418C62.5115 35.2207 62.4594 35.2011 62.4186 35.1843C62.3778 35.1653 62.3433 35.1555 62.3123 35.1555C62.2835 35.1555 62.2582 35.173 62.2349 35.2095C62.2117 35.2439 62.1906 35.3 62.173 35.3751C62.1652 35.3962 62.154 35.4481 62.1343 35.5309C62.1167 35.6137 62.0956 35.7141 62.0723 35.8299C62.0491 35.9457 62.0259 36.0629 62.0048 36.1829C61.9836 36.3043 61.966 36.4103 61.9506 36.505C61.9372 36.5997 61.9294 36.665 61.9294 36.7057C61.9294 36.7696 61.9393 36.8152 61.9562 36.8461C61.9738 36.8748 61.9984 36.8903 62.0336 36.8903C62.0625 36.8903 62.0878 36.879 62.111 36.8559C62.1322 36.8327 62.1498 36.7983 62.161 36.752C62.1765 36.7057 62.1976 36.6482 62.2251 36.5808C62.2518 36.5113 62.2969 36.4341 62.3588 36.3478C62.4151 36.2608 62.4862 36.1955 62.5756 36.1492C62.6643 36.105 62.7825 36.0741 62.9275 36.0545C63.0725 36.0369 63.2583 36.0215 63.4843 36.0123L65.2122 35.966V40.7072C65.2122 41.0637 65.2122 41.3971 65.2101 41.7072C65.208 42.0195 65.2024 42.2988 65.1946 42.5473C65.1869 42.7943 65.1735 43.002 65.1538 43.1697C65.1383 43.3396 65.1073 43.482 65.0588 43.5957C65.0102 43.7094 64.9314 43.781 64.8174 43.8055C64.7653 43.8231 64.7054 43.8343 64.6358 43.842C64.5661 43.8477 64.4872 43.8519 64.4 43.8519C64.3359 43.8519 64.2902 43.8596 64.2592 43.8771C64.2303 43.8926 64.2149 43.9157 64.2149 43.9445C64.2149 43.9852 64.2339 44.014 64.2747 44.0329C64.3134 44.0505 64.3711 44.0596 64.4464 44.0596C64.5682 44.0596 64.6977 44.0575 64.8371 44.054C64.9764 44.0505 65.1137 44.0463 65.2509 44.0427C65.3882 44.0392 65.5156 44.035 65.6296 44.0315C65.7436 44.028 65.8365 44.0259 65.9083 44.0259C66.0188 44.0259 66.1673 44.0294 66.3532 44.0357C66.539 44.0392 66.7494 44.0456 66.9831 44.0512C67.2189 44.0568 67.4681 44.061 67.7292 44.061C67.8045 44.061 67.8608 44.0512 67.8953 44.0343C67.9319 44.0154 67.9495 43.9859 67.9495 43.9459C67.9495 43.9171 67.934 43.894 67.9052 43.8785C67.8742 43.861 67.8277 43.8533 67.7644 43.8533C67.6757 43.8533 67.5772 43.8498 67.4688 43.8434C67.3625 43.8357 67.2639 43.8245 67.1731 43.807C67.0549 43.7894 66.9641 43.7529 66.9043 43.6968C66.8423 43.6392 66.798 43.5655 66.7727 43.4771C66.7473 43.3887 66.7304 43.2904 66.7206 43.1824C66.7016 43.0147 66.6875 42.8062 66.6797 42.5557C66.672 42.3052 66.6664 42.0237 66.6643 41.7115C66.6622 41.3971 66.6621 41.0637 66.6621 40.7072V35.9653H66.665ZM73.7619 38.9956C73.7387 38.9956 73.7211 38.99 73.7098 38.9766C73.6979 38.9647 73.6922 38.9437 73.6922 38.9149V38.6721C73.6922 38.3254 73.6922 38.0285 73.6922 37.7836C73.6901 37.5366 73.6901 37.3324 73.6901 37.1647C73.6901 36.9969 73.6901 36.858 73.6922 36.7443C73.6943 36.6327 73.6957 36.5359 73.7 36.4531C73.7042 36.3724 73.7077 36.2952 73.7154 36.2201C73.7253 36.0853 73.7443 35.9716 73.7732 35.8769C73.7999 35.7822 73.8428 35.7071 73.9006 35.653C73.9604 35.599 74.0413 35.5646 74.1441 35.5492C74.1927 35.5436 74.2483 35.5379 74.3123 35.5337C74.3764 35.5281 74.432 35.526 74.4805 35.526C74.5347 35.526 74.5826 35.5204 74.6234 35.505C74.6656 35.4895 74.6875 35.4629 74.6889 35.4222C74.6889 35.3527 74.6079 35.3183 74.4453 35.3183C74.3271 35.3183 74.1997 35.3204 74.0625 35.3239C73.9231 35.3274 73.7858 35.3316 73.6486 35.3351C73.5113 35.3393 73.386 35.3429 73.2699 35.3471C73.1538 35.3506 73.0574 35.3527 72.9842 35.3527C72.9067 35.3527 72.8082 35.3506 72.6843 35.3471C72.5604 35.3429 72.4232 35.3393 72.2704 35.3351C72.1177 35.3316 71.9615 35.3274 71.7967 35.3239C71.6328 35.3204 71.4723 35.3183 71.3132 35.3183C71.1506 35.3183 71.0697 35.3527 71.0697 35.4222C71.0697 35.4565 71.0873 35.4818 71.1196 35.4993C71.1541 35.5169 71.2027 35.526 71.2668 35.526C71.3554 35.526 71.4406 35.526 71.5237 35.5295C71.6046 35.533 71.6708 35.5429 71.7186 35.5604C71.8439 35.5857 71.9431 35.6257 72.0107 35.6783C72.0783 35.7281 72.129 35.7997 72.1578 35.8867C72.1888 35.9752 72.2078 36.0853 72.2177 36.2201C72.2254 36.2952 72.2289 36.3724 72.2331 36.4531C72.2374 36.5359 72.2388 36.632 72.2409 36.7443C72.243 36.858 72.243 36.9969 72.243 37.1647C72.243 37.3324 72.243 37.5366 72.243 37.7836C72.2409 38.0285 72.2409 38.3254 72.2409 38.6721V40.7072C72.2409 41.0637 72.2409 41.3971 72.2388 41.7072C72.2367 42.0195 72.231 42.2988 72.2233 42.5473C72.2155 42.7943 72.2022 43.002 72.1825 43.1697C72.1691 43.2813 72.1494 43.3838 72.1262 43.4722C72.1029 43.5627 72.0698 43.6357 72.0255 43.694C71.9833 43.7515 71.9227 43.7901 71.846 43.8055C71.7939 43.8231 71.7341 43.8343 71.6644 43.842C71.5947 43.8477 71.5159 43.8519 71.4286 43.8519C71.3646 43.8519 71.3181 43.8596 71.2879 43.8771C71.259 43.8926 71.2435 43.9157 71.2435 43.9445C71.2435 43.9852 71.2625 44.014 71.3033 44.0329C71.3421 44.0505 71.3998 44.0596 71.4751 44.0596C71.5947 44.0596 71.7264 44.0575 71.8657 44.054C72.0051 44.0505 72.1423 44.0463 72.2796 44.0427C72.4168 44.0392 72.5428 44.035 72.6583 44.0315C72.7723 44.028 72.8652 44.0259 72.937 44.0259C73.0468 44.0259 73.196 44.0294 73.3832 44.0357C73.569 44.0392 73.7795 44.0456 74.0132 44.0512C74.249 44.0568 74.4925 44.061 74.7459 44.061C74.8212 44.061 74.8796 44.0512 74.9176 44.0343C74.9585 44.0154 74.9775 43.9859 74.9775 43.9459C74.9775 43.9171 74.962 43.894 74.9331 43.8785C74.9021 43.861 74.8557 43.8533 74.7923 43.8533C74.7037 43.8533 74.6051 43.8498 74.4967 43.8434C74.3904 43.8357 74.2919 43.8245 74.2011 43.807C74.0829 43.7894 73.9921 43.7529 73.9322 43.6968C73.8703 43.6392 73.826 43.5655 73.8006 43.4771C73.7753 43.3887 73.7584 43.2904 73.7485 43.1824C73.7295 43.0147 73.7155 42.8062 73.7077 42.5557C73.7 42.3052 73.6943 42.0237 73.6922 41.7115C73.6901 41.3971 73.6901 41.0637 73.6901 40.7072V39.6896C73.6901 39.6433 73.7133 39.6202 73.7598 39.6202H78.1905C78.237 39.6202 78.2602 39.6433 78.2602 39.6896V40.7072C78.2602 41.0637 78.2602 41.3971 78.2581 41.7072C78.256 42.0195 78.2525 42.2988 78.2426 42.5473C78.2349 42.7943 78.2215 43.002 78.2018 43.1697C78.1884 43.2813 78.1687 43.3838 78.1455 43.4722C78.1223 43.5627 78.0892 43.6357 78.0448 43.694C78.0026 43.7515 77.9428 43.7901 77.8654 43.8055C77.8133 43.8231 77.7534 43.8343 77.6838 43.842C77.6141 43.8477 77.5353 43.8519 77.448 43.8519C77.3839 43.8519 77.3382 43.8596 77.3072 43.8771C77.2783 43.8926 77.2629 43.9157 77.2629 43.9445C77.2629 43.9852 77.284 44.014 77.3248 44.0329C77.3656 44.0505 77.4255 44.0596 77.5064 44.0596C77.6246 44.0596 77.752 44.0575 77.8893 44.054C78.0287 44.0505 78.1638 44.0463 78.301 44.0427C78.4383 44.0392 78.5643 44.035 78.6783 44.0315C78.7923 44.028 78.8852 44.0259 78.957 44.0259C79.0668 44.0259 79.2161 44.0294 79.4033 44.0357C79.5891 44.0392 79.7995 44.0456 80.0332 44.0512C80.269 44.0568 80.5126 44.061 80.7659 44.061C80.8412 44.061 80.8997 44.0512 80.9377 44.0343C80.9785 44.0154 80.9975 43.9859 80.9975 43.9459C80.9975 43.9171 80.982 43.894 80.9532 43.8785C80.9222 43.861 80.8757 43.8533 80.8124 43.8533C80.7237 43.8533 80.6252 43.8498 80.5168 43.8434C80.4105 43.8357 80.312 43.8245 80.2212 43.807C80.1029 43.7894 80.0142 43.7529 79.9523 43.6968C79.8904 43.6392 79.8481 43.5655 79.8207 43.4771C79.7953 43.3887 79.7784 43.2904 79.7686 43.1824C79.7489 43.0147 79.7355 42.8062 79.7278 42.5557C79.72 42.3052 79.7144 42.0237 79.7123 41.7115C79.7102 41.3971 79.7102 41.0637 79.7102 40.7072V38.6721C79.7102 38.3254 79.7102 38.0285 79.7102 37.7836C79.708 37.5366 79.708 37.3324 79.708 37.1647C79.708 36.9969 79.708 36.858 79.7102 36.7443C79.7123 36.6327 79.7137 36.5359 79.7179 36.4531C79.7214 36.3724 79.7278 36.2952 79.7334 36.2201C79.7432 36.0853 79.7622 35.973 79.7911 35.8825C79.8178 35.7899 79.8608 35.719 79.9206 35.6664C79.9783 35.6144 80.06 35.5794 80.162 35.5604C80.2317 35.5492 80.2958 35.5394 80.3514 35.5337C80.4091 35.5281 80.4576 35.526 80.4985 35.526C80.6378 35.526 80.7075 35.4916 80.7075 35.4222C80.7075 35.3527 80.6266 35.3183 80.464 35.3183C80.3457 35.3183 80.2183 35.3204 80.0811 35.3239C79.9438 35.3274 79.8045 35.3316 79.6672 35.3351C79.53 35.3393 79.404 35.3429 79.2886 35.3471C79.1724 35.3506 79.0781 35.3527 79.0028 35.3527C78.9254 35.3527 78.8268 35.3506 78.7029 35.3471C78.5791 35.3429 78.4418 35.3393 78.2891 35.3351C78.1363 35.3316 77.9801 35.3274 77.8154 35.3239C77.6514 35.3204 77.4909 35.3183 77.3318 35.3183C77.1693 35.3183 77.0883 35.3527 77.0883 35.4222C77.0883 35.4565 77.1059 35.4818 77.1383 35.4993C77.1728 35.5169 77.2213 35.526 77.2854 35.526C77.3741 35.526 77.4613 35.526 77.5423 35.5295C77.6232 35.533 77.6894 35.5429 77.7373 35.5604C77.8625 35.5857 77.9618 35.6257 78.0294 35.6783C78.0969 35.7281 78.1476 35.7997 78.1765 35.8867C78.2074 35.9752 78.2264 36.0853 78.2363 36.2201C78.244 36.2952 78.2476 36.3724 78.2518 36.4531C78.2553 36.5359 78.2595 36.632 78.2595 36.7443C78.2616 36.858 78.2616 36.9969 78.2616 37.1647C78.2616 37.3324 78.2616 37.5366 78.2616 37.7836C78.2595 38.0285 78.2595 38.3254 78.2595 38.6721V38.9149C78.2595 38.9437 78.2539 38.9647 78.2419 38.9766C78.23 38.99 78.2131 38.9956 78.1898 38.9956H73.7619Z" fill="white"/>
<path d="M32.6781 47.4147C32.6781 47.2533 32.6781 47.1151 32.6781 47.0007C32.6774 46.8856 32.6774 46.7901 32.6774 46.7129C32.6774 46.6351 32.6774 46.5705 32.6781 46.5172C32.6788 46.4652 32.6802 46.4203 32.6816 46.3817C32.6837 46.3438 32.6851 46.308 32.6886 46.2729C32.6928 46.2098 32.702 46.1578 32.7154 46.1157C32.728 46.0729 32.7477 46.0392 32.7745 46.0154C32.8026 45.9908 32.8399 45.9747 32.8878 45.9663C32.9209 45.9578 32.9575 45.9536 32.9948 45.9522C33.0335 45.9501 33.068 45.9501 33.0983 45.9501C33.163 45.9501 33.1954 45.934 33.1954 45.9017C33.1954 45.8694 33.1574 45.8533 33.0821 45.8533C33.0279 45.8533 32.9666 45.854 32.8977 45.8561C32.8287 45.8582 32.7583 45.8596 32.6872 45.8617C32.6154 45.8638 32.5493 45.8652 32.4901 45.8673C32.4296 45.8694 32.3831 45.8701 32.348 45.8701C32.3114 45.8701 32.2635 45.8694 32.2065 45.8673C32.1495 45.8659 32.0868 45.8638 32.0186 45.8617C31.9503 45.8596 31.8806 45.8582 31.8109 45.8561C31.7398 45.854 31.6723 45.8533 31.6082 45.8533C31.5674 45.8533 31.5378 45.8568 31.5181 45.8652C31.4991 45.8729 31.4893 45.8856 31.4893 45.9017C31.4893 45.9178 31.4977 45.9298 31.5125 45.9375C31.5287 45.9459 31.5512 45.9501 31.5808 45.9501C31.6561 45.9501 31.7159 45.9557 31.7588 45.9663C31.8173 45.9782 31.863 45.9964 31.8947 46.021C31.9263 46.0442 31.9496 46.0771 31.9629 46.1178C31.977 46.1592 31.9862 46.2105 31.9911 46.2729C31.9946 46.308 31.9967 46.3438 31.9981 46.3817C32.0003 46.4203 32.001 46.4652 32.0017 46.5172C32.0024 46.5698 32.0024 46.6351 32.0024 46.7129C32.0024 46.7901 32.0024 46.8863 32.0024 47.0007C32.0017 47.1144 32.0017 47.2526 32.0017 47.4147V48.3621C32.0017 48.5284 32.0017 48.6835 32.001 48.8281C32.0003 48.9734 31.9974 49.1039 31.9939 49.2197C31.9904 49.3348 31.9841 49.4316 31.9749 49.5095C31.9686 49.5614 31.9594 49.6092 31.9489 49.6506C31.9383 49.6927 31.9228 49.7271 31.9017 49.7537C31.882 49.7804 31.8539 49.7986 31.818 49.8057C31.794 49.8141 31.7659 49.819 31.7335 49.8225C31.7011 49.8253 31.6638 49.8267 31.6237 49.8267C31.5941 49.8267 31.5723 49.8302 31.5582 49.8386C31.5449 49.8457 31.5378 49.8569 31.5378 49.8702C31.5378 49.8892 31.547 49.9025 31.566 49.9116C31.5843 49.9201 31.611 49.9243 31.6462 49.9243C31.768 49.9236 31.8841 49.9208 31.996 49.9158C32.1086 49.9116 32.2184 49.9088 32.3261 49.9074C32.5197 49.9074 32.7048 49.9102 32.8822 49.9158C33.0596 49.9215 33.2313 49.9264 33.3988 49.932C33.5663 49.9362 33.7324 49.939 33.8971 49.9397C33.9872 49.9397 34.0555 49.9362 34.1005 49.9278C34.1456 49.9194 34.178 49.9053 34.1963 49.885C34.2146 49.8632 34.2286 49.833 34.2378 49.7944C34.2469 49.7629 34.2547 49.7243 34.2631 49.6779C34.2716 49.6309 34.2786 49.5811 34.285 49.5278C34.292 49.4758 34.2983 49.4246 34.3033 49.3755C34.3089 49.3264 34.3124 49.2842 34.3152 49.2478C34.318 49.212 34.3194 49.1874 34.3194 49.1748C34.3194 49.1453 34.3159 49.1228 34.3075 49.1067C34.3004 49.0913 34.2892 49.0835 34.2758 49.0835C34.2554 49.0835 34.2399 49.0913 34.2315 49.106C34.2237 49.12 34.2181 49.1404 34.216 49.1642C34.2103 49.1993 34.2005 49.2372 34.1871 49.2779C34.173 49.3186 34.1562 49.3579 34.1364 49.3944C34.1174 49.4323 34.097 49.4625 34.0752 49.4871C34.0302 49.5348 33.9774 49.5699 33.9147 49.5909C33.8528 49.6127 33.7824 49.626 33.7043 49.6302C33.6262 49.6358 33.5389 49.6386 33.4431 49.6372C33.3052 49.6372 33.194 49.6337 33.1081 49.6253C33.0215 49.6169 32.954 49.605 32.9047 49.5874C32.8554 49.5706 32.8174 49.5467 32.7893 49.5179C32.7527 49.485 32.7252 49.4211 32.709 49.3271C32.6928 49.233 32.6837 49.106 32.6802 48.9467C32.6767 48.7867 32.6745 48.5916 32.676 48.3607V47.4147H32.6781ZM40.3965 48.5186C40.4099 48.5186 40.4204 48.5214 40.4296 48.5277C40.4373 48.5333 40.4451 48.5432 40.45 48.5565L40.8822 49.6983C40.8948 49.7306 40.8948 49.7572 40.8822 49.7783C40.8702 49.8001 40.854 49.8141 40.8336 49.8225C40.809 49.8253 40.7907 49.8302 40.778 49.8386C40.7646 49.8464 40.7583 49.8576 40.7583 49.8709C40.7576 49.8892 40.7646 49.8997 40.7815 49.9039C40.7984 49.9081 40.8322 49.9123 40.8822 49.9137C41.0286 49.9194 41.1714 49.9215 41.3073 49.9236C41.4431 49.925 41.5656 49.925 41.6747 49.925C41.7845 49.9243 41.8739 49.9243 41.9408 49.9243C42.0062 49.9243 42.0576 49.9222 42.0935 49.9201C42.1294 49.9172 42.1547 49.9116 42.1688 49.9039C42.1822 49.8962 42.1892 49.885 42.1885 49.8709C42.1885 49.8576 42.1829 49.8464 42.1716 49.8394C42.1611 49.8309 42.1428 49.8274 42.1188 49.8274C42.0865 49.8274 42.0506 49.8253 42.0118 49.8232C41.9731 49.8197 41.9323 49.8141 41.8922 49.8064C41.8633 49.8008 41.8331 49.7895 41.7986 49.772C41.7634 49.7551 41.7268 49.7264 41.6867 49.6857C41.6473 49.6464 41.605 49.5888 41.5586 49.513C41.5135 49.4386 41.4671 49.3397 41.4164 49.219C41.3735 49.1158 41.3221 48.9937 41.2651 48.8541C41.2073 48.7137 41.1454 48.5621 41.0799 48.3979C41.0131 48.2337 40.9448 48.0653 40.8744 47.8898C40.804 47.7151 40.7351 47.541 40.6654 47.3677C40.5964 47.1944 40.5295 47.0287 40.4662 46.8694C40.4021 46.7108 40.3444 46.5663 40.2916 46.4343C40.2395 46.3031 40.1945 46.1922 40.1579 46.1017C40.1199 46.0105 40.0931 45.9459 40.077 45.908C40.053 45.8512 40.0284 45.8084 40.0059 45.7796C39.9826 45.7501 39.9608 45.7354 39.9418 45.7354C39.9186 45.7347 39.8947 45.7508 39.8728 45.7845C39.8496 45.8175 39.8222 45.8736 39.7912 45.9508L38.4356 49.332C38.4004 49.4232 38.3638 49.5032 38.3251 49.5713C38.2864 49.6386 38.2399 49.6934 38.185 49.7348C38.1301 49.7762 38.0611 49.8043 37.9774 49.8162C37.9548 49.819 37.9295 49.8218 37.9006 49.8232C37.8725 49.826 37.8457 49.8267 37.8204 49.8267C37.7965 49.8267 37.7775 49.8302 37.7648 49.8386C37.7514 49.8457 37.7451 49.8569 37.7451 49.8702C37.7451 49.8892 37.7528 49.9025 37.7704 49.9116C37.7866 49.9201 37.8127 49.9243 37.8479 49.9243C37.9168 49.9243 37.9865 49.9236 38.0555 49.9215C38.1245 49.9194 38.1899 49.9179 38.2491 49.9158C38.3096 49.9137 38.3596 49.9123 38.4011 49.9102C38.4426 49.9088 38.4701 49.9074 38.4848 49.9074C38.5419 49.9074 38.6024 49.9095 38.6693 49.9116C38.7361 49.9137 38.8023 49.9158 38.8691 49.9187C38.9367 49.9215 38.9987 49.9229 39.0571 49.9229C39.0866 49.9229 39.1092 49.9187 39.1253 49.9102C39.1408 49.9011 39.1486 49.8878 39.1486 49.8688C39.1493 49.8506 39.1444 49.8386 39.1324 49.833C39.1204 49.8274 39.0993 49.8246 39.0676 49.826H38.9867C38.905 49.8253 38.8473 49.8106 38.8157 49.7811C38.784 49.7516 38.7685 49.7109 38.7706 49.659C38.7706 49.626 38.7762 49.579 38.7889 49.5207C38.8016 49.4625 38.822 49.3986 38.8523 49.3306L39.1436 48.5607C39.1493 48.5474 39.1563 48.5369 39.1641 48.5291C39.1725 48.5207 39.181 48.5172 39.1922 48.5172H40.3965V48.5186ZM39.3006 48.2498C39.29 48.2498 39.2823 48.247 39.2802 48.2407C39.2767 48.2351 39.2767 48.2253 39.2795 48.2119L39.7764 46.8877C39.787 46.8561 39.7982 46.8421 39.8081 46.8456C39.8186 46.8484 39.8278 46.8624 39.8362 46.8877L40.3226 48.2176C40.3254 48.2281 40.3254 48.2365 40.3219 48.2414C40.3177 48.247 40.3092 48.2498 40.2959 48.2498H39.3006ZM46.4306 49.8001C46.4461 49.8485 46.4602 49.8871 46.4715 49.9158C46.4834 49.9453 46.4947 49.9671 46.5073 49.9797C46.52 49.993 46.5362 49.9994 46.5552 49.9994C46.5756 50.0001 46.5946 49.9909 46.6122 49.9741C46.6284 49.9572 46.6474 49.9278 46.6678 49.8864C46.6896 49.8443 46.7164 49.7867 46.7495 49.7137C46.784 49.6422 46.8269 49.546 46.8776 49.426C46.9283 49.3046 46.9839 49.1685 47.0451 49.0162C47.1056 48.8639 47.1676 48.7046 47.2323 48.539C47.2964 48.3733 47.359 48.2098 47.4217 48.047C47.4829 47.8856 47.5406 47.7347 47.5934 47.5951C47.6455 47.4561 47.6905 47.3354 47.7285 47.2358C47.7665 47.1354 47.7926 47.0645 47.8088 47.0224L48.9377 49.7362C48.9638 49.8015 48.9863 49.8548 49.0046 49.8934C49.0215 49.932 49.0377 49.9601 49.0532 49.9762C49.0687 49.9923 49.0863 50.0008 49.1053 50.0008C49.1278 50.0008 49.1475 49.9937 49.1637 49.9762C49.1799 49.9601 49.1954 49.9341 49.2108 49.8962C49.2249 49.8597 49.2432 49.8099 49.2622 49.7474C49.3066 49.6113 49.358 49.4548 49.4164 49.2772C49.4748 49.0997 49.5388 48.9109 49.6064 48.7102C49.674 48.5095 49.7422 48.3067 49.8126 48.0997C49.883 47.8933 49.9513 47.694 50.0168 47.5003C50.0836 47.3066 50.1434 47.1291 50.2005 46.9656C50.2561 46.8021 50.3032 46.6638 50.3426 46.5494C50.3792 46.4463 50.413 46.3557 50.4426 46.2757C50.4721 46.1957 50.5031 46.1312 50.5341 46.0799C50.5658 46.0287 50.6024 45.995 50.6446 45.9782C50.6749 45.9677 50.7065 45.9599 50.7389 45.9564C50.772 45.9529 50.8037 45.9508 50.8332 45.9508C50.8579 45.9508 50.8762 45.9466 50.8888 45.9382C50.9022 45.9291 50.9085 45.9157 50.9085 45.8968C50.9085 45.8835 50.9001 45.8722 50.8846 45.8652C50.8684 45.8568 50.8438 45.8533 50.8114 45.8533C50.7671 45.8533 50.7213 45.854 50.6734 45.8561C50.6256 45.8582 50.5798 45.8596 50.5369 45.8617C50.4926 45.8638 50.456 45.8652 50.425 45.8673C50.3933 45.8694 50.3729 45.8701 50.363 45.8701C50.3462 45.8701 50.3117 45.868 50.2596 45.8659C50.2075 45.8631 50.1413 45.8603 50.0632 45.8589C49.9851 45.8561 49.8978 45.8547 49.8014 45.8547C49.7606 45.8547 49.7303 45.8582 49.7085 45.8666C49.6881 45.8743 49.6768 45.887 49.6768 45.9031C49.6768 45.9192 49.6845 45.9312 49.7 45.9389C49.7162 45.9473 49.7387 45.9515 49.7683 45.9515C49.8373 45.9515 49.8915 45.9592 49.9295 45.974C49.9675 45.9894 49.9921 46.0084 50.0069 46.0329C50.021 46.0568 50.0287 46.0835 50.0273 46.1129C50.0273 46.1536 50.0231 46.1999 50.0146 46.2533C50.0055 46.3059 49.9921 46.3635 49.9731 46.4259C49.9407 46.5319 49.902 46.6547 49.8591 46.7965C49.8162 46.9382 49.7711 47.0898 49.7225 47.2505C49.674 47.4112 49.6254 47.5726 49.5776 47.7347C49.529 47.8982 49.4832 48.0526 49.4396 48.1993C49.3967 48.3467 49.3587 48.4765 49.3256 48.5916C49.2932 48.7053 49.2671 48.7944 49.2503 48.859L48.1164 46.1291C48.0938 46.0715 48.0741 46.0238 48.0579 45.9866C48.0417 45.9501 48.0263 45.922 48.0108 45.9031C47.9967 45.8849 47.9784 45.8764 47.9594 45.8764C47.939 45.8743 47.9179 45.8884 47.8982 45.9171C47.8777 45.9452 47.8531 45.9964 47.8243 46.0708L46.7657 48.8976C46.7495 48.8506 46.727 48.7811 46.6974 48.6884C46.6685 48.5958 46.6347 48.4877 46.596 48.3635C46.5573 48.24 46.5165 48.1081 46.4736 47.9684C46.4313 47.8281 46.3877 47.6884 46.3455 47.5474C46.3032 47.4077 46.2638 47.2737 46.2258 47.1473C46.1892 47.021 46.1568 46.9094 46.1294 46.8126C46.1012 46.7151 46.0815 46.64 46.0688 46.5873C46.0358 46.4652 46.0076 46.3614 45.9851 46.275C45.9626 46.1887 45.9506 46.1277 45.9499 46.0919C45.9499 46.0624 45.9555 46.0371 45.9654 46.0168C45.9759 45.9964 45.9907 45.9817 46.0097 45.974C46.0294 45.9635 46.0513 45.9571 46.0752 45.955C46.0998 45.9522 46.1223 45.9515 46.1442 45.9522C46.1737 45.9529 46.1984 45.9501 46.2152 45.9438C46.2321 45.9375 46.2413 45.9242 46.2413 45.9031C46.2413 45.8708 46.2033 45.8547 46.128 45.8547C46.021 45.8547 45.9253 45.8568 45.8415 45.8589C45.7577 45.861 45.6888 45.8631 45.6346 45.8659C45.5804 45.8687 45.5452 45.8701 45.5283 45.8701C45.5163 45.8701 45.4903 45.8694 45.4509 45.8673C45.4114 45.8659 45.3608 45.8638 45.3024 45.8617C45.2432 45.8596 45.1792 45.8582 45.1095 45.8561C45.0405 45.854 44.9708 45.8533 44.9019 45.8533C44.861 45.8533 44.8315 45.8568 44.8118 45.8652C44.7928 45.8729 44.7829 45.8856 44.7829 45.9017C44.7829 45.922 44.7899 45.9361 44.8033 45.9424C44.8174 45.9487 44.8392 45.9515 44.8688 45.9508C44.8857 45.9508 44.9075 45.9515 44.9335 45.955C44.9596 45.9578 44.9856 45.962 45.0131 45.9691C45.0412 45.9761 45.0645 45.9859 45.0849 45.9985C45.1243 46.028 45.1595 46.0736 45.1911 46.1368C45.2214 46.2007 45.2531 46.2814 45.2848 46.381L46.4306 49.8001ZM56.5365 48.3628C56.5372 48.6225 56.5358 48.8491 56.533 49.0428C56.5302 49.2372 56.5225 49.393 56.5098 49.5095C56.5035 49.5614 56.4943 49.6092 56.4837 49.6506C56.4732 49.6927 56.4577 49.7271 56.4366 49.7537C56.4169 49.7804 56.3887 49.7986 56.3528 49.8057C56.3289 49.8141 56.3007 49.819 56.2684 49.8225C56.236 49.8253 56.1987 49.8267 56.1586 49.8267C56.1318 49.8267 56.1114 49.8302 56.098 49.8386C56.0847 49.8457 56.0776 49.8569 56.0776 49.8702C56.0776 49.8892 56.0875 49.9025 56.1065 49.9116C56.1255 49.9201 56.1536 49.9243 56.1909 49.9243C56.243 49.9243 56.3007 49.9236 56.3648 49.9215C56.4288 49.9194 56.4936 49.9179 56.5584 49.9158C56.6231 49.9137 56.6836 49.9123 56.7392 49.9102C56.7948 49.9088 56.8413 49.9074 56.8772 49.9074C56.9265 49.9074 56.994 49.9095 57.0778 49.9116C57.1623 49.9137 57.258 49.9158 57.3643 49.9187C57.4705 49.9215 57.5818 49.9229 57.6979 49.9229C57.7387 49.9229 57.7683 49.9187 57.788 49.9102C57.807 49.9011 57.8168 49.8878 57.8168 49.8688C57.8168 49.8555 57.8084 49.8443 57.7936 49.8372C57.7774 49.8288 57.7549 49.8253 57.7253 49.8253C57.6838 49.8253 57.6388 49.8232 57.5902 49.8211C57.5416 49.8176 57.4966 49.812 57.4551 49.8043C57.4002 49.7972 57.3579 49.779 57.3298 49.7523C57.3009 49.7257 57.2805 49.6913 57.2685 49.6492C57.2566 49.6078 57.2488 49.56 57.2439 49.5081C57.2312 49.3916 57.2235 49.2365 57.2207 49.0414C57.2179 48.8477 57.2165 48.6204 57.2172 48.3614V47.9256C57.2172 47.9095 57.22 47.8968 57.2263 47.8891C57.2319 47.8807 57.2418 47.8772 57.2552 47.8772C57.2742 47.8772 57.308 47.8772 57.3586 47.8772C57.41 47.8772 57.4684 47.8772 57.5367 47.8779C57.6043 47.8786 57.6726 47.8786 57.7422 47.8807C57.8112 47.8814 57.8739 47.8835 57.9302 47.8849C57.9858 47.8863 58.0273 47.8891 58.054 47.8926C58.1096 47.8996 58.1568 47.9144 58.1934 47.9347C58.2314 47.9544 58.261 47.9775 58.2835 48.0049C58.3053 48.0316 58.3201 48.0589 58.3292 48.0863C58.3398 48.1186 58.3483 48.1481 58.3539 48.1761C58.3595 48.2028 58.3623 48.2288 58.3623 48.2533C58.3616 48.273 58.3644 48.2898 58.3694 48.3053C58.375 48.3193 58.3877 48.3277 58.4053 48.3284C58.4334 48.3277 58.4503 48.3158 58.4545 48.2954C58.4588 48.2751 58.4609 48.2512 58.4588 48.226C58.4588 48.2154 58.4588 48.1944 58.4595 48.1642C58.4602 48.1326 58.4616 48.0968 58.463 48.0554C58.4651 48.014 58.4672 47.974 58.47 47.934C58.4728 47.8947 58.4764 47.8603 58.4799 47.833C58.489 47.7488 58.4982 47.6772 58.508 47.6175C58.5172 47.5586 58.5221 47.5186 58.5235 47.4989C58.5235 47.4667 58.513 47.4505 58.4911 47.4505C58.4728 47.4505 58.4609 47.454 58.4517 47.4631C58.444 47.4723 58.4334 47.4856 58.4215 47.5045C58.3968 47.5375 58.3687 47.5621 58.3342 47.5761C58.2997 47.5902 58.2525 47.5993 58.192 47.6028C58.1308 47.6056 58.0498 47.607 57.9464 47.6063C57.8971 47.6063 57.8401 47.6063 57.7774 47.607C57.7141 47.607 57.6507 47.6077 57.5846 47.6084C57.5191 47.6091 57.4565 47.6091 57.3995 47.6105C57.3417 47.6112 57.2939 47.6112 57.2552 47.6112C57.2418 47.6112 57.2319 47.607 57.2263 47.5986C57.22 47.5902 57.2172 47.5789 57.2172 47.5628V46.2168C57.2172 46.1922 57.2207 46.174 57.2291 46.1614C57.2369 46.148 57.2495 46.1417 57.2657 46.1417C57.2981 46.1417 57.341 46.1417 57.3945 46.1438C57.4487 46.1445 57.5078 46.1459 57.5733 46.1473C57.6381 46.1494 57.7035 46.1508 57.7704 46.1515C57.8358 46.1536 57.8985 46.155 57.9548 46.1557C58.0125 46.1564 58.059 46.1578 58.097 46.1578C58.2011 46.1614 58.2821 46.1796 58.3398 46.2098C58.3975 46.2414 58.4355 46.2771 58.4531 46.3193C58.4714 46.3607 58.4813 46.3993 58.4834 46.4357C58.4855 46.4715 58.4862 46.501 58.4855 46.5235C58.4883 46.5529 58.4932 46.5747 58.5024 46.5887C58.5108 46.6021 58.5228 46.6091 58.539 46.6091C58.5524 46.6091 58.5643 46.6021 58.5742 46.5894C58.584 46.5768 58.5904 46.5579 58.5932 46.534C58.5974 46.5179 58.6009 46.4891 58.6037 46.4477C58.6073 46.407 58.6101 46.3628 58.6129 46.3143C58.6143 46.2652 58.6164 46.221 58.6185 46.1803C58.6192 46.1396 58.6206 46.1122 58.6206 46.0975C58.6298 46.0259 58.6389 45.9719 58.6488 45.9361C58.6579 45.8996 58.6629 45.8722 58.6643 45.8554C58.6643 45.8392 58.6615 45.8266 58.6551 45.8182C58.6495 45.8105 58.6396 45.8063 58.6263 45.8063C58.6129 45.8063 58.6002 45.8098 58.5869 45.8161C58.5742 45.8224 58.558 45.8301 58.5397 45.8385C58.5108 45.8456 58.4792 45.8512 58.4454 45.8526C58.4109 45.8554 58.3687 45.8568 58.3187 45.8596C58.2962 45.8596 58.2518 45.8596 58.185 45.8596C58.1174 45.8603 58.0357 45.8603 57.94 45.8603C57.8436 45.861 57.7429 45.861 57.6367 45.8617C57.5297 45.8617 57.4269 45.8624 57.3263 45.8624C57.2263 45.8631 57.1383 45.8631 57.0616 45.8631C56.9849 45.8638 56.9293 45.8638 56.8934 45.8638C56.754 45.8631 56.621 45.8603 56.495 45.8554C56.3683 45.8512 56.2423 45.8484 56.1163 45.847C56.0755 45.847 56.0452 45.8512 56.0234 45.8596C56.003 45.8687 55.9918 45.882 55.9918 45.901C55.9918 45.9143 56.0002 45.9249 56.015 45.9326C56.0312 45.941 56.0537 45.9445 56.0833 45.9445C56.1248 45.9445 56.1642 45.9445 56.2029 45.9466C56.2409 45.9487 56.2712 45.9529 56.2937 45.9606C56.3521 45.9726 56.3979 45.9908 56.4295 46.0154C56.4612 46.0385 56.4845 46.0715 56.4978 46.1122C56.5119 46.1536 56.521 46.2049 56.526 46.2673C56.5295 46.3017 56.5316 46.3382 56.533 46.3761C56.5344 46.414 56.5358 46.4596 56.5365 46.5115C56.5372 46.5642 56.5372 46.6294 56.5372 46.7073C56.5372 46.7845 56.5372 46.8807 56.5372 46.9951C56.5365 47.1087 56.5365 47.247 56.5365 47.4091V48.3628ZM63.0239 48.3628C63.0239 48.5376 63.0239 48.6997 63.0232 48.8477C63.0225 48.9965 63.0197 49.1299 63.0162 49.2449C63.0127 49.3614 63.0063 49.4583 62.9972 49.5369C62.9902 49.6148 62.9754 49.6765 62.9528 49.7215C62.9303 49.7671 62.8937 49.7951 62.8402 49.8057C62.8163 49.8141 62.7881 49.819 62.7558 49.8225C62.7234 49.8253 62.6868 49.8267 62.646 49.8267C62.6164 49.8267 62.5946 49.8302 62.5805 49.8386C62.5671 49.8457 62.5601 49.8569 62.5601 49.8702C62.5601 49.8892 62.5693 49.9025 62.5883 49.9116C62.6066 49.9201 62.6333 49.9243 62.6685 49.9243C62.7241 49.9243 62.7853 49.9236 62.8501 49.9215C62.9148 49.9194 62.9789 49.9179 63.0429 49.9158C63.107 49.9137 63.1654 49.9123 63.2196 49.9102C63.2724 49.9088 63.316 49.9074 63.3491 49.9074C63.3984 49.9074 63.466 49.9095 63.5518 49.9116C63.6377 49.9137 63.7355 49.9158 63.8453 49.9187C63.9544 49.9215 64.0706 49.9229 64.1916 49.9229C64.2268 49.9229 64.2529 49.9187 64.2691 49.9102C64.2859 49.9011 64.2944 49.8878 64.2944 49.8688C64.2944 49.8555 64.2874 49.8443 64.274 49.8372C64.2599 49.8288 64.2381 49.8253 64.2085 49.8253C64.1663 49.8253 64.1205 49.8232 64.0706 49.8211C64.0199 49.8176 63.9741 49.812 63.9326 49.8043C63.8777 49.7972 63.8355 49.7818 63.8059 49.7586C63.7764 49.7355 63.7552 49.706 63.7426 49.6688C63.7299 49.6323 63.7208 49.5888 63.7165 49.5404C63.7095 49.4625 63.7046 49.3657 63.701 49.2478C63.6982 49.1299 63.6968 48.9972 63.6954 48.8477C63.6947 48.6976 63.6947 48.5362 63.6947 48.3614V47.414C63.6947 47.2526 63.6947 47.1144 63.6947 47C63.694 46.8849 63.694 46.7894 63.694 46.7122C63.694 46.6343 63.694 46.5698 63.6947 46.5164C63.6954 46.4645 63.6968 46.4196 63.6982 46.381C63.7003 46.3431 63.7017 46.3073 63.7053 46.2722C63.7095 46.2091 63.7186 46.1571 63.732 46.115C63.7447 46.0722 63.7644 46.0385 63.7911 46.0147C63.8193 45.9901 63.8566 45.974 63.9045 45.9656C63.9361 45.9571 63.9636 45.9529 63.9875 45.9515C64.0114 45.9494 64.0382 45.9494 64.067 45.9494C64.0966 45.9494 64.1184 45.9452 64.1325 45.9368C64.1459 45.9277 64.1529 45.9143 64.1529 45.8954C64.1529 45.882 64.1431 45.8708 64.1241 45.8638C64.1051 45.8554 64.0769 45.8519 64.0396 45.8519C63.9875 45.8519 63.9305 45.8526 63.8686 45.8547C63.8066 45.8568 63.7447 45.8582 63.682 45.8603C63.6187 45.8624 63.5624 45.8638 63.5089 45.8659C63.4568 45.868 63.4139 45.8687 63.3801 45.8687C63.3386 45.8687 63.2893 45.868 63.2309 45.8659C63.1732 45.8645 63.1112 45.8624 63.0458 45.8603C62.9803 45.8582 62.9155 45.8568 62.8522 45.8547C62.7881 45.8526 62.7304 45.8519 62.6783 45.8519C62.6354 45.8519 62.603 45.8554 62.5812 45.8638C62.5594 45.8708 62.5488 45.882 62.5488 45.8954C62.5488 45.9143 62.5559 45.9277 62.5693 45.9368C62.5833 45.9452 62.6051 45.9494 62.6347 45.9494C62.6671 45.9494 62.7002 45.9515 62.734 45.9536C62.767 45.9571 62.7994 45.9628 62.8297 45.9705C62.8867 45.9838 62.9296 46.0154 62.9599 46.0645C62.9895 46.1136 63.0078 46.1831 63.0127 46.2715C63.0162 46.3066 63.0183 46.3424 63.0197 46.3803C63.0218 46.4189 63.0225 46.4638 63.0232 46.5158C63.0239 46.5684 63.0239 46.6336 63.0239 46.7115C63.0239 46.7887 63.0239 46.8849 63.0239 46.9993C63.0232 47.113 63.0232 47.2512 63.0232 47.4133V48.3628H63.0239Z" fill="white"/>
<path d="M68.7553 48.3628C68.7553 48.5291 68.7553 48.6842 68.7546 48.8288C68.7539 48.974 68.7511 49.1046 68.7475 49.2204C68.744 49.3355 68.7377 49.4323 68.7285 49.5102C68.7222 49.5621 68.7131 49.6098 68.7025 49.6513C68.6919 49.6934 68.6765 49.7277 68.6553 49.7544C68.6356 49.7811 68.6075 49.7993 68.5716 49.8063C68.5477 49.8148 68.5195 49.8197 68.4871 49.8232C68.4547 49.826 68.4174 49.8274 68.3773 49.8274C68.3478 49.8274 68.3259 49.8309 68.3119 49.8393C68.2985 49.8463 68.2914 49.8576 68.2914 49.8709C68.2914 49.8899 68.3006 49.9032 68.3196 49.9123C68.3379 49.9207 68.3646 49.9249 68.3998 49.9249C68.4569 49.9249 68.5167 49.9242 68.5814 49.9221C68.6462 49.92 68.7109 49.9186 68.7743 49.9165C68.8369 49.9144 68.8932 49.913 68.9432 49.9109C68.9939 49.9095 69.0326 49.9081 69.0586 49.9081C69.0812 49.9081 69.1199 49.9088 69.1748 49.9109C69.229 49.913 69.2937 49.9144 69.3683 49.9165C69.443 49.9179 69.5232 49.92 69.6062 49.9221C69.69 49.9242 69.7717 49.9249 69.8526 49.9249C69.8878 49.9249 69.9145 49.9207 69.9328 49.9123C69.9518 49.9032 69.961 49.8899 69.961 49.8709C69.961 49.8576 69.9554 49.8463 69.9448 49.8393C69.9342 49.8309 69.9181 49.8274 69.8962 49.8274C69.8737 49.8274 69.8477 49.8267 69.8167 49.8253C69.7864 49.8232 69.7541 49.8218 69.721 49.8183C69.6886 49.8155 69.659 49.8113 69.6309 49.8056C69.576 49.7986 69.5337 49.7804 69.5056 49.7537C69.4767 49.727 69.4563 49.6927 69.4444 49.6506C69.4324 49.6091 69.4247 49.5614 69.4204 49.5095C69.4113 49.4316 69.4049 49.3348 69.4014 49.219C69.3979 49.1032 69.3951 48.9733 69.3944 48.8267C69.3937 48.6814 69.3937 48.5249 69.3937 48.3572V48.2821C69.3937 48.2688 69.3972 48.2575 69.4056 48.2505C69.4127 48.2421 69.4239 48.2386 69.4373 48.2386L69.8913 48.2491C69.9131 48.2491 69.9314 48.2519 69.9483 48.2582C69.9645 48.2638 69.9779 48.2737 69.9891 48.287C70.0074 48.3095 70.0349 48.346 70.0722 48.3972C70.1088 48.4477 70.1524 48.5074 70.2017 48.5775C70.251 48.6463 70.3045 48.72 70.3594 48.7986C70.4143 48.8765 70.4699 48.9537 70.5241 49.0302C70.624 49.1684 70.7155 49.2884 70.7986 49.3916C70.8816 49.4948 70.9605 49.5818 71.0365 49.6534C71.1118 49.7242 71.1878 49.7797 71.2638 49.8211C71.3082 49.8478 71.3553 49.8688 71.406 49.8828C71.4574 49.8983 71.5179 49.9088 71.5876 49.9144C71.6566 49.9207 71.7417 49.9235 71.8417 49.9235H72.371C72.4062 49.9235 72.4322 49.9193 72.4484 49.9109C72.4653 49.9018 72.4737 49.8885 72.4737 49.8695C72.4737 49.8562 72.4681 49.8449 72.4575 49.8379C72.447 49.8295 72.4308 49.826 72.409 49.826C72.3872 49.826 72.3639 49.8239 72.34 49.8218C72.3147 49.819 72.2879 49.8155 72.2584 49.8099C72.2379 49.8063 72.2098 49.8 72.1725 49.7902C72.1366 49.7811 72.0923 49.7642 72.0409 49.7397C71.9902 49.7158 71.9332 49.6793 71.8677 49.6323C71.8037 49.5853 71.7333 49.5228 71.658 49.4435C71.4975 49.2737 71.3215 49.0702 71.1308 48.833C70.94 48.5958 70.7247 48.3256 70.4861 48.0217C70.6648 47.8758 70.8063 47.7354 70.9098 47.6028C71.0132 47.4701 71.0864 47.3396 71.1301 47.2112C71.173 47.0828 71.1941 46.9529 71.1934 46.821C71.1927 46.7305 71.1808 46.6463 71.1568 46.5677C71.1336 46.4898 71.1026 46.4189 71.0653 46.355C71.0273 46.2912 70.9879 46.2364 70.9457 46.1908C70.9034 46.1452 70.864 46.1094 70.8267 46.0834C70.7275 46.0182 70.6233 45.9683 70.5142 45.9347C70.4044 45.9017 70.2925 45.8792 70.1785 45.8673C70.063 45.8568 69.9483 45.8511 69.8329 45.8518C69.7899 45.8518 69.7358 45.8525 69.6689 45.8547C69.6034 45.8568 69.533 45.8582 69.4584 45.8603C69.3838 45.8624 69.3127 45.8638 69.2445 45.8659C69.1762 45.868 69.1185 45.8687 69.0713 45.8687C69.0411 45.8687 68.9995 45.868 68.946 45.8659C68.8939 45.8645 68.8334 45.8624 68.7658 45.8603C68.6983 45.8582 68.6272 45.8568 68.5533 45.8547C68.4787 45.8525 68.4048 45.8518 68.3309 45.8518C68.29 45.8518 68.2605 45.8554 68.2408 45.8638C68.2218 45.8715 68.2119 45.8841 68.2119 45.9003C68.2119 45.9164 68.2204 45.9283 68.2351 45.9361C68.2513 45.9445 68.2739 45.9487 68.3034 45.9487C68.3449 45.9487 68.3844 45.9487 68.4231 45.9508C68.4611 45.9529 68.4913 45.9571 68.5139 45.9648C68.5723 45.9768 68.618 45.995 68.6497 46.0196C68.6814 46.0427 68.7046 46.0757 68.718 46.1164C68.7321 46.1578 68.7412 46.2091 68.7461 46.2715C68.7497 46.3059 68.7518 46.3424 68.7532 46.3803C68.7553 46.4189 68.756 46.4638 68.7567 46.5157C68.7574 46.5684 68.7574 46.6336 68.7574 46.7115C68.7574 46.7887 68.7574 46.8849 68.7574 46.9992C68.7567 47.1129 68.7567 47.2512 68.7567 47.4133V48.3628H68.7553ZM69.3923 46.2034C69.3923 46.1845 69.3958 46.1683 69.4042 46.1557C69.412 46.1424 69.4247 46.1333 69.4408 46.1276C69.4655 46.1192 69.5 46.1143 69.5478 46.1108C69.5943 46.1073 69.6541 46.1066 69.7266 46.1066C69.7914 46.1059 69.861 46.1157 69.9342 46.1354C70.0088 46.155 70.082 46.188 70.1545 46.2329C70.2277 46.2778 70.2932 46.3389 70.3537 46.414C70.4129 46.4905 70.4614 46.5838 70.498 46.6961C70.5339 46.8077 70.5522 46.9396 70.5529 47.0919C70.5522 47.24 70.5367 47.3677 70.5079 47.4722C70.4783 47.5775 70.4396 47.6652 70.3917 47.734C70.3432 47.8028 70.2911 47.8589 70.2341 47.8989C70.2024 47.9221 70.1714 47.9403 70.1398 47.9537C70.1081 47.967 70.0694 47.9768 70.0243 47.9824C69.9793 47.988 69.9216 47.9909 69.8505 47.9909C69.8054 47.9909 69.7576 47.9888 69.709 47.9852C69.6604 47.9817 69.6126 47.9754 69.5668 47.967C69.5197 47.9586 69.4788 47.9488 69.4401 47.9368C69.4078 47.9207 69.3916 47.8884 69.3916 47.84V46.2034H69.3923ZM79.822 45.9024C79.8135 45.8455 79.8022 45.8034 79.7861 45.7768C79.7699 45.7487 79.7495 45.7354 79.7248 45.7354C79.7016 45.7354 79.6805 45.7459 79.6636 45.7676C79.6453 45.7894 79.627 45.8217 79.6059 45.8645L78.1369 48.939L76.6624 45.9024C76.6391 45.8547 76.6194 45.8189 76.6032 45.795C76.587 45.7704 76.5716 45.7543 76.5582 45.7466C76.5448 45.7382 76.5314 45.7347 76.5167 45.7361C76.4948 45.7361 76.4758 45.748 76.4611 45.7718C76.4449 45.795 76.4329 45.8301 76.4252 45.8757L75.8902 49.386C75.8818 49.4498 75.8698 49.5116 75.8543 49.572C75.8389 49.6323 75.8163 49.6835 75.7875 49.7263C75.7579 49.7692 75.7185 49.7979 75.6685 49.8113C75.6291 49.8197 75.5974 49.8239 75.5728 49.8253C75.5496 49.8274 75.527 49.8274 75.5059 49.8274C75.4764 49.8274 75.4545 49.8302 75.4405 49.8365C75.4271 49.8421 75.4201 49.852 75.4201 49.8653C75.4201 49.8885 75.4292 49.9046 75.4461 49.913C75.463 49.9214 75.4876 49.9256 75.5172 49.9249C75.5784 49.9249 75.6432 49.9228 75.7122 49.9207C75.7811 49.9179 75.8466 49.9151 75.9064 49.9137C75.9677 49.9109 76.0155 49.9095 76.0514 49.9095C76.0866 49.9095 76.1331 49.9116 76.1929 49.9137C76.2513 49.9158 76.3182 49.9179 76.3907 49.9207C76.4646 49.9235 76.5399 49.9249 76.618 49.9249C76.661 49.9249 76.6933 49.9193 76.7151 49.9095C76.737 49.899 76.7475 49.8842 76.7475 49.8653C76.7468 49.852 76.7384 49.8421 76.7229 49.8365C76.7074 49.8302 76.6884 49.8274 76.6659 49.8274C76.637 49.8274 76.6046 49.8253 76.5687 49.8218C76.5329 49.8183 76.4892 49.8113 76.4392 49.8C76.3928 49.7902 76.3541 49.7713 76.3238 49.7446C76.2928 49.7179 76.2781 49.6779 76.2766 49.6281C76.2766 49.586 76.2767 49.5467 76.2788 49.5081C76.2809 49.4695 76.2851 49.4253 76.2928 49.3755L76.5793 47.195C76.618 47.2765 76.6602 47.367 76.7081 47.468C76.7553 47.5677 76.8038 47.668 76.8524 47.7712C76.901 47.8737 76.9467 47.9705 76.9904 48.061C77.0326 48.1523 77.0699 48.2309 77.0995 48.2954C77.129 48.36 77.1487 48.4042 77.1579 48.4281C77.1677 48.454 77.186 48.4961 77.2135 48.5537C77.2416 48.6112 77.2747 48.6793 77.3141 48.7565C77.3528 48.8344 77.3951 48.9165 77.4394 49.0021C77.4845 49.0891 77.5288 49.1733 77.5717 49.2562C77.6161 49.3397 77.6555 49.4162 77.6914 49.4842C77.7273 49.5523 77.7562 49.6077 77.7787 49.6506C77.8209 49.7348 77.8582 49.8007 77.8878 49.8478C77.9173 49.8948 77.9448 49.9186 77.968 49.9193C77.9835 49.92 77.9983 49.913 78.0138 49.8969C78.0292 49.8814 78.0482 49.852 78.0715 49.8077C78.0947 49.7649 78.1271 49.7011 78.1679 49.6176L79.3616 47.141L79.691 49.5425C79.7016 49.6169 79.7044 49.6723 79.7002 49.7088C79.6946 49.7453 79.6833 49.767 79.6643 49.7741C79.6453 49.7825 79.6312 49.7909 79.6199 49.8021C79.6101 49.812 79.6045 49.8225 79.6045 49.8337C79.6038 49.852 79.6136 49.8646 79.6361 49.8716C79.6587 49.8786 79.7002 49.8856 79.7614 49.8934C79.798 49.8962 79.8466 49.899 79.9078 49.9018C79.9691 49.9046 80.0366 49.9074 80.1112 49.9088C80.1858 49.9116 80.2626 49.913 80.34 49.9158C80.4174 49.9179 80.4913 49.9193 80.5617 49.9214C80.6321 49.9221 80.6933 49.9242 80.7447 49.9249C80.7968 49.9249 80.8348 49.9256 80.858 49.9256C80.8996 49.9256 80.9326 49.9214 80.9587 49.9123C80.984 49.9032 80.9974 49.8885 80.9981 49.8667C80.9981 49.8534 80.9911 49.8435 80.9777 49.8379C80.9636 49.8316 80.9418 49.8288 80.9122 49.8288C80.877 49.8295 80.832 49.8267 80.7771 49.8197C80.7222 49.8134 80.6553 49.7979 80.5772 49.7748C80.5223 49.7593 80.4779 49.7306 80.4449 49.6884C80.4118 49.647 80.3857 49.5888 80.3653 49.5144C80.3456 49.44 80.3273 49.3446 80.3118 49.2309L79.822 45.9024Z" fill="white"/>
</g>
<defs>
<clipPath id="clip0_3_5204">
<rect width="81" height="50" fill="white"/>
</clipPath>
</defs>
</svg>
