<svg width="109" height="106" viewBox="0 0 109 106" fill="none" xmlns="http://www.w3.org/2000/svg">
<path d="M67.0715 98.3852C67.223 98.3746 67.2995 98.1614 67.0198 97.9943L66.6139 98.1514L67.0715 98.3852Z" fill="white"/>
<path d="M65.787 96.4867C65.3775 96.3948 64.8256 96.366 64.7996 96.7846C65.3272 96.7425 65.3047 96.9163 65.892 96.8331C66.1723 96.9984 66.2601 97.2771 66.1327 97.352C66.2815 97.3467 66.4786 97.7302 66.758 97.6508C66.6029 97.1587 66.1985 96.8246 65.6111 96.6663C65.5693 96.5277 65.7222 96.5238 65.787 96.4867Z" fill="white"/>
<path d="M50.0006 70.2126L50.0063 70.4165C50.0169 70.3579 50.0129 70.2883 50.0006 70.2126Z" fill="white"/>
<path d="M49.7919 51.2244C49.773 51.3684 49.798 51.4354 49.8298 51.4493C49.8311 51.3126 49.8298 51.1992 49.7919 51.2244Z" fill="white"/>
<path d="M50.9758 48.1829C50.9487 48.2469 50.9257 48.3007 50.9011 48.3588C50.9535 48.2984 50.9909 48.2338 50.9758 48.1829Z" fill="white"/>
<path d="M50.0006 70.2131L49.9889 69.6896C49.861 69.6821 49.9652 69.9644 50.0006 70.2131Z" fill="white"/>
<path d="M61.9165 94.262C62.0072 94.3279 62.0917 94.3727 62.1867 94.3958C62.1078 94.347 62.041 94.2896 61.9696 94.2327C61.9521 94.2433 61.937 94.2526 61.9165 94.262Z" fill="white"/>
<path d="M52.9596 78.1127L53.0263 78.2525C53.0847 78.2767 53.1503 78.2942 53.2203 78.3069L52.9596 78.1127Z" fill="white"/>
<path d="M55.9942 83.8068C55.9276 83.677 55.6273 83.7988 55.4777 83.8228C55.6351 83.8253 55.7469 83.8839 55.8374 83.9794C55.8902 83.9499 55.9415 83.8957 55.9942 83.8068Z" fill="white"/>
<path d="M61.8071 92.2866L61.9662 92.3881C61.9231 92.3631 61.858 92.3142 61.8071 92.2866Z" fill="white"/>
<path d="M51.3981 73.7666C51.4398 73.7415 51.4721 73.7064 51.4883 73.6754C51.4503 73.6874 51.4213 73.7213 51.3981 73.7666Z" fill="white"/>
<path d="M34.8564 8.8585C34.8773 8.868 34.8927 8.86322 34.9116 8.86834C34.8874 8.8245 34.8679 8.8085 34.8564 8.8585Z" fill="white"/>
<path d="M38.4662 1.84245L38.4466 1.94746C38.4991 1.97969 38.5505 2.01184 38.6054 2.03291L38.4662 1.84245Z" fill="white"/>
<path d="M53.4542 42.8798C53.4472 42.8887 53.4448 42.892 53.438 42.9005C53.4067 43.0533 53.437 42.9726 53.4542 42.8798Z" fill="white"/>
<path d="M90.3599 44.1879C90.6846 43.6099 90.6599 45.1585 91.0363 44.284C90.9094 44.3529 90.5899 43.4722 90.3599 44.1879Z" fill="white"/>
<path d="M61.8253 94.1062C61.7601 94.0435 61.6946 93.9796 61.6329 93.9111C61.712 94.0086 61.7711 94.0682 61.8253 94.1062Z" fill="white"/>
<path d="M91.0361 44.2838L91.0388 44.2838L91.0749 44.1919C91.0587 44.23 91.0499 44.2516 91.0361 44.2838Z" fill="white"/>
<path d="M61.5915 32.5683C61.5361 32.5375 61.4706 32.5365 61.4032 32.5369C61.426 32.5613 61.4727 32.5732 61.5915 32.5683Z" fill="white"/>
<path d="M54.5552 39.5679L54.7267 39.3813C54.649 39.4485 54.5965 39.5109 54.5552 39.5679Z" fill="white"/>
<path d="M65.8672 29.6875C66.0009 29.6579 66.0591 29.6814 66.2125 29.5712C66.1907 29.5627 66.1709 29.5587 66.1463 29.5565C66.1012 29.6223 66.0279 29.6753 65.8672 29.6875Z" fill="white"/>
<path d="M71.0564 28.21C71.0243 28.1895 70.9842 28.1763 70.9478 28.1596C70.8956 28.1725 70.8339 28.1844 70.7811 28.2026C70.8722 28.198 70.965 28.2081 71.0564 28.21Z" fill="white"/>
<path d="M35.2726 26.4113C35.3341 26.2677 35.4146 26.1704 35.4976 26.09C35.2949 26.2249 35.0426 25.4066 35.2726 26.4113Z" fill="white"/>
<path d="M62.0396 94.1318C61.9602 94.1652 61.8984 94.158 61.8252 94.1069C61.8751 94.1503 61.9225 94.1917 61.9694 94.2322C62.014 94.21 62.048 94.1808 62.0396 94.1318Z" fill="white"/>
<path d="M65.1255 27.2754C65.4248 27.1667 65.7226 27.0561 66.0313 26.9748C65.7658 27.025 65.439 27.1414 65.1255 27.2754Z" fill="white"/>
<path d="M61.0681 57.0833L60.8593 57.0342C60.9313 57.0735 61.0041 57.0948 61.0681 57.0833Z" fill="white"/>
<path d="M68.7277 26.1094C68.9182 26.1727 69.111 26.2094 69.3011 26.2121C69.3344 26.1798 69.3739 26.1512 69.3921 26.1098C69.1717 26.1099 68.9476 26.0994 68.7277 26.1094Z" fill="white"/>
<path d="M35.5021 26.0856C35.5009 26.0887 35.4983 26.0894 35.4983 26.0894C35.4983 26.0894 35.5015 26.089 35.5021 26.0856Z" fill="white"/>
<path d="M33.9039 20.1692C33.9465 21.0566 34.3422 20.5513 34.5929 20.7183C34.8215 21.7458 34.3373 21.2284 34.1621 21.6065C34.347 22.2527 34.7637 22.7055 34.8335 23.1857C34.771 23.2311 34.7607 23.3287 34.6578 23.2309C34.8759 23.5498 34.9589 24.0544 35.0551 24.5723C35.1451 25.0907 35.3027 25.6129 35.5817 25.9633C35.5577 26.0293 35.5294 26.0657 35.501 26.0872C35.6798 25.9167 35.8847 25.8547 36.0384 25.8492C36.1243 26.2274 36.4421 26.4927 36.2049 26.6956C36.1646 26.462 36.0529 26.4671 35.9468 26.3764L36.1452 26.748C35.8369 27.1955 35.8997 26.2345 35.6153 26.2966C35.8835 27.0589 36.4667 27.8635 36.5018 28.4805C36.1628 28.7066 36.0172 27.1329 35.8916 28.0087L35.7958 27.0551C35.387 27.9 35.6921 26.484 35.2277 27.2824C35.3323 27.9071 35.4693 28.2384 35.6052 28.5663C35.7404 28.8954 35.8708 29.2227 36.0137 29.8366C36.3029 30.0433 36.2887 29.6561 36.5771 29.8612C37.4646 31.4202 36.0916 31.5028 37.0267 32.5663C37.3959 32.7912 37.8584 32.7446 37.9951 33.6858L37.4675 33.5617C37.9139 34.6992 38.313 33.9518 38.5564 35.2297C38.3047 35.0987 38.0445 34.4159 38.0686 34.6063C38.0836 35.5062 38.5198 35.0424 38.7993 35.6049L38.5106 35.8895C39.1266 37.0374 40.0552 38.1536 40.8527 39.3298C40.7131 39.3232 40.4786 39.1777 40.5574 39.5229C41.1215 40.2381 41.6167 41.0614 42.1317 41.8691C42.6275 42.6965 43.1191 43.5177 43.5715 44.2722C43.7973 44.377 44.0139 44.4874 44.2482 44.5808C44.3461 44.7 44.3215 44.8948 44.1617 44.8087C44.5116 45.4054 44.3464 44.6996 44.6596 44.862C44.929 45.1373 44.8489 45.3722 44.6124 45.2519C44.8626 45.4328 45.1556 45.6593 45.4626 45.9144C45.771 46.1682 46.116 46.4304 46.4355 46.7174C46.7601 46.9995 47.0605 47.3067 47.3389 47.5959C47.6198 47.8828 47.8578 48.1724 48.0254 48.4538L47.7791 48.3567C48.4033 49.1347 49.035 48.6201 49.5172 49.434L49.3468 49.3654C50.8345 50.9023 52.9199 52.0069 53.989 53.3251C54.5106 53.0791 55.6574 54.6472 56.1316 54.1163C56.5742 54.5551 56.7092 54.7601 56.9047 54.9833C57.1023 55.2039 57.3507 55.4622 58.0778 55.9369C58.4781 56.17 58.8778 55.869 59.4112 56.0554L59.2751 56.3777C59.5564 56.3837 59.8468 56.365 60.1293 56.3585L60.3358 56.9033L60.8602 57.0336C60.6734 56.9301 60.5089 56.7099 60.5785 56.6307C61.3873 56.8328 62.3561 57.6147 62.3178 57.7891C62.9685 57.9296 63.6148 58.0694 64.2819 58.1715C64.198 58.2918 63.8653 58.2341 63.5837 58.2365C64.7115 58.2238 63.655 58.6588 64.6939 58.6294C64.5903 58.517 64.821 58.45 64.8616 58.3882C65.2654 58.7362 66.3486 59.0127 67.1681 59.0921L66.9644 59.2941C68.4127 59.6701 70.0767 59.728 71.7375 59.8237C71.1462 59.6779 71.3183 59.2698 71.7978 59.2564L71.971 59.6355C72.2931 59.4251 71.4757 59.4683 72.1264 59.2253C72.7341 59.2915 72.526 59.6608 72.1624 59.7682C72.4161 59.7384 72.6689 59.697 72.9206 59.6617C72.9632 59.7727 72.7847 59.8268 72.7349 59.9662C73.0445 59.752 74.0539 60.3493 74.4992 59.9317L74.5463 60.0396C76.2304 59.9635 76.9803 59.7466 78.3306 59.5051C78.3012 59.186 78.8397 59.1547 79.1809 58.8235C80.1673 58.7094 81.3196 58.6527 82.4603 58.1923C83.2034 57.7361 82.5972 57.8556 82.8792 57.5357C83.0447 57.7804 84.1529 57.2643 83.6596 57.7085C84.3195 57.3757 84.7341 57.1466 85.1669 56.8513C85.3867 56.7104 85.6079 56.5487 85.8605 56.3403C86.1186 56.1421 86.4035 55.8917 86.7424 55.567C86.5081 55.5901 86.2971 55.678 86.3339 55.5297C86.5754 55.3003 87.0174 55.1815 87.0638 55.315L87.0132 55.3951C87.7046 54.5882 88.7104 53.9324 89.6092 53.1398C90.5014 52.3591 91.2766 51.453 91.3981 50.5525L91.3787 50.6504C91.5688 50.0838 91.6775 49.4812 91.818 48.9152C91.9127 48.7368 91.9482 48.6746 91.972 48.6816C91.9951 48.6881 92.0109 48.7644 92.0117 48.8438C92.02 49.0035 92.0308 49.1991 92.2349 48.9502C92.2931 47.9495 92.5553 47.2559 92.6869 46.5559C92.7641 46.2101 92.8588 45.875 92.9019 45.5244C92.9255 45.1728 92.9247 44.8079 92.8688 44.4171C92.9819 44.2721 93.084 44.0929 93.1388 43.8893C93.19 43.6856 93.2185 43.4571 93.231 43.2115C93.2434 42.9659 93.2395 42.7035 93.2262 42.4322C93.2112 42.161 93.1463 41.8865 93.0999 41.6069C93.0473 41.3288 92.9945 41.0474 92.9421 40.7689C92.8848 40.4923 92.8009 40.2265 92.746 39.9634C92.6288 39.4392 92.5643 38.9425 92.5496 38.5168L92.3867 38.6662C92.0664 38.3289 92.3364 38.1495 92.2801 37.8364C92.1471 37.9318 92.2537 38.3283 92.0677 38.1173C91.3677 36.498 90.6437 34.8431 89.6681 33.2758C88.6991 31.7141 87.5216 30.2197 86.0917 29.0042C85.5486 28.5825 85.2401 28.6845 84.936 28.7231C84.6348 28.7501 84.3246 28.7542 83.7159 28.1318L84.32 28.0454C83.993 27.9233 83.6745 27.7905 83.3605 27.6494C83.0426 27.527 82.7239 27.4041 82.4045 27.2808C81.7808 27.0037 81.131 26.7971 80.4903 26.5664C80.1727 26.441 79.8408 26.3689 79.5142 26.281C79.1864 26.1987 78.8599 26.1115 78.5313 26.0472C78.1999 25.9987 77.8689 25.9575 77.5396 25.9267C77.2106 25.8935 76.8829 25.8732 76.556 25.9006C76.7185 25.8289 76.7366 25.7175 76.9894 25.7427C76.471 25.4176 74.9537 25.5437 74.9464 25.7983C74.5457 25.7672 74.8593 25.5963 74.6119 25.48C74.3364 25.397 73.9867 25.4752 73.6762 25.5506C73.3656 25.6413 73.0917 25.7167 72.9382 25.5905C72.8858 25.5492 73.0875 25.4933 73.1879 25.4666C73.0116 25.5427 72.5939 25.5591 72.2654 25.5934C71.9363 25.6253 71.7041 25.7105 71.889 25.8392C71.4022 25.8261 70.9461 25.9209 70.5184 26.0081C70.0941 26.1185 69.6984 26.2271 69.3018 26.2113C69.1979 26.3226 69.0425 26.3843 68.8692 26.4326C68.6979 26.4873 68.506 26.5217 68.3256 26.5582C67.9643 26.631 67.6468 26.7112 67.6414 26.9696C67.6216 26.8421 67.5039 26.781 67.3281 26.7679C67.1547 26.762 66.9264 26.812 66.6847 26.8893C66.2016 27.0462 65.6668 27.3106 65.4376 27.5512C65.5689 27.3287 64.8899 27.6055 65.0284 27.3153C64.7066 27.4533 64.4067 27.6066 64.2166 27.7485C64.0297 27.8982 63.9544 28.0401 64.064 28.1313C63.3666 28.1459 62.8192 28.515 62.3852 28.906C61.9427 29.2882 61.5477 29.5831 61.0406 29.4618C59.4305 30.8077 58.1129 32.1849 56.9332 33.5644C56.7737 33.3631 57.1253 32.9964 57.462 32.6412C57.8061 32.2938 58.156 31.9763 57.9464 31.7982C56.7645 33.1314 56.4094 34.1564 55.2197 35.379C54.8869 35.6798 55.2062 35.0424 55.2357 34.8675C54.2805 36.3251 53.1541 37.5139 52.5826 38.9685C52.5456 38.9413 52.5784 38.7679 52.6334 38.6174C52.4849 38.8813 52.2121 39.1861 52.4267 39.2735L52.5205 38.9871C53.0469 38.7525 52.5302 40.3721 52.6637 40.4973C52.3143 39.7272 51.8241 41.733 51.4539 40.6288C51.4008 40.8261 51.3841 41.0972 51.543 41.1277C51.3682 41.3667 51.2434 41.4103 51.2236 41.0647C50.8414 42.0845 51.2548 41.8547 50.8332 42.7294C50.7323 42.68 50.7751 42.484 50.6973 42.3368C50.6805 42.8759 50.6892 43.4124 50.2952 44.1338C50.2511 44.0631 50.133 44.1183 50.2278 43.8923C49.72 45.2179 49.9298 46.3273 49.277 47.72C48.931 47.1458 48.983 48.1771 48.5553 48.1435L48.4565 48.9794L48.7433 48.7101C48.5402 49.4092 48.7168 50.105 48.4341 50.6765L48.3864 50.1154C48.3027 50.561 48.2448 51.0106 48.1857 51.4595L48.489 50.7399C48.5635 51.4984 49.0276 50.7733 48.7305 51.683C48.7274 51.4868 48.5811 52.3792 48.2883 52.71L48.2877 52.7075C48.3688 53.0813 48.4424 53.4578 48.2719 53.9675C48.124 54.0867 47.8194 53.7944 47.7213 53.8717C48.0363 54.2677 47.6495 55.5692 47.9804 56.0447C47.9068 55.8906 47.6864 55.8627 47.6365 55.9077L47.8935 56.2252C47.7689 56.5486 47.7198 56.5947 47.5485 56.5276C47.4725 57.0272 47.6143 56.9556 47.7313 56.9067C47.8515 56.8586 47.927 56.8301 47.7997 57.4162C47.7788 57.3221 47.7347 57.3643 47.6965 57.1674C47.6202 57.7611 47.6499 58.3415 47.6781 58.9062C47.717 59.4715 47.7062 60.0216 47.6786 60.57C47.473 60.7364 47.4362 60.497 47.4081 60.2624C47.3771 60.0281 47.3875 59.7982 47.1992 59.9861C47.3432 61.5869 47.7969 63.2569 47.9179 64.7775L47.9324 64.4892C48.5533 64.6306 47.7672 65.6545 48.1372 66.3904C48.0717 66.2089 47.7789 66.1912 47.8508 66.2326C47.8667 66.7623 48.0236 67.2841 48.1976 67.8676C48.388 68.4477 48.586 69.094 48.8635 69.8428L48.6645 69.6859C48.6819 70.3155 48.9878 71.2834 49.0846 71.9499C49.2822 72.1023 49.3522 72.4777 49.5112 72.1931C49.3555 73.3033 49.8111 74.2059 50.2222 75.0674C50.4229 75.5017 50.6623 75.9114 50.8465 76.3363C51.0267 76.7626 51.1458 77.2058 51.1452 77.6997C51.0631 77.4975 50.8272 77.2658 50.8912 77.4279C51.133 77.8914 51.3512 78.3634 51.6109 78.816C51.797 78.6002 51.6653 78.5693 51.7354 78.1853C51.9417 78.3101 52.2375 78.6538 52.4023 78.997C51.9479 78.4426 52.0206 79.1735 52.0181 79.5088C52.0692 79.4295 52.1939 79.4859 52.2571 79.4288C52.1817 80.3572 52.7919 79.3275 52.9785 80.4541L52.8303 80.4618C53.0773 80.8003 53.3777 81.0716 53.5646 81.4727C53.3846 81.7738 53.2252 81.1557 53.0012 81.2379C53.3019 81.7915 54.0999 82.0491 54.1029 82.6886C53.9009 82.4981 53.7146 82.1651 53.512 81.9721C53.4975 82.6799 53.6133 82.7023 53.7869 83.1314L53.7719 83.0879L54.1498 84.1014L54.1011 83.8151C54.3681 83.8876 54.5543 84.0071 54.7065 84.1521C54.8662 84.2927 54.9861 84.4621 55.1033 84.6432C55.3377 85.0053 55.5634 85.4166 56.063 85.7167C55.1011 85.1232 55.7341 85.728 55.4045 85.8501C55.471 86.1298 55.6053 86.5373 55.4614 86.4915C55.7126 86.627 55.7803 86.8338 55.8766 87.0546C55.9773 87.2717 56.1204 87.4939 56.4943 87.6639C56.4232 87.7533 56.8045 88.1036 56.5125 88.1749C56.9721 88.6531 56.576 87.9368 56.7216 87.901C57.1726 88.1955 57.4286 88.7364 57.7364 89.3177C58.042 89.8982 58.4612 90.4721 59.1181 90.8652C59.6014 91.2735 59.9483 91.4584 60.2838 91.6349C60.6276 91.8036 60.9747 91.9505 61.4351 92.2995C61.5746 92.6995 60.9228 92.3471 60.9228 92.3471C61.2378 92.9094 61.5891 93.2315 62.0868 93.567C61.9362 93.549 61.9633 93.6951 62.0016 93.9137C62.3519 94.2374 62.4971 93.8607 62.8473 94.3972C62.6833 94.4145 62.4447 94.464 62.188 94.3972C62.6767 94.7039 63.2277 94.9259 63.7224 95.2411C63.7076 95.4879 63.2677 95.2224 63.0292 95.1761C63.574 95.5538 64.4038 96.1881 64.7489 96.0902L64.5118 95.7275C64.6957 95.8753 64.431 96.0081 64.2648 95.9319C63.6926 95.7352 63.7372 95.3104 63.7894 95.2074L64.1408 95.4311C64.2686 94.6594 62.8398 94.4175 62.2748 93.7983L62.8443 93.7069L61.982 93.3786C61.9436 93.162 62.0472 92.89 62.3776 93.1317C62.1371 92.5461 61.897 92.8738 61.7344 92.3301C61.7252 92.262 61.7592 92.2646 61.8081 92.2888L61.3096 91.973C61.4594 91.9863 61.487 91.6778 61.68 91.9762C61.4282 91.5115 61.0675 91.2864 60.7945 91.0837C60.5225 90.881 60.3078 90.73 60.3187 90.4659L60.3955 90.5123C59.3587 89.5277 60.0462 90.6353 59.0418 90.0718L59.2403 88.9827L58.8796 89.0913C58.7896 88.9749 58.6403 88.7225 58.7815 88.6808C58.2709 88.3858 58.7182 88.8485 58.3533 88.7295C58.1844 87.9685 57.0719 87.2368 57.4264 86.7892C57.0606 86.7353 57.6629 87.4524 57.0645 86.9479C57.2449 86.689 57.0889 86.5337 56.8827 86.3449C56.682 86.1531 56.4172 85.9357 56.3561 85.5884C56.7189 85.5875 56.9119 86.1888 56.7925 85.4965C56.1503 85.4523 56.2124 84.3813 55.8389 83.9822C55.6624 84.0752 55.4465 83.8604 55.2469 83.5066C55.0422 83.155 54.8142 82.6904 54.5328 82.3247C54.6848 82.3054 53.8774 80.7271 53.6863 79.8828L53.7587 79.8752C53.3151 79.9098 53.0105 79.0842 52.6589 78.5437C52.8973 78.4649 53.0361 78.5288 53.2843 78.7917L53.028 78.2558C52.8424 78.1844 52.7011 78.0433 52.5189 77.7001L52.8601 77.7173C52.5544 76.9933 51.9314 76.3718 51.7481 75.35C51.4553 75.3911 51.2884 76.3965 50.7124 75.438C50.8503 75.345 51.0813 75.2205 51.2428 75.4649C51.1834 75.3871 51.0123 75.1936 51.0157 74.9928L51.3999 75.3173C51.362 74.8352 51.1157 75.1592 51.0229 74.7943C51.2366 74.7281 51.0881 74.4789 51.2727 74.4724C51.3225 74.5555 51.2856 74.8118 51.4126 74.9188C51.3208 74.5058 51.2896 73.9811 51.3995 73.7706C51.2901 73.8447 51.1134 73.8645 50.9904 73.5809C50.7296 72.83 51.1633 73.2416 51.1304 72.7699C50.9245 72.6322 50.9163 72.1098 50.6021 72.1862C50.5465 71.9603 50.6862 71.8764 50.7515 71.7659C50.5091 71.4091 50.2409 69.9244 50.0088 70.4571L50.0123 70.5652C50.0007 70.5476 49.9945 70.5253 49.9815 70.5031C49.9822 70.5062 49.9815 70.5031 49.9822 70.5062L49.9815 70.5031C49.8176 70.1953 49.7037 69.8669 49.6176 69.5294C49.5312 69.1916 49.5132 68.836 49.4794 68.4856C49.4218 67.7813 49.3892 67.0805 49.1965 66.4332L49.3077 66.4184C49.0689 65.6469 49.025 64.666 48.7152 64.1222C48.6883 63.8856 48.8545 63.547 48.9988 63.6359C48.8364 63.0392 48.7359 62.9742 48.8734 62.084C49.0958 62.684 49.0369 61.8635 49.0439 62.7014C49.1052 61.9048 49.2764 61.725 48.9325 60.8883C49.2382 61.1665 49.2525 60.289 49.1779 59.9177C49.0987 60.1012 49.0444 60.2855 48.9838 60.4707C48.9096 60.0504 48.9699 59.6811 48.9973 59.3074L49.369 59.5116C49.6199 58.7158 49.4435 57.9979 49.3051 57.3126C49.179 56.6314 49.1524 55.9888 49.5865 55.4209C49.3667 54.9708 49.3148 56.2693 49.0456 55.8633C49.171 55.1236 49.784 54.4245 49.8077 54.1989C50.1576 53.2385 49.3913 53.1859 49.7177 52.1621C49.5601 52.2701 49.181 52.3374 49.2104 51.5226C49.4026 50.7915 49.9404 50.7386 49.954 51.2187C49.9315 51.3952 49.8732 51.4707 49.8299 51.4546C49.8319 51.7 49.8289 52.0175 50.0279 51.7586L49.9141 51.6384C50.1073 51.3025 50.3233 50.314 50.4867 50.5955C50.4881 50.0276 50.3262 50.3136 50.1638 50.7011C50.3675 50.2618 50.45 49.9039 50.5318 49.5403C50.624 49.1803 50.7098 48.8133 50.9012 48.3639C50.7894 48.4917 50.5993 48.587 50.6416 48.4383C51.2061 47.1146 50.5805 47.7627 50.8139 46.8112C51.1824 46.3509 51.2018 47.1497 51.3701 46.1763C51.7037 45.6641 51.7483 46.1805 51.7723 46.4349C51.8016 45.9802 51.977 45.6044 52.1834 45.2965C52.3969 44.9908 52.6268 44.7464 52.7431 44.526L52.6692 44.9908C52.7134 44.7135 52.8008 44.5069 52.8882 44.2959L52.5408 44.4333C52.6873 44.2015 52.7734 43.9892 52.8766 44.04C52.833 43.7155 52.3761 44.0567 52.3916 43.4506C52.6713 43.1781 52.7242 42.3717 53.1067 42.4198C52.5079 43.3992 53.4786 42.4625 53.1252 43.3568C53.1641 43.1716 53.2609 42.9669 53.4168 42.7424C53.4698 42.7231 53.4673 42.8095 53.4549 42.8852C54.2242 42.0677 53.319 42.2649 53.8452 41.2627C53.9519 41.483 54.3086 41.2216 54.3631 41.0448C54.1338 41.4309 53.961 41.0696 54.0381 40.6295C54.5388 40.0828 54.3285 39.8831 54.5559 39.5736C54.4582 39.6835 54.352 39.7882 54.2606 39.9034C54.1602 39.6684 54.3895 39.3786 54.613 38.9127C54.7674 38.9622 54.4505 39.361 54.6078 39.2454C54.615 38.9129 54.8623 38.688 55.1452 38.4619C55.4365 38.2404 55.7508 38.0105 55.8848 37.6217C56.207 37.4104 56.2047 37.8179 56.4682 37.623C56.8176 36.7941 57.2496 37.0527 57.6893 36.2451C57.3124 36.2597 57.3271 36.3422 57.5641 35.6859L57.1299 36.3093L56.7286 36.9552C56.833 36.6259 56.922 36.2773 57.0484 35.9554C56.7336 36.2936 56.5642 36.8145 56.3517 36.9943C56.4716 36.4948 56.4958 36.5713 56.1814 36.6042C56.5416 36.4868 56.6813 36.1989 56.8427 35.9068C57.0036 35.6153 57.165 35.2993 57.5111 35.1194L57.9859 35.5919C58.4499 35.2906 58.7425 34.9188 59.0342 34.4735C59.3321 34.0377 59.6894 33.5881 60.2697 33.1891C60.1282 33.2523 59.993 33.3268 59.8539 33.3958C59.816 33.0556 60.5002 32.8132 60.7956 32.4527C60.8979 32.6565 61.1708 32.5478 61.4037 32.5436C61.2784 32.4084 62.2496 31.9901 62.109 31.5412C62.3391 31.5093 62.5576 31.4651 62.7924 31.4508C63.3104 31.2213 63.5062 30.923 63.7049 30.6173C63.9052 30.3185 64.119 30.0341 64.6316 29.8188C64.4405 30.1846 64.953 30.108 64.3787 30.5863C64.7038 30.4281 65.0117 30.3209 64.951 30.1778C65.1879 30.195 65.7561 29.5017 66.1473 29.5624C66.2541 29.4173 66.2097 29.1633 66.6078 29.0428C66.6661 29.0707 66.6446 29.1466 66.6446 29.1466C66.6065 29.0431 67.2084 28.7949 66.781 28.6794C67.112 28.7504 67.4609 28.7199 67.8188 28.6361C68.1816 28.5695 68.5584 28.4632 68.9289 28.3478C69.2976 28.2234 69.6729 28.1432 70.0189 28.0983C70.3654 28.0579 70.6826 28.05 70.9484 28.1648C71.3367 28.0771 71.7676 27.9839 72.1921 27.8985C72.6179 27.8293 73.039 27.7932 73.4009 27.7606C73.3573 27.8301 73.4033 27.8722 73.2659 27.8568C73.7673 27.9245 73.9138 27.7699 74.0857 27.617C74.2557 27.462 74.4518 27.3104 75.0278 27.4342C75.5985 27.8032 74.4123 27.6218 74.7728 27.763C74.8418 28.1374 75.1779 28.0949 75.5927 28.0816C76.0052 28.0625 76.5138 27.9825 76.855 28.2598L76.6703 28.272C77.1891 28.6234 78.0995 28.198 79.0076 28.5153C79.0076 28.5153 78.9465 28.5673 78.9737 28.6213C79.1525 28.5717 79.3675 28.5401 79.5989 28.5376C79.8267 28.5472 80.0744 28.5763 80.3292 28.6166C80.5832 28.659 80.848 28.7036 81.1 28.7677C81.3477 28.8459 81.5897 28.923 81.8124 28.9936C81.4305 29.1381 81.3689 28.9615 81.4099 29.3009C81.8016 29.4308 81.484 28.8193 82.284 29.0876C82.4749 29.3255 82.9117 29.7713 82.8271 30.0707C82.6033 29.9529 82.3863 29.8248 82.1581 29.7153C82.3138 30.2555 83.0112 30.1831 83.3296 30.4403L83.1921 30.5653C83.6918 30.8406 83.9865 30.9304 84.309 31.0084C84.4665 31.0528 84.6319 31.0946 84.8117 31.1869C84.985 31.2875 85.18 31.4282 85.4153 31.6425L85.4034 31.4547C86.2239 31.5972 85.6983 31.9996 86.4032 32.2745L86.2288 32.7389C86.4155 32.8725 86.7973 33.0616 87.1516 33.3516C87.5069 33.638 87.9153 33.9565 88.1914 34.275C87.9282 34.1708 87.5889 33.9762 87.2772 33.7506C86.9635 33.5259 86.6553 33.285 86.3717 33.1505C86.4493 33.2298 86.5543 33.3372 86.6706 33.4558C86.7789 33.5816 86.9007 33.7173 87.0245 33.8435C87.2718 34.0958 87.5273 34.3118 87.6898 34.3381C87.5409 34.221 87.3121 34.1107 87.255 33.9284C87.8945 34.124 88.4462 34.6611 88.9477 35.4379C88.5392 35.5923 88.7708 36.1359 89.0714 36.7499C89.2368 37.0501 89.3443 37.4065 89.4384 37.715C89.5205 38.0294 89.5607 38.3106 89.4548 38.5198C89.6507 38.8587 89.8038 39.2176 89.9314 39.5872C90.0588 39.9571 90.0971 40.3536 90.164 40.7474C90.2404 41.1411 90.2356 41.5518 90.264 41.9672C90.2803 42.1741 90.2967 42.3842 90.3137 42.5979C90.3138 42.8114 90.3199 43.028 90.3347 43.2488C90.9848 42.5854 90.3732 43.7683 91.0625 43.6514C91.1363 44.0853 91.0747 44.2503 91.0388 44.2869C90.8605 44.7156 90.7302 45.1378 90.5189 45.5343C90.2689 45.7988 90.4377 45.1266 90.2595 45.1454C90.082 46.0184 89.91 45.4763 89.6364 46.0074C89.7683 45.9732 89.8424 46.0626 89.8612 46.2233C89.8809 46.3835 89.8516 46.6157 89.7218 46.8381C89.9045 46.6456 90.0441 46.434 90.1882 46.2177C90.2064 46.3812 90.208 46.5204 90.1977 46.6398C90.1788 46.757 90.1398 46.852 90.0998 46.9348C90.017 47.0998 89.9078 47.2101 89.8 47.3175C89.5754 47.5329 89.4025 47.7434 89.3062 48.3668L89.259 47.9326C89.2262 48.0859 89.1518 48.2946 89.064 48.5343C88.9714 48.7723 88.8895 49.0495 88.7581 49.3132C88.5344 49.8574 88.2982 50.3967 88.343 50.8226C88.2078 50.8711 87.9662 50.8791 88.0931 50.6238C87.6251 51.2268 87.1801 51.9608 86.6663 52.6229C86.1573 53.2848 85.5523 53.8314 84.9559 54.0469L84.9559 53.8377C84.7522 54.0493 84.7024 54.383 84.3028 54.4421C84.2826 54.3721 84.3134 54.2345 84.1946 54.2988C84.0952 54.4246 83.6699 54.956 83.2661 55.0406C83.3368 54.9324 83.4102 54.8312 83.4755 54.7197C82.7452 54.9761 82.2643 55.3202 81.7924 55.6767C81.3232 56.0311 80.871 56.4032 80.2399 56.648C80.1703 56.4068 79.8265 56.3376 79.4273 56.326C79.024 56.3045 78.5668 56.3574 78.2561 56.3692L78.2635 56.2958C76.4864 56.5789 75.2535 57.1471 73.5112 57.3623C72.9726 57.0943 72.0753 57.0182 71.097 56.9036C70.1201 56.7973 69.0605 56.649 68.2526 56.3351C68.4926 56.4724 68.1401 56.7093 67.8264 56.7017C67.4538 56.5183 66.6502 56.7996 66.8202 56.3644L66.9583 56.4066C66.7655 55.8996 65.9477 55.8149 65.337 55.6161L65.0596 56.158C64.3791 55.4985 63.3174 55.1646 62.3206 54.8879C61.3501 54.5547 60.4319 54.3022 60.1912 53.7239C59.7567 53.6751 59.2982 53.4455 58.8611 53.395L59.029 53.12C58.5367 52.8297 58.1884 52.5745 57.7888 52.3456C57.3872 52.119 56.9564 51.876 56.342 51.5292L56.7052 51.4867C56.0526 51.0454 55.355 51.7426 54.7207 51.3404L54.8059 50.8151C53.6405 50.0282 52.7802 48.8543 51.4515 48.3043C51.5138 48.2652 51.6338 48.1858 51.8168 48.3176C51.5723 48.0993 51.1454 47.6256 50.7492 47.2895C50.3482 46.9585 50.0082 46.7221 49.8666 47.0507C50.0056 46.8874 49.7522 46.633 49.3779 46.3701C49.1905 46.2387 48.9727 46.1049 48.7586 45.9791C48.5498 45.847 48.3486 45.7199 48.1844 45.6158L48.4915 45.4801C47.762 45.301 47.6657 45.3604 46.9614 44.785C46.8531 44.5945 47.0229 44.4775 47.155 44.739C46.8077 44.0995 46.5678 44.5216 46.1271 43.7598L46.4899 43.8701C46.031 43.304 45.9874 43.419 45.5418 43.2633C45.1587 42.9792 44.7446 42.1165 44.9066 41.8601C44.7127 41.8864 44.2639 41.7214 44.0881 41.3132C44.1416 41.202 44.2861 41.2905 44.358 41.3355C43.8384 40.2147 42.9905 40.0709 42.8127 39.1785C42.8912 39.1073 42.9065 39.0329 42.8955 38.9574C43.3899 39.7871 43.8475 40.4177 43.7821 40.3744C44.0195 40.206 43.6172 39.548 44.3022 39.8209C43.7504 39.4591 42.8052 38.7969 42.5067 38.0872C42.511 38.0416 42.5156 37.9973 42.5395 37.9508L42.6093 37.9999C42.5378 37.8396 42.4399 37.7169 42.3257 37.6134C42.2488 37.3788 42.2044 37.228 42.0949 37.0246C42.2633 36.8267 41.7683 36.1942 41.6013 35.8469C41.3339 36.0247 41.1531 35.5451 41.1317 36.0936C41.1267 36.0265 41.1922 36.145 41.3344 36.3618C41.3713 36.4085 41.4095 36.466 41.445 36.4907C41.434 36.4877 41.4211 36.4847 41.4076 36.4807C41.5379 36.7004 41.7078 36.987 41.9008 37.3124C41.61 37.1259 41.3313 36.9081 41.2748 36.4481C40.9925 36.3727 40.7076 36.2719 40.5651 36.2037C40.7185 35.5132 40.48 34.4934 40.6651 34.2521C40.3438 33.7527 40.0459 33.1245 39.7133 32.5674C39.3943 32.0048 39.0776 31.496 38.6603 31.2462C38.4689 30.9525 38.6852 30.8217 38.7299 30.6724C38.8552 30.8356 38.9273 31.0561 39.0452 31.1258C38.6401 30.5529 38.3653 29.2464 37.9064 29.2152C37.8317 28.3422 38.4139 29.5644 38.0064 28.4605L38.1712 28.5777C38.2061 27.3748 37.6897 26.5578 37.2739 25.649C36.8196 24.7556 36.4531 23.775 36.685 22.4466C36.6555 22.6295 36.6485 22.7206 36.5839 22.7662C36.5755 22.0271 36.5399 21.2847 36.4488 20.5422C36.3809 19.7962 36.3129 19.0454 36.2445 18.2959C36.2135 17.5442 36.1672 16.7906 36.2054 16.0462C36.2656 15.3031 36.3373 14.5663 36.5509 13.8603C36.7455 13.0553 36.4871 12.9457 36.3307 12.4215L36.687 12.2816C36.5823 11.9837 36.5015 11.6854 36.4079 11.3831C36.3576 10.7589 36.615 10.2579 36.9028 9.73389C37.1898 9.20781 37.4305 8.64692 37.3286 7.83905L37.056 7.98239C37.2303 7.45436 37.343 6.24086 37.5774 6.39799C37.5501 6.33276 37.3888 6.15996 37.5567 5.98032L37.7336 6.01104L37.8307 4.62119C38.045 4.13279 38.2014 4.22792 38.3652 4.26021C38.53 4.29321 38.6866 4.26026 38.9641 3.55369C39.0876 3.00449 39.0186 1.85322 38.8357 2.00949C38.7495 2.22377 38.5323 2.52672 38.3579 2.48157L38.4486 1.95067C37.9872 1.67584 37.6294 1.07388 36.8301 2.21158L36.82 3.19749L36.4762 3.39999L36.7258 2.65274C36.3519 2.99696 36.4423 3.33078 36.4982 3.6797C36.3472 3.70964 36.2184 3.80701 36.1164 3.9704L36.3353 4.99368C36.1048 5.04384 36.0607 4.4844 35.7736 5.04584C35.8757 5.52068 36.3365 4.77886 36.2815 5.49765C35.934 5.86209 35.7827 5.69111 35.8544 6.24931C35.7054 6.28733 35.6476 6.15866 35.6395 5.94087C35.6855 6.4358 35.4114 7.16134 35.6279 7.45652C35.2298 7.84595 35.4012 9.01096 34.9146 8.87236C35.01 9.04128 35.1301 9.74794 35.1048 10.1743C34.6236 9.30703 34.8464 11.7547 34.24 11.4684C34.4566 11.7906 34.473 12.3196 34.4504 12.9007C34.4297 13.4813 34.3599 14.116 34.5003 14.6368C34.46 14.5774 34.3786 14.4598 34.4097 14.3707C34.3411 14.9456 34.1722 15.1067 34.0555 15.4773C34.4931 15.5682 34.5571 16.4676 34.8489 16.9475C34.4259 17.653 34.3242 16.519 33.9149 16.737C34.2743 16.7049 34.2837 17.9721 34.5813 17.7253C34.3219 18.2706 34.4542 18.1929 34.0936 18.4843C34.6536 18.5592 34.2162 18.9874 34.5824 19.4186C34.354 20.2158 34.0745 19.6533 34.2926 20.5038C34.1461 20.9263 33.9039 20.1692 33.9039 20.1692ZM40.9448 39.2764C40.9422 39.278 40.9397 39.2796 40.9397 39.2796C40.8399 39.1356 40.7546 39.013 40.6999 38.9344C40.7507 39.0054 40.8212 39.1042 40.9448 39.2764ZM41.8616 40.7159C41.7606 40.5335 41.624 40.3137 41.4762 40.0835C41.5363 39.9736 41.6663 39.967 41.7531 40.1143C41.6414 40.0764 41.8026 40.4493 41.8616 40.7159ZM41.9277 36.5612C42.0927 36.7622 42.0799 36.8673 42.0403 36.9302C41.976 36.8272 41.8971 36.709 41.7868 36.5576C41.7729 36.5571 41.7533 36.55 41.7378 36.5502C41.8031 36.5421 41.867 36.5389 41.9277 36.5612Z" fill="white"/>
<path d="M41.3334 36.3577C41.3088 36.3285 41.2868 36.3168 41.2608 36.2758C41.2619 36.3351 41.2656 36.3902 41.2735 36.4437C41.3191 36.4548 41.3653 36.4659 41.4061 36.4763C41.3815 36.4365 41.356 36.3947 41.3334 36.3577Z" fill="white"/>
<path d="M50.0082 70.453L50.0063 70.4175C50.0012 70.4488 49.996 70.4774 49.9803 70.4991C49.9897 70.473 49.9993 70.4704 50.0082 70.453Z" fill="white"/>
<path d="M59.2421 56.4519L59.274 56.378L59.1088 56.3745L59.2421 56.4519Z" fill="white"/>
<path d="M52.0171 79.507C51.9992 79.5349 51.9882 79.5785 51.9957 79.6519C52.0125 79.6382 52.0159 79.5783 52.0171 79.507Z" fill="white"/>
<path d="M53.7865 83.13L53.965 83.686C53.9007 83.4368 53.8401 83.2646 53.7865 83.13Z" fill="white"/>
<path d="M55.2565 85.8711C55.3245 85.8737 55.3656 85.8607 55.4032 85.8481C55.4026 85.8456 55.4017 85.8419 55.4017 85.8419L55.2565 85.8711Z" fill="white"/>
<path d="M52.6324 38.6178C52.654 38.5812 52.6734 38.5432 52.687 38.5075C52.7911 38.2331 52.7049 38.4105 52.6324 38.6178Z" fill="white"/>
<path d="M48.2868 52.7068C48.2544 52.5444 48.2209 52.383 48.2126 52.2167C48.1461 52.4699 48.1097 52.67 48.2868 52.7068Z" fill="white"/>
<path d="M65.0265 27.3096C65.0255 27.3122 65.0275 27.3123 65.0273 27.3153C65.0613 27.301 65.0915 27.2886 65.1256 27.2743L65.0265 27.3096Z" fill="white"/>
<path d="M48.3486 51.5465C48.236 51.7914 48.2078 52.0096 48.2125 52.2163C48.2748 52.0093 48.3548 51.7674 48.3486 51.5465Z" fill="white"/>
<path d="M63.9483 96.169L64.051 96.2798C64.0632 96.2623 64.0806 96.2553 64.0978 96.2531L63.9483 96.169Z" fill="white"/>
<path d="M64.0979 96.2534L64.2463 96.3374C64.1893 96.2854 64.1384 96.2424 64.0979 96.2534Z" fill="white"/>
<path d="M64.5602 96.5085C64.4522 96.4554 64.3516 96.3935 64.2466 96.3363C64.3367 96.4173 64.4381 96.5294 64.5602 96.5085Z" fill="white"/>
<path d="M61.0649 93.2079L60.9494 93.2534C60.9844 93.2556 61.0227 93.2419 61.0649 93.2079Z" fill="white"/>
<path d="M60.1725 92.3264C60.3595 92.5592 60.5132 93.0362 60.856 93.2891L60.9496 93.2535C60.6878 93.2292 60.5113 92.3984 60.1725 92.3264Z" fill="white"/>
<path d="M58.0234 87.4263L58.5546 88.3037C58.5459 88.0851 58.5402 87.7977 58.8369 88.1514C58.3718 86.8993 58.775 88.5313 58.0234 87.4263Z" fill="white"/>
<path d="M56.3897 84.7206C56.7322 85.1491 56.5366 84.6188 56.611 84.606C56.3304 84.3765 56.2608 84.32 56.3897 84.7206Z" fill="white"/>
<path d="M49.0841 63.394L49.3787 63.4236C49.2894 63.0127 49.2667 63.4288 49.0841 63.394Z" fill="white"/>
<path d="M47.4526 59.03L47.2615 59.452L47.5215 59.6543L47.4526 59.03Z" fill="white"/>
<path d="M49.6232 56.5328L49.6465 56.7158L49.6108 56.0201L49.6232 56.5328Z" fill="white"/>
<path d="M70.167 28.6603L69.9749 28.3352C69.7152 28.4526 69.7463 28.8548 70.167 28.6603Z" fill="white"/>
<path d="M85.1762 31.6944C85.1898 31.9479 85.4498 32.3085 85.7668 32.3721C85.5271 32.1116 85.3417 31.7824 85.1762 31.6944Z" fill="white"/>
<path d="M64.4327 55.4734L64.7747 55.4589C64.574 55.4281 64.3724 55.4015 64.17 55.3569C64.2577 55.3951 64.3452 55.4396 64.4327 55.4734Z" fill="white"/>
<path d="M73.3337 101.373C69.9755 100.667 65.5126 100.261 62.2686 100.766L66.7911 97.2477L68.016 91.6516C68.9582 94.796 71.2486 98.6484 73.3337 101.373Z" fill="white"/>
</svg>
