<svg width="75" height="75" viewBox="0 0 75 75" fill="none" xmlns="http://www.w3.org/2000/svg">
<path d="M71.4334 19.3509C72.2684 17.725 72.743 15.885 72.743 13.9349C72.743 8.45266 69.0313 3.70376 63.7168 2.38638C63.1276 2.24077 62.532 2.59953 62.3861 3.18841C62.24 3.77745 62.5991 4.37322 63.1881 4.51912C67.5201 5.59304 70.5458 9.4649 70.5458 13.9349C70.5458 15.2599 70.278 16.5234 69.7949 17.6751C69.6395 17.5459 69.4817 17.4194 69.3194 17.2987C64.6512 13.8301 58.1354 14.3446 51.3712 16.0106C51.2247 15.3415 51.1453 14.6474 51.1453 13.9349C51.1453 9.42096 54.2075 5.54001 58.5921 4.49744C59.1823 4.35711 59.5472 3.76485 59.4069 3.1745C59.2664 2.58414 58.6739 2.21909 58.0838 2.35972C52.7049 3.63872 48.9481 8.39861 48.9481 13.9349C48.9481 14.8396 49.053 15.7199 49.2452 16.5672C48.426 16.7932 47.6059 17.0314 46.7873 17.2772C42.8234 18.4676 39.1065 17.014 35.1717 15.4746C29.506 13.2585 23.0847 10.7467 14.7853 15.7269C11.7792 17.5308 9.68557 21.0464 8.89028 25.6258C8.14729 29.9033 8.50809 35.746 10.8559 41.993C9.26222 43.0435 7.98893 44.0306 7.06458 44.9334C-0.565031 52.385 -2.16265 61.1732 2.99466 67.3221C5.49421 70.3024 9.10767 72.1179 13.4442 72.5719C19.088 73.1293 26.0524 71.2992 30.8765 67.5038C35.071 70.8109 40.0838 72.3953 45.2736 71.6843C51.1587 70.9942 58.5841 65.8906 64.6524 58.365C71.2367 50.1994 75.0082 40.7394 75 32.4106C74.994 26.6897 73.7957 22.3139 71.4334 19.3509ZM58.3163 17.0112C62.9036 16.6928 66.0512 17.3241 68.6924 19.6278C66.9274 22.0538 64.0683 23.6351 60.8454 23.6351C56.9828 23.6351 53.6412 21.3653 52.082 18.0899C54.1503 17.5834 56.2489 17.1827 58.3163 17.0112ZM26.5206 67.7263C22.0981 69.8838 17.6556 70.8036 13.6726 70.3868C9.91439 69.9932 6.80398 68.4454 4.67783 65.9102C2.53454 63.3549 1.75785 60.2067 2.43156 56.8059C3.11859 53.3373 5.25148 49.7755 8.5995 46.5057C9.34455 45.7779 10.4057 44.9464 11.7039 44.0694C13.135 47.3052 15.1117 50.6134 17.7539 53.8385C22.4127 59.5249 26.0027 63.4043 29.1313 66.0916C28.3609 66.6978 27.4996 67.2487 26.5206 67.7263ZM62.9415 56.9861C57.3074 63.9732 50.2718 68.8862 45.0175 69.5023C40.3514 70.1001 36.3629 68.8727 32.4887 65.9671C34.3588 63.9464 35.6469 61.6619 36.8408 59.5425C38.9609 55.7792 40.7919 52.529 45.1149 51.0252C50.0628 49.3041 53.5683 46.0558 54.7321 42.1132C55.5804 39.2395 55.056 36.3841 53.2554 34.0731C50.6055 30.6725 44.9186 29.7298 36.8088 31.3475C30.5589 32.5941 22.8617 35.407 16.219 38.8721C15.6809 39.1528 15.4723 39.8164 15.753 40.3544C16.0337 40.8925 16.6974 41.1008 17.2352 40.8204C23.7034 37.4463 31.1814 34.7106 37.2386 33.5024C46.3854 31.6781 50.0544 33.5403 51.5221 35.4237C52.8754 37.1605 53.2669 39.3154 52.6247 41.491C51.6638 44.7457 48.6635 47.4644 44.393 48.9498C39.2851 50.7265 37.0692 54.66 34.9263 58.4639C33.7329 60.5824 32.5138 62.744 30.7628 64.5965C27.6981 62.0016 24.1425 58.169 19.4538 52.446C12.6332 44.277 9.69759 33.7523 11.0548 26.002C11.7392 22.0614 13.4654 19.0815 15.9158 17.6112C23.2896 13.1862 28.9229 15.39 34.3708 17.5211C38.4801 19.1285 42.7292 20.7903 47.4189 19.3818C48.2428 19.1344 49.0803 18.8893 49.9264 18.6548C51.7571 22.8734 55.9613 25.8325 60.8453 25.8325C64.6149 25.8325 67.9783 24.0682 70.1597 21.3243C71.9098 23.8845 72.7974 27.5968 72.8022 32.4131C72.8102 40.2484 69.216 49.2049 62.9415 56.9861Z" fill="#0A0A0A"/>
</svg>
