<svg width="75" height="75" viewBox="0 0 75 75" fill="none" xmlns="http://www.w3.org/2000/svg">
<path d="M2.58594 55.308V37.9804C2.58594 29.1731 7.32105 21.472 14.3842 17.2834" stroke="#0A0A0A" stroke-width="2" stroke-miterlimit="10" stroke-linecap="round" stroke-linejoin="round"/>
<path d="M51.8573 61.9531V71.704C51.8573 72.9175 50.8735 73.9013 49.66 73.9013H4.7832C3.56973 73.9013 2.58594 72.9175 2.58594 71.704V60.4348" stroke="#0A0A0A" stroke-width="2" stroke-miterlimit="10" stroke-linecap="round" stroke-linejoin="round"/>
<path d="M51.8574 51.386V55.9474" stroke="#0A0A0A" stroke-width="2" stroke-miterlimit="10" stroke-linecap="round" stroke-linejoin="round"/>
<path d="M40.0586 17.2832C47.1218 21.4716 51.8569 29.1729 51.8569 37.98V45.0868" stroke="#0A0A0A" stroke-width="2" stroke-miterlimit="10" stroke-linecap="round" stroke-linejoin="round"/>
<path d="M38.8819 8.5604C39.6368 10.1955 40.0579 12.0161 40.0579 13.9352C40.0579 21.0246 34.3107 26.7718 27.2213 26.7718C20.1319 26.7718 14.3848 21.0246 14.3848 13.9352C14.3848 6.8458 20.1318 1.09863 27.2213 1.09863C30.6368 1.09863 33.7408 2.43252 36.0406 4.60781" stroke="#0A0A0A" stroke-width="2" stroke-miterlimit="10" stroke-linecap="round" stroke-linejoin="round"/>
<path d="M62.4978 51.178H21.8768C21.2556 51.178 20.752 50.6744 20.752 50.0532V46.9823C20.752 46.361 21.2556 45.8574 21.8768 45.8574H62.4978C63.119 45.8574 63.6228 46.361 63.6228 46.9823V50.0532C63.6228 50.6744 63.119 51.178 62.4978 51.178Z" stroke="#0A0A0A" stroke-width="2" stroke-miterlimit="10" stroke-linecap="round" stroke-linejoin="round"/>
<path d="M71.2869 61.8196H21.8768C21.2556 61.8196 20.752 61.316 20.752 60.6948V57.6239C20.752 57.0026 21.2556 56.499 21.8768 56.499H71.2869C71.9081 56.499 72.4119 57.0026 72.4119 57.6239V60.6948C72.4119 61.316 71.9081 61.8196 71.2869 61.8196Z" stroke="#0A0A0A" stroke-width="2" stroke-miterlimit="10" stroke-linecap="round" stroke-linejoin="round"/>
<path d="M58.0347 20.4492C60.5725 20.4492 62.6299 18.3919 62.6299 15.854C62.6299 13.3161 60.5725 11.2588 58.0347 11.2588C55.4968 11.2588 53.4395 13.3161 53.4395 15.854C53.4395 18.3919 55.4968 20.4492 58.0347 20.4492Z" stroke="#0A0A0A" stroke-width="2" stroke-miterlimit="10" stroke-linecap="round" stroke-linejoin="round"/>
</svg>
