<svg width="50" height="50" viewBox="0 0 50 50" fill="none" xmlns="http://www.w3.org/2000/svg">
<g clip-path="url(#clip0_3_8771)">
<path d="M16.5444 28.4264C21.4231 28.4264 25.3923 24.4573 25.3923 19.5786C25.3923 14.6999 21.4231 10.7307 16.5444 10.7307C11.6657 10.7307 7.69658 14.6999 7.69658 19.5786C7.69658 24.4573 11.6657 28.4264 16.5444 28.4264ZM12.4465 20.2622C12.4822 21.2891 12.5975 22.2817 12.7865 23.2001C12.0991 23.5231 11.4534 23.938 10.8619 24.4354C9.88164 23.2902 9.24082 21.8472 9.09648 20.2622H12.4465ZM19.5949 13.6263C19.4193 13.2142 19.2267 12.8453 19.0195 12.5207C19.8344 12.8073 20.585 13.2306 21.2437 13.7639C20.8408 14.0902 20.4082 14.3699 19.9536 14.6033C19.8456 14.2609 19.726 13.9341 19.5949 13.6264V13.6263ZM13.1354 14.6032C12.6809 14.3699 12.2482 14.0902 11.8454 13.7638C12.5041 13.2305 13.2547 12.8071 14.0695 12.5206C13.8624 12.8453 13.6697 13.2142 13.4941 13.6263C13.363 13.934 13.2435 14.2608 13.1354 14.6032ZM16.5445 12.2168C17.3142 12.2168 18.138 13.3287 18.6798 15.115C17.9951 15.318 17.2776 15.4237 16.5445 15.4237C15.8114 15.4237 15.094 15.3181 14.4094 15.115C14.9512 13.3287 15.7749 12.2168 16.5445 12.2168ZM16.5445 16.7909C17.3878 16.7909 18.2133 16.6715 19.0029 16.4442C19.1457 17.1931 19.2415 18.0166 19.2746 18.895H13.8145C13.8476 18.0166 13.9435 17.1931 14.0861 16.4442C14.8758 16.6715 15.7013 16.7909 16.5445 16.7909ZM19.2747 20.2621C19.2416 21.1404 19.1457 21.9639 19.003 22.7128C18.2134 22.4855 17.3879 22.3661 16.5446 22.3661C15.7014 22.3661 14.876 22.4854 14.0863 22.7127C13.9436 21.9638 13.8478 21.1403 13.8146 20.262H19.2748L19.2747 20.2621ZM13.4942 25.5308C13.6698 25.9429 13.8625 26.3119 14.0696 26.6366C13.2548 26.3499 12.5042 25.9266 11.8455 25.3933C12.2483 25.0669 12.681 24.7873 13.1355 24.554C13.2436 24.8963 13.3632 25.2231 13.4942 25.5309V25.5308ZM19.9537 24.5539C20.4083 24.7872 20.8409 25.0668 21.2437 25.3932C20.5851 25.9265 19.8345 26.3499 19.0196 26.6365C19.2268 26.3118 19.4194 25.9429 19.595 25.5308C19.7262 25.2231 19.8457 24.8963 19.9537 24.5539ZM16.5445 26.9402C15.7749 26.9402 14.9512 25.8284 14.4094 24.0419C15.094 23.8389 15.8115 23.7333 16.5445 23.7333C17.2775 23.7333 17.9951 23.8389 18.6798 24.0419C18.138 25.8284 17.3142 26.9402 16.5445 26.9402ZM22.2271 24.4352C21.6356 23.9379 20.9899 23.5229 20.3025 23.2C20.4916 22.2815 20.6068 21.289 20.6426 20.2621H23.9926C23.8482 21.8471 23.2073 23.2901 22.2271 24.4353V24.4352ZM23.9926 18.8948H20.6426C20.6068 17.8678 20.4916 16.8752 20.3025 15.9568C20.9899 15.6338 21.6356 15.2189 22.2271 14.7216C23.2073 15.8668 23.8482 17.3097 23.9926 18.8948ZM10.8619 14.7215C11.4534 15.2189 12.0992 15.6338 12.7865 15.9568C12.5975 16.8753 12.4822 17.8678 12.4465 18.8948H9.09639C9.24072 17.3097 9.88164 15.8667 10.8618 14.7215H10.8619ZM20.7489 31.1077C21.1265 31.1077 21.4325 31.4137 21.4325 31.7913C21.4325 32.1688 21.1265 32.4749 20.7489 32.4749H12.34C11.9625 32.4749 11.6564 32.1688 11.6564 31.7913C11.6564 31.4137 11.9625 31.1077 12.34 31.1077H20.7488H20.7489ZM22.56 35.6582H10.529C10.1515 35.6582 9.84541 35.3521 9.84541 34.9746C9.84541 34.597 10.1515 34.291 10.529 34.291H22.5599C22.9374 34.291 23.2435 34.597 23.2435 34.9746C23.2435 35.3521 22.9374 35.6582 22.5599 35.6582H22.56ZM48.9729 43.1146C48.821 42.5864 48.484 42.1711 47.9984 41.9141L33.0369 33.9892C33.4637 33.4223 33.9236 32.8798 34.4139 32.3639C34.4231 32.3641 34.4324 32.3648 34.4417 32.3648C34.5557 32.3648 34.6705 32.3499 34.7837 32.3195C35.1219 32.2289 35.4042 32.0124 35.5787 31.7103L36.3341 30.4019C36.8426 29.5209 36.5396 28.3905 35.6588 27.8819L30.8976 25.1331C30.5822 24.951 30.2277 24.8688 29.8715 24.89V8.67739C29.8715 7.14722 28.6267 5.90229 27.0965 5.90229H24.6688V2.66694C24.6688 1.94409 24.353 1.30376 23.7797 0.863914C23.2062 0.423875 22.506 0.284617 21.808 0.471629L1.45293 5.92573L1.45312 5.92632C1.16143 6.00434 0.946289 6.26968 0.946289 6.58598V39.8031C0.946289 40.1806 1.25234 40.4867 1.62988 40.4867H22.009C22.015 40.4902 22.0204 40.4945 22.0266 40.498L26.7684 43.2357H18.7047C17.7092 43.2357 16.8993 44.0456 16.8993 45.0411V45.474H16.7879C15.6596 45.474 14.7416 46.3919 14.7416 47.5204V48.9257C14.7416 49.3033 15.0477 49.6093 15.4252 49.6093H32.8808C33.2583 49.6093 33.5644 49.3033 33.5644 48.9257V47.5204C33.5644 46.392 32.6464 45.474 31.518 45.474H31.4065V45.0411C31.4065 44.0456 30.5967 43.2357 29.6012 43.2357H28.6493C28.914 43.0796 29.1436 42.8561 29.3078 42.5716L30.0632 41.2632C30.3104 40.8347 30.2871 40.3232 30.0467 39.9275C30.2484 39.2451 30.4882 38.5755 30.7657 37.9226L45.1097 46.9171C45.432 47.1193 45.7843 47.2219 46.1476 47.2219C46.3089 47.2219 46.4725 47.2017 46.6365 47.1609C47.1699 47.0284 47.5971 46.7068 47.8719 46.2308L48.7848 44.6496C49.0596 44.1736 49.1246 43.6429 48.9728 43.1147L48.9729 43.1146ZM32.1973 47.5202V48.2419H16.1088V47.5202C16.1088 47.1457 16.4134 46.841 16.7879 46.841H31.518C31.8925 46.841 32.1972 47.1457 32.1972 47.5202H32.1973ZM30.0395 45.041V45.4739H18.2665V45.041C18.2665 44.8035 18.4672 44.6028 18.7047 44.6028H29.6012C29.8388 44.6028 30.0394 44.8035 30.0394 45.041H30.0395ZM28.8813 39.0694L24.5975 36.596C26.4964 34.4954 27.9342 32.0051 28.8039 29.3104L33.0877 31.7836C31.1888 33.8843 29.7511 36.3745 28.8813 39.0694ZM30.2139 26.3169L34.9751 29.0658C35.2031 29.1975 35.2816 29.4902 35.1499 29.7183L34.4236 30.9762L28.8351 27.7497L29.5614 26.4917C29.6245 26.3824 29.7276 26.3038 29.8518 26.2706C29.9759 26.2372 30.1046 26.2539 30.2139 26.3169ZM22.1616 1.79223C22.4474 1.71567 22.712 1.76811 22.9472 1.94858C23.1821 2.12895 23.3014 2.37055 23.3014 2.66694V5.90239H6.82227L22.1616 1.79223ZM2.31348 7.26958H3.21758V39.1195H2.31348V7.26958ZM22.1066 36.6696L21.3513 37.9779C21.1496 38.3272 21.0719 38.7246 21.1203 39.1195H4.58477V7.26958H27.0964C27.8727 7.26958 28.5042 7.90112 28.5042 8.67749V25.6197C28.4588 25.6799 28.4156 25.7421 28.3773 25.8084L27.622 27.1167C27.3746 27.5452 27.398 28.0568 27.6385 28.4525C26.8029 31.2784 25.3012 33.8793 23.2715 36.016C23.1483 36.0133 23.0241 36.0276 22.9018 36.0604C22.5635 36.151 22.2812 36.3674 22.1066 36.6696ZM28.1238 41.888C27.992 42.1162 27.6993 42.1945 27.4712 42.0629L22.7101 39.3141C22.6007 39.2509 22.5221 39.1478 22.4888 39.0237C22.4556 38.8996 22.472 38.771 22.5352 38.6617C22.5983 38.5523 23.2614 37.4038 23.2614 37.4038L28.85 40.6303L28.1237 41.8881L28.1238 41.888ZM47.6009 43.966L46.688 45.5473C46.5983 45.7025 46.4809 45.791 46.307 45.8342C46.1332 45.8775 45.988 45.8544 45.8361 45.759L31.3519 36.6764C31.6264 36.1435 31.9262 35.6242 32.2505 35.12L47.3585 43.1225C47.5167 43.2063 47.6094 43.3205 47.6589 43.4926C47.7084 43.6648 47.6905 43.8108 47.6009 43.966Z" fill="#5F4841"/>
</g>
<defs>
<clipPath id="clip0_3_8771">
<rect width="50" height="50" fill="white"/>
</clipPath>
</defs>
</svg>
