<svg width="61" height="61" viewBox="0 0 61 61" fill="none" xmlns="http://www.w3.org/2000/svg">
<path d="M0.5 2.75V20.075C0.5 22.1 2.9 23.075 4.325 21.65L21.65 4.325C23.075 2.9 22.1 0.5 20.075 0.5H2.75C1.475 0.5 0.5 1.475 0.5 2.75ZM7.775 5.525H11.975C12.5 5.525 12.8 6.2 12.425 6.575L6.575 12.425C6.2 12.8 5.525 12.575 5.525 11.975V7.775C5.525 6.5 6.5 5.525 7.775 5.525Z" fill="#0A0A0A"/>
<path d="M2.9751 40.25V58.25C2.9751 59.525 3.9501 60.5 5.2251 60.5H23.2251C24.5001 60.5 25.4751 59.525 25.4751 58.25V45.275C25.4751 44 26.4501 43.025 27.7251 43.025H35.7501C37.0251 43.025 38.0001 44 38.0001 45.275V58.25C38.0001 59.525 38.9751 60.5 40.2501 60.5H58.2501C59.5251 60.5 60.5001 59.525 60.5001 58.25V40.25C60.5001 38.975 59.5251 38 58.2501 38H45.2751C44.0001 38 43.0251 37.025 43.0251 35.75V27.725C43.0251 26.45 44.0001 25.475 45.2751 25.475H58.2501C59.5251 25.475 60.5001 24.5 60.5001 23.225V5.22497C60.5001 3.94997 59.5251 2.97498 58.2501 2.97498H40.2501C38.9751 2.97498 38.0001 3.94997 38.0001 5.22497V18.2C38.0001 19.475 37.0251 20.45 35.7501 20.45H22.7751C21.5001 20.45 20.5251 21.425 20.5251 22.7V35.75C20.5251 37.025 19.5501 38 18.2751 38H5.2251C4.0251 38 2.9751 38.975 2.9751 40.25ZM43.0251 45.275C43.0251 44 44.0001 43.025 45.2751 43.025H53.3001C54.5751 43.025 55.5501 44 55.5501 45.275V53.3C55.5501 54.575 54.5751 55.55 53.3001 55.55H45.2751C44.0001 55.55 43.0251 54.575 43.0251 53.3V45.275ZM43.0251 10.25C43.0251 8.97498 44.0001 7.99998 45.2751 7.99998H53.3001C54.5751 7.99998 55.5501 8.97498 55.5501 10.25V18.275C55.5501 19.55 54.5751 20.525 53.3001 20.525H45.2751C44.0001 20.525 43.0251 19.55 43.0251 18.275V10.25ZM27.7251 25.475H35.7501C37.0251 25.475 38.0001 26.45 38.0001 27.725V35.75C38.0001 37.025 37.0251 38 35.7501 38H27.7251C26.4501 38 25.4751 37.025 25.4751 35.75V27.725C25.4751 26.525 26.5251 25.475 27.7251 25.475ZM10.2501 43.025H18.2751C19.5501 43.025 20.5251 44 20.5251 45.275V53.3C20.5251 54.575 19.5501 55.55 18.2751 55.55H10.2501C8.9751 55.55 8.0001 54.575 8.0001 53.3V45.275C8.0001 44 8.9751 43.025 10.2501 43.025Z" fill="#0A0A0A"/>
</svg>
