<svg width="44" height="46" viewBox="0 0 44 46" fill="none" xmlns="http://www.w3.org/2000/svg">
<path fill-rule="evenodd" clip-rule="evenodd" d="M14.0464 41.6037H29.9531C32.091 41.6037 33.9454 42.5532 34.4491 43.7931H9.5504C10.0542 42.5532 11.9086 41.6037 14.0464 41.6037ZM17.1146 38.8165H26.885C27.8177 38.8165 28.6109 39.4229 28.8922 40.2621H15.1077C15.3889 39.4229 16.1819 38.8165 17.1146 38.8165ZM40.4684 43.7931H35.8516C35.649 42.8826 35.0342 42.0536 34.0696 41.4116C33.0349 40.7227 31.6991 40.3214 30.2783 40.2689C29.9677 38.6786 28.5646 37.4748 26.885 37.4748H17.1146C15.435 37.4748 14.0319 38.6786 13.7213 40.2689C12.3005 40.3215 10.9646 40.7227 9.9302 41.4116C8.9654 42.0536 8.3506 42.8827 8.148 43.7931H3.5314C3.1609 43.7931 2.8607 44.0932 2.8607 44.4634C2.8607 44.8336 3.1609 45.1342 3.5314 45.1342H40.4684C40.8386 45.1342 41.1391 44.8335 41.1391 44.4634C41.139 44.0932 40.8386 43.7931 40.4684 43.7931ZM41.4203 20.6317C41.0344 21.0132 40.3823 21.0132 39.9964 20.6317L24.5489 5.36537C23.1435 3.97647 20.8557 3.97667 19.4506 5.36537L4.0032 20.6317C3.3958 21.232 2.2972 20.835 2.2972 19.9552C2.2972 19.6998 2.3974 19.459 2.5793 19.2793L18.3585 3.68517C20.3524 1.71227 23.5989 1.71227 25.5953 3.68067L41.4219 19.281C41.7982 19.6516 41.7961 20.2602 41.4203 20.6317ZM33.9487 31.4209V16.5412L23.6058 6.31987C22.7203 5.44387 21.2792 5.44387 20.3935 6.31987L10.0509 16.5412V32.7954C10.0509 33.9031 10.9668 34.8056 12.0929 34.8056H30.7427L24.302 28.3641L23.388 29.2779L23.883 29.7735C24.4727 30.3629 24.4727 31.3226 23.883 31.9126L22.7271 33.0689C22.1376 33.658 21.1773 33.6583 20.5877 33.0689L12.7825 25.2631C12.1927 24.6737 12.1927 23.714 12.7823 23.124L13.9384 21.9683C14.2234 21.6829 14.6033 21.5258 15.008 21.5258C15.7529 21.5258 16.0873 21.9778 16.5725 22.4628L21.6955 17.3397L21.2008 16.8452C20.6109 16.2552 20.6107 15.2956 21.2006 14.705L22.3565 13.5498C22.9459 12.9601 23.9066 12.9601 24.4961 13.5498L32.3011 21.355C32.8911 21.9452 32.8911 22.905 32.3013 23.4941L31.1454 24.6504C30.8505 24.9454 30.4631 25.0929 30.0756 25.0929C29.3311 25.0929 28.9925 24.637 28.5111 24.1559L27.5974 25.0697L33.9487 31.4209ZM34.8664 37.0323C31.6613 33.8268 28.4559 30.6215 25.2505 27.4163L26.6491 26.0176L36.265 35.6268L34.8664 37.0323ZM22.1492 15.8963L29.9545 23.7015C30.0203 23.7676 30.1311 23.7676 30.1969 23.7015L31.3528 22.5458C31.4182 22.4808 31.4188 22.37 31.3528 22.3039L23.5476 14.4987C23.482 14.433 23.3708 14.433 23.3052 14.4987L22.1493 15.6539C22.0837 15.72 22.0837 15.8314 22.1492 15.8963ZM17.5212 23.4117L22.4397 28.3302L27.5625 23.2071L22.6439 18.2886L17.5212 23.4117ZM22.9345 30.7213C23.0003 30.7874 23.0003 30.8988 22.9345 30.9637L21.7786 32.12C21.713 32.1855 21.602 32.1855 21.5362 32.12L13.731 24.3148C13.6655 24.2487 13.6652 24.1379 13.731 24.0723L14.887 22.916C14.9522 22.8511 15.0642 22.8512 15.1294 22.916L22.9345 30.7213ZM42.3634 18.3253C42.8021 18.7582 43.0438 19.3358 43.0442 19.9529C43.0457 22.0187 40.5134 23.0296 39.0533 21.5856L35.2902 17.8663V32.7619L37.2132 34.6845C37.7341 35.2061 37.7346 36.0535 37.2132 36.5744L35.8072 37.9799C35.2862 38.5018 34.4392 38.5018 33.918 37.9799L32.0797 36.1422C32.0226 36.145 31.9647 36.1467 31.9067 36.1467H12.0929C10.2272 36.1467 8.7095 34.6429 8.7095 32.7954V17.8664L4.946 21.5857C4.0336 22.4882 2.5488 22.4882 1.6363 21.5857C0.727803 20.6871 0.728203 19.2226 1.6363 18.3254L17.4157 2.72957C19.9288 0.248569 24.0206 0.242869 26.5371 2.72387L42.3634 18.3253Z" fill="#5F4841"/>
</svg>
