<svg width="75" height="75" viewBox="0 0 75 75" fill="none" xmlns="http://www.w3.org/2000/svg">
<path d="M30.8032 11.3143L36.8565 2.75682C37.1706 2.31283 37.8293 2.31283 38.1434 2.75682L53.997 25.1686C54.3663 25.6906 53.9929 26.4119 53.3536 26.4119H48.8649" stroke="#0A0A0A" stroke-width="2" stroke-miterlimit="10" stroke-linecap="round" stroke-linejoin="round"/>
<path d="M26.7029 26.4116H21.6464C21.007 26.4116 20.6338 25.6903 21.0031 25.1684L28.1645 15.0444" stroke="#0A0A0A" stroke-width="2" stroke-miterlimit="10" stroke-linecap="round" stroke-linejoin="round"/>
<path d="M47.1611 59.4951L53.9971 49.8311C54.3664 49.3092 53.993 48.5879 53.3538 48.5879H48.8611" stroke="#0A0A0A" stroke-width="2" stroke-miterlimit="10" stroke-linecap="round" stroke-linejoin="round"/>
<path d="M26.7032 48.5879H21.6464C21.007 48.5879 20.6338 49.3092 21.0031 49.8311L36.8565 72.2429C37.1705 72.6869 37.8293 72.6869 38.1433 72.2429L44.4394 63.3424" stroke="#0A0A0A" stroke-width="2" stroke-miterlimit="10" stroke-linecap="round" stroke-linejoin="round"/>
<path d="M37.5002 52.9774C46.048 52.9774 52.9774 46.048 52.9774 37.5002C52.9774 28.9523 46.048 22.0229 37.5002 22.0229C28.9523 22.0229 22.0229 28.9523 22.0229 37.5002C22.0229 46.048 28.9523 52.9774 37.5002 52.9774Z" stroke="#0A0A0A" stroke-width="2" stroke-miterlimit="10" stroke-linecap="round" stroke-linejoin="round"/>
<path d="M6.14941 32.4233C7.17422 26.0606 10.1394 19.9498 15.0447 15.0444" stroke="#0A0A0A" stroke-width="2" stroke-miterlimit="10" stroke-linecap="round" stroke-linejoin="round"/>
<path d="M15.0448 59.9552C10.0788 54.9893 7.10137 48.7878 6.1123 42.3403" stroke="#0A0A0A" stroke-width="2" stroke-miterlimit="10" stroke-linecap="round" stroke-linejoin="round"/>
<path d="M68.9103 42.1924C67.9444 48.6929 64.9595 54.9512 59.9556 59.9551" stroke="#0A0A0A" stroke-width="2" stroke-miterlimit="10" stroke-linecap="round" stroke-linejoin="round"/>
<path d="M59.9556 15.0444C64.8229 19.9118 67.78 25.9663 68.8268 32.276" stroke="#0A0A0A" stroke-width="2" stroke-miterlimit="10" stroke-linecap="round" stroke-linejoin="round"/>
<path d="M5.74629 41.8988C8.31312 41.8988 10.3939 39.818 10.3939 37.2512C10.3939 34.6843 8.31312 32.6035 5.74629 32.6035C3.17946 32.6035 1.09863 34.6843 1.09863 37.2512C1.09863 39.818 3.17946 41.8988 5.74629 41.8988Z" stroke="#0A0A0A" stroke-width="2" stroke-miterlimit="10" stroke-linecap="round" stroke-linejoin="round"/>
<path d="M69.2536 41.8988C71.8204 41.8988 73.9013 39.818 73.9013 37.2512C73.9013 34.6843 71.8204 32.6035 69.2536 32.6035C66.6868 32.6035 64.606 34.6843 64.606 37.2512C64.606 39.818 66.6868 41.8988 69.2536 41.8988Z" stroke="#0A0A0A" stroke-width="2" stroke-miterlimit="10" stroke-linecap="round" stroke-linejoin="round"/>
<path d="M35.6279 35.6279L39.3721 39.3721" stroke="#0A0A0A" stroke-width="2" stroke-miterlimit="10" stroke-linecap="round" stroke-linejoin="round"/>
<path d="M39.3721 35.6279L35.6279 39.3721" stroke="#0A0A0A" stroke-width="2" stroke-miterlimit="10" stroke-linecap="round" stroke-linejoin="round"/>
</svg>
