<svg width="75" height="71" viewBox="0 0 75 71" fill="none" xmlns="http://www.w3.org/2000/svg">
<path d="M71.4334 17.3509C72.2684 15.725 72.743 13.885 72.743 11.9349C72.743 6.45266 69.0313 1.70376 63.7168 0.386384C63.1276 0.240773 62.532 0.599526 62.3861 1.18841C62.24 1.77745 62.5991 2.37322 63.1881 2.51912C67.5201 3.59304 70.5458 7.4649 70.5458 11.9349C70.5458 13.2599 70.278 14.5234 69.7949 15.6751C69.6395 15.5459 69.4817 15.4194 69.3194 15.2987C64.6512 11.8301 58.1354 12.3446 51.3712 14.0106C51.2247 13.3415 51.1453 12.6474 51.1453 11.9349C51.1453 7.42096 54.2075 3.54001 58.5921 2.49744C59.1823 2.35711 59.5472 1.76485 59.4069 1.1745C59.2664 0.584145 58.6739 0.219093 58.0838 0.359723C52.7049 1.63872 48.9481 6.39861 48.9481 11.9349C48.9481 12.8396 49.053 13.7199 49.2452 14.5672C48.426 14.7932 47.6059 15.0314 46.7873 15.2772C42.8234 16.4676 39.1065 15.014 35.1717 13.4746C29.506 11.2585 23.0847 8.74669 14.7853 13.7269C11.7792 15.5308 9.68557 19.0464 8.89028 23.6258C8.14729 27.9033 8.50809 33.746 10.8559 39.993C9.26222 41.0435 7.98893 42.0306 7.06458 42.9334C-0.565031 50.385 -2.16265 59.1732 2.99466 65.3221C5.49421 68.3024 9.10767 70.1179 13.4442 70.5719C19.088 71.1293 26.0524 69.2992 30.8765 65.5038C35.071 68.8109 40.0838 70.3953 45.2736 69.6843C51.1587 68.9942 58.5841 63.8906 64.6524 56.365C71.2367 48.1994 75.0082 38.7394 75 30.4106C74.994 24.6897 73.7957 20.3139 71.4334 17.3509ZM58.3163 15.0112C62.9036 14.6928 66.0512 15.3241 68.6924 17.6278C66.9274 20.0538 64.0683 21.6351 60.8454 21.6351C56.9828 21.6351 53.6412 19.3653 52.082 16.0899C54.1503 15.5834 56.2489 15.1827 58.3163 15.0112ZM26.5206 65.7263C22.0981 67.8838 17.6556 68.8036 13.6726 68.3868C9.91439 67.9932 6.80398 66.4454 4.67783 63.9102C2.53454 61.3549 1.75785 58.2067 2.43156 54.8059C3.11859 51.3373 5.25148 47.7755 8.5995 44.5057C9.34455 43.7779 10.4057 42.9464 11.7039 42.0694C13.135 45.3052 15.1117 48.6134 17.7539 51.8385C22.4127 57.5249 26.0027 61.4043 29.1313 64.0916C28.3609 64.6978 27.4996 65.2487 26.5206 65.7263ZM62.9415 54.9861C57.3074 61.9732 50.2718 66.8862 45.0175 67.5023C40.3514 68.1001 36.3629 66.8727 32.4887 63.9671C34.3588 61.9464 35.6469 59.6619 36.8408 57.5425C38.9609 53.7792 40.7919 50.529 45.1149 49.0252C50.0628 47.3041 53.5683 44.0558 54.7321 40.1132C55.5804 37.2395 55.056 34.3841 53.2554 32.0731C50.6055 28.6725 44.9186 27.7298 36.8088 29.3475C30.5589 30.5941 22.8617 33.407 16.219 36.8721C15.6809 37.1528 15.4723 37.8164 15.753 38.3544C16.0337 38.8925 16.6974 39.1008 17.2352 38.8204C23.7034 35.4463 31.1814 32.7106 37.2386 31.5024C46.3854 29.6781 50.0544 31.5403 51.5221 33.4237C52.8754 35.1605 53.2669 37.3154 52.6247 39.491C51.6638 42.7457 48.6635 45.4644 44.393 46.9498C39.2851 48.7265 37.0692 52.66 34.9263 56.4639C33.7329 58.5824 32.5138 60.744 30.7628 62.5965C27.6981 60.0016 24.1425 56.169 19.4538 50.446C12.6332 42.277 9.69759 31.7523 11.0548 24.002C11.7392 20.0614 13.4654 17.0815 15.9158 15.6112C23.2896 11.1862 28.9229 13.39 34.3708 15.5211C38.4801 17.1285 42.7292 18.7903 47.4189 17.3818C48.2428 17.1344 49.0803 16.8893 49.9264 16.6548C51.7571 20.8734 55.9613 23.8325 60.8453 23.8325C64.6149 23.8325 67.9783 22.0682 70.1597 19.3243C71.9098 21.8845 72.7974 25.5968 72.8022 30.4131C72.8102 38.2484 69.216 47.2049 62.9415 54.9861Z" fill="#0A0A0A"/>
</svg>
