<svg width="61" height="61" viewBox="0 0 61 61" fill="none" xmlns="http://www.w3.org/2000/svg">
<path d="M56.75 34.25C58.8211 34.25 60.5 32.5711 60.5 30.5C60.5 28.4289 58.8211 26.75 56.75 26.75C54.6789 26.75 53 28.4289 53 30.5C53 32.5711 54.6789 34.25 56.75 34.25Z" fill="#D4AF37"/>
<path d="M0.5 20.5005H5.50025V40.5007H0.5V20.5005Z" fill="#D4AF37"/>
<path d="M10.4995 10.4995H15.4998V50.4993H10.4995V10.4995Z" fill="#D4AF37"/>
<path d="M20.5005 23H25.5007V38H20.5005V23Z" fill="#D4AF37"/>
<path d="M49.4015 27.8487C48.593 27.0417 47.516 26.7237 46.4615 26.8062L35.5003 0.5H30.5V60.5H35.5003L46.4615 34.1937C47.516 34.277 48.593 33.959 49.4015 33.1512C50.8663 31.6865 50.8663 29.3135 49.4015 27.8487ZM35.5003 47.4995V13.5005L42.5825 30.5L35.5003 47.4995Z" fill="#D4AF37"/>
</svg>
