<svg width="68" height="50" viewBox="0 0 68 50" fill="none" xmlns="http://www.w3.org/2000/svg">
<g clip-path="url(#clip0_3_7537)">
<path fill-rule="evenodd" clip-rule="evenodd" d="M9.25312 25.9975C10.8197 25.9975 11.8947 26.0395 12.5747 26.1025C13.7908 26.1839 14.1021 26.6828 14.1831 27.3235C14.2041 27.4285 14.2041 27.5099 14.225 27.7384C14.2459 27.9878 14.2878 28.1113 14.4525 28.1113C14.5755 28.1113 14.6382 27.9878 14.6591 27.6964C14.6801 27.1791 14.803 25.2517 14.803 24.9629C14.803 24.4456 14.7821 24.3196 14.5964 24.3196C14.4525 24.3196 14.2878 24.3826 13.9556 24.4456C13.6679 24.4876 13.2965 24.527 12.6558 24.527H3.68233C2.89772 24.527 1.76263 24.4666 1.39125 24.3826C0.917862 24.2802 0.834169 24.2172 0.690322 24.2172C0.564783 24.2172 0.504629 24.4246 0.462783 24.7345C0.318936 25.5222 0.0913969 26.6408 0.00770426 27.4889C-0.0106035 27.7384 -0.0106035 27.9038 0.17509 27.9038C0.318936 27.9038 0.37909 27.7384 0.420937 27.573C0.462783 27.4496 0.504629 27.3235 0.60663 27.0977C0.876015 26.3703 1.32848 26.1025 2.48448 26.0395C3.51756 25.9791 4.79649 25.9975 5.59942 25.9975V34.1191C5.59942 36.1279 5.56019 37.6193 5.47649 38.4885C5.41372 39.0898 5.26988 39.5467 4.81742 39.6281C4.58988 39.6701 4.36234 39.6911 4.15572 39.7121C3.90726 39.7121 3.74249 39.7751 3.74249 39.9196C3.74249 40.085 3.88895 40.127 4.21849 40.127C4.89849 40.127 6.89927 40.064 7.24973 40.064C7.58189 40.064 9.58266 40.127 10.9845 40.127C11.3559 40.127 11.4605 40.064 11.4605 39.9406C11.4605 39.7935 11.3768 39.7331 11.0473 39.7121C10.6759 39.6701 10.4274 39.6491 10.1607 39.6071C9.54082 39.5047 9.39697 39.0688 9.35512 38.5305C9.25312 37.6614 9.25312 35.734 9.25312 34.1191V25.9975ZM51.0524 34.5106L50.6757 34.0958C49.8414 35.4139 48.7927 37.0472 48.0708 38.1185C47.7988 38.5229 47.5739 38.8459 47.4222 39.0454C47.2679 39.2371 47.0848 39.4288 46.8442 39.5653C46.7343 39.631 46.614 39.6809 46.478 39.7176L46.329 39.7491C46.1014 39.7912 45.8974 39.7912 45.6333 39.8122C45.6306 39.8122 45.628 39.8122 45.6254 39.8122C45.3586 39.8332 45.2959 39.9356 45.2959 40.0406C45.2959 40.164 45.4188 40.227 45.6673 40.227H45.9733C48.4814 40.2244 50.1291 40.1929 51.1334 40.1456C51.2851 40.1378 51.4237 40.1299 51.5467 40.122C51.7742 40.101 51.8788 39.9986 51.8788 39.9146C51.8788 39.8122 51.7742 39.7281 51.6513 39.6887C51.361 39.6257 51.3217 39.5023 51.4237 39.2949C51.7454 38.6962 52.4124 37.6038 52.9982 36.6402L52.2424 35.813L51.0524 34.5106ZM54.7035 27.4443C54.7035 27.6728 54.4576 28.0246 54.3138 28.3134C54.2379 28.4395 54.1647 28.5629 54.0914 28.6863C53.7854 29.1983 53.4873 29.6736 53.2231 30.0911L55.6319 32.3441L55.9824 31.7848L57.9439 28.6679C58.5429 27.7148 58.8096 27.2789 59.759 27.1345C59.9865 27.1134 60.1304 27.0924 60.2559 27.0714C60.5227 27.0294 60.5436 26.927 60.5436 26.843C60.5436 26.7196 60.4207 26.6566 60.1513 26.6566C59.997 26.6566 59.8244 26.6697 59.4582 26.6854C59.351 26.6907 59.2281 26.6933 59.0816 26.6986C58.6605 26.7091 58.0642 26.7196 57.1802 26.7196C57.1332 26.7196 57.0573 26.7196 56.9632 26.717C56.3721 26.7038 54.9755 26.6566 54.0862 26.6566C53.8168 26.6566 53.673 26.7406 53.673 26.864C53.673 26.99 53.775 27.0504 53.9816 27.0714C54.1281 27.0924 54.2928 27.1135 54.4367 27.1555C54.6224 27.1949 54.7035 27.3001 54.7035 27.4443ZM29.3577 20.3073L20.9073 11.8233C20.005 12.7319 20.005 14.2154 20.9073 15.1214L26.0727 20.3073C26.9777 21.2132 28.4553 21.2132 29.3577 20.3073ZM32.0071 0.679627L40.4574 9.16364C41.3597 8.25773 41.3597 6.77415 40.4574 5.86561L35.292 0.679627C34.3897 -0.226542 32.912 -0.226542 32.0071 0.679627ZM34.7925 12.9632L38.8934 8.84591L32.3261 2.24986L22.4713 12.1439L29.0412 18.7374L33.082 14.6778L51.4211 34.0039L52.6007 35.2459L56.1602 38.9982L57.1724 40.0642L62.2332 45.3946H68.0001L62.5732 40.0957L62.1626 39.694L58.8672 36.4747L48.9365 26.7776L47.1162 24.9999L46.5696 24.4669L34.7925 12.9632ZM31.2617 35.8393C31.3218 35.8393 31.4055 35.8787 31.4264 35.9627L32.8074 39.2555C32.8701 39.4419 32.7891 39.589 32.5615 39.6284C32.3758 39.6704 32.2712 39.7544 32.2712 39.8778C32.2712 40.0012 32.3968 40.0642 32.7263 40.0642C34.0471 40.0852 36.3983 40.1273 38.42 40.1273C38.8123 40.1273 38.9562 40.0642 38.9562 39.9198C38.9562 39.7938 38.8332 39.7124 38.5639 39.7124C38.3782 39.6914 38.1323 39.6914 37.9048 39.6284C37.1829 39.5259 36.7278 39.0297 36.0269 37.4122C34.6251 34.2638 31.1571 26.3312 30.6209 25.1706C30.2704 24.4249 30.0847 24.1334 29.8781 24.1334C29.6506 24.1334 29.4257 24.4459 29.0334 25.336L23.5227 37.848C23.0912 38.8432 22.6779 39.4839 21.9561 39.6284C21.7495 39.6704 21.5429 39.6914 21.2944 39.7124C21.0486 39.7124 20.9047 39.7544 20.9047 39.9198C20.9047 40.0432 21.0276 40.1273 21.3153 40.1273C22.3484 40.1273 23.7084 40.0642 23.9359 40.0642C25.0292 40.0642 25.7327 40.1273 26.6612 40.1273C26.928 40.1273 27.0927 40.0852 27.0927 39.9198C27.0927 39.8148 27.0326 39.7124 26.7213 39.7124C26.5566 39.6914 26.227 39.6704 25.9995 39.6284C25.5653 39.589 25.3796 39.4025 25.3796 39.0087C25.3796 38.7592 25.5052 38.2209 25.7118 37.6826L26.35 35.9837C26.3918 35.8787 26.4337 35.8393 26.5357 35.8393H31.2617ZM27.1346 34.1824C27.0718 34.1824 27.0326 34.1404 27.0509 34.0774L28.8058 29.645C28.8477 29.54 28.8895 29.5006 28.9497 29.645L30.7647 34.0774C30.7857 34.1194 30.7857 34.1824 30.6627 34.1824H27.1346Z" fill="#0A0A0A"/>
<path fill-rule="evenodd" clip-rule="evenodd" d="M4.13184 49.9999H5.02892V48.3509H6.04369C7.16831 48.3509 8.08631 47.7496 8.08631 46.5995V46.5864C8.08631 45.5518 7.33569 44.8717 6.14569 44.8717H4.13184V49.9999ZM5.02892 47.5372V45.6912H6.07246C6.74462 45.6912 7.17616 46.0063 7.17616 46.6076V46.6234C7.17616 47.1564 6.75246 47.5372 6.07246 47.5372H5.02892ZM10.8351 49.9999H11.7557L12.2814 48.7606H14.6954L15.2133 49.9999H16.1627L13.916 44.835H13.0843L10.8351 49.9999ZM12.6083 47.9623L13.4845 45.9115L14.3685 47.9623H12.6083ZM20.5173 49.9999H21.4222V47.9544L23.4518 44.8717H22.4213L20.9776 47.1431L19.547 44.8717H18.4877L20.5173 47.9781V49.9999ZM27.0165 49.9999H27.8979V46.3369L29.4959 48.7396H29.5273L31.1384 46.3212V49.9999H32.0381V44.8717H31.0809L29.5273 47.2954L27.9712 44.8717H27.0165V49.9999ZM36.1286 49.9999H39.9523V49.1938H37.0257V47.8153H39.5861V47.0091H37.0257V45.6752H39.9157V44.8717H36.1286V49.9999ZM43.7943 49.9999H44.6783V46.3501L47.4951 49.9999H48.2457V44.8717H47.3643V48.4166L44.626 44.8717H43.7943V49.9999ZM53.5942 49.9999H54.4991V45.7067H56.118V44.8717H51.9726V45.7067H53.5942V49.9999Z" fill="#0A0A0A"/>
</g>
<defs>
<clipPath id="clip0_3_7537">
<rect width="68" height="50" fill="white"/>
</clipPath>
</defs>
</svg>
