<svg width="57" height="50" viewBox="0 0 57 50" fill="none" xmlns="http://www.w3.org/2000/svg">
<g clip-path="url(#clip0_3_7540)">
<path d="M10.6795 14.9111H10.1221C10.2005 14.9118 10.2805 14.9139 10.3582 14.9139C10.4666 14.9141 10.5729 14.9125 10.6795 14.9111Z" fill="#0A0A0A"/>
<path d="M56.9998 24.3124L53.9403 18.9921L53.5929 18.3892L51.3072 14.4161C51.0242 13.9241 50.8793 13.3641 50.888 12.796L50.8882 12.7872C50.9396 11.6528 50.0555 10.7247 48.9235 10.7247H48.6271C47.6282 10.8353 46.7233 10.8845 45.8991 10.8845C43.7858 10.8824 42.2084 10.569 40.8697 10.1113C39.8653 9.76618 38.9893 9.33303 38.1274 8.84722C37.4815 8.48327 36.845 8.08852 36.1767 7.6887C35.1753 7.09093 34.0962 6.47477 32.8216 6.0046C31.8525 5.64571 30.7718 5.38407 29.5749 5.28038C30.5311 4.84699 31.1976 3.88412 31.1976 2.76308C31.1974 1.23715 29.9643 0 28.4428 0C26.9216 0 25.6882 1.23715 25.6882 2.76308C25.6882 3.87953 26.3495 4.83872 27.2995 5.27463C26.7167 5.32084 26.1592 5.40246 25.627 5.5142C24.1131 5.83079 22.8135 6.38533 21.6471 6.9831C20.7704 7.43258 19.9624 7.90597 19.1632 8.35131C17.9628 9.02081 16.787 9.62708 15.4072 10.0759C14.0265 10.523 12.4317 10.8245 10.3578 10.8261C9.69173 10.8261 8.97707 10.7943 8.20671 10.724C6.99513 10.6136 5.94857 11.5666 5.94857 12.787C5.95385 13.147 5.96462 13.5062 5.97883 13.8641C5.9802 13.9004 5.97149 13.9363 5.95339 13.9678L3.40691 18.389L3.05944 18.9918L0 24.3124V24.3343C0.21362 27.5445 2.88203 30.0832 6.13675 30.0832C9.38803 30.0832 12.0564 27.5445 12.2701 24.3343L12.2705 24.3246L12.2701 24.3127L9.21063 18.9918L8.86315 18.389L6.86242 14.9109H10.1217H10.6791C13.0507 14.8808 15.0432 14.5014 16.7471 13.937C18.0827 13.496 19.2372 12.9482 20.2689 12.401C21.0429 11.9903 21.7489 11.5804 22.4168 11.2077C23.4195 10.647 24.3318 10.1747 25.2745 9.84688C26.2193 9.51972 27.1973 9.32038 28.4185 9.31831C29.1252 9.31854 29.7367 9.39096 30.3014 9.5142C31.2873 9.73077 32.1463 10.1067 33.0732 10.6134C33.7661 10.9923 34.4897 11.445 35.2951 11.925C36.5017 12.6433 37.8991 13.4215 39.6313 14.0064C40.9531 14.4543 42.4626 14.7815 44.2078 14.9107H50.1394L48.1359 18.3888L47.7885 18.9916L44.7292 24.312V24.3338C44.9429 27.5441 47.6113 30.0828 50.866 30.0828C54.1173 30.0828 56.7857 27.5441 56.9993 24.3338L56.9998 24.3242V24.3124ZM10.5059 23.3045H1.7642L4.29531 18.9045L6.13606 15.7087L10.5059 23.3045ZM46.4937 23.3045L49.0248 18.9042L50.8655 15.7085L55.2353 23.3045H46.4937Z" fill="#0A0A0A"/>
<path d="M44.1159 26.4229C43.3364 28.4051 42.4005 30.3084 41.3205 32.1168C39.6904 34.8461 37.7341 37.3574 35.5088 39.6002C36.9963 39.7271 38.5031 39.9085 40.0001 40.1479L40.4848 40.2254C42.0927 38.3562 43.5443 36.3477 44.8166 34.218C45.622 32.87 46.3557 31.4735 47.0131 30.0345C45.6968 29.1855 44.6669 27.9214 44.1159 26.4229Z" fill="#0A0A0A"/>
<path d="M39.8771 40.9184C38.1599 40.6437 36.4599 40.4453 34.7762 40.3211C30.5977 40.0128 26.5222 40.1666 22.5478 40.7747C19.8132 38.2473 17.4379 35.3339 15.5165 32.1172C14.4871 30.3936 13.5895 28.5832 12.8325 26.7012C12.2342 28.1416 11.1872 29.3445 9.8732 30.1416C10.518 31.5431 11.2351 32.904 12.0206 34.2186C13.6455 36.9382 15.5609 39.4617 17.7235 41.7477C13.389 42.8375 9.1787 44.4864 5.09082 46.686C9.85692 44.8012 14.6482 43.7335 19.4359 43.4585C21.6053 43.3339 23.7738 43.3721 25.9389 43.5725C27.3224 43.7006 28.7045 43.8951 30.0845 44.1549C29.5386 44.5347 28.9844 44.9037 28.4187 45.2557C28.0128 45.0033 27.6126 44.7421 27.2172 44.4743L25.8674 44.3492C24.5611 44.2282 23.2357 44.1669 21.9278 44.1669C21.3692 44.1669 20.8054 44.1788 20.2434 44.2009C22.4369 46.171 24.833 47.9195 27.3985 49.4082L28.4187 50.0002L29.4389 49.4082C31.4644 48.2326 33.3842 46.8957 35.1823 45.4155C36.4008 45.7889 37.6169 46.2103 38.8301 46.6858L47.735 42.6704C45.0776 41.9146 42.4584 41.3314 39.8771 40.9184Z" fill="#0A0A0A"/>
<path d="M27.5491 32.8841L20.7412 18.0148V29.8217C20.7412 30.908 20.8584 31.5853 21.0922 31.8548C21.4126 32.2194 21.9191 32.402 22.6122 32.402H23.2357V32.8841H17.1037V32.402H17.7274C18.4723 32.402 19.0007 32.1762 19.3124 31.7247C19.5028 31.4552 19.5982 30.8209 19.5982 29.8217V18.2753C19.5982 17.5109 19.5115 16.9464 19.3383 16.5813C19.2778 16.451 19.1952 16.3316 19.0914 16.2229C18.9874 16.1146 18.8466 16.021 18.6692 15.9431C18.4916 15.8649 18.277 15.8042 18.0261 15.7605C17.7746 15.7173 17.4675 15.6952 17.1035 15.6952V15.2129H22.0924L28.4843 29.0398L34.7723 15.2129H39.7612V15.695H39.1506C38.3969 15.695 37.8643 15.9212 37.5526 16.3728C37.3619 16.6423 37.2667 17.2766 37.2667 18.2753V29.8215C37.2667 30.9078 37.3878 31.5851 37.6305 31.8546C37.9509 32.2192 38.4575 32.4018 39.1506 32.4018H39.7612V32.8839H32.2778V32.4018H32.9015C33.6462 32.4018 34.1748 32.176 34.4865 31.7244C34.6769 31.455 34.7723 30.8207 34.7723 29.8215V18.0148L27.9777 32.8841H27.5491Z" fill="#0A0A0A"/>
</g>
<defs>
<clipPath id="clip0_3_7540">
<rect width="57" height="50" fill="white"/>
</clipPath>
</defs>
</svg>
