<svg width="121" height="75" viewBox="0 0 121 75" fill="none" xmlns="http://www.w3.org/2000/svg">
<g clip-path="url(#clip0_1_2061)">
<path fill-rule="evenodd" clip-rule="evenodd" d="M21.1805 21.3292V31.3969C21.1805 31.8274 20.9975 32.1969 20.6558 32.459L12.0362 39.0602C11.8858 39.176 11.6808 39.1708 11.5357 39.0486C11.3906 38.9265 11.3496 38.7255 11.4369 38.5571L20.4224 21.145C20.5086 20.9787 20.6905 20.8955 20.8724 20.9397C21.0564 20.9839 21.1805 21.1418 21.1805 21.3292ZM37.6796 46.1878L21.7735 15.3669C21.6557 15.1396 21.436 15.0048 21.1805 15.0059C20.925 15.0059 20.7052 15.1396 20.5875 15.3669L4.6814 46.1878C4.5363 46.4689 4.60359 46.8036 4.84542 47.0068C5.0883 47.2099 5.42896 47.2173 5.68026 47.0257L20.5307 35.6528C20.9197 35.3549 21.4402 35.3549 21.8292 35.6528L36.6797 47.0257C36.931 47.2184 37.2716 47.211 37.5145 47.0078C37.7574 46.8036 37.8247 46.4689 37.6796 46.1878Z" fill="black"/>
<path fill-rule="evenodd" clip-rule="evenodd" d="M7.8468 53.4875C9.03386 59.1781 12.3585 64.6404 17.3318 67.8584C17.4485 67.9342 17.4884 68.0847 17.4232 68.2079C17.3591 68.33 17.214 68.3826 17.0868 68.331C10.6426 65.7278 5.74077 60.0971 4.14049 53.2001C4.069 52.8938 3.80403 52.6832 3.48966 52.6832H0.669712C0.462579 52.6832 0.284887 52.7674 0.153458 52.9274C0.0220289 53.0874 -0.026337 53.278 0.0136174 53.4811C1.97033 63.3951 10.7035 70.8743 21.179 70.8743C31.6544 70.8743 40.3876 63.3951 42.3443 53.4811C42.3843 53.278 42.3359 53.0874 42.2055 52.9274C42.0741 52.7674 41.8964 52.6832 41.6893 52.6832H8.50079C8.2926 52.6832 8.11386 52.7685 7.98243 52.9306C7.85205 53.0917 7.80474 53.2843 7.8468 53.4875Z" fill="black"/>
<path fill-rule="evenodd" clip-rule="evenodd" d="M70.6077 26.4029L58.6382 3.20861C58.5499 3.03702 58.3848 2.93597 58.1913 2.93702C57.9989 2.93702 57.8338 3.03808 57.7445 3.20861L45.776 26.4029C45.6667 26.6145 45.7171 26.8661 45.9001 27.0198C46.082 27.1724 46.3995 27.2303 46.5278 27.0335L57.7035 9.92037C57.9022 9.61615 58.4815 9.61615 58.6802 9.92037L69.8559 27.0324C69.9842 27.2293 70.3017 27.1714 70.4836 27.0188C70.6666 26.8661 70.7171 26.6145 70.6077 26.4029Z" fill="black"/>
<path fill-rule="evenodd" clip-rule="evenodd" d="M48.1582 31.8952C49.0509 36.1775 51.5533 40.2881 55.2964 42.7103C55.3837 42.7671 55.4142 42.8808 55.3658 42.9724C55.3174 43.064 55.2091 43.104 55.1124 43.065C50.2622 41.105 46.5737 36.868 45.3688 31.6773C45.3152 31.4468 45.1164 31.2878 44.8788 31.2878H42.757C42.6014 31.2878 42.4679 31.351 42.369 31.4721C42.2702 31.5921 42.2345 31.7363 42.2639 31.8889C43.7359 39.3502 50.3084 44.9777 58.1921 44.9777C66.0757 44.9777 72.6482 39.3491 74.1202 31.8889C74.1507 31.7363 74.1139 31.5921 74.0151 31.4721C73.9163 31.3521 73.7827 31.2878 73.6271 31.2878H48.6503C48.4936 31.2878 48.3591 31.3521 48.2602 31.4742C48.1614 31.5973 48.1256 31.7426 48.1582 31.8952Z" fill="black"/>
<path d="M54.0156 3.98763C54.637 3.78552 55.1817 3.8171 55.3278 4.19184C55.5486 4.75502 54.7695 5.07713 54.3742 5.20556L25.0875 16.0659C24.4293 16.2806 23.7217 15.9195 23.5072 15.2606C23.2927 14.6016 23.6534 13.8932 24.3116 13.6784L54.0156 3.98763Z" fill="black"/>
<path fill-rule="evenodd" clip-rule="evenodd" d="M39.4075 7.91665C39.888 7.91665 39.948 6.8461 39.9858 6.23134L40.4127 1.08383C40.4127 0.484865 39.9627 -0.00146484 39.4075 -0.00146484C38.8524 -0.00146484 38.4023 0.483812 38.4023 1.08383L38.8292 6.23134C38.8671 6.8461 38.927 7.91665 39.4075 7.91665Z" fill="black"/>
<path d="M48.6341 63.5409C48.6309 64.0409 48.6141 64.4399 48.5847 64.7378C48.5531 65.0388 48.5006 65.2609 48.4259 65.4083C48.3481 65.5557 48.2387 65.6483 48.0968 65.6915C47.9643 65.7262 47.8308 65.7494 47.6952 65.761C47.5564 65.7725 47.4323 65.7778 47.3166 65.7778C47.221 65.7778 47.1516 65.7894 47.1053 65.8157C47.0622 65.8389 47.0391 65.8736 47.0391 65.9167C47.0422 65.9915 47.0769 66.041 47.1463 66.061C47.2157 66.0841 47.3051 66.0925 47.4207 66.0894C47.7235 66.0894 48.0095 66.0841 48.2724 66.0746C48.5352 66.0662 48.7571 66.0578 48.9369 66.0515C49.1188 66.0431 49.2376 66.0368 49.2923 66.0368C49.4563 66.0399 49.7139 66.0483 50.0693 66.0631C50.4215 66.0778 50.881 66.0862 51.4414 66.0894C51.5718 66.0894 51.6696 66.0746 51.739 66.0494C51.8052 66.021 51.8399 65.9768 51.8399 65.9167C51.8399 65.8736 51.8136 65.8389 51.7653 65.8157C51.7137 65.7894 51.6412 65.7778 51.5455 65.7778C51.4036 65.781 51.2564 65.7746 51.1007 65.7631C50.9451 65.7483 50.7948 65.7136 50.6444 65.6557C50.5235 65.6125 50.4226 65.5252 50.3385 65.3957C50.2543 65.2652 50.1849 65.0662 50.1366 64.7999C50.0872 64.5336 50.0556 64.1788 50.0388 63.7304L49.8485 56.3923C49.9116 56.4586 50.0356 56.5923 50.2207 56.7944C50.4057 56.9965 50.6339 57.2481 50.9083 57.5491C51.1828 57.8523 51.4919 58.1818 51.8294 58.546C52.1669 58.9102 52.5223 59.286 52.8945 59.6734C53.2667 60.0608 53.6421 60.4398 54.0237 60.8156C54.4748 61.2661 54.9395 61.7377 55.419 62.224C55.9016 62.7124 56.3716 63.1893 56.8342 63.6577C57.2958 64.1262 57.7237 64.5536 58.1222 64.9441C58.5176 65.3346 58.8561 65.6578 59.1358 65.9157C59.2315 66.0136 59.3293 66.1031 59.4302 66.1789C59.5311 66.2536 59.6289 66.2947 59.7246 66.2978C59.8024 66.2978 59.8602 66.2547 59.8949 66.1652C59.9328 66.0789 59.9496 65.9431 59.9496 65.761L60.1399 54.8154C60.1462 54.4943 60.1662 54.2312 60.2062 54.0322C60.2461 53.8333 60.3103 53.6764 60.4028 53.5701C60.4953 53.4606 60.6225 53.3848 60.7813 53.3417C60.8822 53.3153 60.9716 53.3017 61.0473 53.2953C61.1251 53.2901 61.2092 53.2901 61.3018 53.2901C61.5099 53.2901 61.614 53.2385 61.614 53.1343C61.6109 53.068 61.5741 53.0248 61.4984 53.0038C61.4258 52.9838 61.3312 52.9753 61.2155 52.9774C60.9295 52.9774 60.673 52.9827 60.4417 52.9922C60.2083 52.9974 60.0148 53.0069 59.855 53.0153C59.6962 53.0238 59.5837 53.0301 59.5175 53.0301C59.3934 53.0301 59.2262 53.0248 59.0117 53.0153C58.8014 53.0069 58.5554 52.9985 58.2841 52.9922C58.0129 52.9838 57.7237 52.9774 57.4209 52.9774C57.2884 52.9743 57.1812 52.9827 57.0971 53.0038C57.0161 53.0238 56.973 53.0669 56.9699 53.1343C56.9699 53.1859 56.993 53.2238 57.0361 53.2501C57.0823 53.2764 57.1517 53.2901 57.2474 53.2901C57.3368 53.2901 57.4346 53.2901 57.545 53.2901C57.6522 53.2901 57.7616 53.2985 57.8709 53.3132C57.9782 53.328 58.0791 53.3532 58.1653 53.3943C58.3041 53.4553 58.4135 53.5385 58.5007 53.649C58.5849 53.7585 58.6479 53.9175 58.6879 54.1227C58.7278 54.328 58.7489 54.6059 58.7541 54.9554L58.9276 62.8303L55.0289 58.7881C54.5179 58.285 54.0101 57.7786 53.5096 57.2702C53.0101 56.7639 52.5391 56.2786 52.0923 55.8133C51.6475 55.3512 51.249 54.9312 50.8968 54.5585C50.5477 54.1859 50.2617 53.8796 50.0451 53.6448C49.8285 53.4111 49.6981 53.269 49.6582 53.2195C49.5141 53.0522 49.3953 52.9216 49.2996 52.8259C49.2019 52.7301 49.1093 52.6837 49.0168 52.6816C48.9243 52.6848 48.8643 52.7395 48.8318 52.8469C48.8034 52.9543 48.7886 53.0953 48.7918 53.2722C48.7802 53.7375 48.7718 54.2691 48.7603 54.8733C48.7518 55.4743 48.7403 56.1249 48.7287 56.8249C48.7203 57.5218 48.7087 58.2471 48.7003 59.0018C48.6888 59.7566 48.6772 60.5134 48.6688 61.2829C48.6541 62.0493 48.6457 62.8009 48.6341 63.5409ZM70.9833 66.3336C71.8613 66.3304 72.673 66.2094 73.4122 65.9725C74.1545 65.7388 74.819 65.4031 75.4015 64.9694C75.9882 64.5357 76.4845 64.0241 76.8945 63.4346C77.3046 62.8419 77.6168 62.1914 77.8303 61.4798C78.0469 60.7682 78.1562 60.0166 78.1562 59.2218C78.1531 58.2239 77.9912 57.3281 77.6684 56.5333C77.3477 55.7354 76.8829 55.0533 76.2731 54.4891C75.6664 53.9227 74.9304 53.489 74.0693 53.188C73.2092 52.8869 72.2388 52.7364 71.1558 52.7343C70.2894 52.7374 69.5124 52.8353 68.8227 53.029C68.1298 53.2259 67.5199 53.4911 66.9921 53.8333C66.4611 54.1743 66.0069 54.5701 65.6295 55.0154C65.2509 55.4607 64.9418 55.9375 64.7 56.4439C64.4603 56.9523 64.2847 57.4702 64.1711 57.9934C64.0555 58.5197 64.0008 59.0345 64.0008 59.5345C64.0008 60.0461 64.0586 60.5661 64.1743 61.0987C64.2899 61.6282 64.4655 62.1482 64.7052 62.6546C64.945 63.1609 65.2541 63.6377 65.6263 64.0799C66.0017 64.522 66.4464 64.9125 66.9637 65.2504C67.481 65.5883 68.073 65.8515 68.7396 66.0431C69.4062 66.2325 70.1538 66.3304 70.9833 66.3336ZM71.7109 65.4662C71.0443 65.463 70.4345 65.3536 69.8804 65.1399C69.3263 64.9262 68.8321 64.622 68.4021 64.2293C67.9689 63.8367 67.6051 63.3704 67.3075 62.8325C67.0068 62.2945 66.7818 61.7019 66.6262 61.0545C66.4706 60.4071 66.3928 59.7218 66.3928 58.9955C66.3959 58.1344 66.479 57.3934 66.6441 56.7723C66.8081 56.1512 67.0342 55.6333 67.3202 55.2164C67.6061 54.8028 67.93 54.4733 68.2938 54.2333C68.6607 53.9901 69.0445 53.8175 69.4493 53.7154C69.851 53.6111 70.2547 53.5617 70.6564 53.5648C71.3724 53.568 72.0369 53.7122 72.6488 54.0017C73.2608 54.2912 73.798 54.7101 74.2607 55.2564C74.7222 55.8028 75.0808 56.4649 75.3405 57.2397C75.597 58.0144 75.7306 58.8871 75.7327 59.8618C75.7295 60.6945 75.658 61.4114 75.5192 62.0187C75.3783 62.623 75.1933 63.1314 74.9557 63.5419C74.7222 63.9556 74.4594 64.2883 74.1702 64.542C73.8811 64.7988 73.5867 64.9925 73.287 65.1262C72.9863 65.2588 72.6982 65.3494 72.427 65.3978C72.1525 65.4462 71.9128 65.4694 71.7109 65.4662ZM82.2263 61.0608C82.2263 61.5956 82.2263 62.0956 82.2232 62.5609C82.22 63.0293 82.2116 63.4483 82.2 63.8209C82.1885 64.1914 82.1685 64.503 82.1391 64.7546C82.1191 64.922 82.0896 65.0757 82.0549 65.2083C82.0202 65.3441 81.9708 65.4536 81.9046 65.5409C81.8415 65.6273 81.7511 65.6852 81.6365 65.7083C81.5587 65.7346 81.4693 65.7515 81.3652 65.7631C81.2611 65.7715 81.1433 65.7778 81.013 65.7778C80.9173 65.7778 80.8489 65.7894 80.8027 65.8157C80.7596 65.8389 80.7364 65.8736 80.7364 65.9167C80.7364 65.9778 80.7648 66.021 80.8258 66.0494C80.8836 66.0757 80.9699 66.0894 81.0824 66.0894C81.2643 66.0894 81.4577 66.0862 81.6659 66.081C81.8741 66.0757 82.0823 66.0694 82.2842 66.0641C82.486 66.0589 82.6658 66.0525 82.8267 66.0473C82.9886 66.042 83.1127 66.0389 83.1968 66.0389C83.2694 66.0389 83.3934 66.042 83.569 66.0473C83.7425 66.0525 83.9507 66.0589 84.1894 66.0641C84.4291 66.0704 84.6856 66.0757 84.9516 66.081C85.2198 66.0862 85.4826 66.0894 85.7434 66.0894C85.8559 66.0894 85.9421 66.0746 85.9999 66.0494C86.0609 66.021 86.0893 65.9768 86.0893 65.9167C86.0893 65.8736 86.0725 65.8389 86.0378 65.8157C86.0031 65.7894 85.9516 65.7778 85.8822 65.7778C85.8096 65.7778 85.7266 65.7746 85.6277 65.7725C85.5299 65.7673 85.4258 65.761 85.3217 65.7494C85.2177 65.741 85.123 65.7262 85.0326 65.7094C84.857 65.6862 84.7203 65.6283 84.631 65.542C84.5384 65.4557 84.4722 65.3452 84.4343 65.2094C84.3965 65.0767 84.3713 64.923 84.3565 64.7557C84.3281 64.5041 84.3071 64.1914 84.2955 63.8188C84.284 63.4462 84.2756 63.0261 84.2724 62.5556C84.2693 62.0872 84.2693 61.584 84.2693 61.044V60.8008C84.2693 60.7577 84.2808 60.7229 84.3071 60.6998C84.3302 60.6734 84.3649 60.6619 84.408 60.6619L85.8632 60.6966C85.9326 60.6966 85.9936 60.705 86.0451 60.725C86.0966 60.7419 86.1408 60.7745 86.1755 60.8177C86.2333 60.8903 86.3227 61.0082 86.4415 61.1735C86.5603 61.3356 86.6981 61.5293 86.8568 61.7545C87.0156 61.9766 87.1859 62.2145 87.3626 62.4661C87.5382 62.7177 87.718 62.9661 87.8914 63.2125C88.2121 63.6577 88.5065 64.0451 88.7725 64.3778C89.0386 64.7104 89.292 64.9904 89.5348 65.222C89.7777 65.4504 90.0196 65.6294 90.2656 65.7631C90.4075 65.8494 90.56 65.9167 90.7219 65.9631C90.887 66.0125 91.0804 66.0473 91.3055 66.0641C91.5273 66.0841 91.7996 66.0925 92.1193 66.0925H93.8173C93.9298 66.0925 94.0139 66.0778 94.0655 66.0525C94.1201 66.0241 94.1464 65.9799 94.1464 65.9199C94.1464 65.8767 94.1296 65.842 94.0949 65.8189C94.0602 65.7925 94.0087 65.781 93.9393 65.781C93.8699 65.781 93.7952 65.7757 93.7164 65.7662C93.6354 65.7578 93.5492 65.7462 93.4535 65.7283C93.3873 65.7167 93.2979 65.6967 93.1791 65.6652C93.0634 65.6367 92.9226 65.581 92.7575 65.5031C92.5956 65.4252 92.4105 65.3094 92.2034 65.1557C91.9983 65.0051 91.7733 64.803 91.5305 64.5483C91.0163 64.002 90.4506 63.3451 89.8387 62.5819C89.2268 61.8187 88.536 60.9482 87.7716 59.9682C88.3467 59.4966 88.7999 59.046 89.1321 58.6176C89.4644 58.1902 89.6978 57.7702 89.8398 57.3576C89.9785 56.9439 90.0448 56.5249 90.0416 56.0996C90.0385 55.808 90.0017 55.5354 89.9228 55.2838C89.8482 55.0322 89.7493 54.8038 89.6284 54.5985C89.5075 54.3933 89.3803 54.2175 89.2446 54.0691C89.109 53.9217 88.9818 53.8059 88.863 53.7217C88.5454 53.5111 88.21 53.3511 87.861 53.2417C87.5087 53.1343 87.1502 53.0627 86.7843 53.0248C86.4142 52.9901 86.0451 52.9732 85.675 52.9753C85.5362 52.9753 85.3627 52.9785 85.1493 52.9838C84.938 52.989 84.713 52.9953 84.4732 53.0006C84.2335 53.0069 84.0054 53.0122 83.7856 53.0185C83.5659 53.0238 83.3818 53.0269 83.2315 53.0269C83.1337 53.0269 83.0002 53.0238 82.8298 53.0185C82.6627 53.0122 82.4692 53.0069 82.2526 53.0006C82.036 52.9953 81.8079 52.989 81.5713 52.9838C81.3316 52.9785 81.095 52.9753 80.8584 52.9753C80.728 52.9753 80.6334 52.9869 80.5693 53.0132C80.5083 53.0395 80.4767 53.0795 80.4767 53.1322C80.4767 53.1838 80.503 53.2217 80.5514 53.248C80.6029 53.2743 80.6755 53.288 80.7711 53.288C80.9036 53.288 81.0308 53.288 81.1549 53.2932C81.2758 53.2985 81.3747 53.3132 81.4462 53.3396C81.6344 53.3774 81.7816 53.4375 81.8825 53.5164C81.9834 53.5911 82.0591 53.6985 82.1023 53.829C82.1485 53.9617 82.1769 54.1269 82.1916 54.3291C82.2032 54.4385 82.2085 54.5575 82.2148 54.6785C82.22 54.8028 82.2232 54.947 82.2263 55.1154C82.2295 55.2859 82.2295 55.4944 82.2295 55.7459C82.2295 55.9944 82.2295 56.3038 82.2295 56.6744C82.2263 57.0418 82.2263 57.487 82.2263 58.0071V61.0608ZM84.2703 54.1048C84.2703 54.0438 84.2819 53.9922 84.3082 53.9512C84.3344 53.908 84.3744 53.8785 84.427 53.8617C84.5048 53.8354 84.6173 53.8185 84.7708 53.8069C84.9212 53.7954 85.1115 53.7922 85.3459 53.7922C85.5541 53.789 85.776 53.8217 86.0125 53.8848C86.2523 53.948 86.4857 54.0554 86.7201 54.1996C86.9536 54.3438 87.1649 54.5406 87.3584 54.7838C87.5487 55.0291 87.7053 55.3301 87.82 55.6912C87.9356 56.0502 87.9934 56.4744 87.9966 56.966C87.9934 57.4428 87.9451 57.8534 87.8525 58.1923C87.7569 58.5302 87.6328 58.8134 87.4803 59.0366C87.3247 59.2597 87.1565 59.4387 86.9746 59.5682C86.8737 59.6429 86.7727 59.7008 86.6718 59.745C86.5709 59.7882 86.4468 59.8197 86.3017 59.8376C86.1576 59.8545 85.9726 59.8639 85.7444 59.8639C85.6004 59.8639 85.4469 59.8587 85.2913 59.8471C85.1356 59.8355 84.9821 59.8155 84.8349 59.7892C84.6846 59.7629 84.5521 59.7313 84.428 59.6913C84.3239 59.6397 84.2724 59.5355 84.2724 59.3787V54.1048H84.2703ZM99.5855 53.948L101.768 53.9996C102.279 54.0196 102.678 54.0743 102.972 54.1701C103.263 54.2659 103.475 54.3806 103.602 54.5227C103.729 54.6617 103.799 54.8122 103.812 54.9712C103.812 54.9975 103.815 55.0291 103.821 55.067C103.827 55.1017 103.829 55.1333 103.829 55.1628C103.837 55.2754 103.855 55.3628 103.887 55.4196C103.915 55.4775 103.959 55.5091 104.019 55.5091C104.062 55.5091 104.097 55.4859 104.123 55.4428C104.15 55.3965 104.167 55.327 104.175 55.2312C104.175 55.1101 104.178 54.9564 104.183 54.7712C104.189 54.5859 104.195 54.3954 104.2 54.1933C104.205 53.9912 104.212 53.8027 104.217 53.629C104.222 53.4522 104.225 53.3164 104.225 53.2185C104.225 53.0974 104.214 53.0048 104.188 52.9438C104.164 52.8827 104.13 52.8543 104.087 52.8543C104.052 52.8543 104 52.8627 103.925 52.8774C103.85 52.8953 103.749 52.9153 103.619 52.9406C103.488 52.9669 103.328 52.9869 103.131 53.0038C102.934 53.0185 102.701 53.0269 102.423 53.0269H95.5617C95.3713 53.0269 95.1716 53.0238 94.9697 53.0153C94.7678 53.009 94.5681 52.9985 94.3746 52.9869C94.1811 52.9722 93.9992 52.9585 93.8289 52.9406C93.687 52.9206 93.5692 52.8943 93.4735 52.8627C93.381 52.8311 93.3032 52.8016 93.2422 52.7764C93.1812 52.748 93.1297 52.7332 93.0834 52.7332C93.0403 52.7332 93.0025 52.7595 92.9678 52.8143C92.9331 52.8659 92.9015 52.9501 92.8752 53.0627C92.8637 53.0943 92.8469 53.1722 92.8174 53.2964C92.7911 53.4206 92.7596 53.5711 92.7249 53.7448C92.6902 53.9185 92.6555 54.0943 92.624 54.2743C92.5924 54.4564 92.5661 54.6154 92.543 54.7575C92.523 54.8996 92.5114 54.9975 92.5114 55.0585C92.5114 55.1543 92.5262 55.2228 92.5514 55.2691C92.5777 55.3122 92.6145 55.3354 92.6671 55.3354C92.7102 55.3354 92.748 55.3186 92.7827 55.2838C92.8143 55.2491 92.8405 55.1975 92.8574 55.128C92.8805 55.0586 92.912 54.9722 92.953 54.8712C92.993 54.767 93.0603 54.6512 93.1528 54.5217C93.2369 54.3912 93.3431 54.2933 93.4767 54.2238C93.6091 54.1575 93.7858 54.1112 94.0024 54.0817C94.219 54.0554 94.4966 54.0322 94.8341 54.0185L97.4153 53.949V61.0608C97.4153 61.5956 97.4153 62.0956 97.4122 62.5609C97.409 63.0293 97.4006 63.4483 97.389 63.8209C97.3775 64.1914 97.3575 64.503 97.3281 64.7546C97.3049 65.0094 97.2587 65.223 97.1861 65.3936C97.1136 65.5641 96.9958 65.6715 96.8255 65.7083C96.7477 65.7346 96.6583 65.7515 96.5542 65.7631C96.4501 65.7715 96.3324 65.7778 96.202 65.7778C96.1063 65.7778 96.0379 65.7894 95.9917 65.8157C95.9486 65.8389 95.9255 65.8736 95.9255 65.9167C95.9255 65.9778 95.9538 66.021 96.0148 66.0494C96.0727 66.0757 96.1589 66.0894 96.2714 66.0894C96.4533 66.0894 96.6467 66.0862 96.8549 66.081C97.0631 66.0757 97.2681 66.0694 97.4732 66.0641C97.6782 66.0589 97.8685 66.0525 98.0388 66.0473C98.2092 66.042 98.348 66.0389 98.4552 66.0389C98.6203 66.0389 98.8421 66.0441 99.1197 66.0536C99.3973 66.0589 99.7117 66.0683 100.061 66.0767C100.413 66.0852 100.785 66.0915 101.175 66.0915C101.288 66.0915 101.372 66.0768 101.423 66.0515C101.478 66.0231 101.504 65.9789 101.504 65.9189C101.504 65.8757 101.481 65.841 101.438 65.8178C101.392 65.7915 101.322 65.7799 101.228 65.7799C101.095 65.7799 100.948 65.7746 100.786 65.7652C100.627 65.7536 100.48 65.7367 100.345 65.7104C100.168 65.6841 100.032 65.6294 99.943 65.5452C99.8504 65.4588 99.7842 65.3483 99.7464 65.2157C99.7085 65.083 99.6833 64.9357 99.6686 64.7736C99.6402 64.522 99.6191 64.2093 99.6076 63.8335C99.596 63.4577 99.5876 63.0356 99.5844 62.5672C99.5813 62.0956 99.5813 61.5956 99.5813 61.0608V53.948H99.5855ZM110.187 58.4934C110.152 58.4934 110.126 58.485 110.109 58.465C110.091 58.4471 110.083 58.4155 110.083 58.3723V58.0081C110.083 57.4881 110.083 57.0428 110.083 56.6754C110.08 56.3049 110.08 55.9986 110.08 55.747C110.08 55.4954 110.08 55.287 110.083 55.1164C110.086 54.9491 110.088 54.8038 110.095 54.6796C110.101 54.5585 110.106 54.4427 110.118 54.3301C110.132 54.128 110.161 53.9575 110.204 53.8154C110.244 53.6732 110.308 53.5606 110.394 53.4796C110.484 53.3985 110.605 53.3469 110.758 53.3238C110.831 53.3153 110.914 53.3069 111.009 53.3006C111.105 53.2922 111.188 53.289 111.261 53.289C111.342 53.289 111.413 53.2806 111.474 53.2574C111.537 53.2343 111.57 53.1943 111.572 53.1332C111.572 53.029 111.451 52.9774 111.208 52.9774C111.031 52.9774 110.841 52.9806 110.636 52.9859C110.428 52.9911 110.223 52.9974 110.018 53.0027C109.813 53.009 109.626 53.0143 109.452 53.0206C109.279 53.0259 109.135 53.029 109.025 53.029C108.91 53.029 108.762 53.0259 108.577 53.0206C108.392 53.0143 108.187 53.009 107.959 53.0027C107.731 52.9974 107.498 52.9911 107.251 52.9859C107.007 52.9806 106.767 52.9774 106.529 52.9774C106.286 52.9774 106.165 53.029 106.165 53.1332C106.165 53.1848 106.192 53.2227 106.24 53.249C106.292 53.2753 106.364 53.289 106.46 53.289C106.592 53.289 106.719 53.289 106.844 53.2943C106.964 53.2996 107.063 53.3143 107.135 53.3406C107.322 53.3785 107.47 53.4385 107.571 53.5175C107.672 53.5922 107.748 53.6996 107.791 53.8301C107.837 53.9627 107.866 54.128 107.88 54.3301C107.892 54.4427 107.897 54.5585 107.903 54.6796C107.91 54.8038 107.912 54.948 107.915 55.1164C107.918 55.287 107.918 55.4954 107.918 55.747C107.918 55.9986 107.918 56.3049 107.918 56.6754C107.915 57.0428 107.915 57.4881 107.915 58.0081V61.0608C107.915 61.5956 107.915 62.0956 107.912 62.5609C107.909 63.0293 107.9 63.4483 107.889 63.8209C107.877 64.1914 107.857 64.503 107.828 64.7546C107.808 64.922 107.778 65.0757 107.744 65.2083C107.709 65.3441 107.659 65.4536 107.593 65.5409C107.53 65.6273 107.44 65.6852 107.325 65.7083C107.247 65.7346 107.158 65.7515 107.054 65.7631C106.95 65.7715 106.832 65.7778 106.702 65.7778C106.606 65.7778 106.537 65.7894 106.491 65.8157C106.448 65.8389 106.425 65.8736 106.425 65.9167C106.425 65.9778 106.453 66.021 106.514 66.0494C106.572 66.0757 106.658 66.0894 106.771 66.0894C106.95 66.0894 107.146 66.0862 107.355 66.081C107.563 66.0757 107.768 66.0694 107.973 66.0641C108.178 66.0589 108.366 66.0525 108.538 66.0473C108.709 66.042 108.848 66.0389 108.955 66.0389C109.119 66.0389 109.342 66.0441 109.621 66.0536C109.899 66.0589 110.213 66.0683 110.562 66.0767C110.915 66.0852 111.278 66.0915 111.657 66.0915C111.769 66.0915 111.857 66.0768 111.914 66.0515C111.975 66.0231 112.003 65.9789 112.003 65.9189C112.003 65.8757 111.98 65.841 111.937 65.8178C111.89 65.7915 111.821 65.7799 111.726 65.7799C111.594 65.7799 111.447 65.7746 111.285 65.7652C111.126 65.7536 110.979 65.7367 110.843 65.7104C110.667 65.6841 110.531 65.6294 110.442 65.5452C110.349 65.4588 110.283 65.3483 110.245 65.2157C110.207 65.083 110.182 64.9357 110.167 64.7736C110.139 64.522 110.118 64.2093 110.106 63.8335C110.095 63.4577 110.086 63.0356 110.083 62.5672C110.08 62.0956 110.08 61.5956 110.08 61.0608V59.5345C110.08 59.465 110.115 59.4303 110.184 59.4303H116.803C116.872 59.4303 116.907 59.465 116.907 59.5345V61.0608C116.907 61.5956 116.907 62.0956 116.904 62.5609C116.9 63.0293 116.895 63.4483 116.881 63.8209C116.869 64.1914 116.849 64.503 116.82 64.7546C116.8 64.922 116.77 65.0757 116.735 65.2083C116.701 65.3441 116.651 65.4536 116.585 65.5409C116.522 65.6273 116.433 65.6852 116.317 65.7083C116.239 65.7346 116.15 65.7515 116.046 65.7631C115.942 65.7715 115.824 65.7778 115.693 65.7778C115.598 65.7778 115.529 65.7894 115.483 65.8157C115.44 65.8389 115.417 65.8736 115.417 65.9167C115.417 65.9778 115.448 66.021 115.509 66.0494C115.57 66.0757 115.66 66.0894 115.781 66.0894C115.957 66.0894 116.148 66.0862 116.353 66.081C116.561 66.0757 116.763 66.0694 116.968 66.0641C117.173 66.0589 117.361 66.0525 117.531 66.0473C117.702 66.042 117.84 66.0389 117.948 66.0389C118.112 66.0389 118.335 66.0441 118.614 66.0536C118.892 66.0589 119.206 66.0683 119.555 66.0767C119.908 66.0852 120.271 66.0915 120.65 66.0915C120.762 66.0915 120.85 66.0768 120.906 66.0515C120.967 66.0231 120.996 65.9789 120.996 65.9189C120.996 65.8757 120.973 65.841 120.93 65.8178C120.883 65.7915 120.814 65.7799 120.719 65.7799C120.587 65.7799 120.44 65.7746 120.278 65.7652C120.119 65.7536 119.972 65.7367 119.836 65.7104C119.659 65.6841 119.527 65.6294 119.434 65.5452C119.342 65.4588 119.279 65.3483 119.238 65.2157C119.2 65.083 119.175 64.9357 119.16 64.7736C119.131 64.522 119.111 64.2093 119.099 63.8335C119.087 63.4577 119.079 63.0356 119.076 62.5672C119.073 62.0956 119.073 61.5956 119.073 61.0608V58.0081C119.073 57.4881 119.073 57.0428 119.073 56.6754C119.07 56.3049 119.07 55.9986 119.07 55.747C119.07 55.4954 119.07 55.287 119.073 55.1164C119.076 54.9491 119.078 54.8038 119.084 54.6796C119.09 54.5585 119.099 54.4427 119.107 54.3301C119.122 54.128 119.151 53.9596 119.194 53.8238C119.234 53.6848 119.298 53.5785 119.387 53.4996C119.473 53.4217 119.595 53.369 119.748 53.3406C119.852 53.3238 119.948 53.309 120.031 53.3006C120.117 53.2922 120.189 53.289 120.25 53.289C120.459 53.289 120.563 53.2374 120.563 53.1332C120.563 53.029 120.442 52.9774 120.199 52.9774C120.022 52.9774 119.832 52.9806 119.627 52.9859C119.422 52.9911 119.214 52.9974 119.009 53.0027C118.804 53.009 118.615 53.0143 118.443 53.0206C118.269 53.0259 118.129 53.029 118.016 53.029C117.9 53.029 117.753 53.0259 117.568 53.0206C117.383 53.0143 117.178 53.009 116.95 53.0027C116.722 52.9974 116.488 52.9911 116.242 52.9859C115.997 52.9806 115.758 52.9774 115.52 52.9774C115.277 52.9774 115.156 53.029 115.156 53.1332C115.156 53.1848 115.182 53.2227 115.231 53.249C115.282 53.2753 115.355 53.289 115.451 53.289C115.583 53.289 115.713 53.289 115.834 53.2943C115.955 53.2996 116.054 53.3143 116.126 53.3406C116.313 53.3785 116.461 53.4385 116.562 53.5175C116.663 53.5922 116.739 53.6996 116.782 53.8301C116.828 53.9627 116.856 54.128 116.871 54.3301C116.883 54.4427 116.888 54.5585 116.894 54.6796C116.899 54.8038 116.906 54.948 116.906 55.1164C116.909 55.287 116.909 55.4954 116.909 55.747C116.909 55.9986 116.909 56.3049 116.909 56.6754C116.906 57.0428 116.906 57.4881 116.906 58.0081V58.3723C116.906 58.4155 116.897 58.4471 116.879 58.465C116.862 58.485 116.836 58.4934 116.802 58.4934H110.187Z" fill="black"/>
<path d="M48.8149 71.1221C48.8149 70.88 48.8149 70.6726 48.8149 70.501C48.8139 70.3284 48.8139 70.1852 48.8139 70.0694C48.8139 69.9526 48.8139 69.8557 48.8149 69.7757C48.816 69.6978 48.8181 69.6305 48.8202 69.5726C48.8233 69.5157 48.8254 69.462 48.8307 69.4094C48.837 69.3147 48.8507 69.2368 48.8707 69.1736C48.8896 69.1094 48.919 69.0589 48.959 69.0231C49.001 68.9862 49.0568 68.962 49.1283 68.9494C49.1777 68.9368 49.2324 68.9304 49.2881 68.9283C49.3459 68.9252 49.3974 68.9252 49.4426 68.9252C49.5394 68.9252 49.5877 68.901 49.5877 68.8525C49.5877 68.8041 49.531 68.7799 49.4185 68.7799C49.3375 68.7799 49.246 68.781 49.143 68.7841C49.0399 68.7873 48.9348 68.7894 48.8286 68.7925C48.7214 68.7957 48.6225 68.7978 48.5342 68.801C48.4438 68.8041 48.3744 68.8052 48.3218 68.8052C48.2671 68.8052 48.1956 68.8041 48.1105 68.801C48.0253 68.7989 47.9317 68.7957 47.8297 68.7925C47.7278 68.7894 47.6237 68.7873 47.5196 68.7841C47.4134 68.781 47.3124 68.7799 47.2168 68.7799C47.1558 68.7799 47.1116 68.7852 47.0822 68.7978C47.0538 68.8094 47.0391 68.8283 47.0391 68.8525C47.0391 68.8768 47.0517 68.8946 47.0738 68.9062C47.0979 68.9189 47.1316 68.9252 47.1757 68.9252C47.2883 68.9252 47.3776 68.9336 47.4418 68.9494C47.529 68.9673 47.5974 68.9947 47.6447 69.0315C47.692 69.0662 47.7267 69.1157 47.7467 69.1768C47.7677 69.2389 47.7814 69.3157 47.7887 69.4094C47.794 69.462 47.7971 69.5157 47.7992 69.5726C47.8024 69.6305 47.8035 69.6978 47.8045 69.7757C47.8056 69.8547 47.8056 69.9526 47.8056 70.0694C47.8056 70.1852 47.8056 70.3294 47.8056 70.501C47.8045 70.6715 47.8045 70.8789 47.8045 71.1221V72.5432C47.8045 72.7927 47.8045 73.0253 47.8035 73.2421C47.8024 73.46 47.7982 73.6558 47.7929 73.8295C47.7877 74.0022 47.7782 74.1474 47.7646 74.2643C47.7551 74.3422 47.7414 74.4138 47.7256 74.4759C47.7099 74.539 47.6867 74.5906 47.6552 74.6306C47.6258 74.6706 47.5837 74.698 47.5301 74.7085C47.4943 74.7211 47.4523 74.7285 47.4039 74.7338C47.3555 74.738 47.2998 74.7401 47.2399 74.7401C47.1957 74.7401 47.1631 74.7453 47.1421 74.758C47.1221 74.7685 47.1116 74.7853 47.1116 74.8053C47.1116 74.8338 47.1253 74.8538 47.1537 74.8674C47.181 74.8801 47.221 74.8864 47.2735 74.8864C47.4554 74.8853 47.6289 74.8811 47.7961 74.8738C47.9643 74.8674 48.1283 74.8632 48.2892 74.8611C48.5784 74.8611 48.8549 74.8653 49.1198 74.8738C49.3848 74.8822 49.6414 74.8896 49.8916 74.898C50.1418 74.9043 50.39 74.9085 50.636 74.9096C50.7706 74.9096 50.8726 74.9043 50.9399 74.8917C51.0072 74.879 51.0555 74.858 51.0829 74.8274C51.1102 74.7948 51.1312 74.7496 51.1449 74.6917C51.1586 74.6443 51.1701 74.5864 51.1828 74.5169C51.1954 74.4464 51.2059 74.3716 51.2154 74.2916C51.2259 74.2137 51.2353 74.1369 51.2427 74.0632C51.2511 73.9895 51.2564 73.9264 51.2606 73.8716C51.2648 73.8179 51.2669 73.7811 51.2669 73.7622C51.2669 73.7179 51.2616 73.6843 51.249 73.66C51.2385 73.6369 51.2217 73.6253 51.2017 73.6253C51.1712 73.6253 51.1481 73.6369 51.1354 73.659C51.1239 73.68 51.1155 73.7106 51.1123 73.7464C51.1039 73.799 51.0892 73.8558 51.0692 73.9169C51.0482 73.978 51.0229 74.0369 50.9935 74.0916C50.9651 74.1485 50.9346 74.1937 50.902 74.2306C50.8347 74.3022 50.7559 74.3548 50.6623 74.3864C50.5698 74.419 50.4646 74.439 50.3479 74.4453C50.2312 74.4538 50.1008 74.458 49.9578 74.4559C49.7518 74.4559 49.5856 74.4506 49.4574 74.438C49.328 74.4253 49.2271 74.4074 49.1535 74.3811C49.0799 74.3559 49.0231 74.3201 48.9811 74.2769C48.9264 74.2274 48.8854 74.1316 48.8612 73.9906C48.837 73.8495 48.8233 73.659 48.8181 73.42C48.8128 73.18 48.8097 72.8874 48.8118 72.5411V71.1221H48.8149ZM60.3449 72.7779C60.3649 72.7779 60.3807 72.7821 60.3944 72.7916C60.4059 72.8 60.4175 72.8148 60.4249 72.8348L61.0704 74.5474C61.0894 74.5959 61.0894 74.6359 61.0704 74.6674C61.0526 74.7001 61.0284 74.7211 60.9979 74.7338C60.9611 74.738 60.9338 74.7453 60.9148 74.758C60.8948 74.7696 60.8854 74.7864 60.8854 74.8064C60.8843 74.8338 60.8948 74.8496 60.9201 74.8559C60.9453 74.8622 60.9958 74.8685 61.0704 74.8706C61.2891 74.879 61.5026 74.8822 61.7055 74.8853C61.9084 74.8875 62.0914 74.8874 62.2543 74.8874C62.4184 74.8864 62.5519 74.8864 62.6518 74.8864C62.7496 74.8864 62.8263 74.8832 62.88 74.8801C62.9336 74.8759 62.9714 74.8674 62.9925 74.8559C63.0124 74.8443 63.023 74.8275 63.0219 74.8064C63.0219 74.7864 63.0135 74.7696 62.9967 74.759C62.9809 74.7464 62.9536 74.7411 62.9178 74.7411C62.8694 74.7411 62.8158 74.738 62.758 74.7348C62.7002 74.7295 62.6392 74.7211 62.5792 74.7095C62.5361 74.7011 62.4909 74.6843 62.4394 74.658C62.3868 74.6327 62.3322 74.5895 62.2722 74.5285C62.2133 74.4695 62.1503 74.3832 62.0809 74.2695C62.0136 74.158 61.9442 74.0095 61.8685 73.8285C61.8043 73.6737 61.7276 73.4906 61.6424 73.2811C61.5562 73.0706 61.4637 72.8432 61.3659 72.5969C61.266 72.3505 61.164 72.0979 61.0589 71.8347C60.9537 71.5726 60.8507 71.3116 60.7466 71.0516C60.6436 70.7915 60.5437 70.5431 60.449 70.3042C60.3534 70.0663 60.2671 69.8494 60.1883 69.6515C60.1105 69.4547 60.0432 69.2883 59.9885 69.1526C59.9317 69.0157 59.8918 68.9189 59.8676 68.862C59.8319 68.7768 59.7951 68.7125 59.7614 68.6694C59.7267 68.6252 59.6941 68.6031 59.6657 68.6031C59.631 68.602 59.5953 68.6262 59.5627 68.6767C59.528 68.7262 59.487 68.8104 59.4407 68.9262L57.4157 73.9979C57.3631 74.1348 57.3084 74.2548 57.2506 74.3569C57.1928 74.458 57.1234 74.5401 57.0413 74.6022C56.9593 74.6643 56.8563 74.7064 56.7312 74.7243C56.6975 74.7285 56.6597 74.7327 56.6166 74.7348C56.5745 74.739 56.5346 74.7401 56.4967 74.7401C56.461 74.7401 56.4326 74.7453 56.4136 74.758C56.3937 74.7685 56.3842 74.7853 56.3842 74.8053C56.3842 74.8338 56.3958 74.8538 56.4221 74.8674C56.4462 74.8801 56.4851 74.8864 56.5377 74.8864C56.6407 74.8864 56.7448 74.8853 56.8479 74.8822C56.9509 74.879 57.0487 74.8769 57.137 74.8738C57.2274 74.8706 57.3021 74.8685 57.3641 74.8653C57.4262 74.8632 57.4672 74.8611 57.4893 74.8611C57.5744 74.8611 57.6648 74.8643 57.7647 74.8674C57.8646 74.8706 57.9635 74.8738 58.0633 74.878C58.1643 74.8822 58.2568 74.8843 58.3441 74.8843C58.3882 74.8843 58.4219 74.878 58.4461 74.8653C58.4692 74.8517 58.4808 74.8317 58.4808 74.8032C58.4818 74.7759 58.4744 74.758 58.4566 74.7496C58.4387 74.7411 58.4072 74.7369 58.3598 74.739H58.2389C58.117 74.738 58.0307 74.7159 57.9834 74.6717C57.9361 74.6274 57.913 74.5664 57.9161 74.4885C57.9161 74.439 57.9245 74.3685 57.9435 74.2811C57.9624 74.1937 57.9929 74.098 58.0381 73.9958L58.4734 72.8411C58.4818 72.8211 58.4923 72.8053 58.5039 72.7937C58.5165 72.7811 58.5291 72.7758 58.5459 72.7758H60.3449V72.7779ZM58.7079 72.3747C58.6921 72.3747 58.6805 72.3705 58.6774 72.3611C58.6721 72.3526 58.6721 72.3379 58.6763 72.3179L59.4186 70.3315C59.4344 70.2842 59.4512 70.2631 59.466 70.2684C59.4817 70.2726 59.4954 70.2936 59.508 70.3315L60.2346 72.3263C60.2388 72.3421 60.2388 72.3547 60.2335 72.3621C60.2272 72.3705 60.2146 72.3747 60.1946 72.3747H58.7079ZM69.3589 74.7001C69.382 74.7727 69.403 74.8306 69.4199 74.8738C69.4377 74.918 69.4546 74.9506 69.4735 74.9696C69.4924 74.9896 69.5166 74.999 69.545 74.999C69.5755 75.0001 69.6039 74.9864 69.6302 74.9611C69.6543 74.9359 69.6827 74.8917 69.7132 74.8296C69.7458 74.7664 69.7858 74.6801 69.8352 74.5706C69.8867 74.4632 69.9508 74.319 70.0266 74.139C70.1023 73.9569 70.1853 73.7527 70.2768 73.5243C70.3672 73.2958 70.4597 73.0569 70.5565 72.8084C70.6521 72.56 70.7457 72.3147 70.8393 72.0705C70.9308 71.8284 71.017 71.6021 71.0959 71.3926C71.1737 71.1842 71.241 71.0031 71.2977 70.8537C71.3545 70.7031 71.3934 70.5968 71.4176 70.5336L73.1041 74.6043C73.143 74.7022 73.1766 74.7822 73.204 74.8401C73.2292 74.898 73.2534 74.9401 73.2765 74.9643C73.2997 74.9885 73.3259 75.0011 73.3543 75.0011C73.388 75.0011 73.4174 74.9906 73.4416 74.9643C73.4658 74.9401 73.4889 74.9011 73.512 74.8443C73.5331 74.7896 73.5604 74.7148 73.5888 74.6211C73.655 74.4169 73.7318 74.1822 73.8191 73.9158C73.9063 73.6495 74.002 73.3664 74.103 73.0653C74.2039 72.7642 74.3059 72.46 74.411 72.1495C74.5162 71.84 74.6182 71.541 74.7159 71.2505C74.8158 70.96 74.9052 70.6936 74.9904 70.4484C75.0734 70.2031 75.1439 69.9957 75.2028 69.8242C75.2574 69.6694 75.3079 69.5336 75.3521 69.4136C75.3962 69.2936 75.4425 69.1968 75.4887 69.1199C75.5361 69.0431 75.5907 68.9925 75.6538 68.9673C75.699 68.9515 75.7463 68.9399 75.7947 68.9347C75.8441 68.9294 75.8914 68.9262 75.9356 68.9262C75.9724 68.9262 75.9997 68.9199 76.0187 68.9073C76.0386 68.8936 76.0481 68.8736 76.0481 68.8452C76.0481 68.8252 76.0355 68.8083 76.0124 68.7978C75.9882 68.7852 75.9514 68.7799 75.903 68.7799C75.8368 68.7799 75.7684 68.781 75.6969 68.7841C75.6254 68.7873 75.5571 68.7894 75.493 68.7925C75.4267 68.7957 75.372 68.7978 75.3258 68.801C75.2785 68.8041 75.248 68.8052 75.2332 68.8052C75.208 68.8052 75.1565 68.802 75.0787 68.7989C75.0009 68.7946 74.902 68.7904 74.7853 68.7883C74.6686 68.7841 74.5382 68.782 74.3942 68.782C74.3332 68.782 74.288 68.7873 74.2554 68.7999C74.2249 68.8115 74.2081 68.8304 74.2081 68.8546C74.2081 68.8789 74.2197 68.8968 74.2428 68.9083C74.267 68.921 74.3006 68.9273 74.3448 68.9273C74.4478 68.9273 74.5288 68.9389 74.5856 68.961C74.6423 68.9841 74.6791 69.0126 74.7012 69.0494C74.7222 69.0852 74.7338 69.1252 74.7317 69.1694C74.7317 69.2304 74.7254 69.2999 74.7128 69.3799C74.6991 69.4589 74.6791 69.5452 74.6508 69.6389C74.6024 69.7978 74.5446 69.9821 74.4804 70.1947C74.4163 70.4073 74.349 70.6347 74.2764 70.8758C74.2039 71.1168 74.1313 71.3589 74.0598 71.6021C73.9873 71.8474 73.919 72.079 73.8538 72.299C73.7896 72.52 73.7328 72.7148 73.6834 72.8874C73.6351 73.0579 73.5962 73.1916 73.5709 73.2885L71.8771 69.1936C71.8434 69.1073 71.814 69.0357 71.7898 68.9799C71.7656 68.9252 71.7425 68.8831 71.7194 68.8546C71.6983 68.8273 71.671 68.8146 71.6426 68.8146C71.6121 68.8115 71.5806 68.8325 71.5511 68.8757C71.5206 68.9178 71.4838 68.9947 71.4407 69.1062L69.8594 73.3464C69.8352 73.2758 69.8015 73.1716 69.7574 73.0327C69.7143 72.8937 69.6638 72.7316 69.606 72.5453C69.5481 72.36 69.4872 72.1621 69.423 71.9526C69.3599 71.7421 69.2948 71.5326 69.2317 71.321C69.1686 71.1116 69.1097 70.9105 69.0529 70.721C68.9982 70.5315 68.9499 70.3642 68.9089 70.2189C68.8668 70.0726 68.8374 69.9599 68.8185 69.881C68.769 69.6978 68.727 69.542 68.6933 69.4126C68.6597 69.2831 68.6418 69.1915 68.6408 69.1378C68.6408 69.0936 68.6492 69.0557 68.6639 69.0252C68.6797 68.9947 68.7017 68.9725 68.7301 68.961C68.7596 68.9452 68.7922 68.9357 68.8279 68.9325C68.8647 68.9283 68.8984 68.9273 68.931 68.9283C68.9751 68.9294 69.0119 68.9252 69.0371 68.9157C69.0624 68.9062 69.076 68.8862 69.076 68.8546C69.076 68.8062 69.0193 68.782 68.9068 68.782C68.747 68.782 68.604 68.7852 68.4788 68.7883C68.3537 68.7915 68.2507 68.7946 68.1697 68.7989C68.0888 68.8031 68.0362 68.8052 68.0109 68.8052C67.9931 68.8052 67.9542 68.8041 67.8953 68.801C67.8364 68.7989 67.7607 68.7957 67.6734 68.7925C67.5851 68.7894 67.4894 68.7873 67.3853 68.7841C67.2823 68.781 67.1782 68.7799 67.0752 68.7799C67.0142 68.7799 66.97 68.7852 66.9406 68.7978C66.9122 68.8094 66.8975 68.8283 66.8975 68.8525C66.8975 68.8831 66.908 68.9041 66.928 68.9136C66.949 68.9231 66.9816 68.9273 67.0258 68.9262C67.051 68.9262 67.0836 68.9273 67.1225 68.9325C67.1614 68.9368 67.2003 68.9431 67.2413 68.9536C67.2834 68.9641 67.3181 68.9789 67.3485 68.9978C67.4074 69.042 67.46 69.1104 67.5073 69.2052C67.5525 69.301 67.5998 69.422 67.6472 69.5715L69.3589 74.7001ZM84.4554 72.5442C84.4564 72.9337 84.4543 73.2737 84.4501 73.5643C84.4459 73.8558 84.4343 74.0895 84.4154 74.2643C84.4059 74.3422 84.3923 74.4138 84.3765 74.4759C84.3607 74.539 84.3376 74.5906 84.3061 74.6306C84.2766 74.6706 84.2346 74.698 84.1809 74.7085C84.1452 74.7211 84.1031 74.7285 84.0548 74.7338C84.0064 74.738 83.9507 74.7401 83.8907 74.7401C83.8508 74.7401 83.8203 74.7453 83.8003 74.758C83.7803 74.7685 83.7698 74.7853 83.7698 74.8053C83.7698 74.8338 83.7846 74.8538 83.8129 74.8674C83.8413 74.8801 83.8834 74.8864 83.9391 74.8864C84.0169 74.8864 84.1031 74.8853 84.1988 74.8822C84.2945 74.879 84.3912 74.8769 84.488 74.8738C84.5847 74.8706 84.6751 74.8685 84.7582 74.8653C84.8412 74.8632 84.9106 74.8611 84.9643 74.8611C85.0379 74.8611 85.1388 74.8643 85.2639 74.8674C85.3901 74.8706 85.5331 74.8738 85.6919 74.878C85.8506 74.8822 86.0167 74.8843 86.1902 74.8843C86.2512 74.8843 86.2954 74.878 86.3248 74.8653C86.3532 74.8517 86.3679 74.8317 86.3679 74.8032C86.3679 74.7832 86.3553 74.7664 86.3332 74.7559C86.309 74.7432 86.2754 74.738 86.2312 74.738C86.1692 74.738 86.1019 74.7348 86.0294 74.7317C85.9568 74.7264 85.8895 74.718 85.8275 74.7064C85.7455 74.6959 85.6824 74.6685 85.6403 74.6285C85.5972 74.5885 85.5667 74.5369 85.5489 74.4738C85.531 74.4116 85.5194 74.3401 85.5121 74.2622C85.4931 74.0874 85.4816 73.8548 85.4774 73.5622C85.4732 73.2716 85.4711 72.9306 85.4721 72.5421V71.8884C85.4721 71.8642 85.4763 71.8453 85.4858 71.8337C85.4942 71.821 85.5089 71.8158 85.5289 71.8158C85.5573 71.8158 85.6077 71.8158 85.6834 71.8158C85.7602 71.8158 85.8475 71.8158 85.9495 71.8168C86.0504 71.8179 86.1524 71.8179 86.2565 71.821C86.3595 71.8221 86.4531 71.8253 86.5372 71.8274C86.6203 71.8295 86.6823 71.8337 86.7223 71.8389C86.8053 71.8495 86.8758 71.8716 86.9304 71.9021C86.9872 71.9316 87.0314 71.9663 87.065 72.0074C87.0976 72.0474 87.1197 72.0884 87.1334 72.1295C87.1491 72.1779 87.1618 72.2221 87.1702 72.2642C87.1786 72.3042 87.1828 72.3432 87.1828 72.38C87.1817 72.4095 87.1859 72.4348 87.1933 72.4579C87.2017 72.479 87.2206 72.4916 87.2469 72.4926C87.289 72.4916 87.3142 72.4737 87.3205 72.4432C87.3268 72.4126 87.33 72.3769 87.3268 72.339C87.3268 72.3232 87.3268 72.2916 87.3279 72.2463C87.3289 72.199 87.331 72.1453 87.3331 72.0832C87.3363 72.0211 87.3394 71.9611 87.3437 71.901C87.3479 71.8421 87.3531 71.7905 87.3584 71.7495C87.372 71.6231 87.3857 71.5158 87.4004 71.4263C87.4141 71.3379 87.4215 71.2779 87.4236 71.2484C87.4236 71.2 87.4078 71.1758 87.3752 71.1758C87.3479 71.1758 87.33 71.181 87.3163 71.1947C87.3048 71.2084 87.289 71.2284 87.2711 71.2568C87.2343 71.3063 87.1922 71.3431 87.1407 71.3642C87.0892 71.3852 87.0188 71.3989 86.9283 71.4042C86.8369 71.4084 86.716 71.4105 86.5614 71.4095C86.4878 71.4095 86.4026 71.4095 86.309 71.4105C86.2144 71.4105 86.1198 71.4116 86.021 71.4126C85.9232 71.4137 85.8296 71.4137 85.7444 71.4158C85.6582 71.4168 85.5867 71.4168 85.5289 71.4168C85.5089 71.4168 85.4942 71.4105 85.4858 71.3979C85.4763 71.3852 85.4721 71.3684 85.4721 71.3442V69.3252C85.4721 69.2883 85.4774 69.261 85.49 69.242C85.5015 69.222 85.5205 69.2126 85.5447 69.2126C85.593 69.2126 85.6572 69.2126 85.7371 69.2157C85.818 69.2168 85.9063 69.2189 86.0041 69.221C86.1009 69.2241 86.1986 69.2262 86.2985 69.2273C86.3963 69.2305 86.4899 69.2326 86.574 69.2336C86.6602 69.2347 86.7296 69.2368 86.7864 69.2368C86.942 69.242 87.0629 69.2694 87.1491 69.3147C87.2354 69.362 87.2921 69.4157 87.3184 69.4789C87.3458 69.541 87.3605 69.5989 87.3636 69.6536C87.3668 69.7073 87.3678 69.7515 87.3668 69.7852C87.371 69.8294 87.3783 69.862 87.392 69.8831C87.4046 69.9031 87.4225 69.9136 87.4467 69.9136C87.4667 69.9136 87.4845 69.9031 87.4993 69.8842C87.514 69.8652 87.5234 69.8368 87.5277 69.801C87.534 69.7768 87.5392 69.7336 87.5434 69.6715C87.5487 69.6105 87.5529 69.5441 87.5571 69.4715C87.5592 69.3978 87.5624 69.3315 87.5655 69.2705C87.5666 69.2094 87.5687 69.1683 87.5687 69.1462C87.5823 69.0389 87.596 68.9578 87.6107 68.9041C87.6244 68.8494 87.6317 68.8083 87.6338 68.7831C87.6338 68.7589 87.6296 68.7399 87.6202 68.7273C87.6118 68.7157 87.597 68.7094 87.5771 68.7094C87.5571 68.7094 87.5382 68.7146 87.5182 68.7241C87.4993 68.7336 87.4751 68.7452 87.4478 68.7578C87.4046 68.7683 87.3573 68.7768 87.3069 68.7789C87.2553 68.7831 87.1922 68.7852 87.1176 68.7894C87.084 68.7894 87.0177 68.7894 86.9178 68.7894C86.8169 68.7904 86.6949 68.7904 86.5519 68.7904C86.4079 68.7915 86.2575 68.7915 86.0988 68.7925C85.9389 68.7925 85.7854 68.7936 85.6351 68.7936C85.4858 68.7947 85.3543 68.7946 85.2397 68.7946C85.1251 68.7957 85.0421 68.7957 84.9884 68.7957C84.7803 68.7946 84.5815 68.7904 84.3933 68.7831C84.2041 68.7768 84.0159 68.7725 83.8277 68.7704C83.7667 68.7704 83.7215 68.7768 83.6889 68.7894C83.6584 68.8031 83.6416 68.8231 83.6416 68.8515C83.6416 68.8715 83.6542 68.8873 83.6763 68.8989C83.7004 68.9115 83.7341 68.9168 83.7782 68.9168C83.8403 68.9168 83.8992 68.9168 83.957 68.9199C84.0138 68.9231 84.059 68.9294 84.0926 68.941C84.1799 68.9589 84.2482 68.9862 84.2955 69.0231C84.3429 69.0578 84.3776 69.1073 84.3975 69.1683C84.4186 69.2305 84.4322 69.3073 84.4396 69.401C84.4449 69.4526 84.448 69.5073 84.4501 69.5641C84.4522 69.621 84.4543 69.6894 84.4554 69.7673C84.4564 69.8463 84.4564 69.9442 84.4564 70.061C84.4564 70.1768 84.4564 70.321 84.4564 70.4926C84.4554 70.6631 84.4554 70.8705 84.4554 71.1137V72.5442ZM94.1464 72.5442C94.1464 72.8063 94.1464 73.0495 94.1454 73.2716C94.1443 73.4948 94.1401 73.6948 94.1349 73.8674C94.1296 74.0422 94.1201 74.1874 94.1065 74.3053C94.096 74.4222 94.0739 74.5148 94.0402 74.5822C94.0066 74.6506 93.9519 74.6927 93.872 74.7085C93.8363 74.7211 93.7942 74.7285 93.7458 74.7338C93.6975 74.738 93.6428 74.7401 93.5818 74.7401C93.5376 74.7401 93.5051 74.7453 93.484 74.758C93.464 74.7685 93.4535 74.7853 93.4535 74.8053C93.4535 74.8338 93.4672 74.8538 93.4956 74.8674C93.5229 74.8801 93.5629 74.8864 93.6155 74.8864C93.6985 74.8864 93.79 74.8853 93.8867 74.8822C93.9835 74.879 94.0791 74.8769 94.1748 74.8738C94.2705 74.8706 94.3578 74.8685 94.4387 74.8653C94.5176 74.8632 94.5828 74.8611 94.6322 74.8611C94.7058 74.8611 94.8067 74.8643 94.935 74.8674C95.0633 74.8706 95.2094 74.8738 95.3735 74.878C95.5364 74.8822 95.7099 74.8843 95.8908 74.8843C95.9433 74.8843 95.9822 74.878 96.0064 74.8653C96.0316 74.8517 96.0443 74.8317 96.0443 74.8032C96.0443 74.7832 96.0337 74.7664 96.0138 74.7559C95.9927 74.7432 95.9602 74.738 95.916 74.738C95.8529 74.738 95.7846 74.7348 95.7099 74.7317C95.6342 74.7264 95.5659 74.718 95.5038 74.7064C95.4218 74.6959 95.3587 74.6727 95.3146 74.638C95.2704 74.6032 95.2389 74.559 95.2199 74.5032C95.201 74.4485 95.1873 74.3832 95.181 74.3106C95.1705 74.1937 95.1632 74.0485 95.1579 73.8716C95.1537 73.6948 95.1516 73.4958 95.1495 73.2716C95.1484 73.0463 95.1484 72.8042 95.1484 72.5421V71.121C95.1484 70.8789 95.1484 70.6715 95.1484 70.5C95.1474 70.3273 95.1474 70.1842 95.1474 70.0684C95.1474 69.9515 95.1474 69.8547 95.1484 69.7747C95.1495 69.6968 95.1516 69.6294 95.1537 69.5715C95.1569 69.5147 95.159 69.461 95.1642 69.4083C95.1705 69.3136 95.1842 69.2357 95.2042 69.1726C95.2231 69.1083 95.2525 69.0578 95.2925 69.022C95.3345 68.9852 95.3903 68.961 95.4618 68.9483C95.5091 68.9357 95.5501 68.9294 95.5858 68.9273C95.6216 68.9241 95.6615 68.9241 95.7047 68.9241C95.7488 68.9241 95.7814 68.9178 95.8024 68.9052C95.8224 68.8915 95.8329 68.8715 95.8329 68.8431C95.8329 68.8231 95.8182 68.8062 95.7898 68.7957C95.7614 68.7831 95.7194 68.7778 95.6636 68.7778C95.5858 68.7778 95.5007 68.7789 95.4081 68.782C95.3156 68.7852 95.2231 68.7873 95.1295 68.7904C95.0349 68.7936 94.9508 68.7957 94.8709 68.7989C94.7931 68.802 94.7289 68.8031 94.6785 68.8031C94.6164 68.8031 94.5428 68.802 94.4555 68.7989C94.3693 68.7968 94.2768 68.7936 94.179 68.7904C94.0812 68.7873 93.9845 68.7852 93.8899 68.782C93.7942 68.7789 93.708 68.7778 93.6302 68.7778C93.566 68.7778 93.5177 68.7831 93.4851 68.7957C93.4525 68.8062 93.4367 68.8231 93.4367 68.8431C93.4367 68.8715 93.4472 68.8915 93.4672 68.9052C93.4882 68.9178 93.5208 68.9241 93.565 68.9241C93.6134 68.9241 93.6628 68.9273 93.7132 68.9304C93.7627 68.9357 93.811 68.9441 93.8562 68.9557C93.9414 68.9757 94.0055 69.0231 94.0507 69.0968C94.0949 69.1704 94.1222 69.2747 94.1296 69.4073C94.1349 69.4599 94.138 69.5136 94.1401 69.5705C94.1433 69.6284 94.1443 69.6957 94.1454 69.7736C94.1464 69.8526 94.1464 69.9505 94.1464 70.0673C94.1464 70.1831 94.1464 70.3273 94.1464 70.4989C94.1454 70.6694 94.1454 70.8768 94.1454 71.12V72.5442H94.1464Z" fill="black"/>
<path d="M102.71 72.5442C102.71 72.7937 102.71 73.0263 102.709 73.2432C102.708 73.4611 102.704 73.6569 102.699 73.8305C102.693 74.0032 102.684 74.1485 102.67 74.2653C102.661 74.3432 102.647 74.4148 102.631 74.4769C102.616 74.54 102.592 74.5916 102.561 74.6316C102.531 74.6716 102.489 74.699 102.436 74.7095C102.4 74.7221 102.358 74.7295 102.31 74.7348C102.261 74.739 102.205 74.7411 102.146 74.7411C102.101 74.7411 102.069 74.7464 102.048 74.759C102.028 74.7695 102.017 74.7864 102.017 74.8064C102.017 74.8348 102.031 74.8548 102.059 74.8685C102.087 74.8811 102.127 74.8874 102.179 74.8874C102.264 74.8874 102.354 74.8864 102.45 74.8832C102.547 74.88 102.644 74.8779 102.739 74.8748C102.832 74.8716 102.916 74.8695 102.991 74.8664C103.067 74.8643 103.124 74.8622 103.163 74.8622C103.197 74.8622 103.255 74.8632 103.337 74.8664C103.418 74.8695 103.514 74.8716 103.626 74.8748C103.737 74.8769 103.857 74.88 103.981 74.8832C104.106 74.8864 104.228 74.8874 104.349 74.8874C104.402 74.8874 104.442 74.8811 104.469 74.8685C104.498 74.8548 104.511 74.8348 104.511 74.8064C104.511 74.7864 104.503 74.7695 104.487 74.759C104.471 74.7464 104.447 74.7411 104.415 74.7411C104.381 74.7411 104.342 74.74 104.296 74.7379C104.25 74.7348 104.202 74.7327 104.153 74.7274C104.104 74.7232 104.06 74.7169 104.018 74.7085C103.936 74.6979 103.873 74.6706 103.831 74.6306C103.788 74.5906 103.757 74.539 103.739 74.4758C103.722 74.4137 103.71 74.3421 103.704 74.2642C103.69 74.1474 103.681 74.0021 103.675 73.8284C103.67 73.6547 103.666 73.46 103.665 73.24C103.664 73.0221 103.664 72.7874 103.664 72.5358V72.4231C103.664 72.4031 103.669 72.3863 103.682 72.3758C103.692 72.3631 103.709 72.3579 103.729 72.3579L104.407 72.3737C104.44 72.3737 104.467 72.3779 104.492 72.3873C104.517 72.3958 104.536 72.4105 104.553 72.4305C104.581 72.4642 104.622 72.5189 104.677 72.5958C104.732 72.6716 104.797 72.761 104.871 72.8663C104.944 72.9695 105.024 73.08 105.106 73.1979C105.188 73.3147 105.271 73.4305 105.352 73.5453C105.502 73.7526 105.638 73.9327 105.762 74.0874C105.887 74.2421 106.004 74.3727 106.118 74.48C106.23 74.5864 106.344 74.6695 106.457 74.7316C106.524 74.7716 106.594 74.8032 106.67 74.8243C106.747 74.8474 106.837 74.8632 106.941 74.8716C107.044 74.8811 107.171 74.8853 107.321 74.8853H108.111C108.164 74.8853 108.203 74.879 108.227 74.8664C108.252 74.8527 108.265 74.8327 108.265 74.8043C108.265 74.7843 108.256 74.7674 108.241 74.7569C108.225 74.7443 108.201 74.739 108.168 74.739C108.136 74.739 108.101 74.7358 108.065 74.7327C108.027 74.7285 107.987 74.7232 107.943 74.7148C107.913 74.7095 107.871 74.7 107.815 74.6853C107.761 74.6716 107.695 74.6464 107.618 74.6095C107.543 74.5737 107.457 74.519 107.36 74.4485C107.264 74.3779 107.159 74.2842 107.046 74.1653C106.807 73.9105 106.544 73.6053 106.259 73.2495C105.974 72.8937 105.652 72.4884 105.296 72.0326C105.563 71.8136 105.774 71.6031 105.929 71.4042C106.083 71.2052 106.192 71.0094 106.258 70.8168C106.322 70.6241 106.353 70.4294 106.352 70.2315C106.351 70.0957 106.333 69.9694 106.298 69.8515C106.263 69.7346 106.217 69.6283 106.161 69.5325C106.104 69.4367 106.045 69.3546 105.982 69.2862C105.919 69.2178 105.86 69.1641 105.805 69.1251C105.656 69.0273 105.501 68.9525 105.338 68.902C105.174 68.8525 105.006 68.8188 104.836 68.8009C104.664 68.7851 104.492 68.7767 104.32 68.7778C104.256 68.7778 104.175 68.7788 104.075 68.782C103.977 68.7851 103.872 68.7872 103.761 68.7904C103.649 68.7936 103.543 68.7957 103.441 68.7988C103.339 68.802 103.253 68.803 103.182 68.803C103.137 68.803 103.075 68.802 102.995 68.7988C102.917 68.7967 102.827 68.7936 102.726 68.7904C102.625 68.7872 102.519 68.7851 102.408 68.782C102.297 68.7788 102.187 68.7778 102.076 68.7778C102.015 68.7778 101.971 68.783 101.942 68.7957C101.913 68.8072 101.898 68.8262 101.898 68.8504C101.898 68.8746 101.911 68.8925 101.933 68.9041C101.957 68.9167 101.991 68.923 102.035 68.923C102.097 68.923 102.156 68.923 102.214 68.9262C102.271 68.9294 102.316 68.9357 102.35 68.9472C102.437 68.9651 102.505 68.9925 102.552 69.0294C102.6 69.0641 102.634 69.1136 102.654 69.1746C102.675 69.2367 102.689 69.3136 102.696 69.4073C102.702 69.4588 102.705 69.5136 102.707 69.5704C102.71 69.6283 102.711 69.6957 102.712 69.7736C102.713 69.8525 102.713 69.9504 102.713 70.0673C102.713 70.1831 102.713 70.3273 102.713 70.4989C102.712 70.6694 102.712 70.8768 102.712 71.1199V72.5442H102.71ZM103.662 69.3052C103.662 69.2767 103.667 69.2525 103.68 69.2336C103.691 69.2136 103.71 69.1999 103.734 69.1915C103.771 69.1788 103.823 69.1715 103.894 69.1662C103.963 69.1609 104.053 69.1599 104.161 69.1599C104.258 69.1588 104.362 69.1736 104.471 69.203C104.583 69.2325 104.692 69.282 104.8 69.3494C104.91 69.4167 105.008 69.5083 105.098 69.621C105.186 69.7357 105.259 69.8757 105.313 70.0441C105.367 70.2115 105.394 70.4094 105.396 70.6378C105.394 70.8599 105.371 71.0515 105.328 71.2084C105.284 71.3663 105.226 71.4978 105.155 71.601C105.082 71.7042 105.004 71.7884 104.919 71.8484C104.872 71.8831 104.826 71.9105 104.778 71.9305C104.731 71.9505 104.673 71.9652 104.606 71.9737C104.539 71.9821 104.452 71.9863 104.346 71.9863C104.279 71.9863 104.207 71.9831 104.135 71.9779C104.062 71.9726 103.991 71.9631 103.922 71.9505C103.852 71.9379 103.791 71.9231 103.733 71.9052C103.685 71.881 103.661 71.8326 103.661 71.76V69.3052H103.662ZM119.242 68.8536C119.229 68.7683 119.212 68.7051 119.188 68.6651C119.164 68.623 119.134 68.603 119.097 68.603C119.062 68.603 119.03 68.6188 119.005 68.6515C118.978 68.6841 118.951 68.7325 118.919 68.7967L116.725 73.4084L114.522 68.8536C114.487 68.782 114.458 68.7283 114.434 68.6925C114.409 68.6557 114.386 68.6315 114.366 68.6199C114.346 68.6072 114.326 68.602 114.304 68.6041C114.272 68.6041 114.243 68.622 114.221 68.6578C114.197 68.6925 114.179 68.7451 114.168 68.8136L113.369 74.079C113.356 74.1748 113.338 74.2674 113.315 74.3579C113.292 74.4485 113.258 74.5253 113.215 74.5895C113.171 74.6537 113.112 74.6969 113.037 74.7169C112.978 74.7295 112.931 74.7358 112.894 74.7379C112.86 74.7411 112.826 74.7411 112.794 74.7411C112.75 74.7411 112.718 74.7453 112.697 74.7548C112.677 74.7632 112.666 74.7779 112.666 74.7979C112.666 74.8327 112.68 74.8569 112.705 74.8695C112.73 74.8822 112.767 74.8885 112.811 74.8874C112.903 74.8874 112.999 74.8843 113.103 74.8811C113.206 74.8769 113.303 74.8727 113.393 74.8706C113.484 74.8664 113.556 74.8643 113.609 74.8643C113.662 74.8643 113.731 74.8674 113.821 74.8706C113.908 74.8737 114.008 74.8769 114.116 74.8811C114.226 74.8853 114.339 74.8874 114.456 74.8874C114.52 74.8874 114.568 74.879 114.601 74.8643C114.633 74.8485 114.649 74.8264 114.649 74.7979C114.648 74.7779 114.636 74.7632 114.612 74.7548C114.589 74.7453 114.561 74.7411 114.527 74.7411C114.484 74.7411 114.436 74.7379 114.382 74.7327C114.328 74.7274 114.263 74.7169 114.189 74.7C114.119 74.6853 114.061 74.6569 114.016 74.6169C113.97 74.5769 113.948 74.5169 113.946 74.4421C113.946 74.379 113.946 74.32 113.949 74.2621C113.952 74.2042 113.958 74.1379 113.97 74.0632L114.398 70.7926C114.456 70.9147 114.519 71.0505 114.59 71.202C114.661 71.3515 114.733 71.5021 114.806 71.6568C114.878 71.8105 114.947 71.9558 115.012 72.0915C115.075 72.2284 115.131 72.3463 115.175 72.4431C115.219 72.54 115.248 72.6063 115.262 72.6421C115.277 72.681 115.304 72.7442 115.345 72.8305C115.387 72.9168 115.437 73.0189 115.496 73.1347C115.553 73.2516 115.616 73.3747 115.683 73.5032C115.75 73.6337 115.816 73.76 115.88 73.8842C115.947 74.0095 116.006 74.1242 116.059 74.2263C116.113 74.3285 116.156 74.4116 116.19 74.4758C116.253 74.6021 116.308 74.7011 116.352 74.7716C116.397 74.8422 116.438 74.8779 116.472 74.879C116.495 74.8801 116.518 74.8695 116.541 74.8453C116.564 74.8222 116.592 74.7779 116.627 74.7116C116.662 74.6474 116.71 74.5516 116.771 74.4263L118.554 70.7115L119.046 74.3137C119.062 74.4253 119.066 74.5085 119.06 74.5632C119.052 74.6179 119.035 74.6506 119.006 74.6611C118.978 74.6737 118.957 74.6864 118.94 74.7032C118.925 74.7179 118.917 74.7337 118.917 74.7506C118.916 74.7779 118.931 74.7969 118.964 74.8074C118.998 74.8179 119.06 74.8285 119.151 74.84C119.206 74.8443 119.279 74.8485 119.37 74.8527C119.462 74.8569 119.563 74.8611 119.674 74.8632C119.785 74.8674 119.9 74.8695 120.016 74.8737C120.131 74.8769 120.242 74.879 120.347 74.8822C120.452 74.8832 120.543 74.8864 120.62 74.8874C120.698 74.8874 120.755 74.8885 120.79 74.8885C120.852 74.8885 120.901 74.8822 120.94 74.8685C120.978 74.8548 120.998 74.8327 120.999 74.8C120.999 74.78 120.988 74.7653 120.968 74.7569C120.947 74.7474 120.915 74.7432 120.87 74.7432C120.818 74.7443 120.751 74.74 120.669 74.7295C120.587 74.72 120.487 74.6969 120.37 74.6622C120.288 74.639 120.222 74.5958 120.172 74.5327C120.123 74.4706 120.084 74.3832 120.054 74.2716C120.024 74.16 119.997 74.0169 119.974 73.8463L119.242 68.8536Z" fill="black"/>
</g>
<defs>
<clipPath id="clip0_1_2061">
<rect width="121" height="75" fill="white"/>
</clipPath>
</defs>
</svg>
