<svg width="75" height="75" viewBox="0 0 75 75" fill="none" xmlns="http://www.w3.org/2000/svg">
<g clip-path="url(#clip0_1_4176)">
<path fill-rule="evenodd" clip-rule="evenodd" d="M34.7527 48.0957C34.7156 47.2973 35.0164 46.5194 35.5827 45.954C33.8919 46.6313 32.8841 48.3744 33.1415 50.1741C35.4729 50.0821 37.2912 48.1254 37.2111 45.7986C36.6877 46.8289 35.8178 47.6434 34.7527 48.0957ZM35.041 43.7888C35.0038 44.5872 35.3047 45.364 35.8709 45.9294C34.1802 45.2532 33.1724 43.5101 33.4297 41.7104C35.76 41.8024 37.5783 43.758 37.4982 46.0859C36.976 45.055 36.1049 44.2411 35.041 43.7888Z" fill="#0A0A0A"/>
<path fill-rule="evenodd" clip-rule="evenodd" d="M30.7835 47.5508C30.8813 46.7867 31.2977 46.099 31.9286 45.657C30.2109 46.0174 28.9623 47.5034 28.9062 49.2545C31.1341 49.5561 33.1864 48.0038 33.4998 45.7803C32.8317 46.6719 31.8691 47.2984 30.7835 47.5508ZM31.777 43.5112C31.6077 44.2623 31.7644 45.0499 32.2066 45.681C30.7154 44.7574 30.0502 42.9344 30.5947 41.2695C32.7923 41.7459 34.1913 43.9053 33.7246 46.1013C33.4009 45.0356 32.7122 44.1178 31.777 43.5112Z" fill="#0A0A0A"/>
<path fill-rule="evenodd" clip-rule="evenodd" d="M27.1272 46.3114C27.3452 45.6032 27.8531 45.0189 28.524 44.7031C26.8367 44.7631 25.4073 45.9676 25.0664 47.6193C27.129 48.2698 29.3322 47.1338 29.994 45.0772C29.2138 45.8122 28.1986 46.2503 27.1272 46.3114ZM28.7328 42.6425C28.4485 43.3278 28.4674 44.1006 28.7837 44.7716C27.5213 43.6499 27.1896 41.8132 27.9801 40.3225C29.986 41.1347 30.9578 43.4118 30.1547 45.4176C30.0226 44.3541 29.5198 43.3712 28.7328 42.6425Z" fill="#0A0A0A"/>
<path fill-rule="evenodd" clip-rule="evenodd" d="M23.8847 44.489C24.205 43.8521 24.7799 43.381 25.4685 43.1891C23.859 42.9755 22.3118 43.887 21.7227 45.3982C23.573 46.3457 25.842 45.6221 26.8007 43.7796C25.9416 44.3507 24.9103 44.6026 23.8847 44.489ZM25.9965 41.27C25.6178 41.8737 25.5103 42.6088 25.7019 43.2947C24.6866 42.0314 24.6678 40.2374 25.6561 38.9524C27.4264 40.0427 27.9801 42.3552 26.8979 44.128C26.9431 43.1 26.6239 42.0873 25.9965 41.27Z" fill="#0A0A0A"/>
<path fill-rule="evenodd" clip-rule="evenodd" d="M21.0706 42.1336C21.4979 41.6001 22.1317 41.2712 22.8152 41.2283C21.3469 40.7086 19.7145 41.2575 18.8594 42.5568C20.4066 43.8138 22.6813 43.5854 23.9477 42.0462C23.0285 42.4134 22.0098 42.4443 21.0706 42.1336ZM23.6932 39.5326C23.2173 40.0232 22.9702 40.6926 23.0136 41.3751C22.3113 39.9861 22.6504 38.2996 23.835 37.2898C25.2787 38.6639 25.3387 40.9456 23.97 42.394C24.2171 41.4368 24.1199 40.4242 23.6932 39.5326Z" fill="#0A0A0A"/>
<path fill-rule="evenodd" clip-rule="evenodd" d="M18.8349 39.4881C19.3234 39.0512 19.9737 38.841 20.6258 38.9084C19.3222 38.1854 17.6915 38.4458 16.6797 39.5389C17.942 40.9702 20.1247 41.1141 21.5667 39.8611C20.6395 40.0615 19.6728 39.9302 18.8349 39.4881ZM21.724 37.4458C21.1972 37.8341 20.8568 38.4264 20.7905 39.078C20.3478 37.6559 20.9358 36.1162 22.2147 35.3491C23.361 36.8763 23.0561 39.0409 21.5312 40.1918C21.9179 39.3276 21.9865 38.355 21.724 37.4458Z" fill="#0A0A0A"/>
<path fill-rule="evenodd" clip-rule="evenodd" d="M17.156 36.669C17.6714 36.3126 18.3131 36.1904 18.924 36.3315C17.7726 35.4914 16.1951 35.5456 15.1055 36.4629C16.1333 37.9695 18.189 38.3642 19.703 37.3453C18.8004 37.4269 17.8984 37.1876 17.156 36.669ZM20.1394 35.0733C19.5926 35.38 19.2008 35.902 19.0596 36.512C18.8085 35.111 19.5492 33.7191 20.8527 33.1434C21.7581 34.7266 21.2125 36.7444 19.6298 37.6554C20.1 36.8815 20.2796 35.9671 20.1394 35.0733Z" fill="#0A0A0A"/>
<path fill-rule="evenodd" clip-rule="evenodd" d="M15.977 33.6357C16.5181 33.3833 17.1415 33.3718 17.6935 33.6026C16.7469 32.6271 15.2552 32.4243 14.082 33.1108C14.805 34.694 16.6737 35.3954 18.2626 34.682C17.4006 34.6123 16.5907 34.2428 15.977 33.6357ZM19.0394 32.6157C18.476 32.8156 18.023 33.2433 17.7919 33.7933C17.7816 32.4358 18.7025 31.2467 20.0214 30.9154C20.6169 32.5494 19.7789 34.3576 18.1442 34.9613C18.7105 34.3091 19.0268 33.4786 19.0394 32.6157Z" fill="#0A0A0A"/>
<path fill-rule="evenodd" clip-rule="evenodd" d="M15.3116 30.6236C15.8538 30.4505 16.4441 30.5151 16.9366 30.7983C16.1598 29.764 14.7762 29.3928 13.5859 29.9005C14.0796 31.482 15.7577 32.3684 17.3433 31.8846C16.5385 31.7167 15.8201 31.2695 15.3116 30.6236ZM18.3265 30.0279C17.7705 30.149 17.2912 30.4991 17.0064 30.9908C17.1619 29.7069 18.1743 28.6949 19.459 28.5406C19.8251 30.1564 18.815 31.7613 17.1991 32.1354C17.8111 31.5876 18.2115 30.8406 18.3265 30.0279Z" fill="#0A0A0A"/>
<path fill-rule="evenodd" clip-rule="evenodd" d="M16.2523 27.3807C16.7151 27.7108 17.0159 28.2209 17.0823 28.784C17.4483 27.5452 16.9193 26.219 15.8022 25.5708C14.8281 26.909 15.1198 28.7789 16.4537 29.7589C16.1093 29.0142 16.0367 28.1729 16.2523 27.3807Z" fill="#0A0A0A"/>
<path fill-rule="evenodd" clip-rule="evenodd" d="M40.2503 48.0957C40.2886 47.2973 39.9866 46.5194 39.4215 45.954C41.1111 46.6313 42.119 48.3744 41.8616 50.1741C39.5313 50.0821 37.713 48.1254 37.7942 45.7986C38.3159 46.8289 39.1864 47.6434 40.2503 48.0957ZM39.9632 43.7888C40.0015 44.5872 39.6995 45.364 39.1344 45.9294C40.824 45.2532 41.8318 43.5101 41.575 41.7104C39.2448 41.8024 37.4253 43.758 37.5065 46.0859C38.0287 45.055 38.8981 44.2411 39.9632 43.7888Z" fill="#0A0A0A"/>
<path fill-rule="evenodd" clip-rule="evenodd" d="M44.219 47.5508C44.1206 46.7867 43.7053 46.099 43.0727 45.657C44.7904 46.0174 46.039 47.5034 46.0968 49.2545C43.8689 49.5561 41.8155 48.0038 41.5027 45.7803C42.1707 46.6719 43.1328 47.2984 44.219 47.5508ZM43.2243 43.5112C43.3942 44.2623 43.2386 45.0499 42.7959 45.681C44.2865 44.7574 44.9522 42.9344 44.4066 41.2695C42.2102 41.7459 40.8117 43.9053 41.2767 46.1013C41.5999 45.0356 42.2897 44.1178 43.2243 43.5112Z" fill="#0A0A0A"/>
<path fill-rule="evenodd" clip-rule="evenodd" d="M47.8759 46.3114C47.6563 45.6032 47.1501 45.0189 46.478 44.7031C48.1665 44.7631 49.5936 45.9676 49.9356 47.6193C47.8719 48.2698 45.6709 47.1338 45.0074 45.0772C45.7882 45.8122 46.8035 46.2503 47.8759 46.3114ZM46.2687 42.6425C46.5529 43.3278 46.5341 44.1006 46.2189 44.7716C47.4813 43.6499 47.813 41.8132 47.022 40.3225C45.0172 41.1347 44.0454 43.4118 44.8479 45.4176C44.9783 44.3541 45.4822 43.3712 46.2687 42.6425Z" fill="#0A0A0A"/>
<path fill-rule="evenodd" clip-rule="evenodd" d="M51.116 44.489C50.7945 43.8521 50.2197 43.381 49.5333 43.1891C51.1428 42.9755 52.6883 43.887 53.2792 45.3982C51.4288 46.3457 49.1598 45.6221 48.2006 43.7796C49.0586 44.3507 50.0915 44.6026 51.116 44.489ZM49.0048 41.27C49.3834 41.8737 49.4904 42.6088 49.2994 43.2947C50.3146 42.0314 50.3335 40.2374 49.3451 38.9524C47.576 40.0427 47.0212 42.3552 48.1045 44.128C48.0564 43.1 48.3762 42.0873 49.0048 41.27Z" fill="#0A0A0A"/>
<path fill-rule="evenodd" clip-rule="evenodd" d="M53.9312 42.1336C53.5028 41.6001 52.8701 41.2712 52.1866 41.2283C53.6543 40.7086 55.2885 41.2575 56.1424 42.5568C54.5941 43.8138 52.3205 43.5854 51.0547 42.0462C51.9721 42.4134 52.9914 42.4443 53.9312 42.1336ZM51.3081 39.5326C51.784 40.0232 52.0311 40.6926 51.9876 41.3751C52.69 39.9861 52.3496 38.2996 51.1662 37.2898C49.7226 38.6639 49.6625 40.9456 51.0324 42.394C50.7836 41.4368 50.8808 40.4242 51.3081 39.5326Z" fill="#0A0A0A"/>
<path fill-rule="evenodd" clip-rule="evenodd" d="M56.1679 39.4881C55.6794 39.0512 55.028 38.841 54.377 38.9084C55.6806 38.1854 57.3107 38.4458 58.3243 39.5389C57.0613 40.9702 54.877 41.1141 53.4373 39.8611C54.3622 40.0615 55.33 39.9302 56.1679 39.4881ZM53.2771 37.4458C53.8051 37.8341 54.1442 38.4264 54.2117 39.078C54.6545 37.6559 54.0653 36.1162 52.7875 35.3491C51.6413 36.8763 51.9473 39.0409 53.4699 40.1918C53.0844 39.3276 53.0157 38.355 53.2771 37.4458Z" fill="#0A0A0A"/>
<path fill-rule="evenodd" clip-rule="evenodd" d="M57.848 36.669C57.3338 36.3126 56.6914 36.1904 56.0806 36.3315C57.232 35.4914 58.8083 35.5456 59.8991 36.4629C58.8701 37.9695 56.8167 38.3642 55.3015 37.3453C56.2041 37.4269 57.1056 37.1876 57.848 36.669ZM54.8651 35.0733C55.4119 35.38 55.8037 35.902 55.945 36.512C56.1961 35.111 55.4554 33.7191 54.1519 33.1434C53.2464 34.7266 53.7932 36.7444 55.3736 37.6554C54.9046 36.8815 54.7244 35.9671 54.8651 35.0733Z" fill="#0A0A0A"/>
<path fill-rule="evenodd" clip-rule="evenodd" d="M59.0262 33.6357C58.4839 33.3833 57.8616 33.3718 57.3097 33.6026C58.2557 32.6271 59.7469 32.4243 60.9211 33.1108C60.197 34.694 58.3295 35.3954 56.7417 34.682C57.602 34.6123 58.4113 34.2428 59.0262 33.6357ZM55.9632 32.6157C56.5266 32.8156 56.9796 33.2433 57.2101 33.7933C57.2204 32.4358 56.2996 31.2467 54.9806 30.9154C54.3852 32.5494 55.2242 34.3576 56.8578 34.9613C56.2921 34.3091 55.9758 33.4786 55.9632 32.6157Z" fill="#0A0A0A"/>
<path fill-rule="evenodd" clip-rule="evenodd" d="M59.6896 30.6236C59.1485 30.4505 58.5582 30.5151 58.0651 30.7983C58.8407 29.764 60.2244 29.3928 61.4152 29.9005C60.9239 31.482 59.2434 32.3684 57.659 31.8846C58.4638 31.7167 59.1839 31.2695 59.6896 30.6236ZM56.6758 30.0279C57.2318 30.149 57.7111 30.4991 57.9948 30.9908C57.8415 29.7069 56.828 28.6949 55.5433 28.5406C55.1784 30.1564 56.1885 31.7613 57.8032 32.1354C57.1906 31.5876 56.7919 30.8406 56.6758 30.0279Z" fill="#0A0A0A"/>
<path fill-rule="evenodd" clip-rule="evenodd" d="M58.7525 27.3807C58.2909 27.7108 57.9895 28.2209 57.9231 28.784C57.5582 27.5452 58.0867 26.219 59.2049 25.5708C60.1779 26.909 59.885 28.7789 58.5517 29.7589C58.8972 29.0142 58.9681 28.1729 58.7525 27.3807Z" fill="#0A0A0A"/>
<path d="M21.8393 9.24149V22.5529H25.5406L21.8393 9.24149ZM17.6993 22.5529H21.38V9.25006L17.6993 22.5529ZM53.6012 9.24149V22.5529H57.3019L53.6012 9.24149ZM49.4607 22.5529H53.1413V9.25006L49.4607 22.5529ZM38.4976 8.88739C38.2425 8.63266 37.8896 8.47503 37.5012 8.47503C37.1111 8.47503 36.7588 8.63266 36.5037 8.88739C36.2486 9.14211 36.0907 9.4945 36.0907 9.88344C36.0907 10.2718 36.2486 10.6236 36.5037 10.8789C36.7588 11.1337 37.1117 11.2919 37.5012 11.2919C37.8901 11.2919 38.2425 11.1337 38.4976 10.8789C38.7527 10.6242 38.9105 10.2718 38.9105 9.88344C38.9105 9.4945 38.7527 9.14211 38.4976 8.88739ZM37.5012 35.906C38.3185 34.417 39.4802 33.1388 40.8884 32.185C39.2623 29.8531 38.2001 26.9649 37.5012 24.2172C36.8022 26.9643 35.7389 29.8531 34.1128 32.185C35.5199 33.1388 36.6838 34.4164 37.5012 35.906ZM39.1668 7.19226C39.2863 7.10545 39.4013 7.02264 39.5111 6.94554C44.0063 3.83686 47.3993 5.16646 50.2123 6.26931C50.4651 6.36869 50.7162 6.46693 50.9083 6.53832C51.4288 6.73479 52.2868 6.97752 53.0916 7.06547C53.5944 7.1203 54.0508 7.11802 54.3156 7.00208C54.3631 6.98152 54.4077 6.93982 54.438 6.88842C54.4546 6.85929 54.4649 6.83359 54.4672 6.8136C54.4695 6.80218 54.4672 6.78904 54.4609 6.77534C54.438 6.72451 54.374 6.66225 54.2556 6.59429C53.8369 6.35213 53.6933 5.81526 53.9364 5.39719C54.1789 4.97855 54.716 4.83577 55.1353 5.0785C55.6043 5.35207 55.9029 5.70104 56.0687 6.0757C56.1974 6.37212 56.2397 6.67653 56.2129 6.97124C56.186 7.25794 56.0956 7.52923 55.9566 7.76682C55.7421 8.13349 55.407 8.43676 55.0169 8.60753C54.7086 8.74232 54.3499 8.81371 53.965 8.83941L57.7772 22.5529H57.8081C57.3208 24.6004 55.4893 26.0459 53.3816 26.0459C51.2744 26.0459 49.4418 24.6004 48.9539 22.5529H48.9859L52.7924 8.79543C51.8578 8.67949 50.886 8.40421 50.2889 8.17804C50.0195 8.07638 49.7993 7.98957 49.5734 7.90161C47.1527 6.95296 44.2345 5.80841 40.5081 8.3865C40.4532 8.42363 40.4011 8.46132 40.3491 8.4973C40.5544 8.91594 40.6688 9.38713 40.6688 9.88401C40.6688 10.7573 40.3142 11.5483 39.7416 12.1211C39.3681 12.4941 38.9014 12.7745 38.3809 12.9247V19.563C39.0724 24.505 40.3233 28.7662 43.5081 32.6933C39.9922 34.6238 38.7756 36.4411 37.5012 40.2586C36.2285 36.4434 35.0057 34.6221 31.492 32.6933C34.6779 28.7685 35.9288 24.5039 36.6215 19.563V12.9242C36.0998 12.7739 35.6343 12.4935 35.2596 12.1206C34.6859 11.5477 34.3313 10.7567 34.3313 9.88344C34.3313 9.38656 34.4463 8.91537 34.6505 8.49673C34.5995 8.46075 34.5469 8.42306 34.4926 8.38593C30.7662 5.80841 27.8468 6.95239 25.4262 7.90104C25.2014 7.98899 24.98 8.07581 24.7106 8.17747C24.1089 8.40421 23.1303 8.68178 22.1905 8.79658L26.0153 22.5523H26.0462C25.5589 24.5998 23.7263 26.0454 21.6179 26.0454C19.5108 26.0454 17.6787 24.5998 17.1914 22.5523H17.2234L21.0185 8.83827C20.6399 8.81143 20.2875 8.74003 19.9844 8.60753C19.5931 8.43676 19.2597 8.13349 19.0435 7.76682C18.9068 7.5298 18.8153 7.25852 18.7884 6.97124C18.7615 6.67596 18.8027 6.37155 18.9337 6.0757C19.0978 5.70104 19.3964 5.35207 19.8648 5.0785C20.2847 4.83634 20.8212 4.97913 21.0637 5.39719C21.3062 5.81583 21.1632 6.35213 20.7445 6.59429C20.6261 6.66282 20.5621 6.72451 20.5403 6.77534C20.5352 6.78904 20.5329 6.80218 20.5329 6.8136C20.5352 6.83302 20.5455 6.85929 20.5621 6.88842C20.593 6.94039 20.637 6.98152 20.6856 7.00208C20.9499 7.11802 21.4052 7.1203 21.9085 7.06547C22.7133 6.97752 23.5718 6.73536 24.0929 6.53832C24.2839 6.46693 24.5345 6.36869 24.7878 6.26931C27.6014 5.16646 30.9938 3.83686 35.489 6.94554C35.6011 7.02207 35.7149 7.10488 35.8333 7.19226C36.3189 6.89299 36.8892 6.71994 37.5012 6.71994C38.1121 6.71994 38.6835 6.89299 39.1668 7.19226Z" fill="#0A0A0A"/>
<path fill-rule="evenodd" clip-rule="evenodd" d="M37.5013 0L37.9708 1.45296L39.4997 1.44953L38.2614 2.3445L38.7362 3.79518L37.5013 2.89564L36.2669 3.79518L36.7422 2.3445L35.5039 1.44953L37.0311 1.45296L37.5013 0Z" fill="#0A0A0A"/>
<path fill-rule="evenodd" clip-rule="evenodd" d="M43.7245 0.519775L44.0654 1.57409L45.1751 1.5718L44.2759 2.22232L44.6214 3.27549L43.7245 2.62211L42.8271 3.27549L43.1726 2.22232L42.2734 1.5718L43.3831 1.57409L43.7245 0.519775Z" fill="#0A0A0A"/>
<path fill-rule="evenodd" clip-rule="evenodd" d="M48.3135 2.46389C48.6269 2.46389 48.8809 2.21031 48.8809 1.89733C48.8809 1.58549 48.6269 1.33191 48.3135 1.33191C48.0006 1.33191 47.7461 1.58549 47.7461 1.89733C47.7461 2.20974 48.0006 2.46389 48.3135 2.46389Z" fill="#0A0A0A"/>
<path fill-rule="evenodd" clip-rule="evenodd" d="M31.2792 0.519775L30.9378 1.57409L29.8281 1.5718L30.7273 2.22232L30.3829 3.27549L31.2792 2.62211L32.1749 3.27549L31.8306 2.22232L32.7298 1.5718L31.6201 1.57409L31.2792 0.519775Z" fill="#0A0A0A"/>
<path fill-rule="evenodd" clip-rule="evenodd" d="M26.6874 2.46389C26.3745 2.46389 26.1211 2.21031 26.1211 1.89733C26.1211 1.58549 26.3739 1.33191 26.6874 1.33191C27.0008 1.33191 27.2536 1.58549 27.2536 1.89733C27.2536 2.20974 27.0008 2.46389 26.6874 2.46389Z" fill="#0A0A0A"/>
<path d="M69.2585 66.3222C69.2585 67.8683 69.2585 69.1402 69.1778 69.8164C69.1138 70.2836 69.0326 70.6377 68.71 70.7017C68.5658 70.7337 68.3719 70.7656 68.2266 70.7656C68.13 70.7656 68.0968 70.8142 68.0968 70.8622C68.0968 70.9593 68.178 70.9918 68.3559 70.9918C68.5967 70.9918 68.9679 70.9598 69.2905 70.9598C69.6297 70.9433 69.9037 70.9433 69.9357 70.9433C70.1771 70.9433 70.5655 70.9598 71.1935 70.9918C71.8221 71.0072 72.7098 71.0404 73.919 71.0404C74.5476 71.0404 74.6763 71.0404 74.7889 70.6211C74.8696 70.2836 74.9994 69.1887 74.9994 69.0597C74.9994 68.9466 74.9994 68.8181 74.9022 68.8181C74.8215 68.8181 74.7889 68.882 74.7569 69.0597C74.6437 69.7205 74.4498 70.0426 74.0311 70.2196C73.6118 70.3967 72.9026 70.3967 72.4839 70.3967C70.9035 70.3967 70.6616 70.1877 70.6129 69.0762C70.5963 68.7375 70.6129 66.8694 70.6129 66.3228V64.9064C70.6129 64.8413 70.645 64.7933 70.7262 64.7933C71.0007 64.7933 72.596 64.8253 73.0318 64.8733C73.6616 64.9384 73.8057 65.2119 73.8709 65.4375C73.935 65.6466 73.935 65.8071 73.935 65.9687C73.935 66.0492 73.967 66.1138 74.0482 66.1138C74.1603 66.1138 74.1603 65.9367 74.1603 65.8071C74.1603 65.6951 74.1935 65.0989 74.2255 64.7767C74.2742 64.2456 74.3542 63.972 74.3542 63.8761C74.3542 63.779 74.3222 63.7464 74.2742 63.7464C74.2095 63.7464 74.1443 63.827 74.0316 63.9555C73.8864 64.1171 73.6616 64.1491 73.2743 64.1811C72.9031 64.213 70.9201 64.213 70.7096 64.213C70.6295 64.213 70.6129 64.1656 70.6129 64.0514V59.6074C70.6129 59.4943 70.645 59.4469 70.7096 59.4469C70.8869 59.4469 72.6446 59.4624 72.9197 59.4943C73.7897 59.5914 73.9504 59.7845 74.0648 60.0421C74.1449 60.2345 74.1603 60.5092 74.1603 60.6218C74.1603 60.7503 74.1935 60.8308 74.2902 60.8308C74.3548 60.8308 74.3868 60.7343 74.4034 60.6537C74.4355 60.4601 74.4681 59.7519 74.4841 59.5914C74.5315 59.1397 74.6128 58.9472 74.6128 58.8347C74.6128 58.7542 74.5962 58.6896 74.5487 58.6896C74.4681 58.6896 74.4034 58.7536 74.3228 58.7701C74.1941 58.8021 73.9361 58.8341 73.6301 58.8507C73.2589 58.8661 70.0501 58.8661 69.9369 58.8661L69.2762 58.8341C68.9216 58.8187 68.4857 58.8187 68.1145 58.8187C67.9372 58.8187 67.8571 58.8507 67.8571 58.9472C67.8571 59.0112 67.9212 59.0437 67.9858 59.0437C68.1311 59.0437 68.4051 59.0603 68.5332 59.0923C69.0663 59.2042 69.195 59.4618 69.227 60.0101C69.2591 60.5258 69.2591 60.9764 69.2591 63.4888V66.3222H69.2585ZM60.5965 71.2174C61.6283 71.2174 62.8535 71.1043 63.4981 70.8467C63.7887 70.7171 63.8218 70.6851 63.9179 70.3796C64.0787 69.8318 64.2726 68.4314 64.2726 68.3189C64.2726 68.1904 64.2405 68.0779 64.1593 68.0779C64.0626 68.0779 64.0306 68.1419 63.9986 68.3189C63.95 68.609 63.74 69.3173 63.402 69.6714C62.7568 70.331 61.805 70.4761 60.5953 70.4761C57.144 70.4761 54.7737 67.6581 54.7737 64.5837C54.7737 62.9411 55.0483 61.5082 56.2248 60.3802C56.7888 59.8336 57.7886 59.2048 59.9335 59.2048C61.3532 59.2048 62.5949 59.64 63.1589 60.1232C63.5782 60.4773 63.8361 61.1369 63.8361 61.7657C63.8361 61.9902 63.8516 62.1033 63.966 62.1033C64.0626 62.1033 64.0947 62.0068 64.1113 61.7657C64.1267 61.5241 64.1267 60.6389 64.1587 60.1066C64.1919 59.5275 64.2394 59.3339 64.2394 59.2048C64.2394 59.1083 64.2074 59.0443 64.03 59.0289C63.5135 58.9957 62.997 58.8992 62.385 58.7867C61.5946 58.6428 60.6926 58.5942 60.0474 58.5942C57.5633 58.5942 56.0961 59.3504 55.1295 60.3162C53.6938 61.7497 53.3226 63.6333 53.3226 64.7122C53.3226 66.2417 53.7093 68.0779 55.2736 69.4777C56.5497 70.6206 58.1781 71.2174 60.5965 71.2174ZM48.5483 63.4888C48.5483 60.9764 48.5483 60.5258 48.5804 60.0101C48.6124 59.4469 48.7422 59.1722 49.1769 59.0923C49.3708 59.0603 49.4686 59.0437 49.5802 59.0437C49.6442 59.0437 49.7089 59.0117 49.7089 58.9472C49.7089 58.8507 49.6282 58.8187 49.4515 58.8187C48.967 58.8187 47.9517 58.8661 47.8711 58.8661C47.7905 58.8661 46.774 58.8187 46.2427 58.8187C46.0642 58.8187 45.9841 58.8507 45.9841 58.9472C45.9841 59.0112 46.0488 59.0437 46.1128 59.0437C46.2261 59.0437 46.4354 59.0603 46.6128 59.1077C46.9685 59.1882 47.1281 59.4618 47.1613 60.0095C47.1933 60.5252 47.1933 60.9759 47.1933 63.4883V66.3217C47.1933 67.8677 47.1933 69.1396 47.1127 69.8159C47.048 70.283 46.9685 70.6371 46.6448 70.7011C46.4995 70.7331 46.3067 70.7651 46.1615 70.7651C46.0636 70.7651 46.0328 70.8136 46.0328 70.8616C46.0328 70.9587 46.1128 70.9912 46.2902 70.9912C46.7735 70.9912 47.7899 70.9427 47.8705 70.9427C47.9512 70.9427 48.967 70.9912 49.8536 70.9912C50.032 70.9912 50.1115 70.9427 50.1115 70.8616C50.1115 70.8142 50.0795 70.7651 49.9828 70.7651C49.8376 70.7651 49.4829 70.7331 49.257 70.7011C48.7725 70.6371 48.677 70.2825 48.6273 69.8159C48.5472 69.1396 48.5472 67.8677 48.5472 66.3217V63.4888H48.5483ZM38.3711 59.5109L40.3999 59.5429C41.9454 59.5749 42.3321 59.9455 42.3807 60.4281L42.3973 60.6052C42.4127 60.8308 42.4447 60.8799 42.526 60.8799C42.5923 60.8799 42.6409 60.8148 42.6409 60.6709C42.6409 60.4938 42.6896 59.3824 42.6896 58.8992C42.6896 58.8027 42.6896 58.7067 42.6089 58.7067C42.5448 58.7067 42.3973 58.7542 42.1548 58.7867C41.8974 58.8353 41.5262 58.8672 41.0119 58.8672H34.9673C34.7745 58.8672 34.1625 58.8353 33.6935 58.7867C33.2588 58.7547 33.0969 58.5942 32.9842 58.5942C32.9202 58.5942 32.8555 58.8033 32.8235 58.8998C32.7915 59.0294 32.4689 60.4139 32.4689 60.5744C32.4689 60.6714 32.5009 60.7194 32.549 60.7194C32.613 60.7194 32.6628 60.6874 32.7108 60.5589C32.7583 60.4458 32.8086 60.3333 32.9848 60.0598C33.2428 59.6737 33.63 59.5606 34.6298 59.544L37.0173 59.512V66.3228C37.0173 67.8689 37.0173 69.1408 36.9366 69.817C36.872 70.2842 36.7913 70.6383 36.4676 70.7022C36.3234 70.7342 36.1295 70.7662 35.9843 70.7662C35.8876 70.7662 35.8556 70.8148 35.8556 70.8627C35.8556 70.9598 35.9362 70.9924 36.113 70.9924C36.5974 70.9924 37.6127 70.9438 37.6933 70.9438C37.774 70.9438 38.7875 70.9924 39.6741 70.9924C39.8525 70.9924 39.9321 70.9438 39.9321 70.8627C39.9321 70.8153 39.9 70.7662 39.8022 70.7662C39.6569 70.7662 39.3023 70.7342 39.0775 70.7022C38.5965 70.6383 38.4998 70.2836 38.4512 69.817C38.3711 69.1408 38.3711 67.8689 38.3711 66.3228V59.5109ZM25.7579 71.2174C26.629 71.2174 27.5001 71.0238 28.1928 70.5412C29.3047 69.7519 29.5638 68.5279 29.5638 67.8683C29.5638 66.5798 29.1114 65.5815 27.2095 64.0845L26.7571 63.7304C25.2099 62.5231 24.7895 61.9428 24.7895 61.0244C24.7895 59.8502 25.6595 59.1574 26.7737 59.1574C28.2568 59.1574 28.6921 59.8336 28.7888 60.0106C28.8854 60.1877 28.9827 60.6229 28.9981 60.8154C29.0147 60.945 29.0302 61.0244 29.128 61.0244C29.208 61.0244 29.2401 60.9125 29.2401 60.6549C29.2401 59.56 29.3047 59.0289 29.3047 58.9483C29.3047 58.8678 29.2738 58.8353 29.144 58.8353C29.0153 58.8353 28.8854 58.8198 28.58 58.7547C28.1768 58.6582 27.71 58.5942 27.0803 58.5942C25.032 58.5942 23.7416 59.7696 23.7416 61.4927C23.7416 62.5876 24.1294 63.5859 25.8385 64.9858L26.5644 65.582C27.9497 66.7255 28.4187 67.3697 28.4187 68.4794C28.4187 69.5097 27.6597 70.6211 26.1119 70.6211C25.0315 70.6211 23.967 70.1705 23.7256 68.9797C23.677 68.7541 23.677 68.5279 23.677 68.3834C23.677 68.2549 23.6604 68.2064 23.5649 68.2064C23.4843 68.2064 23.4511 68.2869 23.4351 68.464C23.4196 68.7221 23.355 69.3647 23.355 70.1705C23.355 70.6057 23.3704 70.6697 23.5958 70.7828C24.2581 71.1043 25.0006 71.2174 25.7579 71.2174ZM9.19511 65.8385C9.19511 68.1904 9.80713 69.3173 10.597 70.074C11.7421 71.1523 13.3706 71.2174 13.9191 71.2174C14.8703 71.2174 16.0794 71.0558 17.2411 70.0255C18.5315 68.882 18.7243 66.9499 18.7243 65.2108V63.4888C18.7243 60.9764 18.7243 60.5258 18.7574 60.0101C18.7883 59.4469 18.9182 59.1888 19.354 59.0923C19.5479 59.0603 19.6434 59.0437 19.7573 59.0437C19.8213 59.0437 19.8859 59.0117 19.8859 58.9472C19.8859 58.8507 19.8047 58.8187 19.6274 58.8187C19.1429 58.8187 18.3862 58.8661 18.273 58.8661C18.1763 58.8661 17.2886 58.8187 16.5639 58.8187C16.3866 58.8187 16.3059 58.8507 16.3059 58.9472C16.3059 59.0112 16.37 59.0437 16.4346 59.0437C16.5799 59.0437 16.8539 59.0603 16.9832 59.0923C17.5151 59.2042 17.6438 59.4618 17.677 60.0101C17.709 60.5258 17.709 60.9764 17.709 63.4888V65.5009C17.709 67.1589 17.5151 68.5279 16.7732 69.4458C16.1927 70.1385 15.2249 70.6057 14.2417 70.6057C13.3231 70.6057 12.5967 70.4607 11.8068 69.7205C11.1141 69.0597 10.5976 68.0613 10.5976 65.7425V63.4888C10.5976 60.9764 10.5976 60.5258 10.6308 60.0101C10.6617 59.4469 10.7904 59.1568 11.2262 59.0923C11.4201 59.0603 11.5168 59.0437 11.6295 59.0437C11.6935 59.0437 11.7593 59.0117 11.7593 58.9472C11.7593 58.8507 11.6786 58.8187 11.5013 58.8187C11.0169 58.8187 10.0502 58.8661 9.90494 58.8661C9.75965 58.8661 8.77643 58.8187 8.05059 58.8187C7.87213 58.8187 7.79148 58.8507 7.79148 58.9472C7.79148 59.0112 7.85669 59.0437 7.92132 59.0437C8.0666 59.0437 8.34115 59.0603 8.46985 59.0923C9.00064 59.2042 9.13048 59.4618 9.16251 60.0101C9.19569 60.5258 9.19569 60.9764 9.19569 63.4888V65.8385H9.19511ZM3.69326 63.4888C3.69326 60.9764 3.69326 60.5258 3.72529 60.0101C3.75732 59.4469 3.88716 59.1722 4.32186 59.0923C4.51576 59.0603 4.61243 59.0437 4.72511 59.0437C4.78917 59.0437 4.8538 59.0117 4.8538 58.9472C4.8538 58.8507 4.77315 58.8187 4.59641 58.8187C4.11195 58.8187 3.09669 58.8661 3.01604 58.8661C2.93539 58.8661 1.91899 58.8187 1.19372 58.8187C1.0164 58.8187 0.935184 58.8507 0.935184 58.9472C0.935184 59.0112 0.999817 59.0437 1.06388 59.0437C1.20916 59.0437 1.48314 59.0603 1.61241 59.0923C2.14434 59.2042 2.27304 59.4618 2.30621 60.0101C2.33824 60.5258 2.33824 60.9764 2.33824 63.4888V68.1419C2.33824 72.2957 1.83719 73.149 0.789901 74.2113C0.644619 74.3564 0.418688 74.55 0.225931 74.6631C0.0806489 74.7596 0 74.8081 0 74.9041C0 74.968 0.0640615 75.0006 0.113252 75.0006C0.16187 75.0006 0.1939 74.9852 0.226503 74.9686C0.387229 74.8886 0.645763 74.7116 0.855107 74.5665C2.16208 73.6647 2.87133 72.9074 3.20937 72.1027C3.69383 70.9593 3.69383 69.9609 3.69383 67.3526V63.4888H3.69326Z" fill="#0A0A0A"/>
</g>
<defs>
<clipPath id="clip0_1_4176">
<rect width="75" height="75" fill="white"/>
</clipPath>
</defs>
</svg>
