<svg width="85" height="50" viewBox="0 0 85 50" fill="none" xmlns="http://www.w3.org/2000/svg">
<g clip-path="url(#clip0_3_5226)">
<path d="M0 14.4316V19.798H8.06908V40.8863H13.901V19.798H21.9701V14.4316H0Z" fill="white"/>
<path d="M78.1821 40.8863L72.2353 31.8166L66.2508 40.8863H59.623L68.866 27.4318L60.0032 14.4316H66.8211L72.3899 23.0095L77.9962 14.4316H84.624L75.7612 27.3568L85.0042 40.8863H78.1821Z" fill="white"/>
<path d="M47.5397 18.6416L45.8603 14.7049L51.9074 0H46.3344L29.9853 38.7775L24.3017 28.9388H18.3799L28.0093 45.6173H33.1603L35.9802 38.7525L37.4633 35.1451H48.5883L51.0134 41.0804H57.1106L47.5397 18.6416ZM39.5751 30.0038L43.0404 21.5697L44.6801 25.5585L46.5057 30.0038H39.5751Z" fill="white"/>
<path d="M44.3058 49.3597C44.1325 49.4931 43.9445 49.6056 43.744 49.6994C43.5434 49.7932 43.3283 49.8682 43.0985 49.9203C42.8687 49.9724 42.6118 49.9995 42.3277 49.9995C41.8786 49.9995 41.4672 49.9162 41.0891 49.7515C40.711 49.5869 40.3831 49.3618 40.1073 49.0763C39.8295 48.7908 39.6123 48.4532 39.4556 48.0655C39.299 47.6779 39.2217 47.259 39.2217 46.811C39.2217 46.3692 39.299 45.9544 39.4556 45.5647C39.6123 45.1771 39.8295 44.8353 40.1073 44.5435C40.3851 44.2518 40.7152 44.0225 41.0995 43.8537C41.4839 43.6849 41.9016 43.6016 42.357 43.6016C42.6411 43.6016 42.8959 43.6245 43.1236 43.6724C43.3513 43.7204 43.5622 43.785 43.7565 43.8704C43.9507 43.9558 44.1304 44.058 44.2954 44.1788C44.4604 44.2997 44.6192 44.4331 44.7737 44.5811L44.2954 45.0937C44.0301 44.8457 43.746 44.6436 43.4411 44.4852C43.1382 44.3268 42.7727 44.2476 42.3486 44.2476C42.0061 44.2476 41.6886 44.3122 41.3961 44.4414C41.1037 44.5706 40.851 44.7499 40.6358 44.9791C40.4207 45.2083 40.2515 45.4772 40.1303 45.7877C40.0092 46.0961 39.9486 46.4317 39.9486 46.7901C39.9486 47.1486 40.0092 47.4841 40.1303 47.7967C40.2515 48.1093 40.4186 48.3802 40.6358 48.6095C40.851 48.8387 41.1058 49.02 41.3961 49.1534C41.6886 49.2868 42.0061 49.3514 42.3486 49.3514C42.7727 49.3514 43.1403 49.2743 43.4473 49.118C43.7544 48.9617 44.0552 48.7429 44.3497 48.4594L44.8093 48.9096C44.6463 49.0784 44.4792 49.2264 44.3058 49.3597Z" fill="white"/>
<path d="M52.1016 44.3477H48.3208V46.4588H51.7026V47.0944H48.3208V49.2576H52.1455V49.8933H47.6211V43.71H52.0995V44.3477H52.1016Z" fill="white"/>
<path d="M59.7046 43.7119H60.3856V49.8952H59.8279L55.8257 44.8248V49.8952H55.1448V43.7119H55.8007L59.7046 48.6656V43.7119Z" fill="white"/>
<path d="M66.0693 49.8931H65.3695V44.3559H63.2891V43.7119H68.1497V44.3559H66.0693V49.8931Z" fill="white"/>
<path d="M75.542 44.3477H71.7613V46.4588H75.1431V47.0944H71.7613V49.2576H75.5859V49.8933H71.0615V43.71H75.5399V44.3477H75.542Z" fill="white"/>
<path d="M82.8524 49.8933L81.056 47.4904H79.2847V49.8933H78.585V43.71H81.2503C81.5929 43.71 81.902 43.7537 82.1756 43.8433C82.4493 43.9309 82.6853 44.0559 82.8796 44.2185C83.0738 44.381 83.2242 44.5748 83.3307 44.802C83.4373 45.0291 83.4895 45.2813 83.4895 45.5585C83.4895 45.8169 83.4477 46.0482 83.3662 46.2525C83.2827 46.4567 83.1678 46.6318 83.0174 46.7818C82.867 46.9319 82.6874 47.0569 82.4827 47.1569C82.2759 47.257 82.0524 47.3278 81.8101 47.3695L83.713 49.8933H82.8524ZM82.3741 44.679C82.0962 44.4644 81.7056 44.356 81.2022 44.356H79.2847V46.8735H81.1939C81.4237 46.8735 81.6367 46.8443 81.8331 46.786C82.0273 46.7276 82.1965 46.6422 82.3386 46.5338C82.4806 46.4254 82.5913 46.29 82.6707 46.1316C82.7501 45.9711 82.7897 45.7919 82.7897 45.5918C82.7918 45.198 82.6519 44.8958 82.3741 44.679Z" fill="white"/>
<path opacity="0.5" d="M42.8394 30.0039L40.713 35.1431H37.4607L39.5746 30.0039H42.8394Z" fill="white"/>
<path opacity="0.5" d="M47.5393 18.6418L44.6798 25.5587L43.04 21.5699L45.8599 14.7051L47.5393 18.6418Z" fill="white"/>
</g>
<defs>
<clipPath id="clip0_3_5226">
<rect width="85" height="50" fill="white"/>
</clipPath>
</defs>
</svg>
