<svg width="183" height="75" viewBox="0 0 183 75" fill="none" xmlns="http://www.w3.org/2000/svg">
<g clip-path="url(#clip0_1_2079)">
<path fill-rule="evenodd" clip-rule="evenodd" d="M54.6057 4.89518L47.5611 11.9273H54.6057V4.89518ZM11.1094 4.89518L18.1546 11.9273H11.1094V4.89518ZM17.676 33.8631C17.676 38.7347 13.7183 42.6837 8.83769 42.6837C3.95705 42.6837 0 38.7347 0 33.8631C0 28.9903 3.95705 25.0412 8.83769 25.0412C8.94163 25.0412 9.04494 25.0424 9.14763 25.0468H57.9423C58.0456 25.0424 58.1489 25.0412 58.2522 25.0412C63.1335 25.0412 67.0905 28.9903 67.0905 33.8631C67.0905 38.7347 63.1335 42.6837 58.2522 42.6837C53.3716 42.6837 49.4145 38.7347 49.4145 33.8631H55.9911C55.9911 35.1086 57.0031 36.1193 58.2522 36.1193C59.5007 36.1193 60.5133 35.1092 60.5133 33.8631C60.5133 32.6163 59.5013 31.6056 58.2522 31.6056H49.7064H47.507V66.6453L40.827 63.3739V31.605H36.8849V61.4444L30.2056 58.1731V31.6056H26.2635V56.243L19.5842 52.9717V31.6056H17.3847H8.83769C7.58921 31.6056 6.57661 32.6157 6.57661 33.8631C6.57661 35.1086 7.58859 36.1193 8.83769 36.1193C10.0862 36.1193 11.0982 35.1092 11.0982 33.8631H17.676ZM55.9806 21.7662V15.2061H11.1094V21.7662H55.9806ZM58.1284 67.0317L64.5681 75L58.1284 71.8461L56.8046 71.1982L51.4484 68.5748V44.7337H58.1284V67.0317ZM8.96217 47.7715L1.99159 44.3585L15.6415 44.7337V51.0428L8.96217 47.7715ZM44.2047 11.9273L33.4662 0L22.7278 11.9273H44.2047Z" fill="#0A0A0A"/>
<path d="M182.797 14.8185L182.999 19.2981H182.466C182.36 18.5116 182.22 17.9463 182.044 17.6109C181.751 17.0704 181.367 16.6672 180.882 16.4138C180.396 16.1547 179.762 16.0255 178.975 16.0255H176.287V30.5731C176.287 31.7466 176.412 32.479 176.666 32.7716C177.022 33.1649 177.569 33.3605 178.308 33.3605H178.966V33.8786H170.844V33.3605H171.53C172.346 33.3605 172.923 33.1164 173.268 32.6281C173.473 32.325 173.579 31.6404 173.579 30.5725V16.0249H171.289C170.397 16.0249 169.762 16.0926 169.388 16.2218C168.899 16.3989 168.486 16.7387 168.135 17.2468C167.79 17.75 167.584 18.4352 167.516 19.2981H166.984L167.185 14.8185H182.797ZM158.313 26.4893L155.096 18.7992L151.795 26.4893H158.313ZM158.745 27.5242H151.347L150.071 30.5092C149.753 31.2472 149.591 31.8032 149.591 32.1672C149.591 32.4542 149.731 32.7132 150.008 32.9344C150.282 33.1493 150.882 33.2935 151.798 33.3599V33.878H145.779V33.3599C146.575 33.2214 147.09 33.0388 147.325 32.8139C147.805 32.3635 148.334 31.4484 148.914 30.0731L155.629 14.3855H156.104L162.743 30.2408C163.275 31.5162 163.76 32.3393 164.197 32.7232C164.633 33.1015 165.239 33.3121 166.021 33.3593V33.8774H158.494V33.3593C159.252 33.3208 159.766 33.1972 160.035 32.981C160.304 32.766 160.432 32.502 160.432 32.1902C160.432 31.7789 160.246 31.1267 159.872 30.2358L158.745 27.5242ZM131.011 15.8528V23.3851H135.216C136.306 23.3851 137.031 23.2217 137.395 22.8962C137.884 22.465 138.153 21.7078 138.211 20.6256H138.729V27.2652H138.211C138.081 26.3371 137.947 25.7376 137.817 25.4742C137.649 25.1475 137.371 24.8896 136.986 24.7027C136.602 24.5157 136.012 24.42 135.215 24.42H131.01V30.7067C131.01 31.5491 131.049 32.0616 131.121 32.2442C131.198 32.4269 131.327 32.5753 131.514 32.6803C131.702 32.7909 132.062 32.8437 132.585 32.8437H135.816C136.891 32.8437 137.674 32.7673 138.163 32.6182C138.648 32.4697 139.118 32.1722 139.564 31.7317C140.145 31.1515 140.74 30.275 141.349 29.1058H141.926L140.279 33.8786H125.566V33.3605H126.243C126.694 33.3605 127.122 33.2512 127.524 33.035C127.827 32.8866 128.034 32.6611 128.139 32.3591C128.25 32.0572 128.302 31.4447 128.302 30.5154V18.1246C128.302 16.917 128.182 16.1734 127.937 15.8963C127.596 15.5223 127.034 15.3353 126.243 15.3353H125.566V14.8185H140.284L140.485 19.0154H139.938C139.742 18.0041 139.526 17.3102 139.285 16.9306C139.046 16.5536 138.69 16.2647 138.225 16.0647C137.85 15.9249 137.189 15.8528 136.243 15.8528H131.011ZM108.749 24.074C108.927 24.074 109.08 24.074 109.21 24.0796C109.339 24.0839 109.445 24.0889 109.527 24.0889C111.327 24.0889 112.686 23.6969 113.598 22.9105C114.514 22.1196 114.971 21.1182 114.971 19.9019C114.971 18.7135 114.601 17.745 113.867 16.9983C113.127 16.256 112.148 15.882 110.933 15.882C110.396 15.882 109.666 15.9677 108.749 16.1398V24.074H108.749ZM122.295 33.878H117.183L110.697 24.9661C110.232 24.9853 109.853 24.994 109.56 24.994C109.44 24.994 109.31 24.9897 109.176 24.9847C109.037 24.9803 108.897 24.9748 108.749 24.9654V30.5141C108.749 31.7112 108.879 32.4536 109.143 32.7412C109.497 33.1537 110.031 33.3593 110.741 33.3593H111.485V33.8774H103.305V33.3593H104.021C104.827 33.3593 105.403 33.0959 105.749 32.5741C105.946 32.2858 106.042 31.5963 106.042 30.5141V18.1818C106.042 16.9834 105.912 16.2411 105.648 15.9535C105.283 15.541 104.741 15.3353 104.021 15.3353H103.305V14.8185H110.256C112.286 14.8185 113.779 14.9663 114.74 15.2589C115.704 15.5565 116.52 16.1026 117.188 16.8921C117.86 17.6829 118.196 18.6265 118.196 19.7236C118.196 20.8971 117.812 21.9134 117.049 22.7763C116.281 23.6379 115.1 24.2473 113.491 24.6064L117.442 30.0638C118.344 31.3186 119.117 32.1566 119.765 32.5691C120.408 32.9872 121.253 33.245 122.295 33.3599V33.878H122.295ZM96.7071 14.3861L97.1962 20.3952H96.6778C96.1837 18.9049 95.5401 17.7842 94.7584 17.0263C93.6251 15.9392 92.1706 15.3931 90.3943 15.3931C87.9746 15.3931 86.1323 16.3517 84.8695 18.2725C83.814 19.8876 83.2856 21.8184 83.2856 24.0566C83.2856 25.8724 83.636 27.5248 84.3411 29.0251C85.0419 30.5197 85.9637 31.6168 87.1014 32.3163C88.2391 33.0114 89.4104 33.3605 90.6103 33.3605C91.3111 33.3605 91.9926 33.2692 92.6504 33.0922C93.3027 32.9151 93.9369 32.6517 94.5462 32.3014V26.7763C94.5462 25.819 94.474 25.1916 94.3302 24.8983C94.1815 24.602 93.9562 24.3771 93.6531 24.2237C93.3463 24.0647 92.8085 23.9883 92.0405 23.9883V23.4714H99.4138V23.9883H99.0634C98.3333 23.9883 97.8342 24.2324 97.561 24.7213C97.3736 25.0661 97.2821 25.7507 97.2821 26.7757V32.6169C96.2067 33.2015 95.1412 33.627 94.095 33.901C93.0432 34.1737 91.8768 34.3079 90.5947 34.3079C86.9134 34.3079 84.1196 33.1295 82.2089 30.7676C80.7737 28.999 80.0586 26.9533 80.0586 24.6443C80.0586 22.967 80.4613 21.3574 81.2685 19.8243C82.2238 17.9985 83.5339 16.5902 85.1994 15.6068C86.5966 14.7924 88.2428 14.3849 90.1491 14.3849C90.84 14.3849 91.4692 14.4433 92.0355 14.5526C92.6019 14.6688 93.4035 14.9129 94.4447 15.2962C94.9682 15.4925 95.3235 15.5925 95.5009 15.5925C95.6783 15.5925 95.8277 15.5112 95.9571 15.349C96.0816 15.1856 96.1594 14.8645 96.188 14.3849H96.7071V14.3861Z" fill="#0A0A0A"/>
<path d="M142.518 41.442V41.9601C142.023 41.9601 141.62 42.0514 141.308 42.2284C141.001 42.4067 140.703 42.7366 140.425 43.2255C140.237 43.551 139.94 44.3375 139.536 45.5731L134.237 60.9351H133.671L129.321 48.745L125.026 60.9351H124.512L118.857 45.1227C118.435 43.9343 118.166 43.2348 118.056 43.0199C117.869 42.6608 117.614 42.3968 117.288 42.2247C116.966 42.0477 116.529 41.9613 115.973 41.9613V41.4432H123.019V41.9613H122.678C122.184 41.9613 121.805 42.0762 121.541 42.3017C121.277 42.5272 121.147 42.7993 121.147 43.1162C121.147 43.4473 121.354 44.2045 121.766 45.3917L125.525 56.0809L128.698 46.9975L128.122 45.3966L127.671 44.1126C127.474 43.6386 127.253 43.2261 127.014 42.867C126.889 42.6888 126.74 42.5359 126.562 42.4117C126.327 42.244 126.092 42.1191 125.857 42.0477C125.679 41.9905 125.396 41.9607 125.012 41.9607V41.4426H132.428V41.9607H131.919C131.396 41.9607 131.012 42.0756 130.767 42.3011C130.523 42.5266 130.402 42.8329 130.402 43.2211C130.402 43.7001 130.613 44.5437 131.036 45.7408L134.699 56.0859L138.323 45.5923C138.735 44.4232 138.942 43.6144 138.942 43.164C138.942 42.9478 138.874 42.7416 138.74 42.5546C138.6 42.3688 138.432 42.2334 138.226 42.157C137.867 42.0278 137.405 41.9607 136.834 41.9607V41.4426H142.518V41.442ZM109.842 53.114L106.626 45.424L103.324 53.114H109.842ZM110.274 54.1489H102.877L101.6 57.1339C101.284 57.8719 101.12 58.4279 101.12 58.7919C101.12 59.0789 101.26 59.338 101.538 59.5591C101.812 59.7741 102.411 59.9182 103.329 59.9846V60.5027H97.3091V59.9846C98.1057 59.8461 98.6192 59.6635 98.855 59.4386C99.3349 58.9882 99.8627 58.0732 100.443 56.6978L107.159 41.0115H107.634L114.272 56.8655C114.805 58.1409 115.291 58.964 115.726 59.3473C116.164 59.7256 116.769 59.9374 117.55 59.9846V60.5027H110.024V59.9846C110.782 59.9461 111.296 59.8225 111.565 59.6063C111.834 59.3914 111.963 59.1274 111.963 58.8155C111.963 58.4043 111.776 57.752 111.402 56.8612L110.274 54.1489ZM96.0183 55.2417L96.4794 55.3429L94.8376 60.5027H80.0625V59.9846H80.7776C81.5842 59.9846 82.1605 59.7256 82.5059 59.2038C82.7026 58.9062 82.7991 58.2173 82.7991 57.1389V44.8065C82.7991 43.6181 82.6696 42.8745 82.4057 42.5782C82.0404 42.1657 81.4983 41.9595 80.7776 41.9595H80.0625V41.4414H88.7035V41.9595C87.6909 41.9508 86.9796 42.0408 86.5675 42.2378C86.1599 42.4291 85.8811 42.6782 85.7317 42.9702C85.5836 43.2677 85.5064 43.9772 85.5064 45.0935V57.1097C85.5064 57.8899 85.5829 58.4217 85.7317 58.7149C85.8425 58.9168 86.0199 59.0597 86.2551 59.1553C86.4854 59.2466 87.2192 59.2951 88.4533 59.2951H89.8456C91.315 59.2951 92.3419 59.1895 92.9319 58.9739C93.5226 58.7577 94.0646 58.3745 94.5544 57.8284C95.0393 57.2824 95.5285 56.4207 96.0183 55.2417Z" fill="#0A0A0A"/>
</g>
<defs>
<clipPath id="clip0_1_2079">
<rect width="183" height="75" fill="white"/>
</clipPath>
</defs>
</svg>
