<svg width="86" height="75" viewBox="0 0 86 75" fill="none" xmlns="http://www.w3.org/2000/svg">
<g clip-path="url(#clip0_1_2086)">
<path d="M16.1106 22.3663H15.2695C15.3878 22.3674 15.5085 22.3705 15.6257 22.3705C15.7893 22.3708 15.9498 22.3684 16.1106 22.3663Z" fill="#0A0A0A"/>
<path d="M85.9997 36.4687L81.3837 28.4881L80.8594 27.5839L77.4109 21.6242C76.9838 20.8862 76.7652 20.0461 76.7784 19.1939L76.7787 19.1808C76.8562 17.4792 75.5224 16.087 73.8144 16.087H73.3672C71.8602 16.2529 70.4949 16.3267 69.2513 16.3267C66.0628 16.3236 63.6829 15.8535 61.663 15.1669C60.1476 14.6493 58.8259 13.9995 57.5256 13.2708C56.5511 12.7249 55.5907 12.1328 54.5823 11.5331C53.0715 10.6364 51.4433 9.71215 49.5202 9.0069C48.0581 8.46856 46.4276 8.0761 44.6217 7.92057C46.0645 7.27049 47.0701 5.82619 47.0701 4.14461C47.0698 1.85573 45.2093 0 42.9137 0C40.6185 0 38.7577 1.85573 38.7577 4.14461C38.7577 5.81929 39.7554 7.25808 41.1888 7.91194C40.3094 7.98126 39.4683 8.10369 38.6653 8.2713C36.3812 8.74618 34.4204 9.578 32.6605 10.4747C31.3378 11.1489 30.1188 11.8589 28.9129 12.527C27.1018 13.5312 25.3278 14.4406 23.246 15.1138C21.1627 15.7846 18.7565 16.2367 15.6276 16.2391C14.6226 16.2391 13.5443 16.1915 12.382 16.086C10.554 15.9205 8.97504 17.3499 8.97504 19.1805C8.98299 19.7205 8.99925 20.2592 9.02069 20.7962C9.02276 20.8507 9.00962 20.9045 8.9823 20.9517L5.14025 27.5835L4.61599 28.4878L0 36.4687V36.5014C0.322303 41.3168 4.34833 45.1248 9.25896 45.1248C14.1644 45.1248 18.1904 41.3168 18.5127 36.5014L18.5134 36.487L18.5127 36.469L13.8967 28.4878L13.3725 27.5835L10.3538 22.3664H15.2714H16.1124C19.6906 22.3212 22.6968 21.7522 25.2676 20.9055C27.2827 20.2441 29.0246 19.4222 30.5811 18.6014C31.749 17.9855 32.8141 17.3706 33.8218 16.8116C35.3347 15.9705 36.7111 15.2621 38.1335 14.7703C39.5589 14.2796 41.0345 13.9806 42.8771 13.9775C43.9432 13.9778 44.8659 14.0864 45.718 14.2713C47.2053 14.5962 48.5015 15.16 49.9 15.9201C50.9454 16.4884 52.0371 17.1675 53.2523 17.8876C55.0727 18.9649 57.1812 20.1323 59.7945 21.0097C61.7889 21.6815 64.0664 22.1722 66.6995 22.366H75.6489L72.6261 27.5832L72.1019 28.4874L67.4862 36.468V36.5007C67.8085 41.3161 71.8346 45.1241 76.7452 45.1241C81.6506 45.1241 85.6767 41.3161 85.999 36.5007L85.9997 36.4863V36.4687ZM15.851 34.9568H2.66177L6.48065 28.3567L9.25792 23.5631L15.851 34.9568ZM70.1483 34.9568L73.9672 28.3564L76.7445 23.5627L83.3375 34.9568H70.1483Z" fill="#0A0A0A"/>
<path d="M66.5604 39.6345C65.3843 42.608 63.9723 45.4628 62.3428 48.1755C59.8833 52.2694 56.9318 56.0364 53.5742 59.4006C55.8186 59.591 58.092 59.8631 60.3505 60.2221L61.082 60.3383C63.5079 57.5345 65.6979 54.5217 67.6176 51.3272C68.8328 49.3053 69.9398 47.2106 70.9316 45.052C68.9455 43.7784 67.3918 41.8824 66.5604 39.6345Z" fill="#0A0A0A"/>
<path d="M60.1643 61.3774C57.5734 60.9653 55.0085 60.6677 52.4681 60.4814C46.1638 60.019 40.0148 60.2497 34.0183 61.1619C29.8923 57.3707 26.3086 53.0006 23.4096 48.1756C21.8565 45.5901 20.5023 42.8746 19.3601 40.0515C18.4575 42.2121 16.8778 44.0165 14.8952 45.2121C15.868 47.3144 16.9501 49.3557 18.1352 51.3276C20.5867 55.4071 23.4767 59.1923 26.7395 62.6214C20.1997 64.256 13.8474 66.7294 7.67969 70.0288C14.8706 67.2015 22.0996 65.6 29.3231 65.1875C32.5963 65.0006 35.8681 65.0578 39.1347 65.3586C41.2221 65.5507 43.3073 65.8424 45.3895 66.2321C44.5658 66.8018 43.7296 67.3553 42.8761 67.8833C42.2637 67.5047 41.6599 67.1129 41.0633 66.7111L39.0268 66.5235C37.056 66.3421 35.0561 66.25 33.0829 66.25C32.2401 66.25 31.3894 66.268 30.5414 66.3011C33.8509 69.2563 37.4661 71.879 41.3369 74.112L42.8761 75L44.4153 74.112C47.4714 72.3487 50.3679 70.3433 53.0809 68.123C54.9193 68.6831 56.7542 69.3152 58.5846 70.0284L72.02 64.0053C68.0106 62.8717 64.0589 61.9968 60.1643 61.3774Z" fill="#0A0A0A"/>
<path d="M41.5647 49.3262L31.2932 27.0222V44.7325C31.2932 46.362 31.4699 47.378 31.8226 47.7822C32.3061 48.3292 33.0703 48.603 34.1161 48.603H35.0567V49.3262H25.805V48.603H26.746C27.8699 48.603 28.667 48.2643 29.1373 47.587C29.4247 47.1828 29.5686 46.2313 29.5686 44.7325V27.413C29.5686 26.2663 29.4379 25.4196 29.1764 24.872C29.0851 24.6764 28.9606 24.4975 28.804 24.3343C28.647 24.1719 28.4346 24.0315 28.167 23.9146C27.899 23.7974 27.5753 23.7063 27.1966 23.6408C26.8172 23.576 26.3538 23.5429 25.8047 23.5429V22.8193H33.3318L42.9756 43.5597L52.4628 22.8193H59.9899V23.5425H59.0687C57.9316 23.5425 57.1279 23.8819 56.6576 24.5592C56.3699 24.9634 56.2264 25.9149 56.2264 27.413V44.7322C56.2264 46.3617 56.409 47.3777 56.7752 47.7819C57.2587 48.3288 58.0229 48.6026 59.0687 48.6026H59.9899V49.3258H48.6993V48.6026H49.6403C50.7638 48.6026 51.5613 48.264 52.0316 47.5867C52.319 47.1825 52.4628 46.231 52.4628 44.7322V27.0222L42.2114 49.3262H41.5647Z" fill="#0A0A0A"/>
</g>
<defs>
<clipPath id="clip0_1_2086">
<rect width="86" height="75" fill="white"/>
</clipPath>
</defs>
</svg>
