<svg width="86" height="75" viewBox="0 0 86 75" fill="none" xmlns="http://www.w3.org/2000/svg">
<g clip-path="url(#clip0_1_4172)">
<path fill-rule="evenodd" clip-rule="evenodd" d="M43.2377 16.4902L37.0774 22.6345H43.2377V16.4902ZM43.5547 75.0001C44.4164 75.0001 45.2694 74.9628 46.1127 74.8914L45.1605 74.4249L40.4765 72.1336V51.3013H46.3181V70.785L49.2868 74.4547C63.1676 71.785 73.6526 59.605 73.6526 44.9797C73.6526 28.4004 60.1783 14.96 43.5547 14.96C38.7124 14.96 34.1368 16.1027 30.0836 18.1297L34.1428 22.635H23.4572C22.4606 23.5269 21.5241 24.4848 20.6549 25.501H44.4402V31.2323H16.7924C16.3117 32.1604 15.8792 33.1171 15.4961 34.0982H46.1555C46.246 34.0955 46.3365 34.0933 46.4265 34.0933C50.6943 34.0933 54.154 37.5441 54.154 41.8019C54.154 46.0587 50.6943 49.5094 46.4265 49.5094C42.1576 49.5094 38.6978 46.0587 38.6978 41.8019H44.4494C44.4494 42.8911 45.3339 43.7738 46.4265 43.7738C47.5179 43.7738 48.4035 42.8906 48.4035 41.8019C48.4035 40.7133 47.5179 39.8301 46.4265 39.8301H38.9531H37.0297V70.4466L31.1881 67.5888V39.8295H27.7413V65.9023L21.9002 63.0445V39.8295H18.4529V61.3575L18.2676 61.2661C23.6307 69.5298 32.9521 75.0001 43.5547 75.0001Z" fill="#0A0A0A"/>
<path d="M86 30.8982L85.8152 30.9852C85.7317 30.8095 85.6315 30.6814 85.5155 30.6009C85.4017 30.5214 85.2326 30.4717 85.0115 30.4549C84.863 30.443 84.533 30.4695 84.0241 30.5344L77.6465 31.2403L77.5511 31.0382L81.168 27.4393L76.0938 27.9668L76.0071 27.7847L80.6971 23.1106C81.0499 22.7609 81.2542 22.5469 81.3122 22.4717C81.4092 22.3442 81.4607 22.2101 81.4666 22.0652C81.4764 21.9209 81.433 21.7517 81.3387 21.5539L81.5235 21.4669L82.7115 23.9712L82.5278 24.0582L82.4698 23.9366C82.3863 23.7609 82.2823 23.6452 82.1565 23.5896C82.0319 23.5339 81.9127 23.5339 81.7989 23.5869C81.6818 23.6425 81.4471 23.8436 81.0911 24.1906L77.9093 27.3268L81.6878 26.9241L82.1614 26.4495L82.5435 26.0733C82.6801 25.9236 82.7901 25.7755 82.8773 25.6295C82.9196 25.555 82.9489 25.4766 82.964 25.3923C82.9835 25.2804 82.9895 25.1755 82.9749 25.0804C82.9662 25.0079 82.9288 24.902 82.8638 24.7658L83.0486 24.6787L84.2983 27.3144L84.1135 27.4014L84.0279 27.2203C83.9395 27.0349 83.8333 26.9176 83.7114 26.8685C83.5905 26.8193 83.461 26.8285 83.3212 26.8939C83.151 26.9744 82.8849 27.1917 82.5294 27.5436L79.4544 30.5879L83.8105 30.1079C84.2978 30.0582 84.6224 29.9944 84.7823 29.9187C84.8597 29.8825 84.921 29.8236 84.966 29.7441C85.0093 29.6636 85.0288 29.5814 85.0212 29.4949C85.0066 29.3452 84.9524 29.1706 84.856 28.9668L85.0408 28.8803L86 30.8982ZM75.3844 20.9723L76.9441 18.082L73.7651 18.982L75.3844 20.9723ZM75.1736 21.3604L73.3359 19.1031L72.1035 19.4539C71.7989 19.5404 71.5886 19.6285 71.4764 19.7188C71.3881 19.7901 71.3426 19.8972 71.3447 20.0366C71.3469 20.1739 71.4521 20.3923 71.6591 20.6896L71.4997 20.8182L70.004 18.9815L70.1633 18.8528C70.4039 19.0604 70.5877 19.1723 70.7156 19.188C70.973 19.2231 71.3838 19.1566 71.9496 18.9939L78.4274 17.1496L78.5456 17.2945L75.334 23.2566C75.0755 23.735 74.9427 24.0879 74.934 24.316C74.9259 24.5436 75.0115 24.7804 75.1915 25.0317L75.0332 25.1604L73.163 22.8631L73.3212 22.7344C73.5217 22.9561 73.6876 23.0825 73.8204 23.1106C73.9542 23.1393 74.0658 23.1128 74.1623 23.0361C74.288 22.9333 74.4414 22.7144 74.6224 22.3793L75.1736 21.3604ZM71.0017 16.988L71.1155 17.1339L69.3103 18.2766L64.8479 14.5437L64.9796 14.388L65.1959 14.5685C65.4397 14.7723 65.6793 14.8399 65.915 14.7696C66.0505 14.7296 66.2548 14.5464 66.528 14.221L69.6577 10.4994C69.9595 10.1405 70.1086 9.88371 70.1048 9.72696C70.0988 9.5102 69.9877 9.31128 69.7699 9.12912L69.5547 8.94858L69.6853 8.79291L72.2942 10.9756L72.1626 11.1324C71.8601 10.8724 71.6222 10.7205 71.4472 10.6756C71.2765 10.6307 71.1285 10.6356 71.0088 10.6864C70.889 10.7383 70.6863 10.9334 70.4023 11.2696L67.3533 14.8961C67.155 15.1312 67.0428 15.3118 67.0135 15.4372C66.9957 15.5264 67.0135 15.6134 67.0596 15.7026C67.1057 15.788 67.3159 15.988 67.6883 16.2993L68.1077 16.6512C68.5521 17.0226 68.8892 17.2501 69.1217 17.3345C69.3558 17.4188 69.616 17.4404 69.9021 17.3993C70.1877 17.3566 70.5551 17.2193 71.0017 16.988ZM58.9386 9.7902C58.7538 8.9902 58.6356 8.41237 58.5858 8.05724C58.5348 7.70265 58.4953 7.27292 58.4687 6.7686C57.9566 6.82644 57.5382 6.95292 57.2098 7.14481C56.8808 7.33887 56.6445 7.59886 56.5031 7.92805C56.3459 8.29075 56.3253 8.66102 56.4424 9.03669C56.5573 9.4129 56.8147 9.68534 57.213 9.85614C57.4271 9.94804 57.652 9.99344 57.8872 9.99344C58.1246 9.99236 58.4747 9.92479 58.9386 9.7902ZM59.5179 6.2805C60.0252 6.26212 60.4376 6.16969 60.7562 6.0059C61.0727 5.84104 61.2998 5.60428 61.4331 5.29348C61.5383 5.04969 61.5502 4.81618 61.4673 4.59186C61.3865 4.37024 61.2332 4.2097 61.0104 4.11456C60.7145 3.987 60.4484 3.99403 60.2105 4.13511C59.9715 4.27402 59.8106 4.44213 59.726 4.63889C59.6545 4.80375 59.6019 5.00159 59.5705 5.23077C59.5407 5.45996 59.5239 5.81023 59.5179 6.2805ZM61.5209 6.98319L63.6589 7.8994L63.5733 8.09724C63.2676 7.99454 63.0221 7.96589 62.8351 8.01075C62.6482 8.05562 62.2889 8.28426 61.7599 8.69075C61.2294 9.09831 60.676 9.45507 60.101 9.75885C60.2522 10.241 60.4154 10.6026 60.5931 10.8448C60.7693 11.0869 60.9784 11.2615 61.2191 11.3642C61.4548 11.4653 61.6797 11.4859 61.897 11.4291C62.1144 11.3724 62.3116 11.2351 62.4867 11.0167L62.6146 11.2351C62.2835 11.6583 61.9296 11.9259 61.5502 12.0356C61.1741 12.1453 60.8001 12.1221 60.4311 11.9632C60.152 11.8437 59.9043 11.6464 59.6821 11.3724C59.461 11.0967 59.2583 10.7059 59.0746 10.1983C58.4909 10.3934 57.9994 10.4913 57.5989 10.4897C57.1989 10.4907 56.8071 10.4086 56.4218 10.2448C55.8636 10.0037 55.4826 9.66371 55.2799 9.22426C55.0794 8.78534 55.0696 8.3567 55.2474 7.9421C55.4241 7.53346 55.7487 7.18752 56.2213 6.9059C56.696 6.62374 57.4341 6.43941 58.4422 6.35401C58.4313 5.93239 58.447 5.59618 58.4855 5.34537C58.5251 5.09564 58.5879 4.86807 58.6763 4.66105C58.9266 4.08159 59.3309 3.73186 59.8897 3.60916C60.327 3.51511 60.7552 3.55997 61.1801 3.74268C61.5849 3.91619 61.864 4.17673 62.0152 4.52375C62.1675 4.87294 62.1686 5.21942 62.0179 5.56861C61.8629 5.92752 61.6044 6.18806 61.2407 6.35293C60.8771 6.51779 60.3129 6.62644 59.5488 6.67833C59.6512 7.62805 59.7986 8.52372 59.9899 9.36372C60.895 8.90912 61.451 8.4394 61.6597 7.95616C61.7263 7.80157 61.7345 7.64265 61.6873 7.47887C61.6499 7.35616 61.5665 7.25616 61.4348 7.17887L61.5209 6.98319ZM49.9689 0.554591L52.5778 0.829183L52.5572 1.03188L52.4136 1.01621C52.3171 1.00648 52.174 1.03459 51.98 1.09945C51.7865 1.16486 51.6088 1.26918 51.4397 1.41134C51.2717 1.5535 51.0603 1.79242 50.8029 2.12593L48.7067 4.74105L48.5061 6.64049C48.4568 7.09995 48.4796 7.39346 48.5712 7.51778C48.6958 7.68643 48.911 7.78751 49.2166 7.8194L49.4632 7.84481L49.4415 8.04751L46.2343 7.71021L46.256 7.50751L46.5264 7.53616C46.8456 7.56967 47.0814 7.49778 47.2369 7.32049C47.3312 7.21076 47.4011 6.94698 47.445 6.5286L47.6298 4.78321L45.9162 1.4108C45.7119 1.02161 45.5721 0.77567 45.4957 0.676752C45.4192 0.574591 45.2518 0.447564 44.9927 0.290809C44.9228 0.247566 44.8198 0.218377 44.6784 0.203782L44.6995 0L47.891 0.336214L47.8694 0.537834L47.7035 0.521077C47.5307 0.502699 47.3664 0.527023 47.2131 0.592428C47.0597 0.657293 46.9735 0.769724 46.9557 0.931345C46.9421 1.06486 47.0304 1.31459 47.219 1.68431L48.5132 4.25294L50.2322 2.10809C50.4907 1.78539 50.6273 1.53945 50.6452 1.3708C50.656 1.2681 50.6392 1.17296 50.5959 1.08648C50.5487 0.999993 50.4799 0.928642 50.3856 0.872967C50.2913 0.815129 50.1439 0.777832 49.9472 0.756211L49.9689 0.554591ZM38.8872 0.59405L39.0254 3.55781L40.6805 3.48052C41.1097 3.46106 41.3926 3.38376 41.5303 3.24808C41.7151 3.06971 41.8066 2.76701 41.8099 2.33944L42.0137 2.32971L42.1361 4.94267L41.9318 4.9524C41.8635 4.58862 41.7996 4.35564 41.7443 4.25456C41.6722 4.12916 41.5573 4.03294 41.4034 3.96646C41.2484 3.89997 41.0143 3.8724 40.7005 3.887L39.0454 3.9643L39.1609 6.43833C39.176 6.76968 39.2004 6.97076 39.2324 7.04103C39.266 7.11076 39.3197 7.16643 39.3955 7.20481C39.4714 7.24481 39.6139 7.25995 39.8193 7.24968L41.0918 7.18968C41.5151 7.17022 41.8213 7.12589 42.0115 7.05833C42.1996 6.99076 42.3795 6.86536 42.5469 6.68374C42.7653 6.44536 42.9827 6.0886 43.2021 5.61834L43.4287 5.60753L42.8678 7.51562L37.0744 7.78535L37.0652 7.58265L37.3318 7.56967C37.509 7.56103 37.6754 7.50968 37.8299 7.41778C37.9464 7.354 38.0233 7.26211 38.0596 7.14049C38.0976 7.01995 38.1068 6.77779 38.0894 6.41239L37.8613 1.53729C37.8396 1.06215 37.7784 0.772967 37.677 0.667022C37.5361 0.527023 37.3112 0.46324 36.9996 0.477834L36.7335 0.490807L36.7243 0.287025L42.5188 0.0172972L42.6748 1.66485L42.4597 1.67566C42.3632 1.28161 42.2651 1.01134 42.1638 0.867021C42.0619 0.723238 41.9177 0.616212 41.7302 0.545401C41.5801 0.497294 41.3178 0.481618 40.9455 0.498375L38.8872 0.59405ZM26.9053 2.64539L28.8666 2.1535L34.7175 6.49725L33.6574 2.2935C33.5442 1.84539 33.4222 1.57783 33.2927 1.49188C33.1214 1.37513 32.8895 1.3535 32.5996 1.42648L32.3427 1.49134L32.2928 1.29459L34.8573 0.650806L34.9072 0.847561L34.6465 0.912966C34.3332 0.992425 34.136 1.14053 34.0514 1.35999C34.0016 1.49512 34.027 1.76647 34.13 2.17566L35.6778 8.31021L35.4832 8.3594L29.2005 3.69997L30.331 8.18372C30.4442 8.63183 30.5651 8.89994 30.6903 8.98642C30.8659 9.1021 31.0978 9.12372 31.3856 9.05183L31.6463 8.98642L31.6961 9.18318L29.1311 9.82696L29.0813 9.6302L29.3376 9.56534C29.653 9.48588 29.8514 9.33669 29.937 9.11723C29.9868 8.9821 29.9608 8.70967 29.8579 8.30156L28.581 3.23944C28.3074 3.04646 28.1052 2.92268 27.9768 2.87187C27.8472 2.82106 27.6689 2.78755 27.4408 2.77079C27.3281 2.76593 27.166 2.78917 26.9552 2.84214L26.9053 2.64539ZM22.4441 9.04858C22.5064 9.01507 22.5595 8.98696 22.605 8.96426C22.6511 8.94156 22.689 8.92426 22.7172 8.90913C23.3432 8.57561 23.742 8.18751 23.9138 7.74589C24.0856 7.30103 24.0585 6.8686 23.8314 6.44644C23.6109 6.03401 23.3025 5.76536 22.9085 5.64158C22.5134 5.51996 22.1032 5.57185 21.6805 5.79617C21.494 5.89617 21.2561 6.06104 20.9689 6.29131L22.4441 9.04858ZM28.9777 9.94587L27.2002 10.8929L23.2879 8.99615C23.1296 9.08912 22.9996 9.16264 22.8971 9.21669C22.8559 9.23939 22.8099 9.26155 22.7627 9.28426C22.7129 9.30858 22.6636 9.33345 22.6104 9.35669L23.6418 11.2848C23.865 11.7015 24.0482 11.9356 24.1929 11.9864C24.3934 12.0637 24.6162 12.0361 24.8638 11.9053L25.1224 11.768L25.2188 11.9475L22.3747 13.4615L22.2788 13.281L22.527 13.1486C22.8077 12.9994 22.9595 12.8015 22.9822 12.5556C22.9968 12.4194 22.902 12.1615 22.7009 11.7864L20.4074 7.50049C20.1847 7.08481 20.0015 6.85076 19.8563 6.79995C19.6531 6.72428 19.426 6.75292 19.1751 6.88644L18.9268 7.01887L18.8304 6.83941L21.2469 5.55239C21.9536 5.17618 22.4999 4.95132 22.8885 4.8751C23.2792 4.79943 23.6645 4.83888 24.0433 4.98969C24.4238 5.13942 24.7159 5.40645 24.9202 5.78753C25.1386 6.19509 25.1939 6.61887 25.0882 7.05995C24.9825 7.50211 24.6845 7.93237 24.1918 8.35453L26.5802 9.51993C27.1275 9.78858 27.5524 9.93723 27.8543 9.95993C28.1562 9.98533 28.4976 9.91885 28.8813 9.76696L28.9777 9.94587ZM14.3393 10.494C13.8196 10.9156 13.5578 11.4475 13.5584 12.0886C13.5584 12.8886 13.9345 13.7529 14.691 14.6821C15.4649 15.6329 16.2637 16.201 17.088 16.3847C17.7178 16.521 18.2884 16.3826 18.8006 15.968C19.3479 15.5242 19.6254 14.9458 19.6352 14.2302C19.6438 13.5129 19.2748 12.6961 18.5258 11.7761C17.7134 10.7783 16.9114 10.194 16.1201 10.0215C15.4898 9.88641 14.8959 10.0443 14.3393 10.494ZM14.1713 10.1194C14.9278 9.50696 15.8183 9.26264 16.8393 9.38804C17.8625 9.51344 18.7231 10.0053 19.4227 10.8659C20.143 11.7502 20.4616 12.7107 20.3776 13.7475C20.2953 14.7842 19.8552 15.6242 19.0607 16.2685C18.2581 16.9172 17.3514 17.1783 16.3412 17.0507C15.3305 16.922 14.458 16.4069 13.7209 15.501C12.9687 14.5767 12.6701 13.5664 12.8246 12.4713C12.96 11.521 13.4088 10.7372 14.1713 10.1194ZM10.0276 14.1058L11.4339 15.1794L11.299 15.3399C11.0345 15.1734 10.828 15.0712 10.6817 15.0399C10.4433 14.9907 10.2249 15.0048 10.0249 15.0869C9.82382 15.1675 9.62438 15.3253 9.42441 15.562L8.74372 16.3718L13.1443 20.0539C13.4998 20.3507 13.7529 20.4999 13.9057 20.4972C14.1144 20.489 14.3122 20.3739 14.4997 20.1523L14.6666 19.9534L14.8227 20.0847L12.7649 22.5312L12.6089 22.3998L12.7823 22.1928C12.9893 21.948 13.0608 21.7117 13.0007 21.4842C12.9617 21.3458 12.7812 21.1404 12.4582 20.8696L8.05708 17.1874L7.47666 17.8777C7.25067 18.1464 7.11085 18.3539 7.05448 18.4999C6.98403 18.6918 6.98295 18.9026 7.04744 19.1372C7.11193 19.3685 7.26638 19.6036 7.5108 19.842L7.37586 20.0026L6.07194 18.8091L10.0276 14.1058ZM4.84173 20.6912L6.42854 21.4744L6.32665 21.6577C6.03455 21.5452 5.81343 21.4853 5.66331 21.482C5.41998 21.4798 5.20808 21.5361 5.02816 21.6534C4.8466 21.7717 4.68131 21.9652 4.53119 22.2355L4.01906 23.1609L9.04775 25.9295C9.45313 26.1528 9.7306 26.2501 9.88072 26.2187C10.084 26.1706 10.2563 26.0198 10.3967 25.7647L10.5224 25.5382L10.7012 25.6371L9.15398 28.4322L8.97513 28.3344L9.10574 28.0982C9.26074 27.8171 9.28621 27.5717 9.18324 27.3603C9.11766 27.2317 8.90143 27.0652 8.53182 26.8614L3.50313 24.0928L3.06686 24.8809C2.89669 25.1879 2.79968 25.4187 2.77313 25.5728C2.74061 25.775 2.78017 25.9814 2.88856 26.1993C2.99641 26.4139 3.19422 26.616 3.47982 26.802L3.37794 26.9863L1.86808 26.0641L4.84173 20.6912ZM4.87533 31.0117L1.59765 31.303L4.09926 33.4544L4.87533 31.0117ZM5.31647 30.9722L4.43635 33.7452L5.40752 34.5781C5.6476 34.7841 5.83728 34.9122 5.97493 34.9554C6.08278 34.9895 6.19713 34.9684 6.31256 34.89C6.42637 34.8127 6.5521 34.6046 6.6865 34.2695L6.88106 34.3311L6.16515 36.5873L5.97005 36.5257C6.01287 36.2111 6.00528 35.9965 5.94838 35.8819C5.83565 35.6479 5.55384 35.3419 5.10565 34.9597L0 30.5782L0.0563622 30.3998L6.81495 29.796C7.35851 29.7479 7.72595 29.6646 7.92268 29.5463C8.11724 29.4279 8.2679 29.2257 8.37954 28.9387L8.5741 29.0003L7.67826 31.8209L7.48425 31.7592C7.55958 31.4711 7.57367 31.2636 7.52435 31.1371C7.47449 31.0106 7.39157 30.9311 7.27451 30.8938C7.11952 30.8446 6.8518 30.8371 6.47189 30.8711L5.31647 30.9722Z" fill="#0A0A0A"/>
<path d="M3.81459 37.9235C3.61082 39.0759 3.45528 40.2462 3.35123 41.4332C3.2488 42.5997 3.19623 43.7835 3.19623 44.9791C3.19623 45.9267 3.22875 46.8591 3.29162 47.7732C3.34689 48.5759 3.42548 49.371 3.52628 50.158C4.09207 50.1813 4.60258 50.4196 4.9776 50.7932C5.37214 51.1872 5.61656 51.731 5.61656 52.3321C5.61656 52.9331 5.37214 53.4769 4.9776 53.871C4.78196 54.0661 4.54893 54.2239 4.29096 54.3347C4.88222 56.8137 5.70489 59.2066 6.73404 61.4877C7.83473 63.9282 9.17171 66.2384 10.7152 68.3903L10.0236 68.8811C8.44713 66.6839 7.08251 64.3244 5.95906 61.8352C4.90661 59.5028 4.06551 57.0515 3.46016 54.5077H3.43577C2.83367 54.5077 2.28794 54.2645 1.89286 53.8704C1.49832 53.4764 1.25391 52.9326 1.25391 52.3315C1.25391 51.731 1.49832 51.1867 1.89286 50.7926C2.1156 50.571 2.38549 50.3964 2.68735 50.2867C2.58221 49.4742 2.50092 48.6537 2.44402 47.8294C2.37898 46.8797 2.34592 45.9289 2.34592 44.9781C2.34592 43.7608 2.39958 42.5532 2.50417 41.3586C2.60985 40.1511 2.76918 38.9554 2.97729 37.7765L3.81459 37.9235ZM85.2487 53.8704C84.8536 54.2645 84.3084 54.5077 83.7058 54.5077H83.6901C83.0847 57.0509 82.2436 59.5023 81.1912 61.8352C80.0683 64.3249 78.7031 66.6839 77.1271 68.8811L76.4356 68.3903C77.9785 66.2379 79.3155 63.9277 80.4173 61.4877C81.4454 59.2077 82.2669 56.8164 82.8582 54.338C82.597 54.2283 82.3612 54.0683 82.1634 53.8715C81.7694 53.4775 81.5239 52.9337 81.5239 52.3326C81.5239 51.7321 81.7694 51.1877 82.1634 50.7937C82.5401 50.4186 83.0549 50.1791 83.6234 50.1575C83.7248 49.3715 83.8033 48.5753 83.8581 47.7737C83.921 46.8591 83.9524 45.9272 83.9524 44.9797C83.9524 43.784 83.9014 42.6002 83.799 41.4338C83.695 40.2467 83.5394 39.0765 83.3351 37.9241L84.1724 37.7781C84.3816 38.957 84.5409 40.1527 84.6461 41.3602C84.7501 42.5548 84.8043 43.7624 84.8043 44.9797C84.8043 45.9305 84.7707 46.8813 84.7062 47.831C84.6504 48.6564 84.5675 49.4775 84.4624 50.291C84.7599 50.4007 85.0276 50.5742 85.2487 50.7937C85.6427 51.1877 85.8882 51.7315 85.8882 52.3326C85.8887 52.9326 85.6427 53.4764 85.2487 53.8704ZM83.7063 53.6591C84.0738 53.6591 84.4071 53.5099 84.6466 53.2699C84.8872 53.031 85.0357 52.6985 85.0357 52.3321C85.0357 51.9656 84.8872 51.6331 84.6466 51.3942C84.4071 51.1542 84.0738 51.005 83.7063 51.005C83.3389 51.005 83.0056 51.1542 82.7661 51.3942C82.5254 51.6331 82.377 51.9656 82.377 52.3321C82.377 52.6985 82.5254 53.031 82.7661 53.2699C83.0056 53.5099 83.3384 53.6591 83.7063 53.6591ZM3.43523 53.6591C3.80267 53.6591 4.13596 53.5099 4.37605 53.2699C4.61613 53.031 4.76516 52.6985 4.76516 52.3321C4.76516 51.9656 4.61613 51.6331 4.37605 51.3942C4.13596 51.1542 3.80267 51.005 3.43523 51.005C3.06779 51.005 2.73504 51.1542 2.49442 51.3942C2.25433 51.6331 2.1053 51.9656 2.1053 52.3321C2.1053 52.6985 2.25433 53.031 2.49442 53.2699C2.73504 53.5099 3.06779 53.6591 3.43523 53.6591Z" fill="#0A0A0A"/>
</g>
<defs>
<clipPath id="clip0_1_4172">
<rect width="86" height="75" fill="white"/>
</clipPath>
</defs>
</svg>
