<svg width="121" height="122" viewBox="0 0 121 122" fill="none" xmlns="http://www.w3.org/2000/svg">
<path d="M21.1266 31.0159L13.3245 24.094L13.9749 23.361L24.6014 24.6099L24.3506 24.8927L17.7843 19.0672L18.5275 18.2294L26.3296 25.1513L25.6793 25.8843L15.0108 24.5982L15.2617 24.3154L21.8699 30.1781L21.1266 31.0159ZM30.794 21.6217C30.2406 22.0503 29.6359 22.306 28.98 22.3889C28.3258 22.4587 27.6867 22.3574 27.0627 22.0851C26.4387 21.8128 25.8953 21.3778 25.4325 20.78C24.9696 20.1823 24.6865 19.5575 24.5832 18.9057C24.4741 18.2465 24.5307 17.6183 24.753 17.0212C24.9827 16.4184 25.3669 15.9085 25.9056 15.4913C26.3336 15.1599 26.7765 14.9468 27.2343 14.852C27.6938 14.7442 28.1473 14.7353 28.5949 14.8255C29.0368 14.9083 29.4518 15.0709 29.8401 15.3132C30.2227 15.5482 30.5512 15.8428 30.8254 16.197C30.8826 16.2708 30.9446 16.3585 31.0115 16.4602C31.0727 16.5544 31.1331 16.6552 31.1926 16.7626L26.1781 20.6454L25.5781 19.8705L30.1166 16.3563L29.9752 16.9969C29.7274 16.5396 29.3994 16.2152 28.9914 16.0236C28.585 15.8189 28.1627 15.7385 27.7247 15.7826C27.2809 15.8193 26.8746 15.9805 26.5056 16.2662C26.1366 16.5519 25.8677 16.9136 25.699 17.3511C25.5376 17.783 25.5026 18.2409 25.5941 18.7249C25.6798 19.2015 25.924 19.6617 26.3266 20.1054C26.6554 20.6063 27.0492 20.9624 27.508 21.1738C27.9684 21.3721 28.4353 21.4414 28.9085 21.3819C29.3892 21.3166 29.8177 21.1383 30.1941 20.8468C30.6295 20.5097 30.9148 20.1235 31.0499 19.6883C31.1851 19.2531 31.225 18.8091 31.1695 18.3563L32.1694 18.1842C32.257 18.5412 32.2676 18.9285 32.2012 19.3458C32.1291 19.7558 31.9776 20.1623 31.7467 20.5653C31.5175 20.9553 31.1999 21.3074 30.794 21.6217ZM37.9885 17.0211C37.3698 17.3486 36.7303 17.497 36.0699 17.4664C35.4134 17.4231 34.8011 17.2139 34.233 16.8388C33.6648 16.4636 33.2039 15.942 32.8503 15.2738C32.4966 14.6056 32.3247 13.9415 32.3345 13.2817C32.3399 12.6135 32.5032 12.0043 32.8245 11.4541C33.154 10.8996 33.6199 10.4629 34.2221 10.1442C34.7005 9.89099 35.1734 9.75688 35.6407 9.74189C36.1118 9.71429 36.5601 9.78324 36.9857 9.94875C37.4068 10.106 37.7879 10.3373 38.129 10.6425C38.4657 10.9395 38.7388 11.286 38.9484 11.6819C38.9921 11.7644 39.0382 11.8615 39.0867 11.9731C39.1308 12.0764 39.173 12.1861 39.2133 12.3021L33.6079 15.2688L33.1495 14.4026L38.2228 11.7175L37.9738 12.3245C37.8079 11.8315 37.5403 11.4557 37.1711 11.197C36.8058 10.9257 36.4036 10.7743 35.9644 10.7427C35.521 10.7028 35.093 10.7921 34.6805 11.0104C34.2681 11.2287 33.9412 11.5389 33.7 11.9412C33.4671 12.339 33.3542 12.7842 33.3614 13.2767C33.3643 13.7609 33.5261 14.2561 33.8467 14.7622C34.0849 15.312 34.4119 15.7303 34.8277 16.0171C35.2474 16.2913 35.6955 16.4396 36.1719 16.462C36.6567 16.48 37.1094 16.3776 37.5301 16.155C38.0168 15.8974 38.364 15.5658 38.5717 15.1602C38.7794 14.7545 38.8947 14.3239 38.9176 13.8683L39.9322 13.8699C39.9574 14.2367 39.9015 14.62 39.7646 15.0198C39.6234 15.4114 39.4045 15.7859 39.108 16.1435C38.8154 16.4885 38.4422 16.781 37.9885 17.0211ZM45.8481 13.7665C45.1806 13.9774 44.5293 14.007 43.8941 13.8554C43.256 13.6948 42.6927 13.3834 42.2041 12.9212C41.7215 12.4472 41.3677 11.8542 41.1427 11.1423C40.915 10.4214 40.8638 9.73283 40.9892 9.07654C41.1235 8.41744 41.4026 7.84473 41.8264 7.35843C42.2564 6.86042 42.8095 6.50455 43.4859 6.29082C44.0999 6.09678 44.6895 6.05733 45.2544 6.17246C45.8193 6.28759 46.3115 6.5285 46.7308 6.8952L46.6592 7.22616L45.2207 2.67402L46.2219 2.35765L49.4152 12.4631L48.414 12.7795L47.9078 11.1776L48.1144 11.2738C48.0283 11.8687 47.781 12.3873 47.3727 12.8296C46.9704 13.2601 46.4622 13.5724 45.8481 13.7665ZM45.5851 12.7484C46.0657 12.5965 46.4594 12.34 46.7661 11.9788C47.0818 11.6148 47.2862 11.1929 47.3793 10.7132C47.4785 10.2218 47.4466 9.71805 47.2835 9.20187C47.1204 8.68569 46.8584 8.25947 46.4977 7.92321C46.143 7.57523 45.7319 7.34297 45.2644 7.22641C44.8058 7.10705 44.3362 7.12329 43.8556 7.27515C43.384 7.4242 42.9947 7.67933 42.688 8.04054C42.3812 8.40175 42.1813 8.8222 42.0882 9.30189C42.0039 9.77876 42.0448 10.2797 42.2107 10.8048C42.3738 11.321 42.6282 11.7545 42.974 12.1053C43.3258 12.4443 43.7266 12.675 44.1763 12.7971C44.635 12.9165 45.1045 12.9003 45.5851 12.7484ZM52.9163 11.6846L55.9426 1.00152L57.1433 0.912489L61.7121 11.0323L60.5393 11.1193L59.4574 8.64454L54.8081 8.98928L54.089 11.5976L52.9163 11.6846ZM55.0935 7.91524L58.9888 7.6264L56.4375 1.80713L56.7726 1.78228L55.0935 7.91524ZM62.9295 11.124L63.6421 3.65395L64.6874 3.75367L64.5491 5.20309L64.3175 5.12474C64.5494 4.65932 64.8877 4.3072 65.3324 4.06835C65.7864 3.83039 66.2921 3.738 66.8496 3.79118C67.3792 3.84171 67.8415 4.0077 68.2366 4.28916C68.6409 4.5715 68.9435 4.93789 69.1443 5.38833C69.3553 5.83036 69.4355 6.31618 69.385 6.84577L68.9223 11.6958L67.877 11.596L68.3012 7.15022C68.3446 6.69495 68.2978 6.30139 68.1607 5.96954C68.0328 5.63857 67.8283 5.37529 67.5469 5.17968C67.2757 4.97567 66.9496 4.8555 66.5687 4.81915C66.1878 4.78281 65.8402 4.83872 65.5261 4.98689C65.2128 5.12577 64.957 5.34982 64.7588 5.65906C64.5614 5.959 64.4414 6.33196 64.3989 6.77794L63.9747 11.2238L62.9295 11.124ZM70.1341 15.0587C69.9894 15.0218 69.8436 14.9703 69.6968 14.904C69.5567 14.8491 69.4212 14.7761 69.2902 14.685L69.532 13.7352C69.6201 13.7673 69.7297 13.8096 69.8608 13.8623C69.9986 13.9262 70.1399 13.9766 70.2846 14.0135C70.7278 14.1263 71.0911 14.1176 71.3747 13.9875C71.6559 13.8665 71.9763 13.5724 72.3359 13.1054L73.0735 12.1374L72.8184 13.0259L71.6999 4.53575L72.7989 4.81544L73.703 11.8209L73.4181 11.7483L77.5475 6.024L78.6736 6.3106L73.264 13.6594C73.0295 13.9753 72.7589 14.2628 72.4522 14.5218C72.1545 14.7831 71.8142 14.9662 71.4312 15.0709C71.0459 15.1848 70.6135 15.1807 70.1341 15.0587ZM80.2955 14.9965L85.0761 5.72661L86.0716 6.23997L83.9219 10.4083L88.899 12.9751L91.0487 8.80679L92.0441 9.32015L87.2634 18.59L86.268 18.0766L88.4177 13.9083L83.4406 11.3415L81.2909 15.5098L80.2955 14.9965ZM91.7761 22.0544C91.2254 21.6222 90.8299 21.0982 90.5895 20.4824C90.3622 19.865 90.3044 19.2205 90.4162 18.5489C90.5281 17.8773 90.8174 17.2442 91.2841 16.6495C91.7509 16.0548 92.2877 15.6278 92.8946 15.3685C93.5073 15.1019 94.1302 15.0035 94.7635 15.0734C95.4042 15.1491 95.9925 15.3973 96.5284 15.8179C96.9543 16.1521 97.269 16.5297 97.4726 16.9505C97.6893 17.3698 97.8086 17.8074 97.8303 18.2635C97.8578 18.7122 97.8014 19.1544 97.6611 19.5901C97.5267 20.0184 97.3211 20.4088 97.0445 20.7612C96.9869 20.8347 96.9169 20.9162 96.8347 21.0059C96.7582 21.0882 96.6752 21.1714 96.5856 21.2553L91.5967 17.3397L92.2017 16.5688L96.7171 20.1127L96.0613 20.1319C96.4443 19.78 96.6789 19.3828 96.7652 18.9403C96.8646 18.4962 96.8394 18.0672 96.6898 17.6531C96.5459 17.2317 96.2905 16.877 95.9234 16.5888C95.5563 16.3007 95.14 16.1282 94.6744 16.0713C94.2162 16.0202 93.7636 16.098 93.3166 16.3048C92.8753 16.5042 92.4886 16.8533 92.1565 17.352C91.751 17.7931 91.5017 18.2618 91.4087 18.7583C91.3287 19.2532 91.3754 19.7229 91.5486 20.1673C91.7292 20.6175 92.0067 20.9896 92.3811 21.2835C92.8143 21.6234 93.2584 21.8059 93.7134 21.8308C94.1685 21.8557 94.6088 21.7861 95.0343 21.6217L95.4453 22.5494C95.1204 22.7215 94.7475 22.8263 94.3265 22.8637C93.9114 22.8938 93.4802 22.8461 93.033 22.7205C92.5988 22.5934 92.1799 22.3713 91.7761 22.0544ZM95.8744 25.219L103.355 17.7117L104.099 18.4528L96.6182 25.9601L95.8744 25.219ZM95.833 29.2885L103.954 22.9469L104.601 23.7745L103.276 24.8085L103.405 24.4951C103.964 24.4375 104.506 24.5175 105.031 24.7351C105.562 24.96 106.025 25.3263 106.422 25.8338C106.858 26.3929 107.11 26.9957 107.177 27.6423C107.257 28.2905 107.162 28.9206 106.894 29.5326C106.632 30.1519 106.203 30.6942 105.607 31.1595C105.018 31.619 104.388 31.9039 103.716 32.0141C103.058 32.1258 102.42 32.0673 101.803 31.8385C101.199 31.6112 100.679 31.2181 100.242 30.659C99.8461 30.1514 99.6011 29.6026 99.5075 29.0126C99.427 28.4242 99.5196 27.8604 99.7854 27.3212L100.01 27.3589L96.4792 30.1161L95.833 29.2885ZM101.036 29.9686C101.346 30.3659 101.721 30.6414 102.161 30.7953C102.606 30.9565 103.067 30.9933 103.543 30.9056C104.033 30.8195 104.491 30.6099 104.918 30.2768C105.352 29.9378 105.666 29.5443 105.861 29.0962C106.061 28.6554 106.137 28.1993 106.089 27.7279C106.046 27.2638 105.87 26.8332 105.56 26.4359C105.25 26.0387 104.869 25.7558 104.417 25.5872C103.972 25.426 103.501 25.3847 103.006 25.4634C102.524 25.5438 102.07 25.7505 101.643 26.0837C101.217 26.4168 100.902 26.8104 100.7 27.2642C100.511 27.7197 100.441 28.1832 100.489 28.6546C100.543 29.1334 100.725 29.5714 101.036 29.9686ZM106.611 41.6471C106.314 40.9723 106.16 40.3004 106.151 39.6313C106.151 38.9585 106.276 38.3169 106.527 37.7065C106.791 37.1008 107.171 36.551 107.667 36.0571C108.164 35.5631 108.77 35.1581 109.488 34.8421C110.205 34.5261 110.914 34.3517 111.613 34.319C112.313 34.2862 112.975 34.377 113.6 34.5914C114.228 34.8143 114.786 35.155 115.274 35.6133C115.77 36.068 116.166 36.6327 116.463 37.3075C116.749 37.9566 116.89 38.5882 116.885 39.2023C116.884 39.8249 116.777 40.3922 116.564 40.9042C116.363 41.4209 116.096 41.8446 115.762 42.1752L114.916 41.4005C115.366 40.9168 115.648 40.3539 115.763 39.7117C115.89 39.0744 115.804 38.414 115.503 37.7307C115.194 37.0303 114.753 36.4801 114.179 36.0802C113.605 35.6803 112.951 35.4582 112.218 35.4141C111.493 35.3662 110.734 35.5172 109.939 35.8671C109.154 36.2132 108.529 36.6717 108.067 37.2425C107.604 37.8134 107.327 38.4455 107.235 39.1388C107.151 39.8285 107.263 40.5235 107.572 41.2239C107.873 41.9072 108.297 42.4189 108.845 42.7591C109.396 43.1078 110.002 43.2794 110.662 43.274L110.663 44.4212C110.202 44.4405 109.709 44.3517 109.184 44.1547C108.671 43.9625 108.184 43.6567 107.724 43.2372C107.268 42.8263 106.897 42.2963 106.611 41.6471ZM109.494 50.4848C109.345 49.7913 109.374 49.1264 109.581 48.49C109.797 47.8517 110.157 47.302 110.659 46.8409C111.172 46.3869 111.799 46.0805 112.538 45.9217C113.268 45.7648 113.956 45.7889 114.601 45.9938C115.246 46.1988 115.793 46.5443 116.241 47.0304C116.701 47.5236 117.007 48.1261 117.16 48.8378C117.312 49.5496 117.284 50.2191 117.076 50.8463C116.869 51.4826 116.512 52.0222 116.006 52.4651C115.501 52.9172 114.88 53.2226 114.141 53.3814C113.392 53.5422 112.69 53.5165 112.033 53.3043C111.386 53.0902 110.837 52.7356 110.387 52.2404C109.939 51.7544 109.642 51.1692 109.494 50.4848ZM110.521 50.2642C110.627 50.757 110.845 51.1731 111.176 51.5125C111.509 51.8611 111.914 52.1033 112.392 52.2393C112.872 52.3844 113.376 52.4001 113.905 52.2864C114.435 52.1727 114.884 51.9521 115.252 51.6246C115.623 51.3063 115.889 50.9199 116.049 50.4655C116.211 50.0202 116.239 49.5512 116.133 49.0584C116.027 48.5656 115.808 48.145 115.475 47.7964C115.144 47.457 114.744 47.2137 114.273 47.0667C113.802 46.9196 113.302 46.9029 112.773 47.0167C112.244 47.1304 111.79 47.3519 111.412 47.6813C111.034 48.0107 110.764 48.3981 110.602 48.8434C110.442 49.2979 110.415 49.7715 110.521 50.2642ZM110.663 55.9927L118.161 55.6809L118.204 56.73L116.75 56.7905L116.796 56.5504C117.288 56.7167 117.683 57.0039 117.98 57.4119C118.278 57.8292 118.438 58.3176 118.462 58.8772C118.484 59.4087 118.382 59.8893 118.157 60.3191C117.933 60.7581 117.611 61.1078 117.192 61.3681C116.783 61.6373 116.313 61.783 115.781 61.8051L110.913 62.0075L110.87 60.9584L115.332 60.7728C115.789 60.7538 116.172 60.6538 116.482 60.4728C116.793 60.3011 117.026 60.0625 117.181 59.7571C117.346 59.4607 117.421 59.1213 117.405 58.7389C117.389 58.3566 117.286 58.0199 117.097 57.7289C116.917 57.4374 116.66 57.2146 116.326 57.0603C116.002 56.9056 115.616 56.8376 115.169 56.8562L110.707 57.0418L110.663 55.9927ZM110.514 66.849C110.574 66.1797 110.816 65.6813 111.239 65.3539C111.662 65.0265 112.236 64.8954 112.961 64.9606L117.214 65.343L117.338 63.9626L118.384 64.0567L118.352 64.4053C118.324 64.7213 118.404 64.9815 118.591 65.1858C118.789 65.391 119.045 65.5077 119.361 65.5362L119.989 65.5926L119.895 66.6384L118.166 66.4829L118.018 68.1282L116.972 68.0342L117.12 66.3888L112.867 66.0063C112.616 65.9838 112.39 66.0009 112.188 66.0577C111.995 66.1154 111.835 66.2275 111.708 66.3941C111.579 66.5699 111.501 66.8113 111.474 67.118C111.467 67.1924 111.464 67.2811 111.464 67.3842C111.464 67.4873 111.465 67.5764 111.468 67.6516L110.534 67.5676C110.516 67.4536 110.509 67.3264 110.512 67.1861C110.506 67.045 110.507 66.9326 110.514 66.849ZM109.596 71.3217C109.701 70.8575 109.882 70.4629 110.137 70.138C110.402 69.8151 110.712 69.5841 111.069 69.4449C111.426 69.3057 111.805 69.2814 112.205 69.3722C112.588 69.4588 112.915 69.6191 113.187 69.8531C113.469 70.0892 113.68 70.4049 113.82 70.8003C113.96 71.1957 114.014 71.6722 113.984 72.2299L113.812 75.2055L112.883 74.9951L113.041 72.2746C113.069 71.726 112.987 71.3055 112.795 71.0132C112.601 70.7299 112.336 70.5501 111.999 70.4738C111.671 70.3995 111.365 70.464 111.079 70.6673C110.792 70.8797 110.602 71.1907 110.509 71.6004C110.396 72.101 110.401 72.5616 110.526 72.9823C110.66 73.405 110.885 73.7623 111.202 74.0542C111.518 74.346 111.9 74.5425 112.346 74.6436L114.203 75.0644C114.64 75.1634 115.031 75.0846 115.376 74.8279C115.721 74.5712 115.952 74.1879 116.067 73.6782C116.168 73.2322 116.143 72.815 115.992 72.4266C115.85 72.0403 115.62 71.725 115.302 71.4807L116.018 70.6667C116.296 70.8734 116.53 71.1513 116.719 71.5003C116.905 71.8585 117.028 72.2452 117.087 72.6605C117.155 73.0779 117.143 73.4914 117.05 73.901C116.929 74.438 116.717 74.8876 116.414 75.2498C116.11 75.6211 115.746 75.8782 115.321 76.0212C114.903 76.1753 114.453 76.1978 113.971 76.0884L108.946 74.9498L109.178 73.9257L110.639 74.2568L110.455 74.373C110.211 74.1836 110.006 73.9267 109.84 73.602C109.681 73.2885 109.575 72.9343 109.521 72.5392C109.474 72.1554 109.499 71.7495 109.596 71.3217ZM106.839 80.1013C107.119 79.4193 107.526 78.8851 108.058 78.4985C108.591 78.112 109.189 77.8838 109.854 77.814C110.527 77.7477 111.208 77.8565 111.899 78.1405C112.59 78.4245 113.146 78.8251 113.57 79.3422C113.993 79.8594 114.253 80.4408 114.351 81.0865C114.457 81.7358 114.37 82.4014 114.09 83.0833C113.912 83.5149 113.668 83.8886 113.356 84.2045C113.044 84.5204 112.695 84.7701 112.306 84.9535C111.927 85.1405 111.534 85.2363 111.128 85.2411L111.037 84.1743C111.479 84.1543 111.89 84.0153 112.268 83.7572C112.647 83.4991 112.93 83.1414 113.119 82.6839C113.307 82.2264 113.361 81.7642 113.28 81.2971C113.205 80.8423 113.009 80.4236 112.692 80.0409C112.38 79.6704 111.969 79.3805 111.46 79.171C110.959 78.9651 110.464 78.8823 109.973 78.9227C109.487 78.9751 109.053 79.1347 108.671 79.4014C108.285 79.6767 107.998 80.0431 107.81 80.5006C107.622 80.9581 107.573 81.4074 107.664 81.8485C107.752 82.2983 107.953 82.6937 108.266 83.0347L107.425 83.7181C107.149 83.4329 106.937 83.0886 106.791 82.685C106.644 82.2815 106.571 81.8579 106.571 81.4142C106.572 80.9705 106.661 80.5328 106.839 80.1013ZM103.462 87.12C103.8 86.5392 104.23 86.19 104.752 86.0725C105.274 85.955 105.849 86.0793 106.479 86.4454L110.169 88.5926L110.866 87.3946L111.774 87.9227L111.598 88.2252C111.438 88.4995 111.4 88.7689 111.484 89.0335C111.576 89.3028 111.759 89.5173 112.033 89.6768L112.577 89.9936L112.049 90.9012L110.549 90.0282L109.718 91.4562L108.811 90.9281L109.641 89.5002L105.95 87.353C105.733 87.2262 105.52 87.1459 105.313 87.1118C105.114 87.0825 104.922 87.1163 104.736 87.2133C104.545 87.3183 104.373 87.5039 104.218 87.7701C104.18 87.8347 104.14 87.9137 104.096 88.0071C104.052 88.1005 104.016 88.1819 103.986 88.2511L103.176 87.7794C103.208 87.6685 103.255 87.5502 103.317 87.4245C103.372 87.2941 103.42 87.1926 103.462 87.12ZM98.0573 93.9443C98.5471 93.3932 99.0932 93.0107 99.6954 92.7967C100.298 92.5828 100.9 92.5374 101.502 92.6607C102.111 92.7901 102.674 93.0843 103.19 93.5431L108.443 98.2122L107.699 99.0493L102.446 94.3802C102.07 94.0454 101.667 93.8311 101.238 93.7373C100.81 93.6567 100.389 93.6881 99.9744 93.8315C99.5606 93.988 99.1831 94.2582 98.8421 94.6418C98.501 95.0255 98.2801 95.4286 98.1794 95.851C98.0794 96.2866 98.0976 96.7086 98.234 97.1171C98.3712 97.5388 98.6282 97.917 99.0049 98.2518L104.258 102.921L103.514 103.758L98.2608 99.0889C97.7446 98.6301 97.3865 98.1057 97.1865 97.5159C96.9935 96.9323 96.9679 96.3289 97.1097 95.7057C97.2454 95.0895 97.5612 94.5023 98.0573 93.9443ZM91.9579 99.8788C92.5188 99.4295 93.1243 99.1777 93.7744 99.1233C94.4244 99.069 95.0397 99.2099 95.62 99.5463L95.1942 100.426C94.7408 100.203 94.2801 100.105 93.8122 100.133C93.337 100.167 92.9173 100.33 92.5531 100.622C92.2035 100.902 91.9756 101.222 91.8694 101.582C91.7691 101.949 91.8298 102.272 92.0515 102.548C92.2149 102.752 92.4015 102.866 92.6114 102.889C92.8272 102.92 93.0378 102.906 93.2433 102.849C93.4488 102.792 93.6215 102.732 93.7614 102.668L94.7953 102.234C95.4568 101.955 96.0187 101.858 96.4808 101.942C96.9429 102.026 97.3199 102.251 97.6116 102.615C97.8859 102.957 98.0377 103.326 98.0671 103.721C98.0965 104.116 98.0173 104.502 97.8295 104.88C97.6418 105.257 97.3658 105.592 97.0015 105.884C96.5062 106.281 95.9532 106.508 95.3425 106.567C94.7303 106.639 94.1567 106.512 93.6215 106.188L94.0582 105.3C94.4665 105.511 94.882 105.597 95.3047 105.557C95.7259 105.53 96.104 105.383 96.4391 105.115C96.7669 104.852 96.9621 104.558 97.0245 104.233C97.087 103.908 97.0161 103.618 96.8119 103.363C96.6543 103.166 96.4779 103.051 96.2825 103.016C96.0872 102.981 95.9006 102.987 95.7228 103.034C95.5377 103.086 95.3825 103.139 95.2572 103.191L94.0572 103.686C93.4728 103.927 92.9328 104.007 92.4372 103.926C91.9343 103.85 91.5252 103.616 91.2101 103.222C90.9534 102.902 90.814 102.541 90.7918 102.14C90.7624 101.745 90.846 101.35 91.0425 100.953C91.2449 100.564 91.55 100.206 91.9579 99.8788ZM84.0768 105.154L85.4321 107.811L88.0883 106.455L88.5655 107.391L85.9093 108.746L87.2583 111.39L86.323 111.867L84.974 109.223L82.3303 110.572L81.8531 109.637L84.4968 108.288L83.1415 105.632L84.0768 105.154ZM77.4474 108.146L80.544 117.074L82.3958 116.432L82.7169 117.358L79.807 118.367L76.3892 108.513L77.4474 108.146ZM69.3715 108.274C70.2582 108.954 70.9964 109.773 71.5861 110.732C72.1667 111.692 72.5723 112.753 72.8029 113.916C73.0353 115.088 73.0656 116.223 72.8936 117.323C72.7143 118.434 72.3439 119.469 71.7822 120.427L70.8896 120.604C71.3672 119.558 71.6773 118.483 71.82 117.379C71.9535 116.278 71.915 115.196 71.7043 114.134C71.4936 113.072 71.1163 112.057 70.5724 111.09C70.0193 110.124 69.3215 109.245 68.4789 108.451L69.3715 108.274ZM64.3578 110.528C64.898 110.494 65.4069 110.555 65.8845 110.712C66.3528 110.869 66.7702 111.109 67.1368 111.431C67.5033 111.754 67.7902 112.147 67.9974 112.611L67.1718 113.085C66.9232 112.558 66.5467 112.152 66.0422 111.866C65.5289 111.59 64.9882 111.47 64.42 111.506C63.9636 111.535 63.5653 111.668 63.2249 111.905C62.8753 112.142 62.6096 112.449 62.4278 112.825C62.2466 113.211 62.1705 113.632 62.1995 114.088C62.2298 114.563 62.3636 114.976 62.6009 115.325C62.8289 115.676 63.1265 115.942 63.4935 116.124C63.861 116.316 64.2684 116.398 64.7155 116.369C65.1719 116.34 65.5889 116.206 65.9664 115.967C66.3353 115.738 66.5987 115.468 66.7567 115.159L67.6476 115.271L67.2244 120.965L61.9571 121.3L61.8948 120.322L66.757 120.013L66.3479 120.418L66.6939 115.935L67.1394 116.103C66.8389 116.524 66.4751 116.832 66.048 117.028C65.6215 117.233 65.18 117.35 64.7236 117.379C64.053 117.421 63.4514 117.301 62.919 117.017C62.3871 116.742 61.9602 116.353 61.6383 115.85C61.3076 115.356 61.1221 114.793 61.0818 114.16C61.0409 113.517 61.1575 112.925 61.4317 112.384C61.6972 111.852 62.0859 111.421 62.5979 111.089C63.1005 110.758 63.6872 110.571 64.3578 110.528ZM55.8021 110.365C56.3405 110.422 56.832 110.567 57.2766 110.802C57.7119 111.035 58.0832 111.342 58.3905 111.721C58.6978 112.101 58.9147 112.537 59.0413 113.029L58.148 113.357C57.9912 112.796 57.688 112.332 57.2385 111.966C56.7788 111.608 56.2658 111.399 55.6996 111.34C55.2448 111.292 54.8298 111.356 54.4546 111.532C54.0702 111.708 53.7568 111.966 53.5145 112.306C53.2712 112.656 53.1257 113.058 53.0778 113.513C53.028 113.987 53.0908 114.416 53.2662 114.8C53.4324 115.184 53.6811 115.496 54.0123 115.737C54.3426 115.988 54.7305 116.137 55.176 116.183C55.6308 116.231 56.0644 116.169 56.4767 115.997C56.8787 115.832 57.1836 115.611 57.3912 115.333L58.2508 115.592L56.8794 121.135L51.6303 120.583L51.7328 119.608L56.5781 120.118L56.1069 120.448L57.1992 116.087L57.6104 116.327C57.2435 116.692 56.8331 116.935 56.3793 117.056C55.9245 117.187 55.4697 117.228 55.0149 117.18C54.3465 117.11 53.7737 116.89 53.2964 116.521C52.8181 116.161 52.4624 115.706 52.2294 115.156C51.986 114.614 51.8976 114.027 51.964 113.396C52.0314 112.756 52.2455 112.192 52.6065 111.704C52.9573 111.225 53.4128 110.864 53.9731 110.623C54.5242 110.381 55.1338 110.295 55.8021 110.365ZM47.403 108.748C47.9234 108.897 48.3822 109.125 48.7795 109.433C49.1678 109.739 49.4804 110.105 49.7174 110.532C49.9543 110.959 50.0926 111.426 50.1321 111.932L49.1954 112.101C49.138 111.521 48.9197 111.012 48.5405 110.574C48.1497 110.141 47.6806 109.847 47.1332 109.69C46.6936 109.564 46.2737 109.556 45.8737 109.665C45.4646 109.771 45.1113 109.971 44.8138 110.264C44.5136 110.566 44.3006 110.937 44.1747 111.377C44.0437 111.835 44.0313 112.268 44.1375 112.677C44.2348 113.084 44.4256 113.434 44.7101 113.729C44.9919 114.033 45.3482 114.247 45.7789 114.37C46.2186 114.496 46.6564 114.51 47.0924 114.411C47.5168 114.319 47.8553 114.154 48.108 113.916L48.9097 114.32L46.5994 119.542L41.5252 118.089L41.7949 117.147L46.4787 118.488L45.9575 118.732L47.7884 114.625L48.1517 114.933C47.7272 115.229 47.281 115.397 46.813 115.438C46.3425 115.488 45.8874 115.45 45.4477 115.324C44.8016 115.139 44.2755 114.823 43.8694 114.377C43.4606 113.94 43.1891 113.43 43.0548 112.848C42.9089 112.272 42.9233 111.679 43.098 111.069C43.2752 110.45 43.5838 109.931 44.0238 109.514C44.4522 109.102 44.9632 108.826 45.5569 108.686C46.1415 108.542 46.7569 108.563 47.403 108.748ZM43.6526 105.79C42.664 106.392 41.8036 107.111 41.0714 107.945C40.3305 108.775 39.7473 109.688 39.3215 110.683C38.8958 111.679 38.6386 112.731 38.5499 113.84C38.4527 114.945 38.5295 116.059 38.7803 117.182L37.9436 116.824C37.5838 115.767 37.4353 114.678 37.4982 113.558C37.5574 112.446 37.8219 111.341 38.2917 110.243C38.7579 109.153 39.3742 108.198 40.1408 107.379C40.9074 106.56 41.7991 105.911 42.8159 105.432L43.6526 105.79ZM33.7917 102.524C34.2433 102.823 34.6123 103.178 34.8987 103.591C35.1773 103.999 35.3654 104.443 35.4631 104.921C35.5608 105.4 35.5524 105.886 35.4379 106.381L34.4939 106.261C34.6132 105.691 34.558 105.14 34.3281 104.607C34.0852 104.078 33.7263 103.656 33.2513 103.342C32.8698 103.09 32.4719 102.955 32.0577 102.939C31.6356 102.917 31.2386 103.002 30.8666 103.192C30.4895 103.39 30.1748 103.68 29.9226 104.062C29.6602 104.459 29.5182 104.868 29.4965 105.29C29.4671 105.707 29.5438 106.099 29.7264 106.466C29.9039 106.841 30.1796 107.152 30.5533 107.399C30.9349 107.651 31.3483 107.795 31.7937 107.832C32.2262 107.872 32.5987 107.816 32.9113 107.665L33.5545 108.291L29.7818 112.578L25.3787 109.667L25.919 108.85L29.9835 111.536L29.413 111.612L32.3933 108.245L32.6473 108.648C32.1535 108.803 31.6773 108.829 31.2187 108.728C30.755 108.634 30.3324 108.461 29.9508 108.209C29.3902 107.838 28.9833 107.379 28.73 106.831C28.4715 106.291 28.3657 105.723 28.4126 105.128C28.4464 104.535 28.6383 103.974 28.9883 103.444C29.3434 102.907 29.7935 102.505 30.3386 102.239C30.8708 101.975 31.4412 101.866 32.0497 101.91C32.6504 101.949 33.2311 102.154 33.7917 102.524ZM26.4669 96.5477C27.0565 97.1194 27.4199 97.7838 27.5569 98.5407C27.6808 99.2979 27.5873 100.085 27.2765 100.901C26.9591 101.725 26.4268 102.522 25.6797 103.292C24.9325 104.063 24.1555 104.616 23.3488 104.952C22.5357 105.294 21.752 105.412 20.9979 105.305C20.2438 105.198 19.5719 104.858 18.9823 104.286C18.3927 103.715 18.0327 103.054 17.9023 102.303C17.7719 101.553 17.8654 100.766 18.1828 99.9424C18.4936 99.1258 19.0227 98.3322 19.7698 97.5616C20.517 96.7911 21.2972 96.2345 22.1104 95.892C22.9169 95.543 23.6972 95.422 24.4513 95.5292C25.2054 95.6364 25.8773 95.9759 26.4669 96.5477ZM25.7359 97.3015C25.3071 96.8857 24.8052 96.6525 24.2302 96.6019C23.6552 96.5514 23.053 96.6695 22.4238 96.9564C21.7881 97.25 21.1681 97.7084 20.5639 98.3316C19.9596 98.9547 19.5238 99.5852 19.2564 100.223C18.9825 100.867 18.8829 101.473 18.9576 102.039C19.0258 102.613 19.2777 103.11 19.7133 103.533C20.1421 103.948 20.644 104.182 21.219 104.232C21.7875 104.289 22.3897 104.171 23.0254 103.878C23.6546 103.591 24.2714 103.136 24.8756 102.513C25.4734 101.896 25.9092 101.266 26.1831 100.621C26.457 99.9768 26.5598 99.3679 26.4916 98.7947C26.4167 98.2151 26.1648 97.7173 25.7359 97.3015ZM22.0451 92.2222L11.6266 93.9211L14.6675 98.1492L13.8719 98.7214L10.1525 93.55L10.9481 92.9778L21.3584 91.2675L22.0451 92.2222ZM15.4745 80.7935C15.7418 81.41 15.8572 82.0162 15.8206 82.6119C15.7717 83.2028 15.5901 83.7343 15.276 84.2063C14.9496 84.6734 14.5081 85.0276 13.9515 85.269C13.3435 85.5327 12.7255 85.5972 12.0975 85.4627C11.4657 85.3196 10.9275 84.9935 10.4829 84.4844L10.7526 84.3674C10.7525 84.9066 10.6136 85.3839 10.336 85.7994C10.0498 86.2185 9.68408 86.5247 9.23882 86.7178C8.76787 86.922 8.2963 86.9841 7.82412 86.904C7.35195 86.824 6.92155 86.6291 6.53294 86.3195C6.13206 86.0051 5.82021 85.591 5.59739 85.0772C5.37085 84.5549 5.27735 84.0461 5.31687 83.5508C5.34784 83.0592 5.50156 82.6161 5.77805 82.2215C6.04227 81.8221 6.41413 81.5184 6.89364 81.3104C7.37315 81.1025 7.85699 81.0452 8.34516 81.1387C8.82477 81.2359 9.25403 81.4516 9.63294 81.7857L9.36878 81.9155C9.30092 81.243 9.43247 80.6315 9.76344 80.081C10.0907 79.522 10.5583 79.1107 11.1662 78.847C11.7228 78.6056 12.285 78.5296 12.8528 78.6191C13.4084 78.7037 13.9204 78.9343 14.389 79.311C14.8452 79.6828 15.2071 80.177 15.4745 80.7935ZM14.5754 81.1834C14.386 80.7467 14.1394 80.401 13.8356 80.1462C13.5232 79.895 13.1782 79.7446 12.8005 79.6947C12.4105 79.64 12.0143 79.7 11.6119 79.8745C11.2094 80.0491 10.8992 80.2955 10.6812 80.6139C10.4509 80.9274 10.325 81.2821 10.3035 81.678C10.2733 82.0777 10.353 82.4959 10.5423 82.9326C10.7317 83.3693 10.9845 83.7174 11.3006 83.9771C11.6044 84.2319 11.9494 84.3824 12.3357 84.4285C12.7133 84.4784 13.1034 84.416 13.5058 84.2415C13.9083 84.0669 14.2247 83.8229 14.4549 83.5094C14.6766 83.1996 14.8026 82.8449 14.8327 82.4452C14.8505 82.0407 14.7648 81.6201 14.5754 81.1834ZM9.64326 83.3225C9.50586 83.0057 9.31909 82.751 9.08295 82.5583C8.83825 82.3694 8.56874 82.2524 8.27441 82.2071C7.96781 82.1569 7.6561 82.2005 7.33928 82.3379C7.02246 82.4753 6.78188 82.6712 6.61753 82.9256C6.44947 83.1715 6.35507 83.4464 6.33432 83.7504C6.30502 84.0582 6.35906 84.3704 6.49647 84.6873C6.63387 85.0041 6.82678 85.2612 7.0752 85.4587C7.31133 85.6513 7.57842 85.7745 7.87646 85.8284C8.17078 85.8737 8.47636 85.8276 8.79318 85.6902C9.11 85.5528 9.35672 85.3594 9.53334 85.1098C9.69769 84.8554 9.79452 84.5743 9.82382 84.2666C9.84086 83.954 9.78067 83.6393 9.64326 83.3225ZM12.1955 71.0516L9.79881 71.6235L11.0302 76.7846L10.145 76.9958L2.05029 73.4721L1.82286 72.5189L8.68623 70.8814L8.39057 69.6422L9.27573 69.431L9.57138 70.6702L11.9681 70.0984L12.1955 71.0516ZM10.3417 76.0709L9.97607 76.2877L8.91366 71.8346L2.98992 73.248L3.00402 72.8848L10.3417 76.0709ZM11.3995 66.2484L6.42556 62.942L6.28603 62.7407C6.51875 62.8657 6.70643 63.017 6.84907 63.1947C6.99172 63.3724 7.09834 63.5712 7.16893 63.791C7.23953 64.0108 7.28371 64.2558 7.30149 64.5259C7.34134 65.1312 7.23751 65.6853 6.99 66.1879C6.73317 66.6912 6.36746 67.1035 5.89287 67.4247C5.40835 67.7372 4.84479 67.9146 4.20218 67.9569C3.56888 67.9986 2.99593 67.8913 2.48333 67.6351C1.97011 67.3696 1.55259 66.9949 1.23078 66.5109C0.90835 66.0177 0.72629 65.4545 0.684599 64.8212C0.641681 64.1693 0.75268 63.582 1.01759 63.0595C1.27319 62.5376 1.65226 62.1151 2.15479 61.7921C2.64801 61.4696 3.22989 61.2863 3.90044 61.2422C4.27297 61.2177 4.64391 61.24 5.01325 61.3092C5.38198 61.3692 5.74912 61.4759 6.11467 61.6296C6.48022 61.7832 6.84884 61.9835 7.22052 62.2302L11.3112 64.9073L11.3995 66.2484ZM6.28647 64.4524C6.25766 64.0147 6.13443 63.6346 5.91678 63.3122C5.68982 62.9904 5.39791 62.7477 5.04106 62.5842C4.67428 62.4119 4.27204 62.3402 3.83432 62.369C3.38729 62.3984 2.99791 62.5223 2.6662 62.7405C2.32517 62.9594 2.06791 63.2429 1.89441 63.591C1.71159 63.9398 1.63428 64.3284 1.66248 64.7568C1.69068 65.1852 1.81827 65.5603 2.04523 65.8821C2.26288 66.2045 2.55509 66.4518 2.92186 66.6241C3.27933 66.797 3.68157 66.8687 4.12861 66.8393C4.56633 66.8105 4.956 66.6913 5.29764 66.4817C5.62936 66.2635 5.88662 65.98 6.06944 65.6312C6.24233 65.2737 6.31468 64.8808 6.28647 64.4524ZM11.6043 54.4495L9.15252 54.2044L8.62478 59.4841L7.71929 59.3936L1.22602 53.4121L1.32349 52.437L8.3445 53.1388L8.47121 51.8711L9.3767 51.9616L9.24999 53.2293L11.7018 53.4744L11.6043 54.4495ZM8.20822 58.5842L7.7917 58.6692L8.24703 54.1139L2.18723 53.5082L2.31955 53.1697L8.20822 58.5842ZM9.59084 47.3008L8.65736 47.0024L10.1491 42.335L11.0826 42.6334L9.59084 47.3008ZM12.0114 40.2989L11.128 39.8747L13.2491 35.4576L14.1325 35.8818L12.0114 40.2989Z" fill="white"/>
</svg>
