<svg width="61" height="61" viewBox="0 0 61 61" fill="none" xmlns="http://www.w3.org/2000/svg">
<path d="M55.5 30.5C55.5 21.5255 44.3062 14.2498 30.5002 14.2498C16.6927 14.2498 5.50049 21.5248 5.50049 30.5C5.50049 32.9608 6.36599 35.285 7.87124 37.3753C6.36599 39.4648 5.50049 41.789 5.50049 44.2498C5.50049 53.2273 16.6927 60.5 30.5002 60.5C44.3062 60.5 55.5 53.2273 55.5 44.2498C55.5 41.789 54.6337 39.4648 53.13 37.3753C54.6337 35.285 55.5 32.9608 55.5 30.5ZM30.5002 55.4998C18.7147 55.4998 10.5 49.5725 10.5 44.2498C10.5 43.1803 10.845 42.089 11.4705 41.0248C16.0567 44.5235 22.8727 46.7503 30.5002 46.7503C38.127 46.7503 44.9437 44.5235 49.5285 41.0248C50.1532 42.089 50.5005 43.1803 50.5005 44.2498C50.5005 49.5725 42.2872 55.4998 30.5002 55.4998ZM30.5002 41.75C18.7147 41.75 10.5 35.8228 10.5 30.5C10.5 25.1788 18.714 19.25 30.5002 19.25C42.2872 19.25 50.5005 25.1788 50.5005 30.5C50.5005 35.8228 42.2872 41.75 30.5002 41.75Z" fill="#D4AF37"/>
<path d="M4.25 20.5002C6.32107 20.5002 8 18.8213 8 16.7502C8 14.6792 6.32107 13.0002 4.25 13.0002C2.17893 13.0002 0.5 14.6792 0.5 16.7502C0.5 18.8213 2.17893 20.5002 4.25 20.5002Z" fill="#D4AF37"/>
<path d="M56.75 20.5002C58.8211 20.5002 60.5 18.8213 60.5 16.7502C60.5 14.6792 58.8211 13.0002 56.75 13.0002C54.6789 13.0002 53 14.6792 53 16.7502C53 18.8213 54.6789 20.5002 56.75 20.5002Z" fill="#D4AF37"/>
<path d="M30.5 8C32.5711 8 34.25 6.32107 34.25 4.25C34.25 2.17893 32.5711 0.5 30.5 0.5C28.4289 0.5 26.75 2.17893 26.75 4.25C26.75 6.32107 28.4289 8 30.5 8Z" fill="#D4AF37"/>
</svg>
