<svg width="75" height="75" viewBox="0 0 75 75" fill="none" xmlns="http://www.w3.org/2000/svg">
<g clip-path="url(#clip0_3_6988)">
<path d="M37.5732 29.7363C33.3328 29.7363 29.8828 33.1863 29.8828 37.4268C29.8828 41.6672 33.3328 45.1172 37.5732 45.1172C41.8137 45.1172 45.2637 41.6672 45.2637 37.4268C45.2637 33.1863 41.8137 29.7363 37.5732 29.7363ZM37.5732 42.9199C34.5442 42.9199 32.0801 40.4556 32.0801 37.4268C32.0801 34.3979 34.5442 31.9336 37.5732 31.9336C40.6022 31.9336 43.0664 34.3979 43.0664 37.4268C43.0664 40.4556 40.6022 42.9199 37.5732 42.9199Z" fill="#0A0A0A"/>
<path d="M74.2958 27.5955C73.8713 27.4321 73.3904 27.5471 73.0859 27.8845C70.9847 30.2112 68.5878 32.2188 65.9432 33.8689C65.0786 24.9579 61.0519 16.6849 54.4879 10.412C47.4626 3.698 38.2759 0.000292969 28.6208 0C28.1663 0 27.7586 0.279932 27.5955 0.70415C27.4323 1.12837 27.5471 1.60928 27.8846 1.91396C30.2115 4.01528 32.2191 6.41221 33.8691 9.05654C24.958 9.92124 16.6849 13.9477 10.412 20.5119C3.698 27.5376 0.000292969 36.7241 0 46.3792C0 46.8337 0.279932 47.2414 0.70415 47.4045C1.12866 47.5679 1.60957 47.4529 1.91411 47.1155C4.01528 44.7888 6.41221 42.7811 9.05684 41.1309C9.92139 50.042 13.9481 58.315 20.5121 64.5879C27.5376 71.3018 36.7242 74.9996 46.3793 74.9999C46.8338 74.9999 47.2415 74.7199 47.4047 74.2957C47.5679 73.8715 47.453 73.3906 47.1155 73.0859C44.7886 70.9846 42.7811 68.5876 41.1311 65.9433C50.0421 65.0786 58.3153 61.052 64.5882 54.4879C71.302 47.4624 74.9997 38.2759 75 28.6208C75 28.1662 74.7201 27.7585 74.2958 27.5955ZM39.2338 63.8793C38.8548 63.8979 38.5121 64.1108 38.3275 64.4424C38.1429 64.7741 38.1426 65.1773 38.3266 65.5093C39.774 68.1204 41.5332 70.5272 43.575 72.6932C26.0156 71.3158 11.9965 57.1148 11.1208 39.2338C11.1022 38.8547 10.8894 38.5121 10.5577 38.3275C10.3916 38.2351 10.2075 38.1888 10.0235 38.1888C9.83994 38.1888 9.65654 38.2346 9.49087 38.3265C6.87979 39.7739 4.47261 41.5333 2.30684 43.575C3.68394 26.0155 17.8852 11.9965 35.7662 11.1207C36.1452 11.1021 36.4879 10.8892 36.6725 10.5576C36.8571 10.2259 36.8574 9.82266 36.6734 9.49072C35.226 6.87964 33.4668 4.47275 31.425 2.30684C48.9844 3.68408 63.0035 17.8852 63.8792 35.7662C63.8978 36.1453 64.1106 36.4879 64.4423 36.6725C64.7739 36.8571 65.1773 36.8574 65.5091 36.6734C68.1204 35.226 70.5274 33.4666 72.6932 31.4249C71.3161 48.9842 57.1148 63.0035 39.2338 63.8793Z" fill="#0A0A0A"/>
<path d="M58.2425 47.2569C58.0093 46.8325 57.5257 46.6112 57.0521 46.7117C56.3161 46.8678 55.5683 47.0049 54.814 47.1221C56.4785 44.1757 57.3489 40.8671 57.3489 37.4269C57.3489 37.2549 57.3466 37.0835 57.3425 36.9215C57.2089 29.3477 54.1399 22.2495 48.7009 16.9345C48.3546 16.5961 47.8274 16.5243 47.4035 16.7577C46.9793 16.991 46.758 17.4747 46.8583 17.9483C47.0144 18.6844 47.1517 19.4322 47.2689 20.1864C44.3222 18.5218 41.0134 17.6515 37.5734 17.6515C37.4016 17.6515 37.2302 17.6537 37.068 17.658C29.4943 17.7917 22.3961 20.8607 17.081 26.2995C16.7426 26.6458 16.6708 27.1727 16.9041 27.5969C17.1376 28.0211 17.6213 28.2423 18.0948 28.142C18.8309 27.9858 19.5787 27.8487 20.3329 27.7315C18.6683 30.6781 17.798 33.9867 17.798 37.4269C17.798 37.5989 17.8003 37.7703 17.8044 37.9321C17.8176 38.6829 17.8627 39.4553 17.9389 40.2278C17.9982 40.8316 18.5352 41.273 19.1398 41.2135C19.7436 41.154 20.1851 40.6165 20.1255 40.0126C20.0553 39.2985 20.0134 38.5857 20.001 37.8847C19.9972 37.7325 19.9951 37.58 19.9951 37.4269C19.9951 33.6406 21.1809 30.0337 23.4242 26.9962C23.6823 26.6468 23.7101 26.1782 23.4954 25.8006C23.2808 25.4229 22.863 25.2073 22.4314 25.2504C22.0958 25.2838 21.7605 25.321 21.4258 25.362C25.9103 21.8886 31.3619 19.9564 37.115 19.8548C37.2674 19.851 37.4199 19.8489 37.5731 19.8489C41.3594 19.8489 44.9663 21.0347 48.0039 23.278C48.353 23.5358 48.8215 23.5641 49.1996 23.3493C49.577 23.1346 49.7928 22.7177 49.7497 22.2854C49.7164 21.9498 49.6793 21.6145 49.6381 21.2798C53.1116 25.7643 55.0437 31.2157 55.1454 36.9693C55.1492 37.1215 55.1512 37.274 55.1512 37.427C55.1512 41.2134 53.9654 44.8203 51.7222 47.8578C51.4641 48.2071 51.4362 48.6757 51.651 49.0534C51.8656 49.431 52.2832 49.6468 52.7149 49.6036C53.0505 49.5702 53.3858 49.533 53.7205 49.4919C49.236 52.9654 43.7845 54.8975 38.0313 54.9992C37.879 55.003 37.7265 55.005 37.5732 55.005C33.7869 55.005 30.18 53.8192 27.1424 51.576C26.793 51.318 26.3246 51.2899 25.9468 51.5046C25.5693 51.7194 25.3535 52.1363 25.3966 52.5686C25.4297 52.9009 25.4666 53.233 25.507 53.5646C23.3619 50.7816 21.7831 47.5915 20.8778 44.1781C20.7223 43.5915 20.1208 43.2425 19.5343 43.3977C18.9477 43.5533 18.5984 44.1548 18.7541 44.7413C20.0799 49.7405 22.7396 54.2975 26.4458 57.9193C26.6565 58.1251 26.9336 58.2322 27.214 58.2322C27.3948 58.2322 27.5771 58.1875 27.7433 58.0961C28.1675 57.8628 28.3888 57.3791 28.2885 56.9055C28.1323 56.1694 27.9951 55.4216 27.8779 54.6674C30.8243 56.332 34.133 57.2023 37.5732 57.2023C37.7451 57.2023 37.9165 57.2001 38.0786 57.1958C45.6523 57.0621 52.7505 53.9931 58.0657 48.5543C58.4041 48.208 58.4758 47.6811 58.2425 47.2569Z" fill="#0A0A0A"/>
</g>
<defs>
<clipPath id="clip0_3_6988">
<rect width="75" height="75" fill="white"/>
</clipPath>
</defs>
</svg>
