<svg width="75" height="75" viewBox="0 0 75 75" fill="none" xmlns="http://www.w3.org/2000/svg">
<path d="M2.58691 55.3078V37.9801C2.58691 29.1729 7.32202 21.4718 14.3852 17.2832" stroke="#0A0A0A" stroke-width="2" stroke-miterlimit="10" stroke-linecap="round" stroke-linejoin="round"/>
<path d="M51.8583 61.9534V71.7042C51.8583 72.9177 50.8745 73.9015 49.661 73.9015H4.78418C3.5707 73.9015 2.58691 72.9177 2.58691 71.7042V60.4351" stroke="#0A0A0A" stroke-width="2" stroke-miterlimit="10" stroke-linecap="round" stroke-linejoin="round"/>
<path d="M51.8582 51.3862V55.9476" stroke="#0A0A0A" stroke-width="2" stroke-miterlimit="10" stroke-linecap="round" stroke-linejoin="round"/>
<path d="M40.0596 17.2832C47.1228 21.4716 51.8579 29.1729 51.8579 37.98V45.0868" stroke="#0A0A0A" stroke-width="2" stroke-miterlimit="10" stroke-linecap="round" stroke-linejoin="round"/>
<path d="M38.8829 8.5604C39.6377 10.1955 40.0589 12.0161 40.0589 13.9352C40.0589 21.0246 34.3117 26.7718 27.2223 26.7718C20.1329 26.7718 14.3857 21.0246 14.3857 13.9352C14.3857 6.8458 20.1328 1.09863 27.2223 1.09863C30.6377 1.09863 33.7417 2.43252 36.0416 4.60781" stroke="#0A0A0A" stroke-width="2" stroke-miterlimit="10" stroke-linecap="round" stroke-linejoin="round"/>
<path d="M62.4988 51.178H21.8778C21.2565 51.178 20.7529 50.6744 20.7529 50.0532V46.9823C20.7529 46.361 21.2565 45.8574 21.8778 45.8574H62.4988C63.12 45.8574 63.6238 46.361 63.6238 46.9823V50.0532C63.6238 50.6744 63.12 51.178 62.4988 51.178Z" stroke="#0A0A0A" stroke-width="2" stroke-miterlimit="10" stroke-linecap="round" stroke-linejoin="round"/>
<path d="M71.2878 61.8196H21.8778C21.2565 61.8196 20.7529 61.316 20.7529 60.6948V57.6239C20.7529 57.0026 21.2565 56.499 21.8778 56.499H71.2878C71.9091 56.499 72.4128 57.0026 72.4128 57.6239V60.6948C72.4128 61.316 71.9091 61.8196 71.2878 61.8196Z" stroke="#0A0A0A" stroke-width="2" stroke-miterlimit="10" stroke-linecap="round" stroke-linejoin="round"/>
<path d="M58.0347 20.4492C60.5725 20.4492 62.6299 18.3919 62.6299 15.854C62.6299 13.3161 60.5725 11.2588 58.0347 11.2588C55.4968 11.2588 53.4395 13.3161 53.4395 15.854C53.4395 18.3919 55.4968 20.4492 58.0347 20.4492Z" stroke="#0A0A0A" stroke-width="2" stroke-miterlimit="10" stroke-linecap="round" stroke-linejoin="round"/>
</svg>
