<svg width="75" height="75" viewBox="0 0 75 75" fill="none" xmlns="http://www.w3.org/2000/svg">
<g clip-path="url(#clip0_3_6867)">
<path d="M41.9196 15.4021L52.9023 4.42218L48.4801 0L37.5002 10.9838L26.5164 0L22.0942 4.41943L50.7601 33.0806L55.1786 28.6622L41.9196 15.4021Z" fill="#0A0A0A"/>
<path d="M75 26.5162L70.5806 22.0977L41.9194 50.7599L46.3378 55.1784L59.5941 41.9194L70.5778 52.902L75 48.4799L64.0162 37.4999L75 26.5162Z" fill="#0A0A0A"/>
<path d="M24.2426 41.9194L19.8242 46.3378L33.0842 59.5941L22.1004 70.5778L26.5226 75L37.5025 64.0162L48.4863 75L52.9057 70.5806L24.2426 41.9194Z" fill="#0A0A0A"/>
<path d="M28.6622 19.8188L15.4059 33.0806L4.42218 22.0941L0 26.5163L10.9838 37.5001L0 48.4838L4.41943 52.9022L33.0806 24.2372L28.6622 19.8188Z" fill="#0A0A0A"/>
</g>
<defs>
<clipPath id="clip0_3_6867">
<rect width="75" height="75" fill="white"/>
</clipPath>
</defs>
</svg>
