<svg width="61" height="57" viewBox="0 0 61 57" fill="none" xmlns="http://www.w3.org/2000/svg">
<path d="M57.125 19.2751L31.625 34.2751C30.95 34.7251 30.05 34.7251 29.3 34.2751L3.875 19.2751C2.375 18.3751 0.5 19.5001 0.5 21.2251V54.6001C0.5 56.3251 2.375 57.4501 3.875 56.5501L29.3 41.4751C29.975 41.0251 30.875 41.0251 31.625 41.4751L57.05 56.5501C58.55 57.4501 60.425 56.3251 60.425 54.6001V21.1501C60.5 19.4251 58.625 18.3751 57.125 19.2751ZM5.525 45.8251V29.9251C5.525 28.2001 7.4 27.0751 8.9 27.9751L22.325 35.9251C23.825 36.8251 23.825 38.9251 22.325 39.8251L8.9 47.7001C7.4 48.6001 5.525 47.5501 5.525 45.8251ZM52.1 47.7001L38.675 39.8251C37.175 38.9251 37.175 36.8251 38.675 35.9251L52.1 27.9751C53.6 27.0751 55.475 28.2001 55.475 29.9251V45.7501C55.475 47.5501 53.6 48.6001 52.1 47.7001Z" fill="#D4AF37"/>
<path d="M15.4999 20.025C9.9499 20.025 5.5249 15.525 5.5249 10.05C5.5249 4.575 9.9499 0 15.4999 0C21.0499 0 25.4749 4.5 25.4749 9.975C25.4749 15.45 21.0499 20.025 15.4999 20.025ZM15.4999 5.025C12.7249 5.025 10.4749 7.275 10.4749 10.05C10.4749 12.825 12.7249 15.075 15.4999 15.075C18.2749 15.075 20.5249 12.825 20.5249 10.05C20.5249 7.275 18.2749 5.025 15.4999 5.025Z" fill="#D4AF37"/>
<path d="M45.4999 20.025C39.9499 20.025 35.5249 15.525 35.5249 10.05C35.5249 4.575 39.9499 0 45.4999 0C51.0499 0 55.4749 4.5 55.4749 9.975C55.4749 15.45 51.0499 20.025 45.4999 20.025ZM45.4999 5.025C42.7249 5.025 40.4749 7.275 40.4749 10.05C40.4749 12.825 42.7249 15.075 45.4999 15.075C48.2749 15.075 50.5249 12.825 50.5249 10.05C50.5249 7.275 48.2749 5.025 45.4999 5.025Z" fill="#D4AF37"/>
</svg>
