<svg width="50" height="50" viewBox="0 0 50 50" fill="none" xmlns="http://www.w3.org/2000/svg">
<g clip-path="url(#clip0_3_8786)">
<path d="M25 5.27344C24.6523 5.27344 24.3125 5.37653 24.0234 5.56968C23.7343 5.76283 23.509 6.03737 23.376 6.35856C23.2429 6.67976 23.2081 7.0332 23.276 7.37418C23.3438 7.71516 23.5112 8.02838 23.757 8.27421C24.0029 8.52005 24.3161 8.68746 24.6571 8.75529C24.9981 8.82311 25.3515 8.7883 25.6727 8.65526C25.9939 8.52221 26.2684 8.29691 26.4616 8.00784C26.6547 7.71877 26.7578 7.37891 26.7578 7.03125C26.7572 6.56524 26.5718 6.11849 26.2423 5.78897C25.9128 5.45945 25.466 5.27406 25 5.27344ZM25 7.61719C24.8841 7.61719 24.7708 7.58282 24.6745 7.51844C24.5781 7.45406 24.503 7.36254 24.4587 7.25548C24.4143 7.14841 24.4027 7.0306 24.4253 6.91694C24.4479 6.80328 24.5037 6.69887 24.5857 6.61693C24.6676 6.53499 24.772 6.47918 24.8857 6.45657C24.9994 6.43396 25.1172 6.44557 25.2242 6.48991C25.3313 6.53426 25.4228 6.60936 25.4872 6.70572C25.5516 6.80208 25.5859 6.91536 25.5859 7.03125C25.5857 7.18659 25.5239 7.3355 25.4141 7.44534C25.3043 7.55518 25.1553 7.61698 25 7.61719Z" fill="#5F4841"/>
<path d="M49.2188 24.4141H48.8281L43.5531 11.6016V9.96094H44.1391C44.2945 9.96094 44.4435 9.8992 44.5534 9.78932C44.6633 9.67944 44.725 9.5304 44.725 9.375V8.78906H47.2656C47.7318 8.78906 48.1789 8.60386 48.5086 8.27421C48.8382 7.94456 49.0234 7.49745 49.0234 7.03125C49.0234 6.56505 48.8382 6.11794 48.5086 5.78829C48.1789 5.45864 47.7318 5.27344 47.2656 5.27344H44.7266V4.6875C44.7266 4.5321 44.6648 4.38306 44.5549 4.27318C44.4451 4.1633 44.296 4.10156 44.1406 4.10156H41.7969C41.6415 4.10156 41.4924 4.1633 41.3826 4.27318C41.2727 4.38306 41.2109 4.5321 41.2109 4.6875V5.27344H28.6898C28.2855 4.42762 27.6036 3.74578 26.7578 3.34141V1.95312C26.7578 1.48692 26.5726 1.03982 26.243 0.710164C25.9133 0.38051 25.4662 0.195313 25 0.195312C24.5338 0.195313 24.0867 0.38051 23.757 0.710164C23.4274 1.03982 23.2422 1.48692 23.2422 1.95312V3.34141C22.3964 3.74578 21.7145 4.42762 21.3102 5.27344H8.78906V4.6875C8.78906 4.5321 8.72733 4.38306 8.61744 4.27318C8.50756 4.1633 8.35853 4.10156 8.20312 4.10156H5.85938C5.70397 4.10156 5.55494 4.1633 5.44505 4.27318C5.33517 4.38306 5.27344 4.5321 5.27344 4.6875V5.27344H2.73438C2.26817 5.27344 1.82107 5.45864 1.49141 5.78829C1.16176 6.11794 0.976562 6.56505 0.976562 7.03125C0.976562 7.49745 1.16176 7.94456 1.49141 8.27421C1.82107 8.60386 2.26817 8.78906 2.73438 8.78906H5.27344V9.375C5.27344 9.5304 5.33517 9.67944 5.44505 9.78932C5.55494 9.8992 5.70397 9.96094 5.85938 9.96094H6.44531V11.6016L1.17188 24.4141H0.78125C0.62585 24.4141 0.476814 24.4758 0.36693 24.5857C0.257045 24.6956 0.195313 24.8446 0.195312 25V25.7812C0.196346 26.5579 0.505341 27.3025 1.05454 27.8517C1.60374 28.4009 2.34832 28.7099 3.125 28.7109H10.9375C11.7142 28.7099 12.4588 28.4009 13.008 27.8517C13.5572 27.3025 13.8662 26.5579 13.8672 25.7812V25C13.8672 24.8446 13.8055 24.6956 13.6956 24.5857C13.5857 24.4758 13.4367 24.4141 13.2812 24.4141H12.8906L7.61719 11.6031V9.9625H8.20312C8.35853 9.9625 8.50756 9.90077 8.61744 9.79088C8.72733 9.681 8.78906 9.53196 8.78906 9.37656V8.79062H21.3102C21.7145 9.63645 22.3964 10.3183 23.2422 10.7227V22.0703C22.8105 22.0708 22.3942 22.2305 22.0729 22.5188C21.7516 22.8071 21.5479 23.2037 21.5008 23.6328H20.5203C20.2157 23.6328 19.9145 23.6976 19.6368 23.8228C19.3591 23.9481 19.1112 24.1309 18.9096 24.3593C18.708 24.5877 18.5572 24.8563 18.4673 25.1474C18.3774 25.4385 18.3505 25.7454 18.3883 26.0477L18.4398 26.4586C15.1377 27.779 12.3057 30.0564 10.3076 32.9984C8.30953 35.9403 7.23657 39.4124 7.22656 42.9688V45.2453L6.10781 45.525C5.98107 45.5568 5.86859 45.6301 5.7882 45.7331C5.70781 45.8361 5.66413 45.9631 5.66406 46.0938V49.2188C5.66406 49.3741 5.72579 49.5232 5.83568 49.6331C5.94556 49.743 6.0946 49.8047 6.25 49.8047H43.75C43.9054 49.8047 44.0544 49.743 44.1643 49.6331C44.2742 49.5232 44.3359 49.3741 44.3359 49.2188V46.0938C44.3359 45.9631 44.2922 45.8361 44.2118 45.7331C44.1314 45.6301 44.0189 45.5568 43.8922 45.525L42.7734 45.2453V42.9688C42.7637 39.4127 41.6912 35.9407 39.6935 32.9988C37.6958 30.0568 34.8643 27.7793 31.5625 26.4586L31.6141 26.0477C31.6518 25.7454 31.6249 25.4385 31.535 25.1474C31.4451 24.8563 31.2944 24.5877 31.0928 24.3593C30.8911 24.1309 30.6432 23.9481 30.3655 23.8228C30.0878 23.6976 29.7867 23.6328 29.482 23.6328H28.5C28.4529 23.2037 28.2492 22.8071 27.9279 22.5188C27.6066 22.2305 27.1903 22.0708 26.7586 22.0703V10.7211C27.6044 10.3167 28.2862 9.63488 28.6906 8.78906H41.2109V9.375C41.2109 9.5304 41.2727 9.67944 41.3826 9.78932C41.4924 9.8992 41.6415 9.96094 41.7969 9.96094H42.3828V11.6016L37.1094 24.4141H36.7188C36.5634 24.4141 36.4143 24.4758 36.3044 24.5857C36.1945 24.6956 36.1328 24.8446 36.1328 25V25.7812C36.1338 26.5579 36.4428 27.3025 36.992 27.8517C37.5412 28.4009 38.2858 28.7099 39.0625 28.7109H46.875C47.6517 28.7099 48.3963 28.4009 48.9455 27.8517C49.4947 27.3025 49.8037 26.5579 49.8047 25.7812V25C49.8047 24.8446 49.743 24.6956 49.6331 24.5857C49.5232 24.4758 49.3741 24.4141 49.2188 24.4141ZM44.7266 6.44531H47.2656C47.421 6.44531 47.5701 6.50705 47.6799 6.61693C47.7898 6.72681 47.8516 6.87585 47.8516 7.03125C47.8516 7.18665 47.7898 7.33569 47.6799 7.44557C47.5701 7.55545 47.421 7.61719 47.2656 7.61719H44.7266V6.44531ZM5.27344 7.61719H2.73438C2.57897 7.61719 2.42994 7.55545 2.32005 7.44557C2.21017 7.33569 2.14844 7.18665 2.14844 7.03125C2.14844 6.87585 2.21017 6.72681 2.32005 6.61693C2.42994 6.50705 2.57897 6.44531 2.73438 6.44531H5.27344V7.61719ZM12.6953 25.7812C12.6947 26.2473 12.5093 26.694 12.1798 27.0235C11.8503 27.353 11.4035 27.5384 10.9375 27.5391H3.125C2.65899 27.5384 2.21224 27.353 1.88272 27.0235C1.5532 26.694 1.36781 26.2473 1.36719 25.7812V25.5859H12.6953V25.7812ZM11.625 24.4141H2.4375L7.03125 13.2578L11.625 24.4141ZM7.61719 8.78906H6.44531V5.27344H7.61719V8.78906ZM20.9578 7.61719H8.78906V6.44531H20.9578C20.9237 6.63891 20.9039 6.83475 20.8984 7.03125C20.9039 7.22775 20.9237 7.42359 20.9578 7.61719ZM24.4141 1.95312C24.4141 1.79772 24.4758 1.64869 24.5857 1.5388C24.6956 1.42892 24.8446 1.36719 25 1.36719C25.1554 1.36719 25.3044 1.42892 25.4143 1.5388C25.5242 1.64869 25.5859 1.79772 25.5859 1.95312V2.98906C25.1993 2.9099 24.8007 2.9099 24.4141 2.98906V1.95312ZM13.8672 30.6883C14.4794 30.1321 15.1323 29.6224 15.8203 29.1633V35.1562C15.8203 35.4152 15.7174 35.6636 15.5343 35.8468C15.3511 36.0299 15.1028 36.1328 14.8438 36.1328C14.5847 36.1328 14.3364 36.0299 14.1532 35.8468C13.9701 35.6636 13.8672 35.4152 13.8672 35.1562V30.6883ZM12.6953 31.8516V35.1562C12.6953 35.7261 12.9217 36.2725 13.3246 36.6754C13.7275 37.0783 14.2739 37.3047 14.8438 37.3047C15.4136 37.3047 15.96 37.0783 16.3629 36.6754C16.7658 36.2725 16.9922 35.7261 16.9922 35.1562V28.45C17.5116 28.1593 18.0462 27.8967 18.5938 27.6633L20.3813 41.9602L11.5234 44.1711V42.9688C11.5234 42.8134 11.4617 42.6643 11.3518 42.5544C11.2419 42.4445 11.0929 42.3828 10.9375 42.3828H8.42656C8.56716 38.4797 10.0786 34.751 12.6953 31.8516ZM8.39844 43.5547H10.3516V44.4641L8.39844 44.9523V43.5547ZM43.1641 46.5508V48.6328H6.83594V46.5508L25 42.0102L43.1641 46.5508ZM41.6016 44.9523L39.6484 44.4641V43.5547H41.6016V44.9523ZM34.1797 29.1633C34.8677 29.6224 35.5206 30.1321 36.1328 30.6883V35.1562C36.1328 35.4152 36.0299 35.6636 35.8468 35.8468C35.6636 36.0299 35.4152 36.1328 35.1562 36.1328C34.8973 36.1328 34.6489 36.0299 34.4657 35.8468C34.2826 35.6636 34.1797 35.4152 34.1797 35.1562V29.1633ZM31.4102 27.6633C31.9564 27.8968 32.4897 28.1594 33.0078 28.45V35.1562C33.0078 35.7261 33.2342 36.2725 33.6371 36.6754C34.04 37.0783 34.5864 37.3047 35.1562 37.3047C35.7261 37.3047 36.2725 37.0783 36.6754 36.6754C37.0783 36.2725 37.3047 35.7261 37.3047 35.1562V31.8508C39.9215 34.7505 41.4329 38.4795 41.5734 42.3828H39.0625C38.9071 42.3828 38.7581 42.4445 38.6482 42.5544C38.5383 42.6643 38.4766 42.8134 38.4766 42.9688V44.1711L29.6227 41.9578L31.4102 27.6633ZM26.7594 23.2422C26.8438 23.2422 26.9273 23.2605 27.004 23.2958C27.0807 23.3311 27.1489 23.3826 27.2039 23.4467C27.2589 23.5108 27.2994 23.586 27.3226 23.6672C27.3458 23.7484 27.3511 23.8337 27.3383 23.9172L25.9836 32.7234C25.96 32.8771 25.9984 33.0338 26.0903 33.1591C26.1822 33.2845 26.3202 33.3682 26.4738 33.3918C26.6275 33.4154 26.7842 33.377 26.9095 33.2851C27.0349 33.1932 27.1186 33.0552 27.1422 32.9016L28.3875 24.8047H29.4813C29.6197 24.8047 29.7566 24.8342 29.8828 24.8912C30.009 24.9481 30.1217 25.0312 30.2134 25.135C30.3051 25.2388 30.3736 25.3609 30.4146 25.4932C30.4555 25.6255 30.4678 25.7649 30.4508 25.9023L28.4781 41.6719L25.1422 40.8375C25.0488 40.8141 24.9512 40.8141 24.8578 40.8375L21.5219 41.6719L19.5508 25.9023C19.5337 25.7649 19.5461 25.6255 19.587 25.4932C19.6279 25.3609 19.6965 25.2388 19.7882 25.135C19.8798 25.0312 19.9925 24.9481 20.1187 24.8912C20.245 24.8342 20.3818 24.8047 20.5203 24.8047H21.6141L22.8602 32.9016C22.8875 33.0517 22.9723 33.1853 23.0966 33.2738C23.2209 33.3624 23.3749 33.3989 23.5257 33.3757C23.6766 33.3525 23.8124 33.2714 23.9043 33.1496C23.9963 33.0277 24.037 32.8749 24.018 32.7234L22.6617 23.9172C22.6489 23.8337 22.6542 23.7484 22.6774 23.6672C22.7006 23.586 22.7411 23.5108 22.7961 23.4467C22.8511 23.3826 22.9193 23.3311 22.996 23.2958C23.0727 23.2605 23.1562 23.2422 23.2406 23.2422H26.7594ZM24.4156 22.0703V11.0734C24.8022 11.1526 25.2009 11.1526 25.5875 11.0734V22.0703H24.4156ZM25 9.96094C24.4206 9.96094 23.8541 9.78911 23.3724 9.4672C22.8906 9.14528 22.5151 8.68772 22.2933 8.15239C22.0716 7.61706 22.0136 7.028 22.1266 6.4597C22.2396 5.89139 22.5187 5.36937 22.9284 4.95965C23.3381 4.54992 23.8601 4.2709 24.4284 4.15786C24.9967 4.04481 25.5858 4.10283 26.1211 4.32457C26.6565 4.54631 27.114 4.92182 27.4359 5.4036C27.7579 5.88539 27.9297 6.45181 27.9297 7.03125C27.9287 7.80793 27.6197 8.55251 27.0705 9.10171C26.5213 9.65091 25.7767 9.9599 25 9.96094ZM41.2109 7.61719H29.0422C29.0763 7.42359 29.0961 7.22775 29.1016 7.03125C29.0961 6.83475 29.0763 6.63891 29.0422 6.44531H41.2109V7.61719ZM42.3828 5.27344H43.5547V8.78906H42.3828V5.27344ZM42.9688 13.2578L47.5625 24.4141H38.375L42.9688 13.2578ZM48.6328 25.7812C48.6322 26.2473 48.4468 26.694 48.1173 27.0235C47.7878 27.353 47.341 27.5384 46.875 27.5391H39.0625C38.5965 27.5384 38.1497 27.353 37.8202 27.0235C37.4907 26.694 37.3053 26.2473 37.3047 25.7812V25.5859H48.6328V25.7812Z" fill="#5F4841"/>
<path d="M22.8516 36.7188C22.8516 37.1437 22.9776 37.559 23.2136 37.9124C23.4497 38.2657 23.7853 38.541 24.1778 38.7036C24.5704 38.8663 25.0024 38.9088 25.4191 38.8259C25.8359 38.743 26.2187 38.5384 26.5192 38.2379C26.8196 37.9375 27.0243 37.5546 27.1072 37.1379C27.1901 36.7211 27.1475 36.2892 26.9849 35.8966C26.8223 35.504 26.5469 35.1685 26.1936 34.9324C25.8403 34.6963 25.4249 34.5703 25 34.5703C24.4303 34.5707 23.8841 34.7972 23.4813 35.2C23.0785 35.6029 22.852 36.1491 22.8516 36.7188ZM25 35.7422C25.1931 35.7422 25.382 35.7995 25.5425 35.9068C25.7031 36.0141 25.8283 36.1666 25.9022 36.345C25.9761 36.5235 25.9955 36.7198 25.9578 36.9093C25.9201 37.0987 25.8271 37.2727 25.6905 37.4093C25.554 37.5459 25.38 37.6389 25.1905 37.6765C25.0011 37.7142 24.8047 37.6949 24.6263 37.621C24.4478 37.5471 24.2953 37.4219 24.188 37.2613C24.0807 37.1007 24.0234 36.9119 24.0234 36.7188C24.0239 36.4599 24.1269 36.2117 24.3099 36.0287C24.493 35.8456 24.7411 35.7426 25 35.7422Z" fill="#5F4841"/>
</g>
<defs>
<clipPath id="clip0_3_8786">
<rect width="50" height="50" fill="white"/>
</clipPath>
</defs>
</svg>
