<svg width="50" height="50" viewBox="0 0 50 50" fill="none" xmlns="http://www.w3.org/2000/svg">
<g clip-path="url(#clip0_3_8794)">
<path d="M0.833334 34.1667C0.833334 35.0507 1.18452 35.8986 1.80964 36.5237C2.43477 37.1488 3.28261 37.5 4.16667 37.5H22.8842C22.9875 37.6742 23.1115 37.8354 23.2533 37.98L31.875 46.6033C32.359 47.0845 33.0138 47.3546 33.6963 47.3546C34.3787 47.3546 35.0335 47.0845 35.5175 46.6033C35.8947 46.2232 36.144 45.7349 36.2307 45.2065C36.3173 44.678 36.237 44.1357 36.0008 43.655L37.3917 42.2633L44.1175 48.9908C44.4357 49.3189 44.816 49.5804 45.2363 49.7602C45.6566 49.9399 46.1084 50.0342 46.5654 50.0377C47.0225 50.0411 47.4756 49.9537 47.8986 49.7803C48.3215 49.607 48.7057 49.3513 49.0289 49.0281C49.3521 48.7048 49.6077 48.3206 49.781 47.8976C49.9542 47.4747 50.0416 47.0215 50.0381 46.5644C50.0346 46.1073 49.9401 45.6556 49.7603 45.2353C49.5806 44.8151 49.319 44.4348 48.9908 44.1167L42.265 37.3892L43.655 36C44.1348 36.24 44.6782 36.3225 45.2076 36.2355C45.737 36.1486 46.2255 35.8967 46.6033 35.5158C47.0847 35.0318 47.355 34.3769 47.355 33.6942C47.355 33.0115 47.0847 32.3566 46.6033 31.8725L39.1667 24.4342V19.3608C39.7039 18.7543 40.0004 17.9719 40 17.1617V10C40 9.11595 39.6488 8.2681 39.0237 7.64298C38.3986 7.01786 37.5507 6.66667 36.6667 6.66667H30.8333V3.33333C30.8333 2.44928 30.4821 1.60143 29.857 0.976311C29.2319 0.35119 28.3841 0 27.5 0L12.5 0C11.6159 0 10.7681 0.35119 10.143 0.976311C9.51786 1.60143 9.16667 2.44928 9.16667 3.33333V6.66667H3.33333C2.44928 6.66667 1.60143 7.01786 0.976312 7.64298C0.35119 8.2681 8.54031e-07 9.11595 8.54031e-07 10V17.1617C-0.000580749 17.9717 0.295914 18.7539 0.833334 19.36V34.1667ZM22.5317 35.8333H4.16667C3.72464 35.8333 3.30072 35.6577 2.98816 35.3452C2.6756 35.0326 2.5 34.6087 2.5 34.1667V20.3808C2.5375 20.3908 2.5725 20.4075 2.61083 20.4158L15 23.1667V25.8333C15 26.4964 15.2634 27.1323 15.7322 27.6011C16.2011 28.0699 16.837 28.3333 17.5 28.3333H22.5C23.163 28.3333 23.7989 28.0699 24.2678 27.6011C24.7366 27.1323 25 26.4964 25 25.8333V23.1667L37.3892 20.4167C37.4275 20.4083 37.4617 20.3917 37.4992 20.3825V22.8892C37.0039 22.6004 36.4285 22.4795 35.8588 22.5446C35.2892 22.6096 34.7558 22.857 34.3383 23.25C33.961 23.6301 33.7117 24.1184 33.6252 24.6469C33.5387 25.1755 33.6194 25.7178 33.8558 26.1983L26.1933 33.8608C25.7125 33.6329 25.1738 33.556 24.6483 33.6403C24.1229 33.7247 23.6354 33.9663 23.25 34.3333C22.8496 34.739 22.5967 35.2671 22.5317 35.8333ZM16.6667 25.8333V23.3333H23.3333V25.8333C23.3333 26.0543 23.2455 26.2663 23.0893 26.4226C22.933 26.5789 22.721 26.6667 22.5 26.6667H17.5C17.279 26.6667 17.067 26.5789 16.9107 26.4226C16.7545 26.2663 16.6667 26.0543 16.6667 25.8333ZM34.3392 45.425C34.1684 45.5951 33.9373 45.6906 33.6963 45.6906C33.4552 45.6906 33.2241 45.5951 33.0533 45.425L24.4317 36.8017C24.3077 36.6726 24.2242 36.5101 24.1915 36.3342C24.1588 36.1583 24.1783 35.9767 24.2476 35.8117C24.3169 35.6467 24.4329 35.5056 24.5814 35.4058C24.7299 35.306 24.9044 35.2518 25.0833 35.25C25.2021 35.2506 25.3196 35.2747 25.429 35.3209C25.5384 35.3671 25.6376 35.4345 25.7208 35.5192L34.3392 44.1383C34.5097 44.309 34.6056 44.5404 34.6056 44.7817C34.6056 45.023 34.5097 45.2544 34.3392 45.425ZM47.8125 45.295C48.1391 45.6302 48.3206 46.0806 48.3176 46.5486C48.3146 47.0167 48.1274 47.4647 47.7965 47.7957C47.4656 48.1267 47.0177 48.3141 46.5496 48.3172C46.0816 48.3203 45.6312 48.139 45.2958 47.8125L38.57 41.0833L41.0867 38.5667L47.8125 45.295ZM34.9283 42.3708L31.2067 38.6483L27.485 34.9258L34.9283 27.4825L38.65 31.2042L42.3717 34.9258L34.9283 42.3708ZM45.425 33.05C45.5956 33.2206 45.6914 33.4521 45.6914 33.6933C45.6914 33.9346 45.5956 34.166 45.425 34.3367C45.2518 34.5016 45.0217 34.5937 44.7825 34.5937C44.5433 34.5937 44.3132 34.5016 44.14 34.3367L35.5175 25.7142C35.3469 25.5435 35.2511 25.3121 35.2511 25.0708C35.2511 24.8296 35.3469 24.5982 35.5175 24.4275C35.6895 24.2602 35.92 24.1666 36.16 24.1666C36.4 24.1666 36.6305 24.2602 36.8025 24.4275L45.425 33.05ZM10.8333 3.33333C10.8333 2.89131 11.0089 2.46738 11.3215 2.15482C11.6341 1.84226 12.058 1.66667 12.5 1.66667H27.5C27.942 1.66667 28.366 1.84226 28.6785 2.15482C28.9911 2.46738 29.1667 2.89131 29.1667 3.33333V6.66667H27.5V5C27.5 4.55797 27.3244 4.13405 27.0118 3.82149C26.6993 3.50893 26.2754 3.33333 25.8333 3.33333H14.1667C13.7246 3.33333 13.3007 3.50893 12.9882 3.82149C12.6756 4.13405 12.5 4.55797 12.5 5V6.66667H10.8333V3.33333ZM25.8333 5V6.66667H14.1667V5H25.8333ZM1.66667 10C1.66667 9.55797 1.84226 9.13405 2.15482 8.82149C2.46738 8.50893 2.89131 8.33333 3.33333 8.33333H36.6667C37.1087 8.33333 37.5326 8.50893 37.8452 8.82149C38.1577 9.13405 38.3333 9.55797 38.3333 10V17.1617C38.335 17.5412 38.2062 17.9099 37.9687 18.206C37.7312 18.502 37.3992 18.7076 37.0283 18.7883L24.0758 21.6667H15.9242L2.9725 18.7883C2.60145 18.7078 2.2693 18.5023 2.03161 18.2062C1.79392 17.9101 1.66509 17.5414 1.66667 17.1617V10Z" fill="#5F4841"/>
</g>
<defs>
<clipPath id="clip0_3_8794">
<rect width="50" height="50" fill="white"/>
</clipPath>
</defs>
</svg>
