<svg width="42" height="50" viewBox="0 0 42 50" fill="none" xmlns="http://www.w3.org/2000/svg">
<path d="M21 10.5205C23.8867 10.5205 26.2363 8.17188 26.2363 5.28418C26.2363 2.39648 23.8867 0.0488281 21 0.0488281C18.1133 0.0488281 15.7637 2.39746 15.7637 5.28516C15.7637 8.17285 18.1133 10.5205 21 10.5205ZM21 1.5459C23.0615 1.5459 24.7393 3.22363 24.7393 5.28516C24.7393 7.34668 23.0615 9.02441 21 9.02441C18.9385 9.02441 17.2607 7.34668 17.2607 5.28516C17.2607 3.22363 18.9385 1.5459 21 1.5459ZM34.4473 19.0264C34.3408 19.0264 34.2353 19.0488 34.1377 19.0938L32.3965 19.8848C32.2041 19.9727 32.0576 20.1367 31.9932 20.3379C31.9287 20.5391 31.9521 20.7578 32.0576 20.9404L32.4551 21.6279H30.8662L31.2627 20.9404C31.3682 20.7578 31.3916 20.5391 31.3271 20.3379C31.2627 20.1367 31.1162 19.9727 30.9238 19.8848L30.5478 19.7139V18.1152C30.9062 18.1934 31.2783 18.2354 31.6602 18.2354C34.5469 18.2354 36.8965 15.8867 36.8965 12.999C36.8965 10.1113 34.5478 7.76367 31.6602 7.76367C29.1494 7.76367 27.0469 9.54004 26.541 11.9023C25.6787 11.5146 24.7441 11.3115 23.7861 11.3115C23.6797 11.3115 23.5742 11.334 23.4766 11.3789L21.7353 12.1699C21.543 12.2578 21.3965 12.4219 21.332 12.623C21.2676 12.8242 21.291 13.043 21.3965 13.2256L21.7939 13.9131H20.2051L20.6025 13.2256C20.708 13.043 20.7314 12.8242 20.667 12.623C20.6025 12.4219 20.4561 12.2578 20.2637 12.1699L18.5225 11.3789C18.4248 11.335 18.3193 11.3115 18.2129 11.3115C17.2549 11.3115 16.3203 11.5137 15.458 11.9023C14.9521 9.54004 12.8496 7.76367 10.3389 7.76367C7.45215 7.76367 5.10254 10.1123 5.10254 13C5.10254 15.8877 7.45117 18.2363 10.3389 18.2363C10.7207 18.2363 11.0918 18.1943 11.4512 18.1162V19.7139L11.0752 19.8848C10.8828 19.9727 10.7363 20.1367 10.6719 20.3379C10.6074 20.5391 10.6309 20.7578 10.7363 20.9404L11.1328 21.6279H9.54492L9.94238 20.9404C10.0479 20.7578 10.0713 20.5391 10.0068 20.3379C9.94238 20.1367 9.7959 19.9727 9.60352 19.8848L7.8623 19.0938C7.76465 19.0498 7.65918 19.0264 7.55273 19.0264C3.82422 19.0264 0.791016 22.0596 0.791016 25.7881V31.8018C0.791016 32.0225 0.887695 32.2207 1.04004 32.3574C0.985351 32.5322 0.956055 32.7178 0.956055 32.9102C0.956055 33.6289 1.36719 34.252 1.96582 34.5605C0.407226 38.5059 0.407226 42.4941 1.96582 46.4414C1.36719 46.75 0.956055 47.374 0.956055 48.0918C0.956055 49.1162 1.78906 49.9492 2.81348 49.9492H9.88867C10.9131 49.9492 11.7461 49.1162 11.7461 48.0918C11.7461 47.3936 11.3584 46.7842 10.7871 46.4668C11.168 45.4541 11.4512 44.4395 11.6367 43.4229H38.0449C39.6562 43.4229 40.9668 42.1113 40.9668 40.498C40.9668 38.8867 39.6562 37.5762 38.0449 37.5762H11.6377C11.4512 36.5596 11.168 35.5449 10.7871 34.5322C11.3584 34.2148 11.7461 33.6064 11.7461 32.9082C11.7461 32.7852 11.7334 32.6641 11.71 32.5469H19.1396C19.5527 32.5469 19.8877 32.2119 19.8877 31.7988V25.7852C19.8877 25.4619 19.8633 25.1436 19.8193 24.832H22.1797C22.1357 25.1436 22.1113 25.4609 22.1113 25.7852V31.7988C22.1113 32.2119 22.4463 32.5469 22.8594 32.5469H40.459C40.8721 32.5469 41.207 32.2119 41.207 31.7988V25.7852C41.209 22.0596 38.1758 19.0264 34.4473 19.0264ZM31.6602 9.26074C33.7217 9.26074 35.3994 10.9385 35.3994 13C35.3994 15.0615 33.7217 16.7393 31.6602 16.7393C29.5986 16.7393 27.9209 15.0615 27.9209 13C27.9209 10.9385 29.5986 9.26074 31.6602 9.26074ZM6.60059 12.999C6.60059 10.9375 8.27832 9.25977 10.3398 9.25977C12.4014 9.25977 14.0791 10.9375 14.0791 12.999C14.0791 15.0605 12.4014 16.7383 10.3398 16.7383C8.27734 16.7383 6.60059 15.0615 6.60059 12.999ZM9.27246 34.7686C10.7803 38.5742 10.7803 42.4277 9.27246 46.2354H3.49707C1.87305 42.3809 1.87305 38.6201 3.49707 34.7686H9.27246ZM9.88867 48.4541H2.81348C2.61816 48.4541 2.45215 48.2891 2.45215 48.0928C2.45215 47.8965 2.61719 47.7314 2.81348 47.7314H9.88867C10.084 47.7314 10.25 47.8965 10.25 48.0928C10.25 48.2891 10.084 48.4541 9.88867 48.4541ZM38.0459 39.0762C38.832 39.0762 39.4707 39.7158 39.4707 40.501C39.4707 41.2881 38.8311 41.9287 38.0459 41.9287H11.8408C11.9258 40.9775 11.9258 40.0264 11.8408 39.0762H38.0459ZM10.249 32.9111C10.249 33.1064 10.084 33.2725 9.8877 33.2725H2.81348C2.61816 33.2725 2.45215 33.1074 2.45215 32.9111C2.45215 32.7148 2.61719 32.5498 2.81348 32.5498H9.88867C10.084 32.5498 10.249 32.7158 10.249 32.9111ZM18.3916 31.0537H16.0879V26.9512C16.0879 26.5381 15.7529 26.2031 15.3398 26.2031C14.9268 26.2031 14.5918 26.5381 14.5918 26.9512V31.0537H9.88965H6.08789V26.9512C6.08789 26.5381 5.75293 26.2031 5.33984 26.2031C4.92676 26.2031 4.5918 26.5381 4.5918 26.9512V31.0537H2.81348H2.28809V25.7881C2.28809 22.9375 4.56543 20.6084 7.39648 20.5254L8.2334 20.9053L7.60058 22.001C7.4668 22.2324 7.4668 22.5176 7.60058 22.749C7.73437 22.9805 7.98144 23.123 8.24902 23.123H12.4316C12.6992 23.123 12.9463 22.9805 13.0801 22.749C13.2139 22.5176 13.2139 22.2324 13.0801 22.001L12.4473 20.9053L13.2842 20.5254C16.1152 20.6084 18.3926 22.9375 18.3926 25.7881V31.0537H18.3916ZM19.4268 23.3389C18.9004 21.9902 17.9541 20.8516 16.748 20.083V19.2363C16.748 18.8232 16.4131 18.4883 16 18.4883C15.5869 18.4883 15.252 18.8232 15.252 19.2363V19.3711C14.583 19.1494 13.8691 19.0264 13.126 19.0264C13.0654 19.0264 13.0059 19.0342 12.9482 19.0488V17.5371C14.3691 16.7168 15.3721 15.25 15.5479 13.54C16.3115 13.0879 17.1689 12.8379 18.0566 12.8115L18.8936 13.1914L18.2607 14.2871C18.127 14.5186 18.127 14.8037 18.2607 15.0352C18.3945 15.2666 18.6416 15.4092 18.9092 15.4092H23.0918C23.3594 15.4092 23.6064 15.2666 23.7402 15.0352C23.874 14.8037 23.874 14.5186 23.7402 14.2871L23.1074 13.1914L23.9443 12.8115C24.832 12.8379 25.6895 13.0879 26.4531 13.54C26.6289 15.25 27.6318 16.7168 29.0527 17.5371V19.0488C28.9951 19.0342 28.9355 19.0264 28.875 19.0264C28.1328 19.0264 27.418 19.1484 26.749 19.3711V19.2363C26.749 18.8232 26.4141 18.4883 26.001 18.4883C25.5879 18.4883 25.2529 18.8232 25.2529 19.2363V20.083C24.0469 20.8516 23.1006 21.9902 22.5742 23.3389H19.4268ZM39.7119 31.0537H37.4082V26.9512C37.4082 26.5381 37.0732 26.2031 36.6602 26.2031C36.2471 26.2031 35.9121 26.5381 35.9121 26.9512V31.0537H27.4092V26.9512C27.4092 26.5381 27.0742 26.2031 26.6611 26.2031C26.248 26.2031 25.9131 26.5381 25.9131 26.9512V31.0537H23.6094V25.7881C23.6094 22.9375 25.8867 20.6084 28.7178 20.5254L29.5547 20.9053L28.9219 22.001C28.7881 22.2324 28.7881 22.5176 28.9219 22.749C29.0557 22.9805 29.3027 23.123 29.5703 23.123H33.7529C34.0205 23.123 34.2676 22.9805 34.4014 22.749C34.5352 22.5176 34.5352 22.2324 34.4014 22.001L33.7686 20.9053L34.6055 20.5254C37.4365 20.6084 39.7139 22.9375 39.7139 25.7881V31.0537H39.7119Z" fill="#5F4841"/>
</svg>
