<svg width="61" height="61" viewBox="0 0 61 61" fill="none" xmlns="http://www.w3.org/2000/svg">
<path d="M10.4998 0.5C4.9775 0.50225 0.5 4.97975 0.5 10.4997C0.5 16.0242 4.9775 20.5017 10.4998 20.4995C16.022 20.5017 20.4995 16.0242 20.4995 10.4997C20.5002 4.9775 16.0227 0.50225 10.4998 0.5ZM10.4998 15.5C7.73825 15.5022 5.4995 13.2635 5.4995 10.4997C5.4995 7.7405 7.73825 5.50175 10.4998 5.4995C13.2613 5.5025 15.5 7.739 15.5 10.4997C15.5 13.2635 13.2613 15.5022 10.4998 15.5Z" fill="#0A0A0A"/>
<path d="M50.5002 40.4997C46.1907 40.4997 42.29 38.7522 39.4647 35.9292L39.089 35.5535C40.9242 32.4357 40.9242 28.5665 39.089 25.4457L39.4647 25.07C42.29 22.2477 46.1937 20.4995 50.5002 20.4995C56.0225 20.5002 60.5 16.0227 60.5 10.4997C60.5 4.97675 56.0225 0.5 50.5002 0.5C44.978 0.5 40.4997 4.9775 40.4997 10.4997C40.4997 14.8085 38.7522 18.71 35.9292 21.5345L35.5535 21.9102C31.721 19.6542 26.7192 20.138 23.4282 23.4282C20.1372 26.7192 19.655 31.7195 21.911 35.5527L21.5352 35.9285C18.7107 38.7515 14.807 40.499 10.5005 40.499C4.9775 40.4997 0.5 44.978 0.5 50.5002C0.5 56.0225 4.9775 60.5 10.4997 60.5C16.022 60.5 20.4995 56.0225 20.4995 50.5002C20.4995 46.1907 22.2477 42.29 25.07 39.4647L25.4457 39.089C28.565 40.9242 32.435 40.9242 35.5535 39.089L35.9292 39.4647C38.7522 42.29 40.4997 46.1937 40.4997 50.5002C40.4997 56.0225 44.978 60.5 50.5002 60.5C56.0225 60.5 60.5 56.0225 60.5 50.5002C60.5 44.978 56.0225 40.4997 50.5002 40.4997ZM50.5002 5.50025C53.2565 5.50025 55.4997 7.74425 55.4997 10.5005C55.4997 13.2567 53.2565 15.5007 50.5002 15.5007C47.7432 15.5 45.5 13.256 45.5 10.4997C45.5 7.7435 47.7432 5.50025 50.5002 5.50025ZM10.4997 55.4997C7.7435 55.4997 5.4995 53.2565 5.4995 50.5002C5.4995 47.7432 7.7435 45.5 10.4997 45.5C13.256 45.5 15.5 47.7432 15.5 50.5002C15.5 53.2565 13.256 55.4997 10.4997 55.4997ZM30.5 35.5002C27.7385 35.5002 25.4997 33.2615 25.4997 30.5C25.4997 27.7385 27.7385 25.4997 30.5 25.4997C33.2615 25.4997 35.5002 27.7385 35.5002 30.5C35.5002 33.2615 33.2615 35.5002 30.5 35.5002ZM50.5002 55.4997C47.7432 55.4997 45.5 53.2565 45.5 50.5002C45.5 47.7432 47.7432 45.5 50.5002 45.5C53.2565 45.5 55.4997 47.7432 55.4997 50.5002C55.4997 53.2565 53.2565 55.4997 50.5002 55.4997Z" fill="#0A0A0A"/>
</svg>
