<svg width="75" height="75" viewBox="0 0 75 75" fill="none" xmlns="http://www.w3.org/2000/svg">
<g clip-path="url(#clip0_1_1632)">
<path d="M64.4094 37.5565H57.7859C57.1792 37.5565 56.6873 38.0484 56.6873 38.6552C56.6873 39.2619 57.1792 39.7538 57.7859 39.7538H64.4094C64.5825 39.7538 64.6941 39.8443 64.7453 39.8982C64.7941 39.9496 64.8745 40.0599 64.8658 40.2212C64.048 55.4245 51.4694 67.3337 36.2293 67.3339C32.825 67.3339 29.5145 66.7485 26.4122 65.6276C26.8489 64.2961 27.086 62.8749 27.086 61.3992C27.086 53.8996 20.9847 47.7981 13.485 47.7981C12.017 47.7981 10.5951 48.036 9.25757 48.4746C8.13609 45.3716 7.55015 42.0602 7.5503 38.6549C7.55044 23.4148 19.4598 10.836 34.6629 10.0183C34.8241 10.0103 34.9345 10.0901 34.9859 10.1389C35.0398 10.19 35.1304 10.3016 35.1304 10.4748V36.8714C35.1304 38.4608 36.4234 39.7538 38.0128 39.7538H52.6581C53.2649 39.7538 53.7567 39.2619 53.7567 38.6552C53.7567 38.0484 53.2649 37.5565 52.6581 37.5565H38.0128C37.635 37.5565 37.3276 37.2492 37.3276 36.8714V10.4748C37.3276 9.74779 37.025 9.04407 36.4974 8.54398C35.974 8.04798 35.2618 7.78563 34.545 7.82415C18.1758 8.70467 5.35318 22.2471 5.35303 38.6549C5.35303 42.3571 5.99712 45.9562 7.22862 49.3255C3.63814 51.1897 0.94473 54.6157 0.133646 58.7927C0.0179237 59.3883 0.407133 59.9648 1.00274 60.0805C1.59834 60.1961 2.17505 59.8071 2.29063 59.2115C2.95699 55.7796 5.14078 52.9547 8.06182 51.3723C9.5753 54.7347 11.6989 57.8263 14.3784 60.5058C17.0585 63.1859 20.1507 65.3099 23.514 66.8234C21.5816 70.3818 17.8108 72.8029 13.485 72.8029C10.8733 72.8029 8.3211 71.8977 6.29859 70.254C4.30391 68.6332 2.90176 66.3672 2.35025 63.8739C2.21929 63.2814 1.63262 62.9077 1.04024 63.0384C0.447855 63.1695 0.0737343 63.7558 0.204691 64.3484C0.862846 67.3239 2.53482 70.0268 4.9127 71.9593C7.32588 73.9202 10.3701 75.0001 13.485 75.0001C18.73 75.0001 23.2905 72.0154 25.5588 67.6557C28.9281 68.887 32.5271 69.5311 36.2292 69.5311C52.6369 69.531 66.1794 56.7083 67.0599 40.3391C67.0984 39.6218 66.836 38.9102 66.34 38.3868C65.8401 37.8592 65.1364 37.5565 64.4094 37.5565ZM15.932 58.9522C13.4557 56.4759 11.4909 53.6203 10.0867 50.5145C11.1652 50.177 12.3077 49.9954 13.485 49.9954C19.773 49.9954 24.8888 55.1111 24.8888 61.3992C24.8888 62.5825 24.7073 63.7242 24.3712 64.7984C21.2649 63.394 18.4087 61.4289 15.932 58.9522Z" fill="#0A0A0A"/>
<path d="M74.8813 29.1269C74.7155 26.085 74.1019 23.1146 73.0804 20.2996C70.085 11.9146 63.147 4.85885 54.5727 1.8004C51.7617 0.781746 48.7958 0.169734 45.7586 0.00405994C45.0298 -0.0365162 44.3099 0.22862 43.7814 0.729158C43.255 1.22764 42.9531 1.9293 42.9531 2.65411V3.48834C42.9531 4.09508 43.445 4.58697 44.0518 4.58697C44.6585 4.58697 45.1504 4.09508 45.1504 3.48834V2.65411C45.1504 2.48433 45.2393 2.37476 45.2922 2.32452C45.3465 2.2731 45.4624 2.18829 45.6389 2.19796C47.8713 2.31968 50.0623 2.70142 52.1736 3.32398L45.1504 10.3453V8.65777C45.1504 8.05103 44.6585 7.55914 44.0518 7.55914C43.445 7.55914 42.9531 8.05103 42.9531 8.65777V29.05C42.9531 30.6394 44.2461 31.9324 45.8355 31.9324H72.2314C72.9562 31.9324 73.6579 31.6305 74.1563 31.1042C74.6567 30.5755 74.921 29.8549 74.8813 29.1269ZM57.3369 29.7351L69.4895 17.5837C69.9566 18.4793 70.3772 19.3979 70.7466 20.3373L61.3461 29.7353H57.3369V29.7351ZM50.2199 29.7351L66.7066 13.2498C67.2975 14.01 67.8489 14.7968 68.3578 15.6079L54.2292 29.7351H50.2199ZM45.1504 20.5708L59.2262 6.49493C60.0389 7.0025 60.8272 7.55299 61.5892 8.14288L45.1504 24.5803V20.5708ZM54.4892 4.11632C55.4296 4.48385 56.3497 4.90206 57.2465 5.36729L45.1504 17.4634V13.4526L54.4892 4.11632ZM45.1504 29.05V27.6876L63.2811 9.55836C63.638 9.88121 63.9884 10.2128 64.3305 10.555C64.6586 10.8832 64.9775 11.2189 65.288 11.5608L47.1123 29.7353H45.8354C45.4577 29.7351 45.1504 29.4278 45.1504 29.05ZM72.5608 29.5933C72.5106 29.6462 72.4012 29.7351 72.2313 29.7351H64.4541L71.5422 22.6489C72.1759 24.7795 72.5645 26.9918 72.6874 29.2464C72.6969 29.4219 72.6123 29.5391 72.5608 29.5933Z" fill="#0A0A0A"/>
</g>
<defs>
<clipPath id="clip0_1_1632">
<rect width="75" height="75" fill="white"/>
</clipPath>
</defs>
</svg>
