<svg width="75" height="75" viewBox="0 0 75 75" fill="none" xmlns="http://www.w3.org/2000/svg">
<path d="M1.10205 36.1999C1.58703 31.2978 3.70694 26.527 7.46191 22.772C16.0857 14.1483 30.0674 14.1483 38.691 22.772L45.4614 29.5424L15.0828 59.9209C14.6131 60.3906 13.8513 60.3906 13.3816 59.9209L7.46176 54.0011C3.82491 50.3643 1.7219 45.7746 1.15259 41.0357" stroke="#0A0A0A" stroke-width="2" stroke-miterlimit="10" stroke-linecap="round" stroke-linejoin="round"/>
<path d="M73.8983 34.3559C73.4 29.4789 71.2824 24.7359 67.5455 20.9992L61.6257 15.0793C61.156 14.6096 60.3942 14.6096 59.9245 15.0793L29.5459 45.4579L36.3163 52.2283C44.94 60.852 58.9218 60.852 67.5454 52.2283C71.1018 48.6718 73.1916 44.2038 73.8147 39.5764" stroke="#0A0A0A" stroke-width="2" stroke-miterlimit="10" stroke-linecap="round" stroke-linejoin="round"/>
<path d="M18.6542 40.8577C22.4614 40.8577 25.5477 37.7714 25.5477 33.9643C25.5477 30.1571 22.4614 27.0708 18.6542 27.0708C14.8471 27.0708 11.7607 30.1571 11.7607 33.9643C11.7607 37.7714 14.8471 40.8577 18.6542 40.8577Z" stroke="#0A0A0A" stroke-width="2" stroke-miterlimit="10" stroke-linecap="round" stroke-linejoin="round"/>
<path d="M37.5034 13.0966C39.7497 13.0966 41.5707 11.2756 41.5707 9.02924C41.5707 6.78292 39.7497 4.96191 37.5034 4.96191C35.257 4.96191 33.436 6.78292 33.436 9.02924C33.436 11.2756 35.257 13.0966 37.5034 13.0966Z" stroke="#0A0A0A" stroke-width="2" stroke-miterlimit="10" stroke-linecap="round" stroke-linejoin="round"/>
<path d="M37.5034 70.0385C39.7497 70.0385 41.5707 68.2175 41.5707 65.9711C41.5707 63.7248 39.7497 61.9038 37.5034 61.9038C35.257 61.9038 33.436 63.7248 33.436 65.9711C33.436 68.2175 35.257 70.0385 37.5034 70.0385Z" stroke="#0A0A0A" stroke-width="2" stroke-miterlimit="10" stroke-linecap="round" stroke-linejoin="round"/>
<path d="M56.3529 47.929C60.1601 47.929 63.2464 44.8427 63.2464 41.0356C63.2464 37.2284 60.1601 34.1421 56.3529 34.1421C52.5458 34.1421 49.4595 37.2284 49.4595 41.0356C49.4595 44.8427 52.5458 47.929 56.3529 47.929Z" stroke="#0A0A0A" stroke-width="2" stroke-miterlimit="10" stroke-linecap="round" stroke-linejoin="round"/>
<path d="M35.0921 51.1938L17.9312 68.3549" stroke="#0A0A0A" stroke-width="2" stroke-miterlimit="10" stroke-linecap="round" stroke-linejoin="round"/>
<path d="M57.076 6.64502L39.915 23.806" stroke="#0A0A0A" stroke-width="2" stroke-miterlimit="10" stroke-linecap="round" stroke-linejoin="round"/>
</svg>
