<svg width="61" height="61" viewBox="0 0 61 61" fill="none" xmlns="http://www.w3.org/2000/svg">
<path d="M23.6225 60.5C18.4535 60.5 14.2497 56.294 14.2497 51.125C14.2497 45.959 18.4535 41.7522 23.6247 41.75H28.0002V32.9997H9.875C4.70375 32.9997 0.5 28.796 0.5 23.6247C0.5 18.4535 4.70375 14.2497 9.875 14.2497H28.0002V9.875C28.0002 4.709 32.204 0.5 37.3752 0.5C42.5435 0.5 46.7502 4.70375 46.7502 9.875C46.7502 15.0462 42.5435 19.25 37.3752 19.25H32.9997V28.0002H51.125C56.294 28.0002 60.5 32.204 60.5 37.3752C60.5 42.5435 56.294 46.7502 51.125 46.7502H32.9997V51.125C32.9997 56.294 28.7937 60.5 23.6225 60.5ZM23.6247 46.7502C21.2127 46.7525 19.25 48.7152 19.25 51.125C19.25 53.537 21.2105 55.4997 23.6225 55.4997C26.0375 55.4997 28.0002 53.537 28.0002 51.125V46.7502H23.6247ZM32.9997 41.75H51.125C53.537 41.75 55.4997 39.7872 55.4997 37.3752C55.4997 34.9625 53.537 32.9997 51.125 32.9997H32.9997V41.75ZM9.875 19.25C7.463 19.25 5.50025 21.2127 5.50025 23.6247C5.50025 26.0375 7.463 28.0002 9.875 28.0002H28.0002V19.25H9.875ZM32.9997 14.2497H37.3752C39.7872 14.2497 41.75 12.287 41.75 9.875C41.75 7.463 39.7872 5.50025 37.3752 5.50025C34.9625 5.50025 32.9997 7.463 32.9997 9.875V14.2497Z" fill="#D4AF37"/>
</svg>
