<svg width="75" height="75" viewBox="0 0 75 75" fill="none" xmlns="http://www.w3.org/2000/svg">
<g clip-path="url(#clip0_3_6417)">
<path d="M58.5659 61.469L47.9069 72.128C47.472 72.5629 46.8936 72.8024 46.2787 72.8024C45.6637 72.8024 45.0853 72.5629 44.6504 72.128C44.2155 71.693 43.9759 71.1148 43.9759 70.4997C43.9759 69.8846 44.2155 69.3064 44.6504 68.8714L45.4186 68.1032C47.3863 66.1355 47.3863 62.9339 45.4186 60.9662C43.4508 58.9984 40.2491 58.9984 38.2816 60.9662L36.8574 62.3903C35.4065 63.8412 33.4775 64.6401 31.4257 64.6401C29.3739 64.6401 27.4449 63.841 25.994 62.3903C24.5432 60.9394 23.7442 59.0104 23.7442 56.9585C23.7442 54.9067 24.5433 52.9777 25.994 51.5268L29.2693 48.2515C29.6984 47.8224 29.6984 47.1267 29.2693 46.6978C28.8402 46.2687 28.1446 46.2687 27.7156 46.6978L24.4403 49.9731C20.5886 53.8248 20.5886 60.0922 24.4403 63.9441C26.3062 65.81 28.7871 66.8377 31.4259 66.8377C34.0646 66.8377 36.5455 65.81 38.4114 63.9441L39.8356 62.5201C40.9466 61.4092 42.7542 61.4092 43.865 62.5201C44.9759 63.6309 44.9759 65.4385 43.865 66.5495L43.0968 67.3177C42.2469 68.1677 41.7787 69.2977 41.7787 70.4997C41.7787 71.7017 42.2467 72.8317 43.0968 73.6817C43.9468 74.5316 45.0768 74.9998 46.2788 74.9998C47.4809 74.9998 48.611 74.5318 49.4609 73.6817L60.1199 63.0227C60.549 62.5936 60.549 61.8979 60.1199 61.469C59.6907 61.0399 58.995 61.0399 58.5659 61.469Z" fill="#0A0A0A"/>
<path d="M14.511 41.7328L1.72547 54.5183C0.163123 56.0806 0.163123 58.6227 1.72547 60.1851C2.50672 60.9663 3.53276 61.3569 4.5588 61.3569C5.58484 61.3569 6.61102 60.9663 7.39213 60.1851L20.1776 47.3996C21.74 45.8372 21.74 43.2951 20.1776 41.7328C18.6153 40.1704 16.0733 40.1704 14.511 41.7328ZM18.6239 45.8457L5.83842 58.6312C5.13291 59.3367 3.98484 59.3367 3.27918 58.6312C2.57352 57.9257 2.57367 56.7777 3.27918 56.072L16.0647 43.2865C16.4174 42.9337 16.8809 42.7574 17.3443 42.7574C17.8076 42.7574 18.2712 42.9337 18.6239 43.2865C19.3294 43.9922 19.3294 45.1402 18.6239 45.8457Z" fill="#0A0A0A"/>
<path d="M74.4462 15.757C74.4462 10.2698 69.982 5.8056 64.4948 5.8056C59.0076 5.8056 54.5435 10.2698 54.5435 15.757C54.5435 17.0955 54.8107 18.3722 55.2921 19.5391C54.6138 19.946 53.9736 20.44 53.3896 21.0241L49.0468 25.3668C47.8989 26.5148 46.0309 26.5148 44.8829 25.3668C43.7349 24.2188 43.7349 22.3508 44.8829 21.2028L49.2257 16.86C51.0915 14.9941 52.1192 12.5134 52.1192 9.87445C52.1192 7.23567 51.0915 4.75481 49.2257 2.88892C45.3739 -0.962973 39.1063 -0.962973 35.2546 2.88892L18.1515 19.992C14.2998 23.8438 14.2998 30.1112 18.1515 33.9631C22.4632 38.2755 29.1612 37.4984 32.7802 33.3053C33.9282 32.1575 35.796 32.1574 36.9441 33.3053C37.5002 33.8614 37.8065 34.6009 37.8065 35.3873C37.8065 36.1737 37.5003 36.9132 36.9441 37.4692L31.3451 43.0682C30.916 43.4973 30.916 44.193 31.3451 44.6219C31.7742 45.051 32.4699 45.051 32.8988 44.6219L38.4978 39.0229C39.4689 38.0518 40.0038 36.7607 40.0038 35.3873C40.0038 34.0139 39.4689 32.7227 38.4978 31.7515C36.4932 29.7468 33.2312 29.7467 31.2263 31.7515C28.1615 35.4085 22.8459 35.5577 19.7052 32.4092C16.7102 29.4142 16.7102 24.5409 19.7052 21.5457L36.8083 4.44263C38.2592 2.99176 40.1882 2.19278 42.2401 2.19278C44.2919 2.19278 46.2209 2.99191 47.6718 4.44263C49.1227 5.8935 49.9216 7.82252 49.9216 9.8743C49.9216 11.9261 49.1225 13.8551 47.6718 15.306L43.329 19.6488C41.3242 21.6535 41.3242 24.9156 43.329 26.9204C45.3338 28.9252 48.5957 28.9253 50.6005 26.9204L54.9433 22.5776C55.3732 22.1477 55.846 21.7766 56.3506 21.465C58.6209 24.8285 63.4003 26.6356 67.5383 25.2305C67.8773 26.105 68.0566 27.0432 68.0566 28.0093C68.0566 30.0611 67.2575 31.9901 65.8068 33.441L50.1051 49.143C49.1518 50.0961 48.6269 51.3635 48.6269 52.7114C48.6269 54.0593 49.1518 55.3268 50.1051 56.2799C51.0581 57.2331 52.3256 57.758 53.6735 57.758C55.0214 57.758 56.2888 57.2331 57.2419 56.2799L60.4566 53.0653C60.8915 52.6304 61.4699 52.3909 62.0848 52.3909C62.6998 52.3909 63.2782 52.6304 63.7131 53.0653C64.6108 53.9632 64.6108 55.424 63.7131 56.3217L62.2057 57.8293C61.7766 58.2584 61.7766 58.9541 62.2057 59.383C62.4202 59.5976 62.7014 59.7049 62.9825 59.7049C63.2637 59.7049 63.5449 59.5976 63.7594 59.383L65.2668 57.8755C67.0214 56.1209 67.0214 53.266 65.2668 51.5115C64.4169 50.6615 63.2867 50.1933 62.0847 50.1933C60.8827 50.1933 59.7527 50.6614 58.9026 51.5115L55.6879 54.726C55.1497 55.2642 54.4342 55.5606 53.6732 55.5606C52.9122 55.5606 52.1967 55.2642 51.6585 54.726C51.1204 54.1878 50.824 53.4723 50.824 52.7113C50.824 51.9502 51.1204 51.2346 51.6585 50.6966L67.3604 34.9947C69.2262 33.1288 70.2539 30.6481 70.2539 28.0091C70.2539 26.7264 70.0091 25.4817 69.5453 24.3262C72.4757 22.5927 74.4462 19.4015 74.4462 15.757ZM64.4948 23.5111C62.0399 23.5111 59.8493 22.363 58.4276 20.5771C61.2278 19.8358 64.5418 20.8116 66.4183 23.2694C65.803 23.4268 65.1586 23.5111 64.4948 23.5111ZM68.5021 22.3929C66.1697 18.8475 61.1865 17.2539 57.2939 18.6274C56.9385 17.7389 56.7409 16.7709 56.7409 15.757C56.7409 11.4815 60.2192 8.003 64.4948 8.003C68.7703 8.003 72.2488 11.4815 72.2488 15.757C72.2488 18.5672 70.7461 21.0327 68.5021 22.3929Z" fill="#0A0A0A"/>
<path d="M9.14534 14.7453C11.6099 14.7453 13.6151 12.7401 13.6151 10.2755C13.6151 7.81086 11.6099 5.80566 9.14534 5.80566C6.68074 5.80566 4.67554 7.81086 4.67554 10.2755C4.67554 12.7401 6.68074 14.7453 9.14534 14.7453ZM9.14534 8.00306C10.3983 8.00306 11.4177 9.02236 11.4177 10.2755C11.4177 11.5286 10.3984 12.5479 9.14534 12.5479C7.89224 12.5479 6.87294 11.5286 6.87294 10.2755C6.87294 9.02236 7.89238 8.00306 9.14534 8.00306Z" fill="#0A0A0A"/>
</g>
<defs>
<clipPath id="clip0_3_6417">
<rect width="75" height="75" fill="white"/>
</clipPath>
</defs>
</svg>
