<svg width="43" height="50" viewBox="0 0 43 50" fill="none" xmlns="http://www.w3.org/2000/svg">
<path d="M13.7307 24.5986C14.4634 25.0264 14.822 25.1003 15.4303 24.9411C15.318 24.9241 15.2061 24.9025 15.0933 24.8909C14.4644 24.826 13.9392 24.578 13.5897 24.0247C13.3473 23.6409 13.1011 23.2589 12.8746 22.8656C12.6059 22.3989 12.2798 21.982 11.8855 21.6186C11.8216 21.5598 11.7489 21.5109 11.6689 21.4488C11.6245 21.5114 11.5872 21.5555 11.559 21.605C10.9796 22.6216 10.281 23.552 9.52222 24.4366C9.21333 24.7968 8.87499 25.131 8.40195 25.2756C8.29284 25.309 8.18414 25.3433 8.08191 25.4071C8.26519 25.4071 8.44846 25.4071 8.67094 25.4071C8.63352 25.5373 8.60627 25.6485 8.56995 25.7567C8.12553 27.078 7.50252 28.3046 6.67064 29.4236C6.18205 30.0808 5.70695 30.7485 5.23625 31.4189C5.06674 31.6602 4.91718 31.9175 4.77752 32.1778C4.60416 32.5008 4.5926 32.8458 4.73473 33.1816C4.89626 33.5634 5.08173 33.9349 5.25359 34.3122C5.32224 34.4629 5.38223 34.6175 5.44635 34.7708C5.21135 34.9342 4.99615 35.084 4.76803 35.2426C4.73624 35.1269 4.70928 35.0285 4.68217 34.9302C4.62438 35.366 4.34081 35.6825 4.1629 36.0482C4.04664 36.2871 3.955 36.5386 3.86047 36.7876C3.77806 37.0051 3.65643 37.0508 3.50109 36.8842C3.38152 36.756 3.28562 36.6215 3.09395 36.5885C3.04043 36.5792 2.99048 36.4754 2.96283 36.4054C2.92706 36.3149 2.91536 36.2148 2.89472 36.1252C2.79579 36.1135 2.66068 36.1367 2.61293 36.0824C2.54428 36.004 2.53134 35.8707 2.5096 35.7579C2.49516 35.683 2.50685 35.6031 2.50685 35.4642C2.43984 35.5702 2.40311 35.6284 2.3588 35.6986C2.16205 35.6172 2.08211 35.458 2.08596 35.2759C2.09105 35.0407 2.10508 34.7978 2.16838 34.5735C2.37655 33.8354 2.70856 33.1558 3.14872 32.5253C3.32139 32.278 3.45582 31.9957 3.56452 31.7124C4.08145 30.3652 4.59026 29.0148 5.08875 27.6606C5.45929 26.654 5.91114 25.691 6.52011 24.8075C6.65413 24.613 6.80754 24.4322 6.94968 24.2433C6.99687 24.1807 7.04668 24.1171 7.07846 24.0463C7.3491 23.4421 7.6163 22.8364 7.88296 22.2304C7.91446 22.1589 7.93634 22.0832 7.97212 21.9834C7.50375 21.8022 7.2444 21.4327 7.07805 20.9804C6.91596 20.5399 6.859 20.1661 6.92477 19.8625C6.96068 19.8807 6.99563 19.8907 7.02067 19.9121C7.48958 20.3139 8.04146 20.5388 8.63421 20.6682C9.32698 20.8195 10.0292 20.8993 10.7381 20.9208C10.8816 20.9251 11.025 20.933 11.1697 20.972C10.311 21.3102 9.40747 21.3445 8.50501 21.4081C8.81528 21.5064 9.13325 21.5472 9.45535 21.5522C10.5156 21.5689 11.5566 21.4147 12.564 21.0968C13.5377 20.7896 14.4924 20.421 15.4556 20.0795C15.5362 20.051 15.6177 20.0248 15.6986 19.9975C15.7166 20.0195 15.7347 20.0416 15.7528 20.0637C15.6984 20.096 15.6435 20.1275 15.5899 20.1607C15.4812 20.2282 15.3718 20.2947 15.2651 20.3654C14.9878 20.5492 14.9783 20.6922 15.2357 20.9113C15.4623 21.104 15.7331 21.1848 16.0249 21.1976C16.6514 21.225 17.2332 21.0807 17.7612 20.7329C17.81 20.7008 17.8627 20.6743 17.9146 20.6466C17.919 20.6442 17.9296 20.6534 17.9633 20.6701C17.6525 21.1588 17.2105 21.4934 16.7375 21.7916C16.2561 22.095 15.716 22.2133 15.1537 22.2627C15.5559 22.4262 15.9572 22.3967 16.3612 22.3106C17.1367 22.1454 17.7284 21.6848 18.2536 21.1182C18.6465 20.6943 18.9416 20.2054 19.1815 19.6809C19.2209 19.5949 19.2652 19.5114 19.32 19.4012C19.4134 19.7493 19.2695 20.4089 18.9713 21.0737C18.7349 21.6008 18.4335 22.084 18.0285 22.4989C17.6265 22.9108 17.1614 23.2373 16.6715 23.5337C17.6039 23.3621 18.3589 22.8864 18.9657 22.1676C19.5746 21.4463 19.8881 20.5989 19.9991 19.6536C20.0396 19.7618 20.0748 19.8722 20.1214 19.9777C20.2252 20.2119 20.3095 20.4599 20.4464 20.6732C20.9072 21.3905 21.9226 21.3949 22.4032 20.6847C22.7106 20.2303 22.7871 19.726 22.5758 19.2152C22.4484 18.9076 22.2559 18.6268 22.0895 18.336C21.7564 17.7535 21.3965 17.1848 21.096 16.5859C20.9039 16.203 20.7985 15.7761 20.645 15.3427C20.4878 16.0443 20.2718 16.722 19.8052 17.2924C19.819 17.2317 19.8262 17.1685 19.8476 17.1107C20.2464 16.0357 20.4673 14.9234 20.5167 13.779C20.5261 13.5624 20.6086 13.4614 20.7944 13.3898C21.0943 13.2741 21.3878 13.141 21.7101 13.0043C21.7839 13.508 21.8398 13.9778 22.0496 14.4134C21.9814 13.804 21.966 13.1972 22.07 12.5826C22.3422 13.4478 22.4829 14.3659 23.1378 15.0958C23.0279 14.4823 22.9244 13.9047 22.8211 13.3271C22.8439 13.3176 22.8666 13.3082 22.8895 13.2986C23.0411 13.5479 23.1927 13.7972 23.3442 14.0466C23.3645 14.0373 23.3847 14.0281 23.4048 14.0188C23.3773 13.9326 23.3544 13.8444 23.3215 13.7603C23.1264 13.2605 22.9832 12.748 22.9371 12.2109C22.9346 12.1814 22.9301 12.1519 22.9279 12.1224C22.8907 11.6447 23.0842 11.5022 23.558 11.6623C23.5331 11.8224 23.197 11.8157 23.3503 12.0919C24.9329 10.8928 26.556 9.77406 28.3914 8.98265C28.0687 9.02034 27.746 9.05804 27.3741 9.10155C27.4259 8.97115 27.4578 8.88205 27.4959 8.79571C28.1872 7.2269 29.0321 5.7433 29.9552 4.30336C30.5414 3.3889 31.129 2.4754 31.7264 1.56843C31.8322 1.40768 31.968 1.24887 32.1259 1.14424C32.8497 0.664634 33.5953 0.225209 34.4569 0.0335588C34.7422 -0.0299089 34.8149 -0.0228415 34.9708 0.228812C35.1458 0.51123 35.2971 0.808614 35.4535 1.09048C35.4677 0.843396 35.4567 0.817621 35.0048 0.0623826C35.0849 0.0497722 35.1574 0.0445063 35.2266 0.0262143C35.4535 -0.0340662 35.6002 0.0554538 35.7071 0.25722C35.8583 0.54241 36.0775 0.797805 36.0684 1.17182C36.1232 1.1114 36.1659 1.06415 36.2166 1.0083C36.328 1.12914 36.3507 1.26342 36.3202 1.4013C36.2883 1.54514 36.2398 1.68608 36.1886 1.82451C36.1287 1.98734 35.9968 2.06813 35.8356 2.10846C35.698 2.14282 35.5607 2.17844 35.3602 2.22971C35.4814 2.25562 35.5361 2.26726 35.6298 2.28722C35.3657 2.53 35.0186 2.52682 34.7783 2.72068C34.6329 2.6223 34.6454 2.50284 34.6505 2.38478C34.6692 1.95159 34.5791 1.82618 34.1584 1.71739C34.047 1.68857 33.9306 1.67956 33.8101 1.69564C33.9378 1.72751 34.0735 1.74192 34.1911 1.79597C34.3116 1.8514 34.4385 1.92609 34.5197 2.02739C34.6464 2.18537 34.5819 2.36801 34.3876 2.42205C34.2284 2.4664 34.0582 2.49813 33.8945 2.49231C33.5419 2.47998 33.1903 2.44173 32.8386 2.41027C32.7227 2.39988 32.6078 2.37785 32.4817 2.39863C32.5953 2.43882 32.7088 2.47887 32.8419 2.52599C32.1634 3.54923 31.9382 4.73128 31.5221 5.83739C31.1465 6.83611 30.7742 7.83608 30.3965 8.83396C30.1027 9.60985 29.5705 10.2187 29.0184 10.8132C27.685 12.2487 26.2068 13.5185 24.6441 14.6916C24.5195 14.7851 24.4007 14.8863 24.2665 14.9942C24.3085 15.0427 24.3378 15.0768 24.3777 15.1229C24.4844 14.8663 24.7069 14.7922 24.933 14.6738C24.9556 14.765 24.9835 14.836 24.9894 14.9086C25.0182 15.2691 24.9751 15.6218 24.832 15.9548C24.525 16.6692 23.8502 16.8648 23.209 16.4292C23.0964 16.3527 22.9916 16.265 22.869 16.1717C22.4964 16.5713 22.1693 16.9853 21.9645 17.4877C21.9072 17.628 21.9204 17.7491 22.0012 17.8794C22.178 18.1646 22.3485 18.4542 22.5111 18.7478C23.006 19.6415 23.1158 20.5589 22.645 21.4988C22.308 22.1716 21.8329 22.6586 20.9617 22.6408C21.1879 22.8235 21.4301 22.7913 21.6541 22.8781C21.6325 23.0505 21.622 23.2166 21.5897 23.3783C21.2936 24.859 21.3161 26.3475 21.4602 27.8419C21.539 28.66 21.5868 29.4832 21.413 30.2955C21.3431 30.622 21.2175 30.9367 21.1129 31.2553C21.0961 31.3065 21.0572 31.3505 20.988 31.3844C21.0031 31.2723 21.0154 31.1596 21.0339 31.0481C21.169 30.2347 21.2094 29.4168 21.1637 28.5931C21.1128 27.6743 21.0641 26.7553 21.0293 25.8358C21.0004 25.0727 21.048 24.3126 21.1828 23.5596C21.1912 23.5123 21.1945 23.4642 21.2026 23.3962C20.7228 23.2636 20.2501 23.2208 19.7729 23.3111C19.5329 23.3566 19.2935 23.4231 19.0657 23.5112C18.5726 23.702 18.0871 23.9128 17.6137 24.1654C17.6837 24.1512 17.7549 24.1409 17.8238 24.1221C18.2217 24.0126 18.6166 23.8904 19.0174 23.7932C19.43 23.6933 19.8502 23.6371 20.2722 23.7399C20.4023 23.7716 20.5259 23.8295 20.6509 23.9329C20.5945 23.9516 20.5394 23.9785 20.4816 23.9877C20.1267 24.0442 19.8061 24.1739 19.5078 24.382C18.8246 24.8589 18.0995 25.2495 17.2664 25.3914C17.1148 25.4172 16.9618 25.4349 16.8074 25.4841C17.6707 26.1577 18.6685 26.1316 19.6981 26.0893C19.5188 26.1814 19.3425 26.2808 19.1591 26.3637C18.9622 26.4526 18.7551 26.5185 18.5587 26.6083C18.2439 26.7522 18.1347 26.9932 18.2824 27.3086C18.3849 27.5276 18.5303 27.7386 18.6997 27.9099C18.9059 28.1185 19.158 28.2809 19.3889 28.4649C19.447 28.511 19.4999 28.5636 19.5924 28.6466C19.2629 28.6617 18.999 28.5905 18.7551 28.4775C18.4441 28.3334 18.1365 28.1728 17.8508 27.9836C17.3748 27.6686 16.9176 27.3251 16.4519 26.9946C16.3756 26.9406 16.2957 26.8918 16.1765 26.8782C16.227 26.9551 16.274 27.0349 16.3287 27.1087C16.87 27.8377 17.427 28.5555 17.9501 29.2975C18.3365 29.8453 18.6796 30.4241 19.0405 30.99C19.054 31.0112 19.0521 31.0426 19.0704 31.1357C18.8998 31.0085 18.7623 30.9234 18.6452 30.8158C17.8686 30.1026 17.0957 29.3855 16.3231 28.6676C16.1161 28.4753 15.9148 28.2767 15.6877 28.1016C16.1673 28.9776 16.7914 29.744 17.4443 30.4867C18.0959 31.228 18.8154 31.8942 19.6522 32.448C19.4929 32.448 19.3311 32.4661 19.1747 32.4448C18.5569 32.3603 18.0172 32.0777 17.5031 31.7411C16.5406 31.111 15.7156 30.3184 14.9287 29.4862C14.4751 29.0066 14.0538 28.4959 13.6157 28.0014C13.5287 27.9033 13.4993 27.8175 13.5663 27.6851C13.9575 26.9128 14.0165 26.098 13.8496 25.2576C13.8097 25.0563 13.7765 24.8535 13.7307 24.5986ZM34.2031 1.21021C34.1856 1.19122 34.1681 1.17238 34.1507 1.15339C34.0155 1.27949 33.8804 1.40574 33.7453 1.53184C33.7604 1.54847 33.7756 1.5651 33.7907 1.58173C33.9283 1.45798 34.0656 1.33409 34.2031 1.21021Z" fill="white"/>
<path d="M9.45891 18.4614C9.35241 18.7395 9.27619 18.9386 9.19996 19.1378C9.21633 19.1468 9.23284 19.1558 9.24922 19.1647C9.33962 19.0002 9.4329 18.8372 9.52 18.6711C9.83646 18.0674 10.1517 17.4632 10.4655 16.8585C10.7415 16.3266 11.1949 16.0675 11.7713 16.0241C12.4764 15.9709 13.1831 15.9365 13.8893 15.8984C14.3406 15.8742 14.7924 15.8589 15.2438 15.8369C15.3064 15.8339 15.3682 15.8147 15.4302 15.8031C15.4297 15.7809 15.4293 15.7586 15.4287 15.7364C14.4961 15.6791 13.5637 15.6218 12.6311 15.5645C12.622 15.5466 12.6129 15.5287 12.6038 15.5108C13.2855 15.1821 13.8416 14.7149 14.2432 14.0741C14.6394 13.4418 14.8664 12.7497 15.0114 12.0276C14.9917 12.0198 14.9721 12.0122 14.9524 12.0044C14.8763 12.1947 14.8019 12.3858 14.724 12.5754C14.2859 13.6414 13.6095 14.5048 12.5952 15.0685C12.3123 15.2256 12.0138 15.3603 11.7109 15.4736C10.9309 15.765 10.3775 16.2889 10.0398 17.0515C9.97185 17.2049 9.89562 17.3553 9.81486 17.5023C9.71923 17.6766 9.64631 17.7098 9.45533 17.6747C9.22514 17.6326 9.03169 17.5174 8.87249 17.3481C8.6961 17.1603 8.72816 16.9437 8.77233 16.7128C8.8209 16.7311 8.84718 16.7327 8.85309 16.7446C8.95849 16.9552 9.12002 17.06 9.35682 17.0073C9.61934 16.949 9.80124 16.7893 9.85944 16.5237C9.89287 16.3714 9.90622 16.2063 9.8875 16.0521C9.79766 15.3121 10.2591 14.8731 10.76 14.6598C10.8487 14.622 10.9372 14.5838 11.0459 14.5372C10.7019 14.4728 10.2626 14.6209 9.99221 14.8723C9.69763 15.1462 9.65938 15.5246 9.59017 15.9171C9.24028 15.1113 9.80701 14.1018 10.6696 13.9561C10.9106 13.9154 11.159 13.9204 11.4033 13.8977C11.5346 13.8855 11.6646 13.8587 11.8183 13.835C11.7856 13.7578 11.7746 13.721 11.7557 13.689C11.3372 12.9789 11.466 12.1427 12.0799 11.5923C12.3866 11.3174 12.7548 11.1571 13.1323 11.0095C13.3781 10.9134 13.6199 10.8041 13.853 10.6805C13.9581 10.6248 14.0375 10.5202 14.1029 10.3963C13.8845 10.4646 13.666 10.5328 13.4151 10.6112C13.5657 10.2919 13.683 10.1841 14.3185 9.76257C14.2331 9.67 14.1575 9.5741 14.0679 9.49387C13.7655 9.22267 13.4888 8.93097 13.279 8.57857C13.0315 8.16299 12.8968 7.71317 12.8588 7.23203C12.8505 7.12713 12.8437 7.02223 12.809 6.91844C12.7255 7.26197 12.7805 7.60439 12.8354 7.93974C12.4602 8.05739 11.8174 7.92824 11.5679 7.69141C11.4159 7.54702 11.36 7.36548 11.3738 7.13184C11.5174 7.15304 11.6445 7.17175 11.7733 7.19074C11.6046 6.97206 11.4302 6.77626 11.2934 6.55661C11.2195 6.43799 11.21 6.27877 11.1533 6.07132C11.307 6.2196 11.4011 6.32963 11.5141 6.41374C11.6198 6.49245 11.7455 6.544 11.8897 6.5792C11.5636 6.30205 11.3103 5.98901 11.2681 5.5543C11.2282 5.14286 11.2978 4.75263 11.5392 4.35547C11.5392 4.7112 11.5392 5.01731 11.5392 5.32343C11.5493 5.32578 11.5594 5.32828 11.5696 5.33063C11.5862 5.21659 11.5991 5.10184 11.6205 4.98877C11.6477 4.84326 11.6697 4.69526 11.7146 4.55502C12.0709 3.44226 13.0882 3.36923 13.7505 3.66232C13.7654 3.66883 13.7738 3.6899 13.7907 3.7111C13.5052 3.73576 13.2229 3.76029 12.9405 3.78468C12.9402 3.80644 12.94 3.82833 12.9396 3.85009C13.1319 3.87226 13.3243 3.89457 13.5547 3.92118C13.3582 4.08955 13.1874 4.21884 13.0374 4.36933C12.8856 4.52163 12.7788 4.7087 12.6977 4.93361C12.9547 4.7191 13.1752 4.50056 13.429 4.3333C13.6828 4.1659 13.9806 4.09135 14.3591 4.07375C14.2346 4.23173 14.1479 4.34162 14.0612 4.45151C14.0693 4.46273 14.0774 4.47396 14.0854 4.48518C14.111 4.47022 14.1413 4.45996 14.1615 4.43945C14.6332 3.964 15.2265 3.73715 15.8643 3.62407C16.4898 3.51321 17.1181 3.54245 17.7382 3.68421C18.1378 3.77554 18.4978 3.94931 18.8001 4.23408C18.8316 4.26374 18.8689 4.2873 18.9035 4.31363C18.9176 4.29824 18.9317 4.28286 18.9458 4.26748C18.7975 4.12142 18.6493 3.97536 18.4805 3.80893C18.556 3.81309 18.6182 3.80713 18.6757 3.82099C19.0288 3.90621 19.3293 4.09176 19.59 4.3394C19.8366 4.57345 19.8688 4.87098 19.8312 5.2116C19.9119 5.08203 19.9926 4.95246 20.098 4.78312C20.1723 5.07219 20.1758 5.31816 20.0815 5.58312C20.4603 5.68469 20.5837 5.96656 20.6045 6.31577C20.628 6.70905 20.5094 6.98564 20.1931 7.22386C20.3755 6.66955 20.3312 6.2074 19.774 5.90517C19.8389 6.28293 19.9039 6.66068 19.9673 7.02957C19.18 7.11133 18.4164 7.15429 17.666 7.27887C16.917 7.40331 16.1815 7.60937 15.4458 7.81086C16.6848 7.73645 17.9011 7.43532 19.1463 7.47038C19.1499 7.49089 19.1535 7.51126 19.1572 7.53177C18.1521 7.77234 17.1471 8.01305 16.142 8.25361C16.1445 8.27759 16.1468 8.30156 16.1493 8.32567C16.6902 8.38554 17.2352 8.35976 17.7784 8.36545C18.3263 8.37113 18.8743 8.36669 19.4251 8.40854C18.0979 8.70579 16.749 8.83536 15.4016 9.04377C15.4623 9.05084 15.523 9.06331 15.5838 9.06428C16.9125 9.0859 18.2343 8.99527 19.5497 8.80833C20.0324 8.73974 20.032 8.73724 20.33 9.12179C20.3904 9.19981 20.4544 9.27533 20.5113 9.35585C20.637 9.53322 20.6165 9.6639 20.4342 9.77393C20.3516 9.82382 20.2525 9.84571 20.161 9.88077C19.9747 9.95228 19.9273 10.0782 20.0214 10.251C20.1628 10.5109 20.1628 10.5109 19.9139 10.738C20.0149 10.8889 19.9562 11.0096 19.8279 11.1334C19.769 11.1902 19.7606 11.3045 19.74 11.3953C19.7322 11.4302 19.7571 11.4716 19.762 11.5107C19.8078 11.8689 19.6485 12.0779 19.2869 12.1196C19.1607 12.1342 19.0304 12.1369 18.9044 12.1233C18.0101 12.0265 17.1686 11.7891 16.4743 11.1719C16.4159 11.1199 16.3553 11.0707 16.2825 11.0333C16.4517 11.3573 16.7142 11.5988 17.0113 11.7927C17.3143 11.9905 17.6412 12.1509 17.9923 12.347C17.9729 12.441 17.9499 12.564 17.9216 12.686C17.7755 13.3143 17.6834 13.9501 17.6865 14.5961C17.6876 14.8259 17.6702 15.0652 17.8207 15.3274C17.849 15.1752 17.8663 15.071 17.8878 14.9675C17.9567 14.6346 18.1298 14.3848 18.4582 14.2689C18.9955 14.0795 19.5342 13.8943 20.0727 13.7085C20.0891 13.7028 20.1104 13.7114 20.1723 13.7177C20.1271 13.9876 20.0968 14.2591 20.0346 14.5229C19.6755 16.048 18.9157 17.317 17.6697 18.28C16.5977 19.1084 15.4366 19.7578 14.1204 20.0937C12.3664 20.5414 10.6039 20.5937 8.84291 20.1384C8.5226 20.0557 8.21494 19.9135 7.91293 19.7736C7.77465 19.7095 7.64931 19.5987 7.54419 19.4845C7.2785 19.1957 7.32129 18.9427 7.67118 18.7765C7.8645 18.6848 8.07488 18.6112 8.28512 18.5783C8.65083 18.5214 9.02205 18.5025 9.45891 18.4614ZM16.6858 5.32398C17.0467 5.13884 17.389 4.93181 17.7548 4.78395C18.1412 4.62792 18.5508 4.68667 18.9509 4.79407C18.2635 4.12572 16.0612 3.92478 15.2186 4.46273C16.083 4.33677 16.9015 4.28272 17.709 4.52551C16.8433 4.67212 15.9648 4.73961 15.1629 5.14425C15.7734 5.05598 16.3782 4.93264 17.0595 4.89938C16.908 5.0715 16.7969 5.1976 16.6858 5.32398ZM19.6407 5.41128C18.8656 4.7385 17.7404 4.86516 17.3996 5.6398C18.0098 5.19067 18.4143 5.08702 18.8651 5.26398C18.2294 5.56178 18.2374 5.56884 17.7109 6.1711C17.4988 6.41388 17.2433 6.61814 17.0066 6.83903C16.9561 6.88615 16.9023 6.9298 16.85 6.97497C16.9271 6.98911 16.9809 6.97206 17.0318 6.94851C17.4106 6.77252 17.7459 6.52821 18.033 6.22916C18.4021 5.84517 18.8464 5.61887 19.3534 5.49637C19.445 5.4742 19.5342 5.44316 19.6407 5.41128ZM13.8955 11.8176C13.8801 11.8035 13.8647 11.7895 13.8492 11.7754C13.6329 11.9519 13.4031 12.1145 13.205 12.3096C13.0679 12.4446 12.9479 12.612 12.8668 12.7868C12.7043 13.1368 12.7622 13.4826 12.955 13.8115C12.9777 13.0068 13.4324 12.4102 13.8955 11.8176ZM13.3456 11.4974C12.8596 11.5101 12.4145 11.6132 12.0723 11.9802C11.7933 12.2795 11.733 12.6783 11.9157 13.0611C12.0125 12.1731 12.6847 11.8448 13.3456 11.4974ZM14.276 6.29554C14.5679 6.57006 14.8467 6.66886 15.0779 6.62576C14.8115 6.51615 14.5437 6.40584 14.276 6.29554ZM14.5179 6.93354C14.526 6.91719 14.5389 6.89571 14.537 6.89432C14.3104 6.7218 14.0825 6.55079 13.8548 6.37965C14.0113 6.6496 14.2412 6.82129 14.5179 6.93354ZM14.4824 7.76195C14.4814 7.74546 14.4803 7.7291 14.4793 7.71261C14.3211 7.72051 14.1629 7.72827 14.0047 7.73617C14.0059 7.74476 14.0071 7.75336 14.0084 7.76195C14.1663 7.76195 14.3244 7.76195 14.4824 7.76195Z" fill="white"/>
<path d="M18.314 43.5601C17.3856 43.2548 15.2595 41.4815 14.3193 40.2663C13.2559 38.8919 12.4445 37.3781 11.8262 35.7512C11.8796 36.6148 12.1274 37.4316 12.4477 38.222C12.7644 39.0037 13.1336 39.764 13.4987 40.5759C13.3284 40.4645 13.1798 40.3766 13.041 40.2752C12.031 39.5373 11.0244 38.7949 10.013 38.0593C9.88696 37.9678 9.83771 37.8673 9.84775 37.7115C10.006 35.236 10.393 32.8166 11.506 30.5643C11.9486 29.6687 12.5422 28.8869 13.2047 28.1513C13.2308 28.1223 13.2617 28.0968 13.2932 28.0738C13.3076 28.0633 13.3294 28.063 13.3757 28.0506C13.4367 28.1355 13.5038 28.2297 13.5718 28.3237C14.5235 29.6402 15.5791 30.8619 16.8173 31.9153C17.4138 32.4229 18.0662 32.8424 18.793 33.137C19.0771 33.2521 19.3711 33.3176 19.6808 33.3284C20.1361 33.3442 20.4995 33.1643 20.8107 32.8465C21.0833 32.5683 21.2997 32.2494 21.4494 31.8919C21.628 31.4651 21.7823 31.028 21.9489 30.5908C21.9599 30.6199 21.9859 30.6588 21.988 30.699C22.0327 31.5824 21.9214 32.4377 21.5147 33.2348C21.3019 33.6518 21.009 33.9978 20.5488 34.14C20.3286 34.208 20.0906 34.2175 19.8292 34.2582C20.0649 34.4766 20.3347 34.5717 20.6422 34.5875C20.9697 34.6044 21.2215 34.4471 21.4943 34.2511C21.4503 34.4482 21.4146 34.6476 21.3603 34.8416C21.223 35.3322 21.0166 35.7914 20.6817 36.1786C20.3182 36.5989 20.024 36.6521 19.534 36.3996C19.0314 36.1408 18.5921 35.7924 18.181 35.406C18.121 35.3496 18.0569 35.2977 17.9889 35.2385C17.9783 35.2701 17.9703 35.2819 17.9732 35.2867C18.4156 35.9919 18.9163 36.6536 19.5336 37.2099C20.1649 37.7787 20.666 37.6918 21.1403 36.9728C21.536 36.3727 21.7912 35.7077 21.9823 35.0201C22.1542 34.4015 22.2882 33.7722 22.4398 33.1478C22.4577 33.0738 22.4812 33.0012 22.5583 32.9298C22.5913 33.3019 22.6446 33.6734 22.6538 34.0459C22.697 35.8011 22.479 37.5217 21.9276 39.1917C21.7077 39.8575 21.4639 40.5155 21.2316 41.1773C21.2165 41.2205 21.2073 41.266 21.2154 41.3178C21.97 40.3708 22.3598 39.2518 22.6995 38.1088C22.8921 38.927 21.9834 44.1843 21.4373 45.5603C21.4144 45.5448 21.3809 45.5352 21.374 45.516C21.0495 44.6179 20.5089 43.8518 19.9039 43.1325C19.2119 42.3096 18.5025 41.5013 17.7859 40.7001C16.4814 39.2415 15.2569 37.7227 14.2591 36.0305C14.0485 35.6733 13.8599 35.3032 13.6604 34.9396C13.633 34.8897 13.6017 34.8423 13.5337 34.8068C13.5437 34.8675 13.5473 34.9303 13.5646 34.9888C14.0926 36.7638 14.8964 38.412 15.8543 39.9858C16.5787 41.1761 17.3842 42.3113 18.2287 43.4182C18.2517 43.4481 18.2682 43.4833 18.314 43.5601ZM18.9939 38.7815C18.9937 38.658 18.9223 38.5879 18.8693 38.515C18.1451 37.5182 17.4193 36.5227 16.6932 35.5273C15.8279 34.3409 14.9228 33.1824 14.1988 31.8976C14.1706 31.8474 14.1311 31.8038 14.0823 31.7371C14.2859 33.1339 17.3699 37.553 18.9939 38.7815Z" fill="white"/>
<path d="M39.2745 14.1416C38.5445 14.0969 37.9473 13.7443 37.3583 13.3565C37.0812 13.1742 36.7804 13.0125 36.4693 12.9015C35.6105 12.5951 34.824 12.8505 34.2706 13.5794C34.1889 13.6869 34.1103 13.7969 34.0181 13.9223C33.9005 13.773 33.8043 13.6491 33.7065 13.5267C32.9932 12.6355 32.0179 12.6294 31.2126 13.0294C30.9496 13.1599 30.7052 13.3309 30.46 13.4951C29.9549 13.8337 29.4249 14.1028 28.8063 14.1478C28.7792 14.1497 28.7535 14.1693 28.7639 14.1648C28.7021 14.3451 28.6501 14.4969 28.6068 14.6237C28.8871 15.4163 29.1618 16.2051 29.4451 16.9907C29.6523 17.5652 29.8755 18.1341 30.0829 18.7086C30.2332 19.1253 30.3642 19.5492 30.5131 19.9665C30.665 20.3922 30.8293 20.8132 30.9857 21.2372C31.0573 21.4314 31.1237 21.6274 31.1912 21.8231C31.329 22.2229 31.4632 22.6241 31.606 23.0219C31.6346 23.1017 31.6865 23.1774 31.7424 23.2423C31.8546 23.3725 31.874 23.5191 31.7832 23.6519C31.6733 23.8128 31.5488 23.9716 31.4021 24.0977C30.7553 24.6541 30.0033 24.9602 29.1537 25.0352C28.0889 25.129 27.0514 25.0573 26.0839 24.549C25.7069 24.351 25.3603 24.1074 25.1297 23.7321C24.976 23.4821 24.9841 23.4214 25.1747 23.1893C25.2108 23.1454 25.2385 23.0914 25.2581 23.0376C25.4863 22.4065 25.7161 21.7759 25.9378 21.1424C26.2409 20.2767 26.5325 19.407 26.8379 18.5423C27.1534 17.6491 27.4795 16.7595 27.801 15.8685C27.8781 15.6551 27.9535 15.4411 28.034 15.229C28.1106 15.0268 28.1928 14.8267 28.2752 14.6187C28.239 14.4647 28.1994 14.2961 28.1505 14.0879C28.1123 14.0644 28.0345 14.0242 27.9656 13.9725C27.6478 13.734 27.4472 13.4329 27.4872 13.014C27.5278 12.5885 27.906 12.3004 28.3214 12.3738C28.5493 12.4139 28.6629 12.5283 28.7244 12.8033C28.638 12.7517 28.5713 12.7029 28.4978 12.6695C28.3075 12.5833 28.0922 12.6247 27.9849 12.7609C27.8756 12.8998 27.8719 13.124 27.9968 13.2871C28.1976 13.5492 28.4853 13.6198 28.7887 13.5699C28.9777 13.5389 29.1688 13.4619 29.3355 13.3646C29.5895 13.2163 29.8195 13.0273 30.0659 12.8653C30.427 12.628 30.7784 12.3696 31.1612 12.1743C31.7488 11.8746 32.371 11.8661 32.9954 12.0787C33.0881 12.1103 33.1825 12.1375 33.277 12.163C33.2916 12.1669 33.3114 12.1513 33.3487 12.1373C33.1417 11.5711 33.0718 11.0292 33.7217 10.6511C33.5828 10.6398 33.4438 10.6284 33.309 10.6173C33.2553 10.3705 33.2765 10.0518 33.3757 9.6269C33.7772 9.6269 34.1847 9.6269 34.6348 9.6269C34.6666 9.94452 34.6982 10.2614 34.7319 10.5987C34.5566 10.617 34.4166 10.6316 34.2612 10.6477C34.8768 11.2582 34.8998 11.352 34.6213 12.1717C34.7336 12.1476 34.8252 12.1391 34.9086 12.1082C35.8767 11.7493 36.743 11.9832 37.5471 12.5673C37.8496 12.7871 38.1372 13.0284 38.4442 13.2415C38.604 13.3525 38.785 13.4401 38.9674 13.5091C39.2686 13.6232 39.571 13.6015 39.8408 13.4154C39.933 13.3518 40.0185 13.2532 40.0643 13.151C40.1943 12.8613 39.9689 12.5719 39.6556 12.6254C39.5357 12.6459 39.4241 12.717 39.2969 12.7698C39.2753 12.6232 39.3602 12.5251 39.4788 12.4473C39.7971 12.2389 40.2718 12.3822 40.4306 12.7328C40.5882 13.0809 40.5031 13.4994 40.2023 13.7936C40.0903 13.9032 39.9585 13.9923 39.8502 14.0793C39.8191 14.2566 39.7895 14.4252 39.7536 14.6295C40.0549 15.45 40.3728 16.3178 40.6924 17.1848C40.9174 17.7951 41.1504 18.4025 41.3696 19.015C41.592 19.6364 41.7982 20.2636 42.0182 20.8859C42.1822 21.35 42.3581 21.8098 42.5258 22.2725C42.613 22.5131 42.6904 22.7571 42.7799 22.9967C42.8136 23.0866 42.8592 23.176 42.9171 23.252C43.0137 23.3788 43.0298 23.5126 42.9446 23.6371C42.8401 23.7899 42.7279 23.9453 42.5903 24.0664C42.0532 24.5388 41.4247 24.8298 40.7256 24.966C39.6816 25.1694 38.6523 25.1104 37.6472 24.7597C37.2272 24.6131 36.8383 24.3931 36.5213 24.0727C36.3923 23.9423 36.2875 23.7813 36.1978 23.6196C36.1266 23.4911 36.1516 23.3595 36.2658 23.2416C36.3437 23.1612 36.4078 23.056 36.4462 22.9503C36.7324 22.1614 37.0111 21.3697 37.291 20.5784C37.5773 19.7687 37.8608 18.9579 38.1482 18.1486C38.4752 17.2278 38.8046 16.3078 39.1346 15.3879C39.1944 15.2211 39.251 15.0515 39.3294 14.8932C39.4072 14.7362 39.4754 14.6007 39.332 14.437C39.2829 14.381 39.2967 14.2686 39.2745 14.1416ZM31.366 23.3469C31.3413 23.246 31.3191 23.1336 31.2851 23.0251C31.2558 22.9314 31.2092 22.8433 31.1764 22.7506C30.9339 22.0624 30.6956 21.3726 30.4506 20.6853C30.2288 20.0628 29.9956 19.4445 29.7759 18.8213C29.3821 17.7045 28.9947 16.5854 28.6028 15.4677C28.5992 15.4575 28.572 15.4555 28.5306 15.4407C28.542 16.3006 28.5418 17.1514 28.568 18.0015C28.5945 18.8629 28.5515 19.7237 28.5878 20.5859C28.6234 21.4332 28.5839 22.2837 28.5773 23.1407C29.505 23.2094 30.4215 23.277 31.366 23.3469ZM39.7107 15.3933C39.7722 17.9713 39.7444 20.5525 39.7599 23.1454C40.6713 23.2044 41.5763 23.2631 42.5276 23.3246C41.6583 20.6472 40.6393 18.0412 39.7107 15.3933ZM39.4065 15.5004C39.0896 16.3887 38.781 17.2429 38.4803 18.1C38.1775 18.9632 37.8855 19.8302 37.5837 20.6939C37.2836 21.5522 36.9683 22.4054 36.6742 23.2933C37.6264 23.241 38.5306 23.1915 39.4351 23.1419C39.4241 22.9815 39.3765 22.8336 39.4136 22.7119C39.4801 22.4945 39.4905 22.2905 39.4308 22.0743C39.4131 22.0102 39.425 21.937 39.4268 21.8681C39.4367 21.4855 39.4535 21.1031 39.4564 20.7203C39.4589 20.3973 39.4416 20.0743 39.4407 19.7513C39.4399 19.4066 39.4519 19.0618 39.4519 18.7172C39.4519 18.0971 39.4509 17.4769 39.4429 16.857C39.4374 16.4152 39.4197 15.9735 39.4065 15.5004ZM28.2616 15.6022C28.2415 15.603 28.2215 15.6037 28.2014 15.6045C27.3159 18.1536 26.4304 20.7027 25.5338 23.283C26.4793 23.2356 27.3764 23.1906 28.2748 23.1454C28.2661 22.9844 28.2257 22.8307 28.2584 22.695C28.3038 22.5061 28.3206 22.3313 28.2676 22.1432C28.2444 22.0608 28.2601 21.9665 28.2612 21.8777C28.2658 21.5041 28.27 21.1305 28.2779 20.7569C28.2822 20.5607 28.3035 20.3643 28.3002 20.1684C28.2946 19.8347 28.2661 19.5011 28.2642 19.1676C28.2587 18.2002 28.2617 17.2326 28.2614 16.2651C28.2614 16.0442 28.2616 15.8232 28.2616 15.6022ZM39.1534 23.8567C39.2515 23.8567 39.3495 23.8567 39.4476 23.8567C40.449 23.8571 41.4516 23.8823 42.4431 23.6976C42.5489 23.6779 42.6551 23.6538 42.7564 23.6179C42.8739 23.5762 42.8896 23.4812 42.8443 23.376C42.799 23.271 42.7303 23.2198 42.6086 23.3028C42.6441 23.3878 42.6762 23.4648 42.7209 23.5717C41.5135 23.7102 40.3279 23.7634 39.1534 23.8567ZM31.491 23.2654C31.5111 23.389 31.524 23.4686 31.543 23.5861C30.3913 23.6709 29.2506 23.7549 28.1593 23.8352C28.7268 23.8352 29.3443 23.8535 29.9601 23.8291C30.4091 23.8114 30.8563 23.7411 31.3032 23.6853C31.4075 23.6723 31.517 23.6387 31.607 23.5854C31.7543 23.4981 31.7201 23.3711 31.491 23.2654ZM28.4386 14.0835C28.3653 14.1633 28.3059 14.2007 28.2891 14.2522C28.2587 14.3453 28.3478 14.4654 28.4407 14.4502C28.5017 14.4402 28.6061 14.3554 28.5991 14.3314C28.5761 14.2534 28.511 14.1878 28.4386 14.0835ZM39.7829 14.2851C39.6855 14.2197 39.6302 14.1533 39.5706 14.149C39.4702 14.1418 39.3983 14.2221 39.4215 14.3205C39.4356 14.3809 39.5259 14.4748 39.5637 14.4668C39.6313 14.4524 39.6848 14.3722 39.7829 14.2851ZM25.4423 23.2861C25.4152 23.2639 25.3882 23.2418 25.3611 23.2197C25.3006 23.2741 25.2321 23.3222 25.1835 23.3858C25.163 23.4127 25.1675 23.4907 25.1908 23.5117C25.2174 23.5355 25.3031 23.5409 25.3181 23.5205C25.3701 23.4504 25.4024 23.3655 25.4423 23.2861ZM41.2304 18.9693C41.2016 18.9798 41.173 18.9902 41.1442 19.0007C41.1621 19.1252 41.181 19.2492 41.3385 19.3159C41.3025 19.2003 41.2664 19.0847 41.2304 18.9693ZM42.4935 22.7245C42.4869 22.8854 42.502 23.0065 42.6733 23.103C42.6543 22.9386 42.6685 22.8045 42.4935 22.7245ZM25.6051 22.7462C25.578 22.7297 25.5509 22.7132 25.5238 22.6967C25.4799 22.8099 25.436 22.9231 25.3921 23.0363C25.4173 23.0471 25.4425 23.058 25.4678 23.0689C25.5135 22.9612 25.5593 22.8537 25.6051 22.7462ZM42.3962 22.5619C42.4225 22.5528 42.4486 22.5438 42.4749 22.5348C42.4743 22.4047 42.4607 22.2796 42.2856 22.2143C42.3223 22.3302 42.3592 22.446 42.3962 22.5619ZM40.8947 18.3267C40.9178 18.0554 40.9178 18.0554 40.7397 17.9305C40.8044 18.0958 40.8495 18.2113 40.8947 18.3267ZM39.6053 22.1316C39.7248 22.011 39.6786 21.9148 39.5908 21.7753C39.5401 21.9201 39.4925 22.0199 39.6053 22.1316ZM37.1103 21.7311C37.0936 21.7219 37.0768 21.7127 37.06 21.7035C36.9207 21.8839 36.9207 21.8839 36.9573 22.0996C37.0179 21.9536 37.0641 21.8424 37.1103 21.7311ZM41.9877 21.0959C41.907 21.2555 41.9533 21.3713 42.1045 21.4509C42.0656 21.3325 42.0266 21.2142 41.9877 21.0959ZM30.4885 20.1577C30.4629 20.1619 30.4372 20.1662 30.4116 20.1703C30.3898 20.3028 30.4284 20.4139 30.5841 20.486C30.5522 20.3765 30.5203 20.267 30.4885 20.1577ZM36.2586 23.4889C36.5224 23.5372 36.5224 23.5372 36.4835 23.2326C36.3973 23.3308 36.3361 23.4007 36.2586 23.4889ZM30.9427 21.5889C30.939 21.4124 30.9262 21.2913 30.7802 21.1787C30.769 21.3538 30.8001 21.4675 30.9427 21.5889ZM29.9414 18.6435C29.9154 18.6518 29.8893 18.66 29.8633 18.6683C29.8529 18.7965 29.8893 18.9044 30.0443 18.9647C30.0099 18.8576 29.9757 18.7505 29.9414 18.6435ZM38.0191 19.0961C37.9945 19.0864 37.9699 19.0765 37.9452 19.0668C37.9019 19.1781 37.8586 19.2894 37.8152 19.4007C37.8403 19.4105 37.8652 19.4205 37.8902 19.4303C37.9331 19.3189 37.9762 19.2075 38.0191 19.0961ZM41.6009 20.0078C41.5266 20.1666 41.5683 20.2805 41.7241 20.3499C41.6829 20.2359 41.6419 20.1218 41.6009 20.0078ZM28.8478 15.5774C28.8233 15.5866 28.7989 15.5959 28.7742 15.6052C28.7767 15.7381 28.8078 15.8589 28.9623 15.93C28.9242 15.8124 28.8861 15.6949 28.8478 15.5774ZM26.3639 20.5671C26.3334 20.5565 26.3028 20.546 26.2723 20.5355C26.2359 20.6429 26.1996 20.7504 26.1633 20.8578C26.1857 20.8658 26.2082 20.8739 26.2306 20.8819C26.275 20.777 26.3195 20.672 26.3639 20.5671ZM41.8278 20.9361C41.8512 20.9292 41.8747 20.9224 41.8981 20.9154C41.8838 20.7849 41.8784 20.6508 41.7018 20.5859C41.7439 20.7026 41.7858 20.8193 41.8278 20.9361ZM25.5883 22.5136C25.768 22.3403 25.768 22.3403 25.7201 22.1077C25.6637 22.2814 25.626 22.3975 25.5883 22.5136ZM36.6827 22.6209C36.8987 22.4295 36.9019 22.4205 36.8407 22.1855C36.7854 22.3379 36.7456 22.4475 36.6827 22.6209ZM29.0402 16.1283C29.0035 16.3462 29.0035 16.3462 29.1801 16.4961C29.1194 16.3366 29.0798 16.2325 29.0402 16.1283ZM28.4516 23.0097C28.5055 22.8818 28.5336 22.7876 28.407 22.688C28.3257 22.8123 28.3177 22.9043 28.4516 23.0097ZM40.2897 16.4023C40.2499 16.6153 40.2499 16.6153 40.4161 16.7394C40.3649 16.6027 40.3272 16.5025 40.2897 16.4023ZM39.5746 22.6591C39.4964 22.7923 39.4898 22.889 39.6043 22.9925C39.7226 22.8714 39.7002 22.7769 39.5746 22.6591ZM38.7515 16.8015C38.9179 16.6811 38.9183 16.6812 38.8718 16.441C38.8181 16.602 38.7848 16.7018 38.7515 16.8015ZM29.4311 17.4807C29.4565 17.4721 29.482 17.4635 29.5075 17.4548C29.4735 17.3488 29.4395 17.2429 29.4055 17.1369C29.3781 17.1462 29.3507 17.1553 29.3235 17.1646C29.3594 17.2699 29.3953 17.3754 29.4311 17.4807ZM38.2163 18.5761C38.1966 18.5705 38.1769 18.5649 38.1571 18.5592C38.0446 18.7458 38.0446 18.7458 38.0744 18.9418C38.1335 18.7895 38.1749 18.6828 38.2163 18.5761ZM37.0784 21.4955C37.1019 21.5041 37.1256 21.5127 37.1491 21.5213C37.2101 21.4212 37.3057 21.3324 37.1984 21.175C37.1584 21.2818 37.1185 21.3887 37.0784 21.4955ZM39.5599 19.9113C39.5904 19.9102 39.621 19.9092 39.6515 19.9081C39.6794 19.8128 39.6935 19.7188 39.5599 19.5793C39.5599 19.7289 39.5599 19.8201 39.5599 19.9113ZM31.0551 22.0707C31.0939 21.8327 31.0939 21.8327 30.9286 21.735C30.9798 21.8713 31.0175 21.971 31.0551 22.0707ZM40.1185 16.2274C40.1488 16.2172 40.179 16.2068 40.2093 16.1965C40.168 16.1012 40.2048 15.9737 40.0194 15.9345C40.0525 16.0322 40.0855 16.1297 40.1185 16.2274ZM42.1754 21.6473C42.1458 21.6583 42.1162 21.6694 42.0866 21.6805C42.1317 21.7937 42.1769 21.9069 42.222 22.0203C42.2459 22.0114 42.2699 22.0026 42.2937 21.9936C42.2542 21.8781 42.2148 21.7627 42.1754 21.6473ZM30.246 19.6436C30.2061 19.8023 30.2554 19.9 30.3622 20.0075C30.4037 19.8502 30.3777 19.7447 30.246 19.6436ZM29.7771 18.4651C29.8033 18.4559 29.8294 18.4466 29.8556 18.4374C29.8199 18.3339 29.7842 18.2302 29.7485 18.1267C29.7215 18.1363 29.6946 18.1459 29.6676 18.1554C29.7041 18.2587 29.7405 18.3619 29.7771 18.4651ZM26.181 21.099C26.1612 21.0923 26.1416 21.0856 26.1217 21.0788C26.0085 21.2721 26.0085 21.2721 26.0309 21.4857C26.0959 21.3186 26.1385 21.2088 26.181 21.099ZM27.0945 18.508C27.0638 18.4947 27.0331 18.4815 27.0026 18.4682C26.9685 18.5667 26.9345 18.6652 26.9004 18.7636C26.9242 18.7732 26.9478 18.7828 26.9716 18.7923C27.0125 18.6974 27.0535 18.6027 27.0945 18.508ZM39.6406 19.0278C39.613 19.0289 39.5852 19.0301 39.5575 19.0312C39.5603 19.1292 39.4832 19.2331 39.6406 19.3555C39.6406 19.2233 39.6406 19.1255 39.6406 19.0278ZM37.2768 20.971C37.4465 20.8193 37.4465 20.8193 37.4052 20.6126C37.3507 20.7647 37.3138 20.8678 37.2768 20.971ZM30.6647 21.0009C30.6912 20.9937 30.7176 20.9865 30.7441 20.9792C30.7301 20.8694 30.7388 20.7507 30.5702 20.6998C30.6016 20.8003 30.6331 20.9006 30.6647 21.0009ZM31.1821 22.2517C31.1719 22.4502 31.1719 22.4502 31.3202 22.5724C31.2894 22.4427 31.3129 22.3223 31.1821 22.2517ZM30.1082 19.1577C30.0825 19.1674 30.0569 19.1771 30.0311 19.1868C30.0691 19.2869 30.1069 19.3871 30.1449 19.4871C30.1694 19.4778 30.1939 19.4686 30.2184 19.4594C30.1817 19.3588 30.1449 19.2583 30.1082 19.1577ZM41.4163 19.5082C41.3333 19.6586 41.3802 19.7607 41.5291 19.825C41.4914 19.7194 41.4538 19.6138 41.4163 19.5082ZM38.5634 17.5716C38.5394 17.5648 38.5153 17.558 38.4912 17.5512C38.448 17.6427 38.3871 17.7301 38.4636 17.8519C38.4968 17.7585 38.5301 17.6651 38.5634 17.5716ZM40.6726 17.4181C40.6393 17.4272 40.606 17.4363 40.5726 17.4455C40.6142 17.5583 40.6559 17.6711 40.6978 17.784C40.7218 17.7757 40.7459 17.7674 40.7701 17.7591C40.7377 17.6455 40.7052 17.5317 40.6726 17.4181ZM39.6215 17.4383C39.5987 17.4391 39.5758 17.4399 39.553 17.4408C39.5425 17.541 39.474 17.6491 39.6215 17.7677C39.6215 17.6324 39.6215 17.5353 39.6215 17.4383ZM28.3855 20.7167C28.4124 20.7139 28.4393 20.7113 28.4662 20.7085C28.4788 20.6187 28.541 20.5234 28.3855 20.421C28.3855 20.5395 28.3855 20.6282 28.3855 20.7167ZM28.4579 19.0646C28.4316 19.0672 28.4055 19.0697 28.3792 19.0724C28.3832 19.1708 28.3151 19.2762 28.4865 19.3583C28.477 19.2604 28.4675 19.1624 28.4579 19.0646ZM26.8762 18.9514C26.7509 19.1077 26.7514 19.1079 26.7885 19.2786C26.8577 19.1748 26.9308 19.0886 26.8762 18.9514ZM28.3893 22.1228C28.519 22.0224 28.5246 21.9283 28.3893 21.7797C28.3893 21.9349 28.3893 22.0289 28.3893 22.1228ZM27.9721 16.0046C27.9523 15.9928 27.9324 15.9812 27.9126 15.9694C27.8361 16.0524 27.7949 16.1463 27.8734 16.2792C27.9063 16.1876 27.9392 16.096 27.9721 16.0046ZM28.4015 20.9431C28.3762 21.0862 28.3151 21.1837 28.4542 21.2964C28.5021 21.1726 28.5277 21.0773 28.4015 20.9431ZM38.1974 18.3417C38.2192 18.35 38.2409 18.3583 38.2628 18.3667C38.3209 18.2814 38.3813 18.1969 38.3026 18.0685C38.2675 18.1596 38.2324 18.2506 38.1974 18.3417ZM39.5613 21.2962C39.6614 21.136 39.6614 21.136 39.5613 21.0148C39.5613 21.1211 39.5613 21.2087 39.5613 21.2962ZM27.0843 18.2524C27.1081 18.2606 27.1321 18.2688 27.1559 18.277C27.1926 18.1732 27.2295 18.0694 27.2662 17.9654C27.2405 17.9566 27.2149 17.9477 27.1892 17.939C27.1542 18.0434 27.1193 18.1479 27.0843 18.2524ZM26.7262 19.5272C26.6969 19.5157 26.6674 19.5042 26.6381 19.4927C26.609 19.5894 26.5797 19.6861 26.5505 19.7829C26.5735 19.7906 26.5964 19.7985 26.6194 19.8063C26.655 19.7133 26.6907 19.6203 26.7262 19.5272ZM27.7927 16.4917C27.7633 16.4838 27.734 16.476 27.7047 16.4681C27.6732 16.564 27.6416 16.6599 27.6101 16.7559C27.6359 16.7651 27.6617 16.7742 27.6875 16.7834C27.7225 16.6861 27.7576 16.589 27.7927 16.4917ZM31.4308 23.1005C31.4567 23.0908 31.4827 23.0811 31.5086 23.0714C31.4742 22.9653 31.4399 22.859 31.4055 22.7528C31.3783 22.7621 31.351 22.7715 31.3238 22.7808C31.3594 22.8874 31.3951 22.9939 31.4308 23.1005ZM36.5325 23.0718C36.695 22.928 36.695 22.928 36.6601 22.723C36.6079 22.8658 36.5702 22.9689 36.5325 23.0718ZM37.8308 19.6458C37.8039 19.6361 37.777 19.6263 37.7501 19.6166C37.7236 19.7197 37.6277 19.8024 37.7259 19.9447C37.7609 19.8451 37.7958 19.7454 37.8308 19.6458ZM28.3873 18.8182C28.4106 18.8164 28.4337 18.8146 28.4569 18.8128C28.4803 18.7175 28.5088 18.6216 28.3873 18.4833C28.3873 18.6316 28.3873 18.7248 28.3873 18.8182ZM39.6408 20.4141C39.6201 20.4143 39.5996 20.4146 39.579 20.4148C39.5441 20.5119 39.4736 20.6095 39.6408 20.7415C39.6408 20.6072 39.6408 20.5107 39.6408 20.4141ZM40.5087 17.2554C40.5314 17.2455 40.554 17.2357 40.5767 17.2257C40.5622 17.1167 40.5642 17 40.3966 16.9596C40.434 17.0583 40.4713 17.1568 40.5087 17.2554ZM37.4542 20.4549C37.4783 20.4649 37.5025 20.4748 37.5266 20.4847C37.5677 20.3816 37.6087 20.2787 37.6498 20.1756C37.6266 20.166 37.6033 20.1565 37.5799 20.1469C37.5381 20.2496 37.4961 20.3523 37.4542 20.4549ZM39.0303 16.0015C38.998 16.0902 38.9656 16.1788 38.9333 16.2675C39.0881 16.2209 39.0893 16.1215 39.0303 16.0015ZM25.7944 21.9166C25.9613 21.7911 25.9597 21.7905 25.9088 21.6036C25.8622 21.731 25.8284 21.8238 25.7944 21.9166ZM39.5622 18.2749C39.5908 18.2745 39.6196 18.2739 39.6482 18.2735C39.6424 18.1854 39.6368 18.0971 39.631 18.0089C39.608 18.0102 39.5851 18.0114 39.5622 18.0127C39.5622 18.1001 39.5622 18.1876 39.5622 18.2749ZM29.5768 17.6516C29.5509 17.6595 29.5251 17.6674 29.4991 17.6753C29.5291 17.7709 29.5591 17.8666 29.589 17.9622C29.6142 17.9546 29.6393 17.9471 29.6644 17.9395C29.6351 17.8435 29.606 17.7476 29.5768 17.6516ZM28.3784 17.9857C28.3784 18.0818 28.3784 18.1779 28.3784 18.3242C28.504 18.1772 28.4754 18.0811 28.3784 17.9857ZM28.361 17.7329C28.3857 17.735 28.4103 17.7372 28.4348 17.7393C28.4818 17.646 28.5011 17.5543 28.3763 17.4142C28.3696 17.5558 28.3653 17.6444 28.361 17.7329ZM39.6105 16.4271C39.5922 16.4268 39.5739 16.4265 39.5556 16.4263C39.5556 16.5059 39.5556 16.5856 39.5556 16.6653C39.5739 16.6653 39.5922 16.6653 39.6105 16.6653C39.6105 16.5859 39.6105 16.5065 39.6105 16.4271ZM26.5341 20.0475C26.5109 20.0401 26.4875 20.0327 26.4642 20.0252C26.4357 20.1145 26.4071 20.2037 26.3786 20.293C26.4004 20.3 26.422 20.3071 26.4437 20.3142C26.4738 20.2252 26.504 20.1364 26.5341 20.0475ZM39.5625 18.7922C39.6588 18.7058 39.6548 18.6305 39.5446 18.5662C39.5507 18.6414 39.5566 18.7168 39.5625 18.7922ZM41.0563 18.4836C41.0273 18.4922 40.9981 18.5009 40.9691 18.5095C41.004 18.6145 41.039 18.7194 41.0739 18.8245C41.1003 18.8163 41.1266 18.808 41.153 18.7998C41.1207 18.6943 41.0885 18.5889 41.0563 18.4836ZM39.6268 16.9465C39.6047 16.9469 39.5827 16.9473 39.5607 16.9477C39.5238 17.0356 39.5021 17.1216 39.6268 17.2286C39.6268 17.11 39.6268 17.0282 39.6268 16.9465ZM27.6047 16.9736C27.5797 16.9673 27.5545 16.9609 27.5294 16.9545C27.4956 17.0485 27.4323 17.1359 27.4514 17.2416C27.473 17.2473 27.4945 17.2531 27.5161 17.2588C27.5455 17.1638 27.5751 17.0687 27.6047 16.9736ZM29.2213 16.6404C29.1957 16.6528 29.1701 16.6653 29.1445 16.6778C29.1745 16.7767 29.1598 16.8966 29.3268 16.9344C29.2916 16.8365 29.2564 16.7383 29.2213 16.6404ZM27.4483 17.4551C27.4199 17.444 27.3914 17.4327 27.3631 17.4217C27.3334 17.5167 27.3037 17.6116 27.2741 17.7067C27.2975 17.7145 27.3207 17.7224 27.3441 17.7301C27.3786 17.6385 27.4135 17.5468 27.4483 17.4551ZM38.7559 17.0374C38.7319 17.0282 38.7078 17.0192 38.6837 17.0101C38.6494 17.1063 38.6152 17.2023 38.5809 17.2985C38.6016 17.3064 38.6222 17.3141 38.6428 17.322C38.6804 17.2271 38.7181 17.1323 38.7559 17.0374ZM39.9616 15.7219C39.9861 15.7138 40.0105 15.706 40.035 15.6979C40.0079 15.6137 39.9806 15.5295 39.9535 15.4453C39.9289 15.4533 39.9043 15.4614 39.8798 15.4694C39.907 15.5537 39.9343 15.6378 39.9616 15.7219ZM28.4657 19.7076C28.3529 19.7833 28.3222 19.8537 28.4657 19.9408C28.4657 19.8409 28.4657 19.7743 28.4657 19.7076ZM39.2917 15.3091C39.314 15.3182 39.3362 15.3275 39.3584 15.3366C39.3794 15.2662 39.4001 15.1959 39.4211 15.1255C39.4032 15.1198 39.3853 15.1142 39.3672 15.1086C39.3421 15.1753 39.3169 15.2423 39.2917 15.3091ZM28.4214 15.9415C28.4007 15.9436 28.3799 15.9458 28.3591 15.9479C28.3628 16.0146 28.3667 16.0814 28.3704 16.148C28.3875 16.1473 28.4044 16.1466 28.4214 16.1459C28.4214 16.0777 28.4214 16.0096 28.4214 15.9415ZM28.3793 17.194C28.4062 17.1922 28.4329 17.1905 28.4597 17.1887C28.4534 17.1082 28.447 17.0277 28.4406 16.9472C28.4202 16.9488 28.3997 16.9506 28.3793 16.9523C28.3793 17.0328 28.3793 17.1133 28.3793 17.194ZM39.1086 15.7571C39.1332 15.7702 39.1577 15.7833 39.1823 15.7964C39.205 15.7255 39.2277 15.6545 39.2504 15.5836C39.2314 15.5767 39.2125 15.5697 39.1935 15.5628C39.1653 15.6277 39.1369 15.6924 39.1086 15.7571Z" fill="white"/>
<path d="M24.2447 50C23.6378 49.8307 23.027 49.7194 22.4775 49.335C21.05 48.3365 19.5886 47.3867 18.1379 46.4221C15.8592 44.9071 13.5777 43.3963 11.2981 41.8825C9.77287 40.8698 8.24808 39.8564 6.72591 38.8391C6.5813 38.7425 6.4327 38.6886 6.26195 38.6729C6.00025 38.6488 5.73951 38.614 5.46777 38.5825C5.45814 38.4795 5.44053 38.4023 5.44534 38.3265C5.49914 37.493 5.72479 36.7323 6.35716 36.142C6.65271 35.8662 6.97577 35.7253 7.40244 35.905C7.48871 36.128 7.5875 36.374 7.67914 36.6226C7.7705 36.8705 7.91745 37.0648 8.13292 37.2252C9.67325 38.3717 11.2073 39.5266 12.7436 40.6784C14.7132 42.1552 16.6789 43.6374 18.654 45.1069C20.2734 46.3118 21.904 47.5012 23.529 48.6986C23.5916 48.7448 23.6648 48.7913 23.7014 48.8561C23.9046 49.2157 24.098 49.5808 24.2949 49.9442C24.2782 49.963 24.2615 49.9814 24.2447 50ZM21.6708 48.0369C21.6814 48.022 21.6921 48.007 21.7027 47.992C21.6166 47.9276 21.5311 47.8622 21.4441 47.799C19.979 46.7345 18.5135 45.6705 17.0484 44.6059C14.8507 43.0091 12.6524 41.413 10.4557 39.8145C9.54846 39.1542 8.64599 38.4873 7.73913 37.8262C7.49642 37.6493 7.22289 37.5472 6.92211 37.5147C7.1135 37.7595 7.27737 38.006 7.53577 38.1853C9.64546 39.6503 11.7443 41.1311 13.8504 42.6016C16.3922 44.3762 18.9378 46.1452 21.4822 47.9164C21.5433 47.9592 21.6078 47.997 21.6708 48.0369Z" fill="white"/>
<path d="M6.99823 33.6806C6.76033 33.4161 6.81399 33.096 7.09729 32.9642C7.40206 32.8224 7.76736 32.9735 7.9011 33.2977C8.02686 33.6027 7.99026 33.9086 7.84661 34.1874C7.73998 34.3946 7.58987 34.5847 7.43315 34.7587C7.27561 34.9336 7.08477 35.0778 6.91113 35.2382C6.81977 35.3225 6.70337 35.389 6.72359 35.5506C6.72841 35.5884 6.66663 35.6485 6.62191 35.6767C5.82388 36.1782 5.49256 36.9604 5.32897 37.8448C5.31659 37.9116 5.30186 37.978 5.28233 38.0735C5.09589 38.0869 4.91262 38.1091 4.72907 38.1103C4.59547 38.1113 4.51979 38.1673 4.44426 38.2755C4.24709 38.5579 4.04139 38.8354 3.82262 39.101C3.6549 39.3047 3.42209 39.4166 3.16617 39.4727C2.91121 39.5287 2.67676 39.4762 2.47202 39.3139C2.24954 39.1375 2.18693 38.8111 2.32631 38.5944C2.46088 38.3853 2.68102 38.3727 2.85879 38.594C2.78835 38.5834 2.74459 38.5715 2.70084 38.5711C2.53132 38.5697 2.43721 38.6505 2.42125 38.8059C2.40447 38.9688 2.49927 39.1293 2.65364 39.1254C2.80252 39.1217 2.97891 39.0909 3.09242 39.0044C3.55239 38.6538 3.88935 38.2137 3.93641 37.6054C3.98525 36.9744 4.13894 36.3776 4.48636 35.8414C4.82456 35.3194 5.28095 34.9412 5.86007 34.7231C6.16318 34.6089 6.47345 34.5129 6.78455 34.4224C7.18453 34.3062 7.411 34.035 7.51172 33.6414C7.5263 33.5843 7.5391 33.5246 7.53896 33.4661C7.53827 33.3067 7.43783 33.1863 7.30244 33.1722C7.16595 33.1579 7.04473 33.2535 7.01474 33.4121C6.99919 33.494 7.00373 33.5795 6.99823 33.6806Z" fill="white"/>
<path d="M34.4558 7.6407C34.3488 7.64929 34.2822 7.65871 34.2153 7.6594C34.0007 7.66134 33.786 7.6601 33.5462 7.6601C33.5462 7.57127 33.5417 7.50628 33.5469 7.44198C33.5917 6.88989 33.6339 6.33739 33.6871 5.786C33.7046 5.60474 33.6645 5.48168 33.5158 5.3553C33.075 4.98045 33.0309 4.40689 33.4041 3.9561C33.5356 3.79715 33.5688 3.65234 33.5481 3.44836C33.5196 3.1683 33.553 2.88172 33.5602 2.57699C33.9105 2.55842 34.2207 2.54179 34.5462 2.52461C34.6123 2.72097 34.5465 2.92288 34.5183 3.12354C34.4897 3.32849 34.4461 3.53123 34.4008 3.78011C34.4357 3.80561 34.4967 3.83914 34.5442 3.88667C34.9685 4.31127 34.9622 4.93611 34.5018 5.32426C34.3331 5.46644 34.2932 5.60252 34.3141 5.80512C34.3627 6.27739 34.3935 6.75145 34.4304 7.22483C34.4401 7.35232 34.4461 7.48009 34.4558 7.6407ZM34.0131 5.13358C34.3071 5.1279 34.542 4.89634 34.545 4.60893C34.5481 4.30337 34.3078 4.07043 33.9963 4.07722C33.6937 4.08387 33.4675 4.33233 33.4799 4.64427C33.4903 4.90867 33.7412 5.13885 34.0131 5.13358Z" fill="white"/>
<path d="M1.54125 32.7404C2.04112 32.8049 2.22742 32.9836 2.06259 33.2579C2.20967 33.2816 2.38428 33.1537 2.49022 33.3425C2.35456 33.7216 2.21655 34.1069 2.07332 34.5072C1.79043 34.4708 1.69632 34.2271 1.55708 34.0361C1.18145 34.0021 1.09326 33.9312 0.97424 33.5508C0.693003 33.5916 0.418921 33.5653 0.202215 33.3385C0.0650366 33.1948 0.0098625 33.0193 0.000919063 32.8274C-0.0188941 32.4034 0.283394 32.0752 0.737996 32.021C1.16687 31.97 1.41632 32.1894 1.54125 32.7404Z" fill="white"/>
<path d="M33.5081 7.91728C33.8497 7.91728 34.1411 7.91728 34.466 7.91728C34.5397 8.35463 34.5759 8.78768 34.5865 9.2454C34.179 9.2454 33.7944 9.2454 33.3788 9.2454C33.4226 8.79433 33.4643 8.36696 33.5081 7.91728Z" fill="white"/>
<path d="M19.4204 17.1674C19.0366 17.9521 18.4722 18.5727 17.694 18.9988C17.8073 18.8937 17.9217 18.7902 18.0332 18.6834C18.161 18.5607 18.2891 18.4382 18.4111 18.3101C18.5264 18.1889 18.6373 18.0633 18.744 17.9342C18.8568 17.7977 18.9637 17.656 19.0706 17.5146C19.1705 17.3826 19.2671 17.248 19.3652 17.1146C19.3836 17.1322 19.4021 17.1498 19.4204 17.1674Z" fill="white"/>
</svg>
