<svg width="61" height="61" viewBox="0 0 61 61" fill="none" xmlns="http://www.w3.org/2000/svg">
<path d="M11.75 23C5.54675 23 0.5 17.9532 0.5 11.75C0.5 5.54675 5.54675 0.5 11.75 0.5C17.9532 0.5 23 5.54675 23 11.75C23 17.9532 17.9532 23 11.75 23ZM11.75 5.50025C8.30225 5.50025 5.50025 8.3045 5.50025 11.75C5.50025 15.1955 8.30225 17.9997 11.75 17.9997C15.1977 17.9997 17.9997 15.1955 17.9997 11.75C17.9997 8.3045 15.1977 5.50025 11.75 5.50025Z" fill="#0A0A0A"/>
<path d="M49.25 60.5C43.0467 60.5 38 55.4532 38 49.25C38 43.0467 43.0467 38 49.25 38C55.4532 38 60.5 43.0467 60.5 49.25C60.5 55.4532 55.4532 60.5 49.25 60.5ZM49.25 43.0002C45.8022 43.0002 43.0002 45.8022 43.0002 49.25C43.0002 52.6977 45.8022 55.4997 49.25 55.4997C52.6977 55.4997 55.4997 52.6977 55.4997 49.25C55.4997 45.8022 52.6977 43.0002 49.25 43.0002Z" fill="#0A0A0A"/>
<path d="M16.7502 60.5C7.79 60.5 0.5 53.21 0.5 44.2497C0.5 35.2902 7.79 28.0002 16.7502 28.0002H28.0002V16.7502C28.0002 7.79 35.2902 0.5 44.2497 0.5C53.21 0.5 60.5 7.79 60.5 16.7502C60.5 25.7105 53.21 33.0005 44.2497 33.0005H32.9997V44.2505C32.9997 53.21 25.7097 60.5 16.7502 60.5ZM16.7502 32.9997C10.547 32.9997 5.50025 38.0465 5.50025 44.2497C5.50025 50.453 10.547 55.4997 16.7502 55.4997C22.9535 55.4997 28.0002 50.453 28.0002 44.2497V32.9997H16.7502ZM32.9997 28.0002H44.2497C50.453 28.0002 55.4997 22.9535 55.4997 16.7502C55.4997 10.547 50.453 5.50025 44.2497 5.50025C38.0465 5.50025 32.9997 10.547 32.9997 16.7502V28.0002Z" fill="#0A0A0A"/>
</svg>
