<svg width="75" height="75" viewBox="0 0 75 75" fill="none" xmlns="http://www.w3.org/2000/svg">
<path d="M75 25.9394C75 22.5136 72.2128 19.7264 68.787 19.7264C65.8203 19.7264 63.3338 21.8174 62.7205 24.6026L16.5223 14.3398C16.5791 13.2054 16.1912 11.7055 15.4683 10.6591C21.3311 6.17722 28.57 3.71921 35.978 3.71921C41.4331 3.71921 46.6393 4.97898 51.452 7.46335C56.0449 9.8342 60.0989 13.2908 63.1761 17.4599C63.3916 17.7517 63.7239 17.9062 64.0608 17.9061C64.2875 17.9061 64.5161 17.8362 64.7124 17.6913C65.2005 17.331 65.3042 16.6432 64.9438 16.155C61.6676 11.7161 57.3505 8.03552 52.4597 5.51086C47.4045 2.90139 41.7053 1.52209 35.9779 1.52209C28 1.52209 20.2055 4.19822 13.9244 9.07366C12.906 8.34387 11.66 7.91248 10.3146 7.91248C6.88872 7.91248 4.10156 10.6996 4.10156 14.1255C4.10156 15.677 4.67461 17.0963 5.61826 18.1863C1.94062 23.9546 0 30.6118 0 37.5C0 44.4237 1.95952 51.1095 5.67334 56.8979C4.69673 57.9958 4.10171 59.4404 4.10171 61.022C4.10171 64.4478 6.88887 67.235 10.3147 67.235C11.7042 67.235 12.9888 66.7763 14.0249 66.0025C20.2869 70.8288 28.045 73.478 35.978 73.478C43.9163 73.478 51.6792 70.8258 57.9447 65.9935C58.9828 66.7727 60.2717 67.235 61.6665 67.235C65.0924 67.235 67.8795 64.4478 67.8795 61.022C67.8795 59.4332 67.2793 57.9823 66.2946 56.8825C70.0017 51.0977 71.9575 44.4171 71.9575 37.5C71.9575 35.5032 71.7917 33.5043 71.4653 31.5447C73.5542 30.5424 75 28.4067 75 25.9394ZM61.5806 26.6001L42.2584 47.7407C41.2582 47.0522 40.048 46.6479 38.7445 46.6479C37.5354 46.6479 36.4068 46.9964 35.4511 47.5963L29.919 37.7803C31.1522 36.6442 31.9267 35.0171 31.9267 33.2119C31.9267 29.7861 29.1396 26.9989 25.7137 26.9989C24.3656 26.9989 23.1176 27.4318 22.0983 28.1641L14.4309 18.7737C15.1345 18.15 15.6959 17.3698 16.06 16.4878L61.5806 26.6001ZM34.729 52.8609C34.729 50.6467 36.5304 48.8452 38.7447 48.8452C40.9589 48.8452 42.7604 50.6467 42.7604 52.8609C42.7604 55.0752 40.9589 56.8766 38.7447 56.8766C36.5303 56.8766 34.729 55.0752 34.729 52.8609ZM21.698 33.2121C21.698 30.9978 23.4995 29.1964 25.7137 29.1964C27.928 29.1964 29.7294 30.9978 29.7294 33.2121C29.7294 35.4263 27.928 37.2278 25.7137 37.2278C23.4995 37.2278 21.698 35.4263 21.698 33.2121ZM10.3147 10.1097C12.529 10.1097 14.3304 11.9112 14.3304 14.1255C14.3304 16.3397 12.529 18.1412 10.3147 18.1412C8.10044 18.1412 6.29897 16.3397 6.29897 14.1255C6.29897 11.9112 8.10044 10.1097 10.3147 10.1097ZM7.33813 19.5773C8.78057 20.3847 10.7757 20.597 12.5354 19.9265L20.5569 29.7505C19.8902 30.7403 19.5006 31.9315 19.5006 33.2119C19.5006 35.056 20.309 36.7142 21.5892 37.8531L13.9992 56.0232C12.9675 55.2608 11.6931 54.809 10.3147 54.809C9.26528 54.809 8.27637 55.0715 7.40859 55.5328C3.99653 50.1406 2.19727 43.9298 2.19727 37.5C2.19727 31.1157 3.97192 24.9433 7.33813 19.5773ZM6.29897 61.022C6.29897 58.8077 8.10044 57.0063 10.3147 57.0063C12.529 57.0063 14.3304 58.8077 14.3304 61.022C14.3304 63.2363 12.529 65.0377 10.3147 65.0377C8.10044 65.0377 6.29897 63.2363 6.29897 61.022ZM15.5323 64.3888C16.161 63.4179 16.5278 62.2623 16.5278 61.022C16.5278 60.2291 16.377 59.4712 16.1049 58.7733L24.647 57.4094C25.2461 57.3137 25.6542 56.7505 25.5587 56.1512C25.4629 55.5521 24.8994 55.1445 24.3006 55.2395L16.1653 56.5384L23.4872 39.0105C24.179 39.2771 24.9293 39.4248 25.7139 39.4248C26.545 39.4248 27.3379 39.2595 28.0632 38.9622L33.7881 49.12C33.0003 50.1614 32.5318 51.4573 32.5318 52.8608C32.5318 53.2188 32.5639 53.5692 32.6224 53.9108L29.3708 54.4299C28.7717 54.5256 28.3636 55.0889 28.4591 55.6881C28.5454 56.2284 29.0123 56.6136 29.5427 56.6136C29.6002 56.6136 29.6587 56.609 29.7173 56.5996L33.3937 56.0125C34.476 57.8427 36.4688 59.0735 38.7447 59.0735C40.5139 59.0735 42.1116 58.3289 43.2442 57.138L55.5081 60.2133C55.302 61.3832 55.6802 63.2868 56.4415 64.3762C50.5875 68.8349 43.3641 71.2803 35.9782 71.2803C28.599 71.2807 21.3822 68.8396 15.5323 64.3888ZM61.6667 65.0377C59.4524 65.0377 57.651 63.2363 57.651 61.022C57.651 58.8077 59.4524 57.0063 61.6667 57.0063C63.881 57.0063 65.6824 58.8077 65.6824 61.022C65.6824 63.2363 63.881 65.0377 61.6667 65.0377ZM69.7603 37.5C69.7603 43.9257 67.9632 50.1335 64.5552 55.5239C63.6916 55.0683 62.7091 54.809 61.6667 54.809C59.2901 54.809 57.2219 56.151 56.1773 58.1163L44.5034 55.189C44.7954 54.4695 44.9577 53.684 44.9577 52.8609C44.9577 51.5311 44.5362 50.2986 43.822 49.2868L63.0299 28.2712C63.9813 30.6489 66.558 32.3887 69.3327 32.1271C69.6152 33.8969 69.7603 35.6991 69.7603 37.5ZM68.787 29.9552C66.5728 29.9552 64.7713 28.1537 64.7713 25.9394C64.7713 23.7252 66.5728 21.9237 68.787 21.9237C71.0013 21.9237 72.8027 23.7252 72.8027 25.9394C72.8027 28.1537 71.0013 29.9552 68.787 29.9552Z" fill="#0A0A0A"/>
</svg>
