<svg width="75" height="75" viewBox="0 0 75 75" fill="none" xmlns="http://www.w3.org/2000/svg">
<g clip-path="url(#clip0_3_6428)">
<path d="M64.4104 37.5564H57.7869C57.1802 37.5564 56.6883 38.0483 56.6883 38.655C56.6883 39.2618 57.1802 39.7537 57.7869 39.7537H64.4104C64.5835 39.7537 64.6951 39.8442 64.7462 39.8981C64.795 39.9495 64.8754 40.0598 64.8668 40.2211C64.049 55.4244 51.4704 67.3336 36.2303 67.3337C32.826 67.3337 29.5154 66.7484 26.4132 65.6275C26.8499 64.296 27.087 62.8748 27.087 61.3991C27.087 53.8995 20.9856 47.798 13.4859 47.798C12.018 47.798 10.5961 48.0359 9.25855 48.4745C8.13706 45.3715 7.55113 42.0601 7.55127 38.6547C7.55142 23.4147 19.4607 10.8359 34.6639 10.0182C34.8251 10.0102 34.9355 10.09 34.9869 10.1388C35.0408 10.1899 35.1314 10.3015 35.1314 10.4747V36.8713C35.1314 38.4606 36.4244 39.7537 38.0137 39.7537H52.6591C53.2658 39.7537 53.7577 39.2618 53.7577 38.655C53.7577 38.0483 53.2658 37.5564 52.6591 37.5564H38.0137C37.6359 37.5564 37.3286 37.2491 37.3286 36.8713V10.4747C37.3286 9.74766 37.026 9.04395 36.4983 8.54385C35.975 8.04786 35.2627 7.7855 34.546 7.82403C18.1768 8.70455 5.35415 22.247 5.35401 38.6547C5.35401 42.357 5.9981 45.9561 7.22959 49.3254C3.63911 51.1896 0.945707 54.6155 0.134623 58.7925C0.0189003 59.3881 0.408109 59.9647 1.00371 60.0804C1.59932 60.196 2.17603 59.8069 2.29161 59.2113C2.95796 55.7795 5.14175 52.9545 8.0628 51.3722C9.57627 54.7346 11.6999 57.8262 14.3793 60.5057C17.0594 63.1857 20.1517 65.3098 23.515 66.8232C21.5826 70.3816 17.8118 72.8027 13.4859 72.8027C10.8743 72.8027 8.32207 71.8976 6.29956 70.2539C4.30489 68.6331 2.90274 66.3671 2.35122 63.8738C2.22027 63.2813 1.6336 62.9076 1.04121 63.0382C0.448832 63.1693 0.0747108 63.7557 0.205668 64.3482C0.863822 67.3238 2.53579 70.0267 4.91368 71.9591C7.32686 73.9201 10.3711 75 13.4859 75C18.731 75 23.2915 72.0152 25.5598 67.6556C28.9291 68.8869 32.528 69.531 36.2301 69.531C52.6378 69.5309 66.1803 56.7082 67.0608 40.339C67.0994 39.6217 66.837 38.9101 66.341 38.3867C65.8411 37.859 65.1374 37.5564 64.4104 37.5564ZM15.933 58.9521C13.4566 56.4757 11.4918 53.6202 10.0876 50.5144C11.1662 50.1769 12.3086 49.9953 13.4859 49.9953C19.7739 49.9953 24.8898 55.1109 24.8898 61.3991C24.8898 62.5824 24.7083 63.7241 24.3722 64.7982C21.2659 63.3939 18.4097 61.4288 15.933 58.9521Z" fill="#0A0A0A"/>
<path d="M74.8813 29.1269C74.7155 26.085 74.1019 23.1146 73.0804 20.2996C70.085 11.9146 63.147 4.85885 54.5727 1.8004C51.7617 0.781746 48.7958 0.169734 45.7586 0.00405994C45.0298 -0.0365162 44.3099 0.22862 43.7814 0.729158C43.255 1.22764 42.9531 1.9293 42.9531 2.65411V3.48834C42.9531 4.09508 43.445 4.58697 44.0518 4.58697C44.6585 4.58697 45.1504 4.09508 45.1504 3.48834V2.65411C45.1504 2.48433 45.2393 2.37476 45.2922 2.32452C45.3465 2.2731 45.4624 2.18829 45.6389 2.19796C47.8713 2.31968 50.0623 2.70142 52.1736 3.32398L45.1504 10.3453V8.65777C45.1504 8.05103 44.6585 7.55914 44.0518 7.55914C43.445 7.55914 42.9531 8.05103 42.9531 8.65777V29.05C42.9531 30.6394 44.2461 31.9324 45.8355 31.9324H72.2314C72.9562 31.9324 73.6579 31.6305 74.1563 31.1042C74.6567 30.5755 74.921 29.8549 74.8813 29.1269ZM57.3369 29.7351L69.4895 17.5837C69.9566 18.4793 70.3772 19.3979 70.7466 20.3373L61.3461 29.7353H57.3369V29.7351ZM50.2199 29.7351L66.7066 13.2498C67.2975 14.01 67.8489 14.7968 68.3578 15.6079L54.2292 29.7351H50.2199ZM45.1504 20.5708L59.2262 6.49493C60.0389 7.0025 60.8272 7.55299 61.5892 8.14288L45.1504 24.5803V20.5708ZM54.4892 4.11632C55.4296 4.48385 56.3497 4.90206 57.2465 5.36729L45.1504 17.4634V13.4526L54.4892 4.11632ZM45.1504 29.05V27.6876L63.2811 9.55836C63.638 9.88121 63.9884 10.2128 64.3305 10.555C64.6586 10.8832 64.9775 11.2189 65.288 11.5608L47.1123 29.7353H45.8354C45.4577 29.7351 45.1504 29.4278 45.1504 29.05ZM72.5608 29.5933C72.5106 29.6462 72.4012 29.7351 72.2313 29.7351H64.4541L71.5422 22.6489C72.1759 24.7795 72.5645 26.9918 72.6874 29.2464C72.6969 29.4219 72.6123 29.5391 72.5608 29.5933Z" fill="#0A0A0A"/>
</g>
<defs>
<clipPath id="clip0_3_6428">
<rect width="75" height="75" fill="white"/>
</clipPath>
</defs>
</svg>
