<svg width="44" height="44" viewBox="0 0 44 44" fill="none" xmlns="http://www.w3.org/2000/svg">
<path d="M28.1482 6.25297C27.5152 5.45447 26.2931 6.38481 26.9092 7.20517C31.4987 12.9495 30.4775 21.9644 24.7316 26.5654C22.7683 28.1734 21.8081 30.652 21.9509 33.1695C21.9508 33.1695 12.6685 33.1695 12.6685 33.1695C11.6466 33.1815 11.6388 34.7169 12.6686 34.732C12.6685 34.732 21.9508 34.732 21.9508 34.732V36.1114C21.9508 36.6416 21.5198 37.0727 20.9895 37.0727H10.5052C9.97537 37.0727 9.5443 36.6416 9.5443 36.1114V32.5103C9.5443 30.1932 8.54409 28.0372 6.79963 26.5952C-2.70596 18.7704 1.87879 3.21326 14.1236 1.77914C17.7943 1.36482 21.4046 2.36656 24.2946 4.59053C24.6368 4.85374 25.1273 4.79042 25.3902 4.4471C25.6534 4.1053 25.5893 3.61473 25.2475 3.35152C22.0355 0.880357 18.0228 -0.224377 13.9491 0.225755C0.346641 1.82307 -4.76459 19.097 5.80455 27.7992C7.18834 28.9435 7.9818 30.6602 7.9818 32.5103V36.1114C7.9818 37.2444 8.73706 38.1942 9.76702 38.5122C10.0959 41.5233 12.6525 43.875 15.7497 43.875C18.8474 43.875 21.4044 41.5225 21.7325 38.5107C22.7601 38.1912 23.5133 37.2427 23.5133 36.1114C23.5133 36.1038 23.5133 33.9533 23.5133 33.947C23.5133 33.9469 23.5133 32.5103 23.5133 32.5103C23.5133 30.6693 24.322 28.9405 25.732 27.7663C32.1147 22.6544 33.2488 12.6346 28.1482 6.25297ZM15.7497 42.3125C13.5582 42.3125 11.7353 40.7218 11.3647 38.6352H20.1347C19.764 40.7218 17.9412 42.3125 15.7497 42.3125Z" fill="#5F4841"/>
<path d="M19.0777 10.4612C20.9543 11.7374 23.5965 10.0781 23.2944 7.85565C23.209 7.0493 22.7749 6.33825 22.1035 5.90337C17.3203 2.81041 11.0295 3.60463 7.14535 7.79393C0.217486 15.2475 5.68059 27.5483 15.7545 27.4784C17.966 27.487 23.0021 26.4375 23.2942 23.6487C23.5951 21.4233 20.958 19.7685 19.0777 21.0432C12.793 24.8082 6.3426 16.8992 11.205 11.4598C13.2527 9.2954 16.5638 8.87502 19.0777 10.4612ZM10.0697 21.1179C12.6297 23.8241 16.7691 24.3482 19.9112 22.3645C21.1376 21.5518 22.5219 23.3559 21.2551 24.288C11.0419 30.5135 0.535548 17.8372 8.29133 8.85587C11.6689 5.21165 17.1331 4.54451 21.2548 7.21563C21.629 7.45748 21.7198 7.82369 21.7404 8.02053C21.8683 8.99031 20.7386 9.69946 19.9116 9.13973C12.0074 4.45749 4.01041 14.2731 10.0697 21.1179Z" fill="#5F4841"/>
<path d="M43.0942 29.2502C42.5017 29.2502 42.02 28.8016 42.02 28.25C42.02 27.8182 41.6701 27.4688 41.2387 27.4688H30.1059C29.6744 27.4688 29.3246 27.8182 29.3246 28.25C29.3246 28.8016 28.8428 29.2502 28.2504 29.2502C27.819 29.2502 27.4692 29.5996 27.4692 30.0315V31.9731C27.4261 37.1462 30.6831 42.3894 35.6723 43.875C37.6806 43.3345 39.4489 41.9904 40.8458 40.3892C42.7993 38.0789 43.8754 35.0897 43.8754 31.9731V30.0315C43.8754 29.5996 43.5256 29.2502 43.0942 29.2502ZM42.3129 31.9731C42.347 36.3704 39.7527 40.6692 35.6723 42.2591C31.093 40.4945 28.6634 35.5093 29.0318 30.6982C29.8507 30.4503 30.5 29.8247 30.762 29.0312H40.5826C40.8446 29.8247 41.4939 30.4503 42.3129 30.6983V31.9731Z" fill="#5F4841"/>
<path d="M37.4632 32.7757L34.8905 35.3484L33.8804 34.3382C33.1564 33.619 32.0555 34.7175 32.7757 35.443C32.7757 35.443 34.3382 37.0055 34.3382 37.0055C34.6433 37.3106 35.1377 37.3106 35.4429 37.0055L38.5679 33.8805C39.286 33.1563 38.1897 32.0555 37.4632 32.7757Z" fill="#5F4841"/>
</svg>
