<svg width="75" height="58" viewBox="0 0 75 58" fill="none" xmlns="http://www.w3.org/2000/svg">
<path d="M67.9031 5.82863C72.1956 10.3855 74.5006 15.4998 74.5006 23.7903C74.5006 38.3711 64.2651 51.4427 49.3731 57.9032L45.6535 52.1632C59.5506 44.644 62.2664 34.8911 63.3522 28.7415C61.1147 29.8986 58.1856 30.3053 55.3143 30.0394C47.796 29.3423 41.8706 23.1703 41.8706 15.4998C41.8706 7.44567 48.3997 0.916504 56.4539 0.916504C60.9251 0.916504 65.2006 2.96004 67.9031 5.82863ZM26.2363 5.82863C30.5289 10.3855 32.8339 15.4998 32.8339 23.7903C32.8339 38.3711 22.5984 51.4427 7.70643 57.9032L3.98689 52.1632C17.8837 44.644 20.5998 34.8911 21.6854 28.7415C19.4479 29.8986 16.519 30.3053 13.6476 30.0394C6.12939 29.3423 0.204102 23.1703 0.204102 15.4998C0.204102 7.44567 6.73327 0.916504 14.7874 0.916504C19.2585 0.916504 23.5341 2.96004 26.2363 5.82863Z" fill="#D4AF37"/>
</svg>
