<svg width="75" height="75" viewBox="0 0 75 75" fill="none" xmlns="http://www.w3.org/2000/svg">
<g clip-path="url(#clip0_1_1587)">
<path d="M58.5652 61.4692L47.9062 72.1282C47.4713 72.5632 46.8929 72.8027 46.2779 72.8027C45.6629 72.8027 45.0846 72.5632 44.6497 72.1282C44.2147 71.6933 43.9752 71.1151 43.9752 70.5C43.9752 69.8848 44.2147 69.3066 44.6497 68.8717L45.4179 68.1035C47.3856 66.1358 47.3856 62.9342 45.4179 60.9665C43.45 58.9986 40.2484 58.9986 38.2809 60.9665L36.8567 62.3905C35.4058 63.8414 33.4768 64.6404 31.425 64.6404C29.3732 64.6404 27.4442 63.8413 25.9933 62.3905C24.5424 60.9397 23.7435 59.0106 23.7435 56.9587C23.7435 54.9069 24.5426 52.9779 25.9933 51.527L29.2686 48.2517C29.6977 47.8227 29.6977 47.127 29.2686 46.698C28.8395 46.269 28.1438 46.269 27.7149 46.698L24.4396 49.9733C20.5878 53.8251 20.5878 60.0925 24.4396 63.9444C26.3055 65.8103 28.7863 66.8379 31.4251 66.8379C34.0639 66.8379 36.5448 65.8103 38.4107 63.9444L39.8349 62.5203C40.9459 61.4095 42.7534 61.4095 43.8643 62.5203C44.9752 63.6312 44.9752 65.4388 43.8643 66.5498L43.0961 67.318C42.2461 68.1679 41.7779 69.298 41.7779 70.5C41.7779 71.7019 42.246 72.832 43.0961 73.6819C43.946 74.5319 45.0761 75.0001 46.2781 75.0001C47.4802 75.0001 48.6102 74.532 49.4602 73.6819L60.1192 63.0229C60.5483 62.5939 60.5483 61.8982 60.1192 61.4692C59.69 61.0402 58.9943 61.0402 58.5652 61.4692Z" fill="#0A0A0A"/>
<path d="M14.51 41.7328L1.7245 54.5183C0.162147 56.0806 0.162147 58.6227 1.7245 60.1851C2.50575 60.9663 3.53178 61.3569 4.55782 61.3569C5.58386 61.3569 6.61005 60.9663 7.39115 60.1851L20.1766 47.3996C21.739 45.8372 21.739 43.2951 20.1766 41.7328C18.6143 40.1704 16.0723 40.1704 14.51 41.7328ZM18.6229 45.8457L5.83744 58.6312C5.13193 59.3367 3.98386 59.3367 3.2782 58.6312C2.57255 57.9257 2.57269 56.7777 3.2782 56.072L16.0637 43.2865C16.4165 42.9337 16.88 42.7574 17.3433 42.7574C17.8067 42.7574 18.2702 42.9337 18.6229 43.2865C19.3284 43.9922 19.3284 45.1402 18.6229 45.8457Z" fill="#0A0A0A"/>
<path d="M74.4453 15.757C74.4453 10.2698 69.981 5.8056 64.4938 5.8056C59.0066 5.8056 54.5425 10.2698 54.5425 15.757C54.5425 17.0955 54.8097 18.3722 55.2911 19.5391C54.6128 19.946 53.9727 20.44 53.3886 21.0241L49.0458 25.3668C47.8979 26.5148 46.03 26.5148 44.8819 25.3668C43.734 24.2188 43.734 22.3508 44.8819 21.2028L49.2247 16.86C51.0906 14.9941 52.1182 12.5134 52.1182 9.87445C52.1182 7.23567 51.0906 4.75481 49.2247 2.88892C45.3729 -0.962973 39.1054 -0.962973 35.2536 2.88892L18.1505 19.992C14.2988 23.8438 14.2988 30.1112 18.1505 33.9631C22.4623 38.2755 29.1602 37.4984 32.7792 33.3053C33.9273 32.1575 35.7951 32.1574 36.9431 33.3053C37.4992 33.8614 37.8055 34.6009 37.8055 35.3873C37.8055 36.1737 37.4994 36.9132 36.9431 37.4692L31.3442 43.0682C30.9151 43.4973 30.9151 44.193 31.3442 44.6219C31.7732 45.051 32.4689 45.051 32.8979 44.6219L38.4968 39.0229C39.4679 38.0518 40.0028 36.7607 40.0028 35.3873C40.0028 34.0139 39.4679 32.7227 38.4968 31.7515C36.4922 29.7468 33.2303 29.7467 31.2253 31.7515C28.1606 35.4085 22.8449 35.5577 19.7042 32.4092C16.7092 29.4142 16.7092 24.5409 19.7042 21.5457L36.8073 4.44263C38.2582 2.99176 40.1872 2.19278 42.2391 2.19278C44.2909 2.19278 46.22 2.99191 47.6708 4.44263C49.1217 5.8935 49.9207 7.82252 49.9207 9.8743C49.9207 11.9261 49.1215 13.8551 47.6708 15.306L43.328 19.6488C41.3233 21.6535 41.3233 24.9156 43.328 26.9204C45.3328 28.9252 48.5948 28.9253 50.5995 26.9204L54.9423 22.5776C55.3723 22.1477 55.845 21.7766 56.3497 21.465C58.6199 24.8285 63.3994 26.6356 67.5374 25.2305C67.8763 26.105 68.0557 27.0432 68.0557 28.0093C68.0557 30.0611 67.2565 31.9901 65.8058 33.441L50.1041 49.143C49.1508 50.0961 48.626 51.3635 48.626 52.7114C48.626 54.0593 49.1508 55.3268 50.1041 56.2799C51.0572 57.2331 52.3246 57.758 53.6725 57.758C55.0204 57.758 56.2878 57.2331 57.2409 56.2799L60.4556 53.0653C60.8905 52.6304 61.4689 52.3909 62.0839 52.3909C62.6988 52.3909 63.2772 52.6304 63.7121 53.0653C64.6098 53.9632 64.6098 55.424 63.7121 56.3217L62.2047 57.8293C61.7756 58.2584 61.7756 58.9541 62.2047 59.383C62.4192 59.5976 62.7004 59.7049 62.9816 59.7049C63.2627 59.7049 63.544 59.5976 63.7584 59.383L65.2658 57.8755C67.0204 56.1209 67.0204 53.266 65.2658 51.5115C64.4159 50.6615 63.2857 50.1933 62.0837 50.1933C60.8817 50.1933 59.7517 50.6614 58.9016 51.5115L55.6869 54.726C55.1487 55.2642 54.4333 55.5606 53.6722 55.5606C52.9112 55.5606 52.1957 55.2642 51.6575 54.726C51.1194 54.1878 50.8231 53.4723 50.8231 52.7113C50.8231 51.9502 51.1194 51.2346 51.6575 50.6966L67.3594 34.9947C69.2253 33.1288 70.2529 30.6481 70.2529 28.0091C70.2529 26.7264 70.0081 25.4817 69.5443 24.3262C72.4748 22.5927 74.4453 19.4015 74.4453 15.757ZM64.4938 23.5111C62.0389 23.5111 59.8484 22.363 58.4266 20.5771C61.2269 19.8358 64.5408 20.8116 66.4173 23.2694C65.802 23.4268 65.1576 23.5111 64.4938 23.5111ZM68.5011 22.3929C66.1687 18.8475 61.1856 17.2539 57.2929 18.6274C56.9376 17.7389 56.7399 16.7709 56.7399 15.757C56.7399 11.4815 60.2183 8.003 64.4938 8.003C68.7694 8.003 72.2479 11.4815 72.2479 15.757C72.2479 18.5672 70.7451 21.0327 68.5011 22.3929Z" fill="#0A0A0A"/>
<path d="M9.14363 14.7453C11.6082 14.7453 13.6134 12.7401 13.6134 10.2755C13.6134 7.81086 11.6082 5.80566 9.14363 5.80566C6.67903 5.80566 4.67383 7.81086 4.67383 10.2755C4.67383 12.7401 6.67903 14.7453 9.14363 14.7453ZM9.14363 8.00306C10.3966 8.00306 11.416 9.02236 11.416 10.2755C11.416 11.5286 10.3967 12.5479 9.14363 12.5479C7.89053 12.5479 6.87123 11.5286 6.87123 10.2755C6.87123 9.02236 7.89067 8.00306 9.14363 8.00306Z" fill="#0A0A0A"/>
</g>
<defs>
<clipPath id="clip0_1_1587">
<rect width="75" height="75" fill="white"/>
</clipPath>
</defs>
</svg>
