<svg width="75" height="75" viewBox="0 0 75 75" fill="none" xmlns="http://www.w3.org/2000/svg">
<path d="M75 25.9393C75 22.5135 72.2128 19.7263 68.787 19.7263C65.8203 19.7263 63.3338 21.8172 62.7205 24.6025L16.5223 14.3396C16.5791 13.2053 16.1912 11.7054 15.4683 10.6589C21.3311 6.1771 28.57 3.71909 35.978 3.71909C41.4331 3.71909 46.6393 4.97886 51.452 7.46323C56.0449 9.83408 60.0989 13.2907 63.1761 17.4598C63.3916 17.7516 63.7239 17.9061 64.0608 17.906C64.2875 17.906 64.5161 17.8361 64.7124 17.6912C65.2005 17.3309 65.3042 16.6431 64.9438 16.1549C61.6676 11.716 57.3505 8.0354 52.4597 5.51074C47.4045 2.90127 41.7053 1.52197 35.9779 1.52197C28 1.52197 20.2055 4.1981 13.9244 9.07354C12.906 8.34375 11.66 7.91235 10.3146 7.91235C6.88872 7.91235 4.10156 10.6995 4.10156 14.1253C4.10156 15.6769 4.67461 17.0962 5.61826 18.1862C1.94062 23.9544 0 30.6117 0 37.4999C0 44.4236 1.95952 51.1094 5.67334 56.8978C4.69673 57.9957 4.10171 59.4403 4.10171 61.0219C4.10171 64.4477 6.88887 67.2349 10.3147 67.2349C11.7042 67.2349 12.9888 66.7762 14.0249 66.0023C20.2869 70.8287 28.045 73.4779 35.978 73.4779C43.9163 73.4779 51.6792 70.8256 57.9447 65.9934C58.9828 66.7726 60.2717 67.2349 61.6665 67.2349C65.0924 67.2349 67.8795 64.4477 67.8795 61.0219C67.8795 59.4331 67.2793 57.9822 66.2946 56.8824C70.0017 51.0976 71.9575 44.417 71.9575 37.4999C71.9575 35.5031 71.7917 33.5042 71.4653 31.5445C73.5542 30.5423 75 28.4065 75 25.9393ZM61.5806 26.5999L42.2584 47.7406C41.2582 47.0521 40.048 46.6478 38.7445 46.6478C37.5354 46.6478 36.4068 46.9963 35.4511 47.5961L29.919 37.7802C31.1522 36.6441 31.9267 35.0169 31.9267 33.2118C31.9267 29.786 29.1396 26.9988 25.7137 26.9988C24.3656 26.9988 23.1176 27.4317 22.0983 28.164L14.4309 18.7736C15.1345 18.1499 15.6959 17.3697 16.06 16.4877L61.5806 26.5999ZM34.729 52.8608C34.729 50.6465 36.5304 48.8451 38.7447 48.8451C40.9589 48.8451 42.7604 50.6465 42.7604 52.8608C42.7604 55.0751 40.9589 56.8765 38.7447 56.8765C36.5303 56.8765 34.729 55.0751 34.729 52.8608ZM21.698 33.212C21.698 30.9977 23.4995 29.1962 25.7137 29.1962C27.928 29.1962 29.7294 30.9977 29.7294 33.212C29.7294 35.4262 27.928 37.2277 25.7137 37.2277C23.4995 37.2277 21.698 35.4262 21.698 33.212ZM10.3147 10.1096C12.529 10.1096 14.3304 11.9111 14.3304 14.1253C14.3304 16.3396 12.529 18.1411 10.3147 18.1411C8.10044 18.1411 6.29897 16.3396 6.29897 14.1253C6.29897 11.9111 8.10044 10.1096 10.3147 10.1096ZM7.33813 19.5772C8.78057 20.3846 10.7757 20.5969 12.5354 19.9264L20.5569 29.7504C19.8902 30.7402 19.5006 31.9314 19.5006 33.2118C19.5006 35.0559 20.309 36.7141 21.5892 37.853L13.9992 56.0231C12.9675 55.2606 11.6931 54.8089 10.3147 54.8089C9.26528 54.8089 8.27637 55.0714 7.40859 55.5327C3.99653 50.1404 2.19727 43.9296 2.19727 37.4999C2.19727 31.1156 3.97192 24.9432 7.33813 19.5772ZM6.29897 61.0219C6.29897 58.8076 8.10044 57.0062 10.3147 57.0062C12.529 57.0062 14.3304 58.8076 14.3304 61.0219C14.3304 63.2361 12.529 65.0376 10.3147 65.0376C8.10044 65.0376 6.29897 63.2361 6.29897 61.0219ZM15.5323 64.3887C16.161 63.4178 16.5278 62.2622 16.5278 61.0219C16.5278 60.229 16.377 59.471 16.1049 58.7732L24.647 57.4093C25.2461 57.3136 25.6542 56.7504 25.5587 56.1511C25.4629 55.552 24.8994 55.1443 24.3006 55.2394L16.1653 56.5383L23.4872 39.0104C24.179 39.277 24.9293 39.4247 25.7139 39.4247C26.545 39.4247 27.3379 39.2594 28.0632 38.9621L33.7881 49.1199C33.0003 50.1612 32.5318 51.4572 32.5318 52.8606C32.5318 53.2187 32.5639 53.569 32.6224 53.9106L29.3708 54.4298C28.7717 54.5254 28.3636 55.0888 28.4591 55.6879C28.5454 56.2283 29.0123 56.6134 29.5427 56.6134C29.6002 56.6134 29.6587 56.6089 29.7173 56.5995L33.3937 56.0124C34.476 57.8426 36.4688 59.0733 38.7447 59.0733C40.5139 59.0733 42.1116 58.3288 43.2442 57.1378L55.5081 60.2131C55.302 61.3831 55.6802 63.2867 56.4415 64.3761C50.5875 68.8348 43.3641 71.2802 35.9782 71.2802C28.599 71.2806 21.3822 68.8395 15.5323 64.3887ZM61.6667 65.0376C59.4524 65.0376 57.651 63.2361 57.651 61.0219C57.651 58.8076 59.4524 57.0062 61.6667 57.0062C63.881 57.0062 65.6824 58.8076 65.6824 61.0219C65.6824 63.2361 63.881 65.0376 61.6667 65.0376ZM69.7603 37.4999C69.7603 43.9255 67.9632 50.1334 64.5552 55.5237C63.6916 55.0682 62.7091 54.8089 61.6667 54.8089C59.2901 54.8089 57.2219 56.1508 56.1773 58.1162L44.5034 55.1889C44.7954 54.4693 44.9577 53.6839 44.9577 52.8608C44.9577 51.531 44.5362 50.2985 43.822 49.2867L63.0299 28.271C63.9813 30.6488 66.558 32.3886 69.3327 32.127C69.6152 33.8968 69.7603 35.699 69.7603 37.4999ZM68.787 29.955C66.5728 29.955 64.7713 28.1536 64.7713 25.9393C64.7713 23.725 66.5728 21.9236 68.787 21.9236C71.0013 21.9236 72.8027 23.725 72.8027 25.9393C72.8027 28.1536 71.0013 29.955 68.787 29.955Z" fill="#0A0A0A"/>
</svg>
