<svg width="75" height="75" viewBox="0 0 75 75" fill="none" xmlns="http://www.w3.org/2000/svg">
<g clip-path="url(#clip0_3_6983)">
<path d="M71.2475 0H33.385C31.4492 0 29.8743 1.57485 29.8743 3.5105V22.5155C28.7969 22.3808 27.6996 22.3106 26.5863 22.3106C12.0599 22.3106 0.241699 34.1288 0.241699 48.6552C0.241699 63.1816 12.0599 75 26.5863 75C41.1129 75 52.9311 63.1818 52.9311 48.6554C52.9459 36.1285 44.078 25.4626 32.0717 22.8867V3.5105C32.0717 2.78643 32.6609 2.19727 33.3851 2.19727H71.2477C71.9717 2.19727 72.5609 2.78643 72.5609 3.5105V41.373C72.5609 42.0971 71.9719 42.6863 71.2477 42.6863H56.5553C55.9484 42.6863 55.4566 43.1782 55.4566 43.7849C55.4566 44.3917 55.9484 44.8835 56.5553 44.8835H71.2477C73.1833 44.8835 74.7582 43.3087 74.7582 41.373V3.5105C74.758 1.57485 73.1832 0 71.2475 0ZM26.5863 72.8027C13.2715 72.8027 2.43896 61.9702 2.43896 48.6554C2.43896 35.3405 13.2713 24.508 26.5863 24.508C27.7015 24.508 28.7988 24.5858 29.8743 24.7329V41.373C29.8743 43.3087 31.4492 44.8835 33.385 44.8835H50.4385C50.6322 46.1128 50.7338 47.3725 50.7338 48.6554C50.7338 61.9702 39.9013 72.8027 26.5863 72.8027ZM49.9866 42.6863H33.385C32.6609 42.6863 32.0716 42.0971 32.0716 41.373V25.1369C40.8281 27.1786 47.7691 33.998 49.9866 42.6863Z" fill="#0A0A0A"/>
<path d="M8.48271 18.1663H16.1849C17.4758 18.1663 18.5261 17.116 18.5261 15.8251V8.123C18.5261 6.83203 17.4758 5.78174 16.1849 5.78174H8.48271C7.19189 5.78174 6.1416 6.83203 6.1416 8.123V15.8251C6.1416 17.116 7.19189 18.1663 8.48271 18.1663ZM8.33887 8.12285C8.33887 8.04346 8.40332 7.97886 8.48271 7.97886H16.1849C16.2643 7.97886 16.3289 8.04346 16.3289 8.12285V15.825C16.3289 15.9044 16.2643 15.9688 16.1849 15.9688H8.48271C8.40332 15.9688 8.33887 15.9042 8.33887 15.825V8.12285Z" fill="#0A0A0A"/>
<path d="M62.2119 55.9268C58.5472 55.9268 55.5659 58.9082 55.5659 62.5728C55.5659 65.0977 56.9672 67.3728 59.2232 68.5102C59.7649 68.7835 60.4257 68.5656 60.6989 68.0239C60.9719 67.482 60.7542 66.8214 60.2126 66.5482C58.7019 65.7865 57.7632 64.263 57.7632 62.5726C57.7632 60.1196 59.7589 58.1239 62.2119 58.1239C64.6649 58.1239 66.6606 60.1196 66.6606 62.5726C66.6606 64.2755 65.6676 65.8515 64.1307 66.5876C63.5836 66.8498 63.3524 67.5059 63.6147 68.053C63.8033 68.4472 64.1966 68.6773 64.6062 68.6773C64.7654 68.6773 64.927 68.6426 65.0801 68.5692C67.3751 67.47 68.8579 65.1162 68.8579 62.5725C68.8579 58.9082 65.8767 55.9268 62.2119 55.9268Z" fill="#0A0A0A"/>
</g>
<defs>
<clipPath id="clip0_3_6983">
<rect width="75" height="75" fill="white"/>
</clipPath>
</defs>
</svg>
