<svg width="21" height="24" viewBox="0 0 21 24" fill="none" xmlns="http://www.w3.org/2000/svg">
<path d="M6.7057 11.8073C7.06352 12.0127 7.23863 12.0481 7.5357 11.9717C7.48087 11.9636 7.42624 11.9532 7.37114 11.9476C7.06399 11.9165 6.8075 11.7974 6.63683 11.5318C6.51843 11.3476 6.39821 11.1643 6.28761 10.9755C6.15638 10.7515 5.99712 10.5514 5.80454 10.3769C5.77336 10.3487 5.73781 10.3252 5.69877 10.2954C5.67707 10.3255 5.65886 10.3466 5.64508 10.3704C5.36212 10.8584 5.02097 11.3049 4.65039 11.7296C4.49953 11.9025 4.3343 12.0629 4.10328 12.1323C4.04999 12.1483 3.99691 12.1648 3.94698 12.1954C4.03649 12.1954 4.12599 12.1954 4.23465 12.1954C4.21637 12.2579 4.20306 12.3113 4.18532 12.3632C3.96828 12.9975 3.66402 13.5862 3.25775 14.1233C3.01914 14.4388 2.78712 14.7593 2.55724 15.0811C2.47445 15.1969 2.40141 15.3204 2.33321 15.4453C2.24854 15.6004 2.2429 15.766 2.31231 15.9272C2.3912 16.1104 2.48178 16.2888 2.56571 16.4699C2.59924 16.5422 2.62853 16.6164 2.65985 16.69C2.54508 16.7684 2.43998 16.8403 2.32857 16.9165C2.31305 16.8609 2.29988 16.8137 2.28664 16.7665C2.25842 16.9757 2.11993 17.1276 2.03304 17.3031C1.97626 17.4178 1.93151 17.5385 1.88535 17.6581C1.8451 17.7624 1.7857 17.7844 1.70983 17.7044C1.65144 17.6429 1.6046 17.5783 1.511 17.5625C1.48486 17.558 1.46047 17.5082 1.44696 17.4746C1.42949 17.4312 1.42378 17.3831 1.4137 17.3401C1.36539 17.3345 1.2994 17.3456 1.27608 17.3196C1.24255 17.2819 1.23624 17.2179 1.22562 17.1638C1.21856 17.1279 1.22428 17.0895 1.22428 17.0228C1.19155 17.0737 1.17361 17.1017 1.15197 17.1353C1.05588 17.0963 1.01684 17.0198 1.01872 16.9324C1.02121 16.8196 1.02806 16.703 1.05897 16.5953C1.16064 16.241 1.32279 15.9148 1.53774 15.6122C1.62208 15.4934 1.68773 15.3579 1.74081 15.222C1.99326 14.5753 2.24175 13.9271 2.4852 13.2771C2.66616 12.7939 2.88683 12.3317 3.18424 11.9076C3.24969 11.8143 3.32461 11.7275 3.39403 11.6368C3.41708 11.6067 3.4414 11.5762 3.45692 11.5422C3.5891 11.2522 3.71959 10.9615 3.84982 10.6706C3.8652 10.6363 3.87589 10.5999 3.89336 10.552C3.66462 10.465 3.53796 10.2877 3.45672 10.0706C3.37756 9.85914 3.34975 9.67975 3.38187 9.53401C3.3994 9.54272 3.41647 9.54751 3.4287 9.55783C3.6577 9.75066 3.92723 9.85861 4.2167 9.92074C4.55504 9.99337 4.898 10.0317 5.24419 10.042C5.31428 10.0441 5.3843 10.0479 5.45499 10.0665C5.03562 10.2289 4.59435 10.2453 4.15361 10.2759C4.30513 10.3231 4.46042 10.3427 4.61773 10.345C5.13554 10.3531 5.64394 10.2791 6.13588 10.1265C6.61143 9.97901 7.0777 9.80207 7.54807 9.63818C7.58745 9.62447 7.62722 9.6119 7.66674 9.5988C7.67554 9.60937 7.68441 9.61995 7.69321 9.63059C7.66667 9.64609 7.63986 9.66119 7.61365 9.67715C7.56057 9.70955 7.50715 9.74148 7.45507 9.7754C7.3196 9.8636 7.31497 9.93225 7.44069 10.0374C7.55136 10.1299 7.6836 10.1687 7.82612 10.1748C8.13207 10.188 8.41624 10.1188 8.67407 9.9518C8.69792 9.93637 8.72366 9.92367 8.74899 9.91036C8.75114 9.90923 8.75632 9.91362 8.77278 9.92167C8.62098 10.1562 8.40515 10.3168 8.17413 10.46C7.93901 10.6056 7.67527 10.6624 7.40064 10.6861C7.59705 10.7646 7.79306 10.7504 7.99035 10.7091C8.36907 10.6298 8.65808 10.4087 8.91456 10.1367C9.10641 9.93324 9.25054 9.69857 9.36773 9.44681C9.38695 9.40557 9.40858 9.36546 9.43533 9.31258C9.48095 9.47967 9.41067 9.79629 9.26505 10.1154C9.14961 10.3684 9.00239 10.6003 8.80463 10.7995C8.60828 10.9972 8.38116 11.1539 8.14188 11.2962C8.59726 11.2138 8.96597 10.9855 9.2623 10.6404C9.55971 10.2942 9.71278 9.88748 9.76701 9.4337C9.78676 9.48565 9.80396 9.53867 9.82674 9.58929C9.87741 9.7017 9.9186 9.82076 9.98546 9.92313C10.2105 10.2674 10.7064 10.2696 10.9411 9.92865C11.0912 9.71055 11.1286 9.46849 11.0254 9.22331C10.9632 9.07565 10.8692 8.94088 10.7879 8.80127C10.6252 8.5217 10.4494 8.24871 10.3027 7.96123C10.2089 7.77745 10.1574 7.57251 10.0824 7.36451C10.0057 7.70128 9.90019 8.02655 9.67233 8.30033C9.67905 8.2712 9.68254 8.24087 9.69302 8.21313C9.88776 7.69716 9.99567 7.16323 10.0198 6.61394C10.0244 6.50997 10.0647 6.46148 10.1554 6.4271C10.3019 6.37155 10.4452 6.3077 10.6026 6.24205C10.6387 6.48383 10.666 6.70932 10.7684 6.91845C10.7351 6.62591 10.7276 6.33464 10.7784 6.03964C10.9113 6.45497 10.98 6.89564 11.2999 7.24598C11.2462 6.95151 11.1957 6.67427 11.1452 6.39703C11.1563 6.39244 11.1674 6.38792 11.1786 6.38333C11.2526 6.50299 11.3267 6.62265 11.4007 6.74238C11.4105 6.73793 11.4204 6.73347 11.4302 6.72901C11.4168 6.68764 11.4056 6.64534 11.3896 6.60496C11.2943 6.36504 11.2243 6.11906 11.2018 5.86124C11.2006 5.84707 11.1984 5.8329 11.1973 5.81874C11.1792 5.58945 11.2737 5.52108 11.5051 5.5979C11.4929 5.67473 11.3288 5.67154 11.4036 5.8041C12.1765 5.22854 12.9692 4.69155 13.8655 4.31167C13.708 4.32977 13.5504 4.34786 13.3688 4.36874C13.394 4.30615 13.4096 4.26338 13.4282 4.22194C13.7658 3.46891 14.1785 2.75678 14.6293 2.06561C14.9155 1.62667 15.2025 1.18819 15.4943 0.752844C15.546 0.675685 15.6123 0.599457 15.6894 0.549237C16.0429 0.319024 16.407 0.1081 16.8278 0.0161082C16.9671 -0.0143563 17.0026 -0.0109639 17.0788 0.10983C17.1642 0.24539 17.2381 0.388135 17.3145 0.523429C17.3214 0.40483 17.316 0.392458 17.0954 0.0299437C17.1345 0.0238907 17.1699 0.021363 17.2037 0.0125829C17.3145 -0.0163518 17.3861 0.0266178 17.4383 0.123466C17.5122 0.260357 17.6192 0.382946 17.6148 0.562474C17.6415 0.533473 17.6624 0.510791 17.6872 0.483985C17.7416 0.541987 17.7527 0.606442 17.7378 0.672625C17.7222 0.741669 17.6985 0.809317 17.6735 0.875767C17.6442 0.953923 17.5799 0.992703 17.5011 1.01206C17.4339 1.02855 17.3668 1.04565 17.2689 1.07026C17.3281 1.0827 17.3548 1.08829 17.4006 1.09786C17.2716 1.2144 17.1021 1.21287 16.9848 1.30593C16.9137 1.2587 16.9199 1.20136 16.9223 1.14469C16.9315 0.936762 16.8875 0.876565 16.682 0.824349C16.6276 0.810514 16.5708 0.80619 16.5119 0.813906C16.5743 0.829205 16.6405 0.836123 16.698 0.862064C16.7568 0.888671 16.8188 0.924523 16.8584 0.973147C16.9203 1.04898 16.8888 1.13664 16.7939 1.16259C16.7162 1.18387 16.6331 1.1991 16.5531 1.19631C16.3809 1.19039 16.2092 1.17203 16.0374 1.15693C15.9809 1.15194 15.9248 1.14137 15.8631 1.15134C15.9186 1.17063 15.9741 1.18986 16.0391 1.21247C15.7077 1.70363 15.5977 2.27102 15.3945 2.80195C15.2111 3.28133 15.0292 3.76132 14.8448 4.2403C14.7013 4.61273 14.4414 4.905 14.1718 5.19036C13.5206 5.8794 12.7987 6.48889 12.0355 7.05195C11.9747 7.09685 11.9166 7.14541 11.8511 7.19722C11.8716 7.2205 11.8859 7.23687 11.9054 7.25902C11.9575 7.13583 12.0662 7.10024 12.1766 7.04344C12.1876 7.0872 12.2012 7.12126 12.2041 7.15612C12.2182 7.32919 12.1971 7.49848 12.1273 7.65831C11.9773 8.00121 11.6477 8.09513 11.3346 7.886C11.2797 7.84928 11.2284 7.80718 11.1686 7.76241C10.9866 7.95425 10.8269 8.15293 10.7268 8.39412C10.6989 8.46143 10.7053 8.51957 10.7448 8.5821C10.8311 8.71899 10.9144 8.85801 10.9938 8.99895C11.2355 9.42792 11.2891 9.86826 11.0592 10.3194C10.8946 10.6424 10.6626 10.8761 10.2371 10.8676C10.3476 10.9553 10.4658 10.9398 10.5752 10.9815C10.5647 11.0642 10.5596 11.144 10.5438 11.2216C10.3992 11.9323 10.4102 12.6468 10.4806 13.3641C10.5191 13.7568 10.5424 14.1519 10.4575 14.5418C10.4234 14.6985 10.362 14.8496 10.311 15.0025C10.3028 15.0271 10.2837 15.0482 10.2499 15.0645C10.2573 15.0107 10.2633 14.9566 10.2724 14.9031C10.3384 14.5126 10.3581 14.1201 10.3358 13.7247C10.3109 13.2837 10.2871 12.8425 10.2701 12.4012C10.256 12.0349 10.2792 11.6701 10.3451 11.3086C10.3492 11.2859 10.3508 11.2628 10.3548 11.2302C10.1205 11.1665 9.88957 11.146 9.65654 11.1893C9.53935 11.2112 9.42243 11.2431 9.31115 11.2854C9.07032 11.377 8.83325 11.4782 8.60203 11.5994C8.63624 11.5926 8.67098 11.5876 8.70464 11.5786C8.89897 11.526 9.09182 11.4674 9.28757 11.4207C9.48909 11.3728 9.6943 11.3458 9.90039 11.3951C9.96389 11.4104 10.0243 11.4382 10.0853 11.4878C10.0578 11.4968 10.0309 11.5097 10.0027 11.5141C9.8293 11.5412 9.67273 11.6035 9.52705 11.7034C9.19342 11.9323 8.8393 12.1198 8.43243 12.1879C8.35838 12.2003 8.28366 12.2088 8.20827 12.2324C8.62985 12.5557 9.11716 12.5431 9.61998 12.5229C9.53243 12.5671 9.44635 12.6148 9.35678 12.6546C9.26062 12.6973 9.15949 12.7289 9.06353 12.772C8.90979 12.8411 8.8565 12.9567 8.92861 13.1081C8.97867 13.2132 9.04969 13.3145 9.13241 13.3968C9.23314 13.4969 9.35624 13.5748 9.46899 13.6632C9.49735 13.6853 9.52322 13.7105 9.56838 13.7504C9.40744 13.7576 9.27856 13.7234 9.15949 13.6692C9.00756 13.6 8.85738 13.5229 8.71781 13.4321C8.48538 13.2809 8.26209 13.1161 8.03463 12.9574C7.99741 12.9315 7.95837 12.9081 7.90017 12.9015C7.92484 12.9385 7.94775 12.9768 7.97449 13.0122C8.23884 13.3621 8.51085 13.7067 8.76633 14.0628C8.95501 14.3257 9.1226 14.6036 9.29885 14.8752C9.30544 14.8854 9.3045 14.9004 9.31344 14.9451C9.23011 14.8841 9.16298 14.8432 9.1058 14.7916C8.72655 14.4492 8.34904 14.105 7.97174 13.7605C7.87068 13.6681 7.77237 13.5728 7.66143 13.4887C7.89567 13.9093 8.20047 14.2771 8.51932 14.6336C8.83755 14.9894 9.18892 15.3092 9.59761 15.575C9.51979 15.575 9.44077 15.5837 9.36437 15.5735C9.06266 15.5329 8.79912 15.3973 8.54801 15.2357C8.07797 14.9333 7.67507 14.5528 7.29078 14.1534C7.06923 13.9232 6.86348 13.6781 6.64953 13.4407C6.60706 13.3936 6.59268 13.3524 6.6254 13.2889C6.81644 12.9182 6.84527 12.5271 6.76376 12.1236C6.74427 12.027 6.72808 11.9297 6.7057 11.8073ZM16.7038 0.580899C16.6953 0.571787 16.6868 0.56274 16.6782 0.553628C16.6122 0.614157 16.5463 0.674754 16.4803 0.735284C16.4877 0.743266 16.495 0.751248 16.5024 0.75923C16.5696 0.699831 16.6367 0.640365 16.7038 0.580899Z" fill="white"/>
<path d="M4.61947 8.86147C4.56746 8.99497 4.53023 9.09055 4.493 9.18613C4.501 9.19046 4.50906 9.19478 4.51706 9.19904C4.56121 9.12008 4.60677 9.04186 4.6493 8.96211C4.80385 8.67236 4.9578 8.38235 5.11107 8.09207C5.24587 7.83678 5.46728 7.7124 5.74876 7.69158C6.09314 7.66603 6.43825 7.64954 6.78317 7.63125C7.00357 7.61961 7.22418 7.61229 7.44465 7.60171C7.47522 7.60025 7.50539 7.59107 7.5357 7.58548C7.53543 7.57484 7.53522 7.56413 7.53496 7.55349C7.0795 7.52595 6.62412 7.49848 6.16866 7.47094C6.16423 7.46236 6.15979 7.45378 6.15536 7.4452C6.48825 7.28742 6.75985 7.06313 6.956 6.75556C7.14945 6.45204 7.26033 6.11986 7.33115 5.77324C7.32154 5.76952 7.31193 5.76586 7.30232 5.76214C7.26517 5.85346 7.22881 5.94519 7.19078 6.03618C6.97683 6.54789 6.64649 6.96229 6.15113 7.23288C6.01297 7.30831 5.86723 7.37296 5.71926 7.42731C5.33833 7.56719 5.06807 7.81869 4.90317 8.18473C4.86997 8.25836 4.83275 8.33053 4.7933 8.40111C4.7466 8.48478 4.71099 8.50068 4.61772 8.48385C4.5053 8.46363 4.41082 8.40836 4.33308 8.32707C4.24693 8.23694 4.26259 8.13298 4.28416 8.02216C4.30788 8.03094 4.32071 8.03167 4.3236 8.03739C4.37508 8.1385 4.45396 8.18879 4.56961 8.16351C4.69782 8.13551 4.78665 8.05888 4.81507 7.93137C4.8314 7.85827 4.83792 7.77905 4.82878 7.70501C4.7849 7.34981 5.01028 7.13909 5.25487 7.03672C5.29821 7.01856 5.34142 7.0002 5.3945 6.97786C5.22651 6.94693 5.01196 7.01803 4.87992 7.13869C4.73605 7.2702 4.71737 7.45178 4.68357 7.64023C4.51269 7.25343 4.78947 6.76886 5.21072 6.69895C5.32845 6.6794 5.44974 6.68179 5.56908 6.67088C5.63318 6.66503 5.69668 6.65219 5.77174 6.64082C5.75575 6.60377 5.75037 6.58607 5.74117 6.57071C5.53676 6.22988 5.59965 5.82852 5.89948 5.56431C6.04926 5.43235 6.22907 5.35539 6.41346 5.28455C6.53347 5.23845 6.6516 5.18597 6.76543 5.12664C6.81677 5.0999 6.85554 5.04968 6.88746 4.99021C6.78082 5.023 6.67411 5.05573 6.55155 5.09338C6.62513 4.94012 6.68238 4.88837 6.99275 4.68603C6.95103 4.6416 6.91413 4.59557 6.87039 4.55706C6.72269 4.42688 6.58756 4.28687 6.48509 4.11772C6.3642 3.91823 6.29842 3.70232 6.27987 3.47138C6.27584 3.42102 6.27248 3.37067 6.25555 3.32085C6.21476 3.48574 6.24164 3.65011 6.26845 3.81108C6.08521 3.86755 5.77127 3.80555 5.64944 3.69188C5.57519 3.62257 5.54791 3.53543 5.55463 3.42328C5.62478 3.43346 5.68687 3.44244 5.74977 3.45155C5.66738 3.34659 5.58218 3.2526 5.51539 3.14717C5.4793 3.09024 5.47467 3.01381 5.44698 2.91423C5.52204 2.98541 5.568 3.03822 5.62317 3.0786C5.67478 3.11638 5.73619 3.14112 5.80661 3.15802C5.64736 3.02498 5.52365 2.87472 5.50302 2.66606C5.48354 2.46857 5.51754 2.28126 5.6354 2.09063C5.6354 2.26138 5.6354 2.40831 5.6354 2.55525C5.64037 2.55638 5.64528 2.55757 5.65025 2.5587C5.65838 2.50396 5.6647 2.44889 5.67511 2.39461C5.68842 2.32477 5.69917 2.25373 5.72107 2.18641C5.89511 1.65228 6.39189 1.61723 6.71537 1.75791C6.72263 1.76104 6.72673 1.77115 6.73499 1.78133C6.59556 1.79317 6.45767 1.80494 6.31979 1.81665C6.31965 1.82709 6.31952 1.8376 6.31932 1.84804C6.41326 1.85869 6.5072 1.86939 6.61975 1.88217C6.52379 1.96298 6.44034 2.02504 6.36709 2.09728C6.29298 2.17038 6.24083 2.26018 6.20119 2.36813C6.32671 2.26517 6.43442 2.16027 6.55833 2.07999C6.68231 1.99963 6.82772 1.96385 7.01258 1.9554C6.95176 2.03123 6.90943 2.08398 6.8671 2.13672C6.87106 2.14211 6.87503 2.1475 6.87892 2.15289C6.89142 2.1457 6.90621 2.14078 6.91608 2.13094C7.14643 1.90272 7.43618 1.79383 7.7477 1.73955C8.05317 1.68634 8.35999 1.70038 8.66284 1.76842C8.85797 1.81226 9.03382 1.89567 9.18145 2.03236C9.19684 2.04659 9.21505 2.0579 9.23192 2.07054C9.23884 2.06316 9.24569 2.05577 9.25261 2.04839C9.18018 1.97828 9.10781 1.90817 9.02536 1.82829C9.06225 1.83028 9.09262 1.82742 9.12071 1.83407C9.29313 1.87498 9.43989 1.96405 9.56723 2.08291C9.68764 2.19526 9.70336 2.33807 9.68502 2.50157C9.7244 2.43937 9.76384 2.37718 9.81531 2.2959C9.8516 2.43465 9.85328 2.55272 9.80725 2.6799C9.99224 2.72865 10.0525 2.86395 10.0627 3.03157C10.0742 3.22034 10.0162 3.35311 9.86174 3.46745C9.95085 3.20139 9.92921 2.97955 9.65707 2.83448C9.68878 3.01581 9.7205 3.19713 9.75148 3.3742C9.36698 3.41344 8.99405 3.43406 8.62756 3.49386C8.26181 3.55359 7.90258 3.6525 7.54329 3.74921C8.14839 3.7135 8.7424 3.56896 9.35052 3.58578C9.35227 3.59563 9.35401 3.60541 9.35583 3.61525C8.86496 3.73072 8.37416 3.84626 7.8833 3.96173C7.88451 3.97324 7.88565 3.98475 7.88686 3.99632C8.15101 4.02506 8.41717 4.01269 8.68246 4.01541C8.95003 4.01814 9.21767 4.01601 9.48666 4.0361C8.83849 4.17878 8.17977 4.24097 7.52172 4.34101C7.55135 4.3444 7.58099 4.35039 7.61069 4.35086C8.2596 4.36123 8.90515 4.31773 9.54754 4.228C9.78326 4.19507 9.78306 4.19388 9.9286 4.37846C9.9581 4.41591 9.98935 4.45216 10.0172 4.49081C10.0785 4.57595 10.0685 4.63867 9.97947 4.69149C9.93915 4.71543 9.89077 4.72594 9.84609 4.74277C9.7551 4.77709 9.73192 4.83756 9.77788 4.9205C9.84696 5.04522 9.84696 5.04522 9.7254 5.15424C9.77473 5.22668 9.74603 5.28461 9.68341 5.34401C9.65465 5.37128 9.65055 5.42616 9.64047 5.46973C9.63664 5.48649 9.6488 5.50638 9.65122 5.52514C9.6736 5.69708 9.59578 5.79739 9.41919 5.81741C9.35757 5.82439 9.29394 5.82572 9.23239 5.81921C8.79562 5.77271 8.38465 5.65877 8.04558 5.3625C8.01709 5.33756 7.98745 5.31395 7.95191 5.29599C8.03456 5.4515 8.16277 5.56744 8.30784 5.6605C8.45581 5.75542 8.61547 5.83244 8.78695 5.92656C8.77747 5.97166 8.76625 6.03073 8.75241 6.08926C8.68105 6.39085 8.63609 6.69603 8.63757 7.00612C8.63811 7.11641 8.62964 7.23128 8.70315 7.35713C8.71693 7.2841 8.7254 7.23408 8.73588 7.18439C8.76954 7.02462 8.85408 6.90469 9.01447 6.84908C9.27687 6.75815 9.53994 6.66929 9.80295 6.58009C9.81094 6.57736 9.82136 6.58148 9.8516 6.58448C9.82949 6.71405 9.81471 6.84436 9.78433 6.971C9.60895 7.70302 9.2379 8.31217 8.62937 8.7744C8.10585 9.17203 7.53879 9.48373 6.89599 9.64496C6.03938 9.85988 5.17867 9.88496 4.31863 9.66645C4.1622 9.62674 4.01195 9.55849 3.86445 9.49131C3.79692 9.46058 3.73571 9.40737 3.68437 9.35256C3.55462 9.21394 3.57551 9.09248 3.74639 9.01273C3.8408 8.96869 3.94354 8.93337 4.04622 8.91761C4.22483 8.89027 4.40612 8.88122 4.61947 8.86147ZM8.14886 2.55551C8.32511 2.46665 8.4923 2.36727 8.67097 2.2963C8.85965 2.2214 9.0597 2.2496 9.2551 2.30115C8.91939 1.98034 7.84386 1.8839 7.43235 2.14211C7.85447 2.08165 8.25422 2.05571 8.64859 2.17224C8.2258 2.24262 7.79675 2.27501 7.40513 2.46924C7.70328 2.42687 7.99867 2.36767 8.33136 2.3517C8.25738 2.43432 8.20315 2.49485 8.14886 2.55551ZM9.59195 2.59742C9.21344 2.27448 8.66391 2.33528 8.49747 2.7071C8.79548 2.49152 8.99304 2.44177 9.21317 2.52671C8.90273 2.66965 8.90662 2.67305 8.64953 2.96213C8.54592 3.07866 8.42113 3.17671 8.30556 3.28274C8.2809 3.30535 8.25462 3.3263 8.22909 3.34799C8.26672 3.35477 8.29299 3.34659 8.31785 3.33528C8.50284 3.25081 8.6666 3.13354 8.80684 2.99C8.98706 2.80568 9.20403 2.69706 9.45165 2.63826C9.4964 2.62762 9.53994 2.61272 9.59195 2.59742ZM6.78619 5.67247C6.77867 5.66569 6.77114 5.65897 6.76355 5.65218C6.65792 5.73692 6.5457 5.81495 6.44894 5.9086C6.38201 5.97339 6.32342 6.05374 6.28377 6.13769C6.20441 6.30564 6.2327 6.47167 6.32684 6.62951C6.33793 6.24325 6.56001 5.95689 6.78619 5.67247ZM6.51761 5.51875C6.28028 5.52487 6.0629 5.57436 5.89578 5.75049C5.75951 5.89417 5.73008 6.0856 5.81931 6.26932C5.86655 5.84309 6.19487 5.68551 6.51761 5.51875ZM6.97199 3.02186C7.11458 3.15363 7.25072 3.20105 7.36361 3.18037C7.23352 3.12775 7.10275 3.07481 6.97199 3.02186ZM7.09012 3.3281C7.09409 3.32025 7.1004 3.30994 7.09946 3.30927C6.98879 3.22646 6.87751 3.14438 6.7663 3.06223C6.84271 3.19181 6.95499 3.27422 7.09012 3.3281ZM7.07278 3.72573C7.07231 3.71782 7.07178 3.70997 7.07131 3.70205C6.99403 3.70585 6.91676 3.70957 6.83948 3.71336C6.84009 3.71749 6.84069 3.72161 6.84129 3.72573C6.91844 3.72573 6.99564 3.72573 7.07278 3.72573Z" fill="white"/>
<path d="M8.94406 20.9089C8.49062 20.7623 7.45231 19.9111 6.99316 19.3278C6.4738 18.6681 6.07755 17.9415 5.77557 17.1606C5.80165 17.5751 5.92267 17.9672 6.0791 18.3466C6.23378 18.7218 6.41407 19.0867 6.59241 19.4764C6.50922 19.4229 6.43665 19.3808 6.36885 19.3321C5.87563 18.9779 5.38402 18.6216 4.89007 18.2685C4.82852 18.2245 4.80446 18.1763 4.80937 18.1015C4.88664 16.9133 5.07566 15.752 5.61921 14.6709C5.83538 14.241 6.12526 13.8657 6.44881 13.5126C6.46157 13.4987 6.47663 13.4865 6.49201 13.4754C6.49907 13.4704 6.50969 13.4703 6.53233 13.4643C6.5621 13.505 6.59489 13.5503 6.62809 13.5954C7.09288 14.2273 7.60841 14.8137 8.2131 15.3193C8.50439 15.563 8.82304 15.7643 9.17796 15.9058C9.31672 15.961 9.46032 15.9924 9.61158 15.9976C9.83393 16.0052 10.0114 15.9189 10.1634 15.7663C10.2965 15.6328 10.4022 15.4797 10.4753 15.3081C10.5625 15.1032 10.6379 14.8934 10.7192 14.6836C10.7246 14.6976 10.7373 14.7162 10.7383 14.7355C10.7602 15.1596 10.7058 15.5701 10.5072 15.9527C10.4033 16.1529 10.2602 16.319 10.0354 16.3872C9.92793 16.4199 9.81169 16.4244 9.68402 16.4439C9.79912 16.5488 9.93089 16.5944 10.0811 16.602C10.241 16.6101 10.364 16.5346 10.4972 16.4405C10.4757 16.5351 10.4583 16.6309 10.4318 16.724C10.3647 16.9594 10.2639 17.1799 10.1004 17.3657C9.92283 17.5675 9.77916 17.593 9.53988 17.4718C9.29441 17.3476 9.07986 17.1803 8.87908 16.9949C8.84978 16.9678 8.81847 16.9429 8.78527 16.9145C8.7801 16.9296 8.7762 16.9353 8.77761 16.9376C8.99364 17.2761 9.23817 17.5937 9.53968 17.8607C9.84797 18.1338 10.0927 18.0921 10.3243 17.7469C10.5176 17.4589 10.6422 17.1397 10.7356 16.8096C10.8195 16.5127 10.8849 16.2107 10.959 15.9109C10.9677 15.8754 10.9792 15.8406 11.0168 15.8063C11.033 15.9849 11.059 16.1632 11.0635 16.342C11.0846 17.1845 10.9781 18.0104 10.7088 18.812C10.6014 19.1316 10.4824 19.4474 10.3689 19.7651C10.3615 19.7859 10.357 19.8077 10.361 19.8326C10.7295 19.378 10.9199 18.8409 11.0858 18.2922C11.1799 18.6849 10.7361 21.2084 10.4694 21.869C10.4582 21.8615 10.4418 21.8569 10.4385 21.8477C10.28 21.4166 10.016 21.0489 9.7205 20.7036C9.38257 20.3086 9.03611 19.9206 8.68616 19.536C8.04908 18.8359 7.45103 18.1069 6.96373 17.2946C6.86092 17.1232 6.76879 16.9455 6.67136 16.771C6.65799 16.7471 6.64267 16.7243 6.60947 16.7073C6.61438 16.7364 6.61613 16.7665 6.62459 16.7946C6.88242 17.6466 7.27498 18.4378 7.7428 19.1932C8.09658 19.7645 8.48995 20.3094 8.90239 20.8407C8.91362 20.8551 8.92168 20.872 8.94406 20.9089ZM9.27607 18.6151C9.276 18.5558 9.24113 18.5222 9.21526 18.4872C8.86154 18.0087 8.50708 17.5309 8.15249 17.0531C7.7299 16.4837 7.28788 15.9276 6.9343 15.3108C6.92052 15.2868 6.90124 15.2658 6.87738 15.2338C6.97683 15.9043 8.48296 18.0254 9.27607 18.6151Z" fill="white"/>
<path d="M19.1806 6.78795C18.824 6.76653 18.5324 6.59725 18.2447 6.41114C18.1094 6.3236 17.9625 6.24598 17.8106 6.1927C17.3912 6.04563 17.0071 6.16822 16.7368 6.5181C16.6969 6.56971 16.6585 6.62253 16.6135 6.68272C16.556 6.61102 16.5091 6.55155 16.4613 6.49282C16.113 6.06505 15.6367 6.06212 15.2434 6.25409C15.1149 6.31675 14.9956 6.39883 14.8758 6.47765C14.6291 6.64015 14.3703 6.76933 14.0682 6.79095C14.0549 6.79188 14.0424 6.80126 14.0475 6.79913C14.0173 6.88566 13.9919 6.9585 13.9708 7.01936C14.1076 7.39984 14.2418 7.77845 14.3802 8.15553C14.4814 8.43131 14.5904 8.70436 14.6916 8.98013C14.7651 9.18015 14.829 9.38362 14.9018 9.5839C14.9759 9.78824 15.0562 9.99032 15.1326 10.1939C15.1675 10.2871 15.2 10.3812 15.2329 10.4751C15.3002 10.667 15.3657 10.8596 15.4355 11.0505C15.4495 11.0888 15.4748 11.1252 15.5021 11.1563C15.5569 11.2188 15.5664 11.2892 15.522 11.3529C15.4683 11.4301 15.4075 11.5064 15.3359 11.5669C15.02 11.834 14.6528 11.9809 14.2379 12.0169C13.7178 12.0619 13.2112 12.0275 12.7387 11.7835C12.5545 11.6885 12.3853 11.5715 12.2727 11.3914C12.1976 11.2714 12.2016 11.2423 12.2946 11.1309C12.3122 11.1098 12.3258 11.0838 12.3353 11.058C12.4468 10.7551 12.559 10.4524 12.6673 10.1484C12.8153 9.73283 12.9577 9.31538 13.1069 8.90031C13.261 8.47155 13.4202 8.04458 13.5773 7.61688C13.6149 7.51444 13.6517 7.41174 13.691 7.30991C13.7284 7.21286 13.7686 7.11681 13.8088 7.01697C13.7911 6.94307 13.7718 6.86212 13.7479 6.76221C13.7293 6.7509 13.6913 6.73161 13.6576 6.7068C13.5024 6.59233 13.4044 6.44779 13.424 6.24671C13.4438 6.0425 13.6285 5.90421 13.8314 5.9394C13.9427 5.95869 13.9982 6.01357 14.0282 6.1456C13.986 6.12079 13.9534 6.09738 13.9175 6.08135C13.8246 6.03997 13.7194 6.05986 13.667 6.12525C13.6137 6.1919 13.6119 6.29952 13.6729 6.37781C13.7709 6.50359 13.9114 6.53752 14.0596 6.51357C14.1519 6.49867 14.2452 6.46169 14.3266 6.41499C14.4507 6.34382 14.563 6.25309 14.6834 6.17534C14.8597 6.06146 15.0313 5.93741 15.2182 5.84368C15.5052 5.69981 15.8091 5.69575 16.114 5.79779C16.1593 5.81295 16.2054 5.82599 16.2516 5.83823C16.2587 5.84009 16.2684 5.83264 16.2866 5.82592C16.1855 5.55414 16.1513 5.29399 16.4688 5.11254C16.4009 5.10708 16.333 5.10163 16.2672 5.09631C16.241 4.97784 16.2513 4.82485 16.2998 4.62091C16.4958 4.62091 16.6949 4.62091 16.9147 4.62091C16.9302 4.77337 16.9456 4.92549 16.9621 5.08739C16.8765 5.09617 16.8081 5.10316 16.7322 5.11087C17.0329 5.40394 17.0441 5.44898 16.9081 5.84242C16.9629 5.83085 17.0077 5.82679 17.0484 5.81196C17.5212 5.63968 17.9442 5.75196 18.3369 6.03233C18.4847 6.13782 18.6251 6.25363 18.7751 6.35593C18.8531 6.40921 18.9415 6.45125 19.0306 6.48437C19.1777 6.53911 19.3254 6.52874 19.4572 6.43941C19.5022 6.40887 19.5439 6.36152 19.5663 6.31249C19.6298 6.17341 19.5197 6.03452 19.3667 6.0602C19.3081 6.07004 19.2536 6.10416 19.1915 6.12951C19.181 6.05913 19.2224 6.01204 19.2804 5.97472C19.4358 5.87468 19.6676 5.94346 19.7452 6.11175C19.8222 6.27884 19.7806 6.47972 19.6337 6.62093C19.579 6.67354 19.5146 6.71631 19.4617 6.75809C19.4465 6.84316 19.4321 6.92411 19.4146 7.02216C19.5617 7.416 19.7169 7.83253 19.873 8.24872C19.9829 8.54166 20.0967 8.8332 20.2038 9.1272C20.3124 9.42546 20.4131 9.72652 20.5205 10.0252C20.6006 10.248 20.6865 10.4687 20.7684 10.6908C20.811 10.8063 20.8488 10.9234 20.8925 11.0384C20.909 11.0816 20.9312 11.1245 20.9595 11.1609C21.0067 11.2218 21.0145 11.2861 20.973 11.3458C20.9219 11.4192 20.8671 11.4937 20.7999 11.5519C20.5376 11.7786 20.2306 11.9183 19.8892 11.9837C19.3794 12.0813 18.8767 12.053 18.3859 11.8846C18.1807 11.8143 17.9908 11.7087 17.836 11.5549C17.773 11.4923 17.7218 11.415 17.678 11.3374C17.6432 11.2758 17.6554 11.2126 17.7112 11.156C17.7492 11.1174 17.7806 11.0669 17.7993 11.0161C17.9391 10.6375 18.0752 10.2575 18.2119 9.87764C18.3517 9.48899 18.4901 9.0998 18.6305 8.71134C18.7902 8.26934 18.9511 7.82774 19.1122 7.3862C19.1415 7.30612 19.1691 7.2247 19.2074 7.14874C19.2454 7.07337 19.2787 7.00832 19.2087 6.92976C19.1847 6.90289 19.1914 6.84895 19.1806 6.78795ZM15.3183 11.2065C15.3062 11.1581 15.2954 11.1041 15.2788 11.0521C15.2645 11.0071 15.2417 10.9648 15.2257 10.9203C15.1072 10.59 14.9909 10.2588 14.8712 9.92893C14.7629 9.63013 14.649 9.33334 14.5417 9.03421C14.3494 8.49816 14.1602 7.96097 13.9688 7.42451C13.9671 7.41959 13.9538 7.41866 13.9335 7.41154C13.9391 7.82428 13.939 8.23269 13.9518 8.6407C13.9648 9.05417 13.9437 9.46737 13.9615 9.88123C13.9789 10.2879 13.9596 10.6962 13.9564 11.1075C14.4094 11.1405 14.857 11.173 15.3183 11.2065ZM19.3936 7.38879C19.4236 8.6262 19.41 9.8652 19.4176 11.1098C19.8627 11.1381 20.3047 11.1663 20.7693 11.1958C20.3447 9.91063 19.8471 8.65979 19.3936 7.38879ZM19.245 7.44021C19.0903 7.86658 18.9395 8.27659 18.7927 8.68799C18.6448 9.10233 18.5022 9.51852 18.3548 9.93305C18.2083 10.3451 18.0543 10.7546 17.9106 11.1808C18.3757 11.1557 18.8172 11.1319 19.259 11.1081C19.2536 11.0311 19.2304 10.9601 19.2485 10.9017C19.281 10.7974 19.2861 10.6995 19.2569 10.5957C19.2482 10.5649 19.2541 10.5298 19.255 10.4967C19.2598 10.3131 19.268 10.1295 19.2694 9.94575C19.2706 9.7907 19.2622 9.63565 19.2617 9.4806C19.2613 9.31518 19.2672 9.14968 19.2672 8.98426C19.2672 8.6866 19.2667 8.38894 19.2628 8.09134C19.2601 7.87929 19.2515 7.6673 19.245 7.44021ZM13.8022 7.48904C13.7923 7.48943 13.7826 7.48977 13.7728 7.49017C13.3403 8.71374 12.9079 9.93731 12.47 11.1758C12.9318 11.1531 13.3699 11.1315 13.8086 11.1098C13.8044 11.0325 13.7846 10.9587 13.8006 10.8936C13.8228 10.803 13.831 10.719 13.8051 10.6287C13.7938 10.5892 13.8014 10.5439 13.802 10.5013C13.8042 10.322 13.8063 10.1426 13.8102 9.96331C13.8122 9.86913 13.8227 9.77487 13.821 9.68082C13.8183 9.52065 13.8044 9.36054 13.8034 9.20044C13.8007 8.73609 13.8022 8.27167 13.8021 7.80725C13.8021 7.70122 13.8022 7.59513 13.8022 7.48904ZM19.1214 11.4512C19.1694 11.4512 19.2172 11.4512 19.2651 11.4512C19.7542 11.4514 20.2438 11.4635 20.728 11.3749C20.7797 11.3654 20.8316 11.3538 20.881 11.3366C20.9384 11.3166 20.9461 11.271 20.924 11.2205C20.9019 11.1701 20.8683 11.1455 20.8089 11.1854C20.8262 11.2261 20.8419 11.2631 20.8637 11.3144C20.2741 11.3809 19.695 11.4065 19.1214 11.4512ZM15.3793 11.1674C15.3891 11.2267 15.3954 11.2649 15.4047 11.3213C14.8423 11.362 14.2852 11.4023 13.7522 11.4409C14.0293 11.4409 14.3309 11.4497 14.6317 11.438C14.851 11.4295 15.0693 11.3957 15.2876 11.3689C15.3385 11.3627 15.392 11.3466 15.436 11.321C15.5079 11.2791 15.4912 11.2181 15.3793 11.1674ZM13.8886 6.76008C13.8528 6.79839 13.8238 6.81635 13.8156 6.84103C13.8007 6.88573 13.8443 6.9434 13.8896 6.93608C13.9194 6.93129 13.9704 6.89059 13.967 6.87908C13.9558 6.84163 13.924 6.81017 13.8886 6.76008ZM19.4289 6.85686C19.3813 6.82547 19.3543 6.79361 19.3252 6.79154C19.2761 6.78809 19.2411 6.8266 19.2523 6.87383C19.2593 6.90283 19.3033 6.94792 19.3218 6.94407C19.3548 6.93715 19.381 6.89864 19.4289 6.85686ZM12.4253 11.1773C12.4121 11.1667 12.3989 11.1561 12.3857 11.1454C12.3561 11.1716 12.3226 11.1947 12.2989 11.2252C12.2889 11.2381 12.2911 11.2756 12.3025 11.2856C12.3155 11.297 12.3573 11.2996 12.3646 11.2899C12.39 11.2562 12.4058 11.2154 12.4253 11.1773ZM20.1358 9.10525C20.1217 9.11031 20.1077 9.1153 20.0937 9.12035C20.1024 9.18008 20.1116 9.23962 20.1886 9.27161C20.171 9.21614 20.1534 9.16066 20.1358 9.10525ZM20.7526 10.9078C20.7494 10.985 20.7568 11.0431 20.8404 11.0894C20.8312 11.0106 20.8381 10.9462 20.7526 10.9078ZM12.5048 10.9182C12.4916 10.9102 12.4783 10.9023 12.4651 10.8944C12.4437 10.9488 12.4222 11.0031 12.4008 11.0574C12.4131 11.0626 12.4254 11.0678 12.4377 11.0731C12.4601 11.0214 12.4824 10.9698 12.5048 10.9182ZM20.7051 10.8297C20.7179 10.8254 20.7307 10.821 20.7436 10.8167C20.7433 10.7543 20.7366 10.6942 20.6511 10.6629C20.669 10.7185 20.687 10.7741 20.7051 10.8297ZM19.9718 8.79682C19.9831 8.66658 19.9831 8.66658 19.8961 8.60665C19.9277 8.686 19.9498 8.74141 19.9718 8.79682ZM19.3421 10.6232C19.4005 10.5653 19.3779 10.5191 19.3351 10.4521C19.3103 10.5217 19.287 10.5695 19.3421 10.6232ZM18.1237 10.4309C18.1155 10.4265 18.1073 10.4221 18.0991 10.4177C18.0311 10.5043 18.0311 10.5043 18.0489 10.6078C18.0785 10.5378 18.1011 10.4843 18.1237 10.4309ZM20.5056 10.126C20.4662 10.2026 20.4888 10.2582 20.5627 10.2964C20.5436 10.2396 20.5246 10.1828 20.5056 10.126ZM14.8897 9.6757C14.8772 9.67769 14.8647 9.67976 14.8522 9.68175C14.8415 9.74534 14.8604 9.79869 14.9364 9.83327C14.9208 9.78073 14.9052 9.72818 14.8897 9.6757ZM17.7077 11.2747C17.8365 11.2978 17.8365 11.2978 17.8175 11.1516C17.7754 11.1988 17.7455 11.2323 17.7077 11.2747ZM15.1115 10.3627C15.1097 10.2779 15.1035 10.2198 15.0322 10.1658C15.0267 10.2498 15.0419 10.3044 15.1115 10.3627ZM14.6226 8.94887C14.6099 8.95286 14.5971 8.95679 14.5844 8.96078C14.5793 9.02231 14.5971 9.07412 14.6728 9.10306C14.656 9.05164 14.6393 9.00022 14.6226 8.94887ZM18.5675 9.16611C18.5555 9.16146 18.5434 9.15674 18.5314 9.15208C18.5102 9.20549 18.4891 9.25891 18.4679 9.31232C18.4801 9.31704 18.4923 9.32183 18.5045 9.32655C18.5255 9.27307 18.5465 9.21959 18.5675 9.16611ZM20.3167 9.60373C20.2804 9.67995 20.3008 9.73463 20.3769 9.76795C20.3568 9.71321 20.3367 9.65847 20.3167 9.60373ZM14.0885 7.47713C14.0765 7.48159 14.0646 7.48604 14.0525 7.4905C14.0537 7.55429 14.0689 7.61229 14.1444 7.64641C14.1258 7.58994 14.1072 7.53354 14.0885 7.47713ZM12.8754 9.87219C12.8605 9.86713 12.8456 9.86208 12.8306 9.85702C12.8129 9.90857 12.7952 9.96019 12.7774 10.0117C12.7884 10.0156 12.7993 10.0195 12.8103 10.0233C12.832 9.97296 12.8537 9.92254 12.8754 9.87219ZM20.4275 10.0493C20.439 10.046 20.4504 10.0427 20.4619 10.0394C20.4549 9.97675 20.4523 9.91236 20.366 9.88123C20.3865 9.93724 20.407 9.99325 20.4275 10.0493ZM12.4966 10.8065C12.5844 10.7233 12.5844 10.7233 12.561 10.6117C12.5334 10.6951 12.515 10.7508 12.4966 10.8065ZM17.9148 10.858C18.0203 10.7662 18.0219 10.7618 17.992 10.649C17.9649 10.7222 17.9455 10.7748 17.9148 10.858ZM14.1824 7.7416C14.1645 7.84616 14.1645 7.84616 14.2508 7.91813C14.2211 7.84157 14.2018 7.79162 14.1824 7.7416ZM13.895 11.0447C13.9213 10.9833 13.935 10.938 13.8732 10.8902C13.8335 10.9499 13.8296 10.9941 13.895 11.0447ZM19.6763 7.8731C19.6569 7.97534 19.6569 7.97534 19.7381 8.03494C19.7131 7.96928 19.6947 7.92119 19.6763 7.8731ZM19.3271 10.8764C19.289 10.9403 19.2857 10.9867 19.3416 11.0364C19.3994 10.9783 19.3885 10.9329 19.3271 10.8764ZM18.9252 8.06473C19.0064 8.00693 19.0066 8.007 18.9839 7.89166C18.9577 7.96895 18.9414 8.01684 18.9252 8.06473ZM14.3733 8.39073C14.3858 8.38661 14.3982 8.38248 14.4106 8.37829C14.394 8.32741 14.3774 8.27659 14.3608 8.22571C14.3475 8.23016 14.3341 8.23455 14.3208 8.23901C14.3383 8.28956 14.3559 8.34018 14.3733 8.39073ZM18.6638 8.91654C18.6542 8.91382 18.6446 8.91116 18.6349 8.90843C18.5799 8.99796 18.5799 8.99796 18.5945 9.09208C18.6233 9.01898 18.6435 8.96776 18.6638 8.91654ZM18.1081 10.3178C18.1196 10.322 18.1311 10.3261 18.1426 10.3302C18.1724 10.2822 18.2191 10.2396 18.1667 10.164C18.1471 10.2153 18.1276 10.2666 18.1081 10.3178ZM19.3199 9.55743C19.3349 9.5569 19.3498 9.55643 19.3647 9.5559C19.3783 9.51014 19.3852 9.46504 19.3199 9.39806C19.3199 9.4699 19.3199 9.51366 19.3199 9.55743ZM15.1664 10.594C15.1854 10.4797 15.1854 10.4797 15.1047 10.4328C15.1297 10.4982 15.1481 10.5461 15.1664 10.594ZM19.5928 7.78916C19.6075 7.78424 19.6223 7.77925 19.6371 7.77432C19.6169 7.72856 19.6349 7.66737 19.5444 7.64854C19.5605 7.69544 19.5766 7.74226 19.5928 7.78916ZM20.5973 10.3907C20.5828 10.396 20.5684 10.4013 20.5539 10.4066C20.576 10.461 20.598 10.5153 20.62 10.5697C20.6317 10.5655 20.6434 10.5612 20.6551 10.5569C20.6358 10.5015 20.6166 10.4461 20.5973 10.3907ZM14.7713 9.42892C14.7518 9.50508 14.7759 9.55198 14.828 9.60359C14.8483 9.5281 14.8356 9.47748 14.7713 9.42892ZM14.5423 8.86327C14.5551 8.85881 14.5679 8.85435 14.5806 8.84996C14.5632 8.80027 14.5457 8.75052 14.5283 8.70083C14.5152 8.70542 14.502 8.71001 14.4888 8.7146C14.5066 8.76416 14.5244 8.81371 14.5423 8.86327ZM12.7861 10.1275C12.7764 10.1243 12.7668 10.1211 12.7571 10.1178C12.7018 10.2106 12.7018 10.2106 12.7128 10.3131C12.7445 10.2329 12.7653 10.1802 12.7861 10.1275ZM13.2322 8.88382C13.2172 8.87743 13.2022 8.87111 13.1873 8.86473C13.1707 8.91202 13.1541 8.95932 13.1374 9.00654C13.149 9.01113 13.1606 9.01572 13.1722 9.02031C13.1922 8.97475 13.2122 8.92932 13.2322 8.88382ZM19.3594 9.13332C19.3459 9.13385 19.3323 9.13445 19.3188 9.13498C19.3201 9.18201 19.2825 9.2319 19.3594 9.29063C19.3594 9.22718 19.3594 9.18022 19.3594 9.13332ZM18.205 10.0661C18.2878 9.99325 18.2878 9.99325 18.2677 9.89407C18.241 9.96704 18.223 10.0165 18.205 10.0661ZM14.9758 10.0805C14.9887 10.077 15.0016 10.0735 15.0146 10.07C15.0077 10.0173 15.012 9.96032 14.9296 9.93591C14.945 9.98413 14.9603 10.0323 14.9758 10.0805ZM15.2285 10.6808C15.2235 10.7761 15.2235 10.7761 15.2959 10.8347C15.2809 10.7725 15.2924 10.7147 15.2285 10.6808ZM14.704 9.19571C14.6914 9.20037 14.6789 9.20503 14.6664 9.20968C14.6849 9.25771 14.7034 9.3058 14.7219 9.35382C14.7339 9.34937 14.7459 9.34491 14.7578 9.34052C14.7399 9.29223 14.7219 9.24401 14.704 9.19571ZM20.2265 9.36393C20.186 9.43611 20.2089 9.48513 20.2816 9.51599C20.2632 9.46531 20.2449 9.41462 20.2265 9.36393ZM18.8333 8.43437C18.8216 8.43111 18.8098 8.42785 18.798 8.42459C18.7769 8.46849 18.7472 8.51046 18.7845 8.56893C18.8008 8.5241 18.817 8.47927 18.8333 8.43437ZM19.8634 8.36067C19.8471 8.36506 19.8308 8.36945 19.8145 8.37384C19.8349 8.42798 19.8552 8.48213 19.8756 8.53634C19.8874 8.53235 19.8992 8.52836 19.911 8.52436C19.8951 8.46982 19.8793 8.41521 19.8634 8.36067ZM19.35 8.37038C19.3389 8.37078 19.3277 8.37118 19.3166 8.37158C19.3115 8.41967 19.278 8.47155 19.35 8.52849C19.35 8.46357 19.35 8.41694 19.35 8.37038ZM13.8627 9.94402C13.8758 9.94269 13.889 9.94143 13.9021 9.9401C13.9083 9.897 13.9386 9.85123 13.8627 9.80208C13.8627 9.85895 13.8627 9.90152 13.8627 9.94402ZM13.898 9.15102C13.8852 9.15228 13.8724 9.15348 13.8596 9.15474C13.8616 9.20197 13.8283 9.25259 13.912 9.29196C13.9074 9.245 13.9028 9.19798 13.898 9.15102ZM13.1256 9.09667C13.0644 9.1717 13.0646 9.17177 13.0828 9.25372C13.1166 9.2039 13.1522 9.16252 13.1256 9.09667ZM13.8645 10.619C13.9279 10.5707 13.9306 10.5256 13.8645 10.4543C13.8645 10.5288 13.8645 10.5739 13.8645 10.619ZM13.6608 7.6822C13.6511 7.67654 13.6414 7.67096 13.6318 7.6653C13.5944 7.70515 13.5742 7.75025 13.6126 7.81403C13.6287 7.77007 13.6447 7.7261 13.6608 7.6822ZM13.8705 10.0527C13.8581 10.1214 13.8283 10.1682 13.8962 10.2223C13.9196 10.1629 13.9321 10.1171 13.8705 10.0527ZM18.6546 8.804C18.6652 8.80799 18.6758 8.81198 18.6865 8.81604C18.7148 8.77506 18.7443 8.73449 18.7059 8.6729C18.6888 8.7166 18.6716 8.7603 18.6546 8.804ZM19.3206 10.2222C19.3695 10.1453 19.3695 10.1453 19.3206 10.0871C19.3206 10.1381 19.3206 10.1802 19.3206 10.2222ZM13.2272 8.76116C13.2389 8.76509 13.2506 8.76901 13.2622 8.77294C13.2801 8.72312 13.2981 8.67329 13.3161 8.62341C13.3035 8.61915 13.291 8.61489 13.2784 8.6107C13.2614 8.66086 13.2443 8.71101 13.2272 8.76116ZM13.0523 9.37305C13.038 9.36753 13.0236 9.36201 13.0093 9.35649C12.9951 9.40291 12.9808 9.44934 12.9665 9.49577C12.9777 9.4995 12.989 9.50329 13.0002 9.50701C13.0176 9.46238 13.035 9.41775 13.0523 9.37305ZM13.5732 7.916C13.5588 7.91221 13.5445 7.90849 13.5302 7.9047C13.5148 7.95073 13.4994 7.99676 13.484 8.04285C13.4966 8.04724 13.5092 8.05163 13.5218 8.05602C13.5389 8.00933 13.556 7.9627 13.5732 7.916ZM15.3499 11.0882C15.3626 11.0836 15.3753 11.0789 15.3879 11.0743C15.3711 11.0233 15.3544 10.9723 15.3376 10.9214C15.3243 10.9258 15.311 10.9303 15.2977 10.9348C15.3151 10.9859 15.3325 11.0371 15.3499 11.0882ZM17.8414 11.0745C17.9208 11.0054 17.9208 11.0054 17.9038 10.9071C17.8783 10.9756 17.8598 11.0251 17.8414 11.0745ZM18.4755 9.42999C18.4624 9.42533 18.4492 9.42061 18.4361 9.41595C18.4231 9.46544 18.3763 9.50515 18.4243 9.57346C18.4414 9.52564 18.4584 9.47781 18.4755 9.42999ZM13.8636 9.03275C13.8749 9.03188 13.8862 9.03102 13.8976 9.03015C13.909 8.98439 13.9229 8.93836 13.8636 8.87198C13.8636 8.94315 13.8636 8.98792 13.8636 9.03275ZM19.3595 9.79875C19.3494 9.79889 19.3394 9.79902 19.3293 9.79908C19.3122 9.84571 19.2778 9.89254 19.3595 9.95593C19.3595 9.89148 19.3595 9.84511 19.3595 9.79875ZM19.7833 8.28258C19.7944 8.27785 19.8054 8.27313 19.8165 8.26834C19.8095 8.21599 19.8104 8.15999 19.7286 8.14063C19.7468 8.18799 19.765 8.23528 19.7833 8.28258ZM18.2916 9.81837C18.3033 9.82316 18.3152 9.82789 18.3269 9.83268C18.347 9.78319 18.367 9.73377 18.3871 9.68428C18.3758 9.67969 18.3644 9.6751 18.353 9.67051C18.3326 9.7198 18.3121 9.76909 18.2916 9.81837ZM19.0613 7.68074C19.0455 7.72331 19.0297 7.76581 19.0139 7.80838C19.0895 7.78603 19.0901 7.73834 19.0613 7.68074ZM12.5973 10.52C12.6788 10.4597 12.678 10.4595 12.6531 10.3697C12.6304 10.4309 12.6139 10.4754 12.5973 10.52ZM19.3211 8.77194C19.3351 8.77174 19.3491 8.77147 19.3631 8.77127C19.3603 8.72897 19.3575 8.6866 19.3547 8.64429C19.3435 8.64489 19.3322 8.64549 19.3211 8.64609C19.3211 8.68806 19.3211 8.73003 19.3211 8.77194ZM14.4445 8.47275C14.4319 8.47654 14.4192 8.48033 14.4065 8.48412C14.4212 8.53002 14.4358 8.57598 14.4505 8.62188C14.4628 8.61822 14.475 8.61463 14.4873 8.61097C14.473 8.56487 14.4587 8.51884 14.4445 8.47275ZM13.8592 8.63312C13.8592 8.67928 13.8592 8.72538 13.8592 8.79562C13.9206 8.72504 13.9066 8.67895 13.8592 8.63312ZM13.8507 8.51179C13.8628 8.51279 13.8748 8.51385 13.8868 8.51485C13.9097 8.47009 13.9191 8.42605 13.8582 8.3588C13.8549 8.42678 13.8528 8.46929 13.8507 8.51179ZM19.3447 7.88501C19.3357 7.88488 19.3268 7.88474 19.3179 7.88461C19.3179 7.92286 19.3179 7.9611 19.3179 7.99935C19.3268 7.99935 19.3357 7.99935 19.3447 7.99935C19.3447 7.96124 19.3447 7.92312 19.3447 7.88501ZM12.9585 9.62282C12.9472 9.61922 12.9357 9.6157 12.9244 9.61211C12.9105 9.65494 12.8965 9.69778 12.8826 9.74062C12.8932 9.74401 12.9038 9.7474 12.9144 9.75079C12.9291 9.70809 12.9438 9.66545 12.9585 9.62282ZM19.3212 9.02024C19.3683 8.9788 19.3663 8.94262 19.3125 8.91176C19.3154 8.94787 19.3183 8.98406 19.3212 9.02024ZM20.0508 8.87211C20.0366 8.87624 20.0223 8.88043 20.0082 8.88455C20.0252 8.93497 20.0423 8.98532 20.0594 9.03574C20.0723 9.03182 20.0851 9.02783 20.098 9.0239C20.0822 8.97328 20.0665 8.92266 20.0508 8.87211ZM19.3526 8.13431C19.3418 8.13451 19.3311 8.13471 19.3203 8.13491C19.3023 8.17708 19.2917 8.21839 19.3526 8.26974C19.3526 8.2128 19.3526 8.17356 19.3526 8.13431ZM13.4814 8.14735C13.4691 8.14429 13.4568 8.14123 13.4446 8.13817C13.4281 8.18327 13.3972 8.22524 13.4065 8.27599C13.4171 8.27872 13.4275 8.28151 13.4381 8.28424C13.4525 8.23861 13.4669 8.19298 13.4814 8.14735ZM14.2709 7.98738C14.2584 7.99336 14.2459 7.99935 14.2334 8.00534C14.248 8.05283 14.2408 8.11037 14.3224 8.12852C14.3052 8.0815 14.288 8.0344 14.2709 7.98738ZM13.405 8.37843C13.3911 8.37311 13.3772 8.36772 13.3634 8.3624C13.3489 8.40803 13.3343 8.45359 13.3199 8.49922C13.3313 8.50295 13.3427 8.50674 13.3541 8.51046C13.371 8.46649 13.388 8.42246 13.405 8.37843ZM18.9273 8.17795C18.9156 8.17356 18.9038 8.16923 18.892 8.16484C18.8753 8.21101 18.8586 8.2571 18.8418 8.30326C18.8519 8.30706 18.862 8.31078 18.8721 8.31457C18.8904 8.26901 18.9088 8.22351 18.9273 8.17795ZM19.5162 7.54651C19.5281 7.54265 19.54 7.53886 19.552 7.535C19.5387 7.49456 19.5254 7.45418 19.5122 7.41374C19.5002 7.4176 19.4881 7.42145 19.4762 7.42531C19.4895 7.46575 19.5028 7.50613 19.5162 7.54651ZM13.9019 9.45965C13.8468 9.49597 13.8318 9.52976 13.9019 9.5716C13.9019 9.52364 13.9019 9.49165 13.9019 9.45965ZM19.189 7.34835C19.1999 7.35274 19.2107 7.3572 19.2216 7.36159C19.2318 7.3278 19.2419 7.29401 19.2521 7.26022C19.2434 7.25749 19.2347 7.25483 19.2259 7.2521C19.2136 7.28416 19.2013 7.31629 19.189 7.34835ZM13.8802 7.65193C13.8701 7.65293 13.8599 7.654 13.8498 7.65499C13.8516 7.68699 13.8535 7.71905 13.8553 7.75104C13.8636 7.75071 13.8719 7.75038 13.8802 7.75005C13.8802 7.71732 13.8802 7.68459 13.8802 7.65193ZM13.8597 8.25311C13.8728 8.25224 13.8858 8.25145 13.8989 8.25058C13.8958 8.21194 13.8927 8.17329 13.8896 8.13464C13.8796 8.13544 13.8696 8.13631 13.8597 8.1371C13.8597 8.17575 13.8597 8.2144 13.8597 8.25311ZM19.0995 7.5634C19.1116 7.56972 19.1235 7.57597 19.1356 7.58229C19.1466 7.54824 19.1577 7.51418 19.1688 7.48012C19.1595 7.4768 19.1503 7.47347 19.141 7.47015C19.1272 7.50128 19.1134 7.53234 19.0995 7.5634Z" fill="white"/>
<path d="M11.8404 24C11.544 23.9187 11.2458 23.8653 10.9774 23.6808C10.2802 23.2015 9.56654 22.7456 8.85803 22.2826C7.7452 21.5554 6.63096 20.8302 5.51766 20.1036C4.7728 19.6175 4.02813 19.1311 3.28475 18.6428C3.21412 18.5964 3.14155 18.5705 3.05816 18.563C2.93035 18.5514 2.80302 18.5347 2.67031 18.5196C2.6656 18.4702 2.657 18.4331 2.65935 18.3967C2.68563 17.9966 2.79583 17.6315 3.10466 17.3482C3.249 17.2158 3.40677 17.1481 3.61515 17.2344C3.65728 17.3414 3.70552 17.4595 3.75028 17.5788C3.7949 17.6978 3.86666 17.7911 3.97189 17.8681C4.72415 18.4184 5.47331 18.9728 6.22362 19.5256C7.18553 20.2345 8.14549 20.946 9.11008 21.6513C9.90098 22.2297 10.6973 22.8006 11.4909 23.3753C11.5215 23.3975 11.5572 23.4198 11.5751 23.4509C11.6743 23.6235 11.7688 23.7988 11.865 23.9732C11.8568 23.9822 11.8486 23.9911 11.8404 24ZM10.5834 23.0577C10.5886 23.0505 10.5938 23.0434 10.599 23.0362C10.5569 23.0052 10.5152 22.9739 10.4727 22.9435C9.75718 22.4325 9.04147 21.9218 8.32597 21.4108C7.25266 20.6444 6.17907 19.8782 5.10629 19.111C4.6632 18.794 4.22246 18.4739 3.77957 18.1566C3.66104 18.0717 3.52746 18.0226 3.38057 18.0071C3.47404 18.1245 3.55407 18.2429 3.68026 18.3289C4.71057 19.0322 5.73558 19.7429 6.76414 20.4488C8.00552 21.3006 9.2487 22.1497 10.4913 22.9999C10.5211 23.0204 10.5526 23.0386 10.5834 23.0577Z" fill="white"/>
<path d="M3.41774 16.1667C3.30156 16.0397 3.32776 15.8861 3.46612 15.8228C3.61496 15.7548 3.79336 15.8273 3.85868 15.9829C3.92009 16.1293 3.90222 16.2761 3.83207 16.41C3.77999 16.5094 3.70668 16.6007 3.63014 16.6842C3.55321 16.7681 3.46 16.8373 3.3752 16.9143C3.33059 16.9548 3.27374 16.9867 3.28362 17.0643C3.28597 17.0824 3.2558 17.1113 3.23396 17.1248C2.84422 17.3655 2.68242 17.741 2.60252 18.1655C2.59647 18.1976 2.58928 18.2294 2.57974 18.2753C2.48869 18.2817 2.39919 18.2924 2.30955 18.293C2.2443 18.2934 2.20734 18.3203 2.17045 18.3723C2.07416 18.5078 1.9737 18.641 1.86686 18.7685C1.78495 18.8663 1.67125 18.92 1.54627 18.9469C1.42176 18.9738 1.30725 18.9486 1.20727 18.8707C1.09861 18.786 1.06804 18.6293 1.13611 18.5253C1.20182 18.4249 1.30934 18.4189 1.39615 18.5251C1.36175 18.5201 1.34038 18.5143 1.31901 18.5141C1.23623 18.5135 1.19027 18.5522 1.18247 18.6268C1.17427 18.705 1.22057 18.7821 1.29597 18.7802C1.36867 18.7784 1.45482 18.7636 1.51025 18.7221C1.73489 18.5538 1.89945 18.3426 1.92243 18.0506C1.94629 17.7477 2.02134 17.4612 2.19101 17.2039C2.35618 16.9533 2.57907 16.7718 2.8619 16.6671C3.00993 16.6123 3.16145 16.5662 3.31338 16.5228C3.50872 16.467 3.61933 16.3368 3.66851 16.1479C3.67564 16.1205 3.68189 16.0918 3.68182 16.0637C3.68148 15.9872 3.63243 15.9294 3.56631 15.9227C3.49965 15.9158 3.44045 15.9617 3.4258 16.0378C3.41821 16.0771 3.42043 16.1181 3.41774 16.1667Z" fill="white"/>
<path d="M16.8273 3.66753C16.775 3.67166 16.7425 3.67618 16.7098 3.67651C16.605 3.67744 16.5002 3.67685 16.383 3.67685C16.383 3.63421 16.3808 3.60301 16.3834 3.57215C16.4053 3.30715 16.4258 3.04195 16.4518 2.77728C16.4604 2.69027 16.4408 2.63121 16.3682 2.57054C16.1529 2.39062 16.1314 2.11531 16.3136 1.89893C16.3779 1.82263 16.3941 1.75312 16.384 1.65521C16.3701 1.52078 16.3863 1.38323 16.3899 1.23696C16.561 1.22804 16.7124 1.22006 16.8714 1.21181C16.9037 1.30607 16.8715 1.40298 16.8578 1.4993C16.8438 1.59767 16.8225 1.69499 16.8004 1.81445C16.8175 1.82669 16.8472 1.84279 16.8704 1.8656C17.0776 2.06941 17.0745 2.36933 16.8497 2.55564C16.7673 2.62389 16.7478 2.68921 16.7581 2.78646C16.7818 3.01314 16.7968 3.2407 16.8148 3.46792C16.8196 3.52911 16.8225 3.59044 16.8273 3.66753ZM16.611 2.46412C16.7546 2.46139 16.8693 2.35024 16.8708 2.21229C16.8724 2.06562 16.755 1.9538 16.6028 1.95706C16.4551 1.96026 16.3446 2.07952 16.3506 2.22925C16.3557 2.35616 16.4782 2.46665 16.611 2.46412Z" fill="white"/>
<path d="M0.752705 15.7154C0.996827 15.7464 1.08781 15.8321 1.00731 15.9638C1.07914 15.9752 1.16441 15.9138 1.21615 16.0044C1.1499 16.1864 1.0825 16.3713 1.01255 16.5635C0.874397 16.546 0.828435 16.429 0.760433 16.3373C0.576988 16.321 0.533916 16.287 0.475792 16.1044C0.338443 16.124 0.20459 16.1113 0.0987562 16.0025C0.0317621 15.9335 0.00481657 15.8493 0.000448845 15.7571C-0.00922734 15.5536 0.138402 15.3961 0.360417 15.3701C0.569866 15.3456 0.691692 15.4509 0.752705 15.7154Z" fill="white"/>
<path d="M16.3644 3.8003C16.5313 3.8003 16.6736 3.8003 16.8322 3.8003C16.8682 4.01022 16.8859 4.21809 16.8911 4.43779C16.6921 4.43779 16.5042 4.43779 16.3013 4.43779C16.3227 4.22128 16.343 4.01614 16.3644 3.8003Z" fill="white"/>
<path d="M9.48437 8.24033C9.29696 8.61702 9.02133 8.91488 8.64127 9.11942C8.69657 9.069 8.75248 9.01931 8.8069 8.96802C8.86933 8.90916 8.93189 8.85036 8.99149 8.78883C9.0478 8.73069 9.10196 8.67036 9.15404 8.60844C9.20914 8.54292 9.26135 8.47487 9.31356 8.40702C9.36234 8.34363 9.40952 8.27905 9.45743 8.21499C9.46643 8.22344 9.47543 8.23189 9.48437 8.24033Z" fill="white"/>
</svg>
